<svg xmlns="http://www.w3.org/2000/svg" width="400" height="400" viewBox="0 0 400 400" version="1.1">
	<path fill-opacity="0.200" d="M 144 152 C 144 163.333, 144.111 164, 146 164 C 147.867 164, 148 164.667, 148 174 C 148 183.333, 147.867 184, 146 184 C 144.167 184, 144 184.667, 144 192 C 144 199.333, 144.167 200, 146 200 C 147.333 200, 148 200.667, 148 202 C 148 203.333, 148.667 204, 150 204 C 151.333 204, 152 204.667, 152 206 C 152 207.667, 152.667 208, 156 208 C 159.333 208, 160 208.333, 160 210 C 160 211.667, 160.667 212, 164 212 L 168 212 168 216 C 168 219.333, 167.667 220, 166 220 C 164.222 220, 164 220.667, 164 226 C 164 231.333, 163.778 232, 162 232 C 160.222 232, 160 232.667, 160 238 C 160 243.333, 160.222 244, 162 244 C 163.905 244, 164 244.667, 164 258 C 164 271.333, 163.905 272, 162 272 C 160.167 272, 160 272.667, 160 280 C 160 287.333, 159.833 288, 158 288 C 156.222 288, 156 288.667, 156 294 C 156 299.333, 155.778 300, 154 300 C 152.222 300, 152 300.667, 152 306 L 152 312 158 312 C 163.333 312, 164 312.222, 164 314 C 164 315.905, 164.667 316, 178 316 L 192 316 192 312 C 192 308.667, 192.333 308, 194 308 C 195.939 308, 196 307.333, 196 286 L 196 264 202 264 C 207.333 264, 208 264.222, 208 266 C 208 267.333, 208.667 268, 210 268 C 211.917 268, 212 268.667, 212 284 C 212 299.333, 211.917 300, 210 300 C 208.222 300, 208 300.667, 208 306 L 208 312 214 312 C 219.333 312, 220 312.222, 220 314 C 220 315.905, 220.667 316, 234 316 C 247.333 316, 248 315.905, 248 314 C 248 312.667, 248.667 312, 250 312 C 251.905 312, 252 311.333, 252 298 C 252 284.667, 251.905 284, 250 284 C 248.222 284, 248 283.333, 248 278 C 248 272.667, 247.778 272, 246 272 C 244.222 272, 244 271.333, 244 266 C 244 260.667, 243.778 260, 242 260 C 240.667 260, 240 259.333, 240 258 C 240 256.667, 239.333 256, 238 256 C 236.333 256, 236 255.333, 236 252 C 236 248.667, 236.333 248, 238 248 C 239.867 248, 240 247.333, 240 238 C 240 228.667, 239.867 228, 238 228 C 236.667 228, 236 227.333, 236 226 C 236 224.667, 235.333 224, 234 224 C 232.667 224, 232 223.333, 232 222 C 232 220.667, 231.333 220, 230 220 C 228.667 220, 228 219.333, 228 218 C 228 216.133, 227.333 216, 218 216 C 208.667 216, 208 216.133, 208 218 C 208 219.778, 207.333 220, 202 220 L 196 220 196 212 C 196 204.667, 196.167 204, 198 204 C 199.667 204, 200 203.333, 200 200 C 200 196.667, 200.333 196, 202 196 C 203.833 196, 204 195.333, 204 188 L 204 180 208 180 C 211.333 180, 212 179.667, 212 178 C 212 176.667, 212.667 176, 214 176 C 215.333 176, 216 175.333, 216 174 C 216 172.667, 216.667 172, 218 172 C 219.889 172, 220 171.333, 220 160 C 220 148.667, 219.889 148, 218 148 C 216.667 148, 216 147.333, 216 146 C 216 144.667, 215.333 144, 214 144 C 212.667 144, 212 143.333, 212 142 C 212 140.167, 211.333 140, 204 140 L 196 140 196 148 C 196 155.333, 195.833 156, 194 156 C 192.667 156, 192 155.333, 192 154 C 192 152.111, 191.333 152, 180 152 C 168.667 152, 168 151.889, 168 150 C 168 148.667, 167.333 148, 166 148 C 164.667 148, 164 147.333, 164 146 C 164 144.667, 163.333 144, 162 144 C 160.667 144, 160 143.333, 160 142 C 160 140.167, 159.333 140, 152 140 L 144 140 144 152 M 200 154 C 200 163.333, 199.867 164, 198 164 C 196.667 164, 196 163.333, 196 162 C 196 160.667, 195.333 160, 194 160 C 192.667 160, 192 159.333, 192 158 C 192 156.095, 191.333 156, 178 156 C 164.667 156, 164 156.095, 164 158 C 164 159.667, 163.333 160, 160 160 L 156 160 156 164 C 156 167.333, 155.667 168, 154 168 C 152.167 168, 152 168.667, 152 176 C 152 183.333, 151.833 184, 150 184 C 148.167 184, 148 184.667, 148 192 C 148 199.333, 148.167 200, 150 200 C 151.333 200, 152 200.667, 152 202 C 152 203.905, 152.667 204, 166 204 C 179.333 204, 180 203.905, 180 202 C 180 200.333, 180.667 200, 184 200 C 187.333 200, 188 199.667, 188 198 C 188 196.667, 188.667 196, 190 196 C 191.333 196, 192 195.333, 192 194 C 192 192.333, 192.667 192, 196 192 L 200 192 200 184 C 200 176.667, 200.167 176, 202 176 C 203.333 176, 204 175.333, 204 174 C 204 172.667, 204.667 172, 206 172 C 207.333 172, 208 171.333, 208 170 C 208 168.667, 208.667 168, 210 168 C 211.889 168, 212 167.333, 212 156 L 212 144 206 144 L 200 144 200 154 M 204 156 C 204 163.333, 204.167 164, 206 164 C 207.833 164, 208 163.333, 208 156 C 208 148.667, 207.833 148, 206 148 C 204.167 148, 204 148.667, 204 156 M 156 190 C 156 195.333, 156.222 196, 158 196 C 159.333 196, 160 196.667, 160 198 C 160 199.778, 160.667 200, 166 200 C 171.333 200, 172 199.778, 172 198 C 172 196.667, 172.667 196, 174 196 C 175.333 196, 176 195.333, 176 194 C 176 192.667, 175.333 192, 174 192 C 172.667 192, 172 192.667, 172 194 C 172 195.778, 171.333 196, 166 196 L 160 196 160 192 L 160 188 166 188 C 171.333 188, 172 187.778, 172 186 C 172 184.167, 171.333 184, 164 184 L 156 184 156 190 M 184 214 C 184 215.778, 183.333 216, 178 216 C 172.667 216, 172 216.222, 172 218 C 172 219.333, 171.333 220, 170 220 C 168.222 220, 168 220.667, 168 226 C 168 231.333, 167.778 232, 166 232 C 164.222 232, 164 232.667, 164 238 C 164 243.333, 164.222 244, 166 244 C 167.333 244, 168 244.667, 168 246 C 168 247.667, 168.667 248, 172 248 C 175.333 248, 176 248.333, 176 250 C 176 251.333, 176.667 252, 178 252 C 179.889 252, 180 252.667, 180 264 C 180 275.333, 179.889 276, 178 276 C 176.167 276, 176 276.667, 176 284 C 176 291.333, 175.833 292, 174 292 C 172.222 292, 172 292.667, 172 298 C 172 303.333, 171.778 304, 170 304 C 168.333 304, 168 304.667, 168 308 L 168 312 174 312 C 179.333 312, 180 311.778, 180 310 C 180 308.667, 180.667 308, 182 308 C 183.333 308, 184 307.333, 184 306 C 184 304.667, 184.667 304, 186 304 C 187.944 304, 188 303.333, 188 280 C 188 256.667, 188.056 256, 190 256 C 191.333 256, 192 255.333, 192 254 C 192 252.333, 192.667 252, 196 252 C 199.333 252, 200 251.667, 200 250 C 200 248.333, 200.667 248, 204 248 L 208 248 208 252 C 208 255.333, 208.333 256, 210 256 C 211.333 256, 212 256.667, 212 258 C 212 259.333, 212.667 260, 214 260 C 215.333 260, 216 260.667, 216 262 C 216 263.667, 216.667 264, 220 264 L 224 264 224 268 C 224 271.333, 224.333 272, 226 272 C 227.917 272, 228 272.667, 228 288 C 228 303.333, 227.917 304, 226 304 C 224.333 304, 224 304.667, 224 308 L 224 312 230 312 C 235.333 312, 236 311.778, 236 310 C 236 308.667, 236.667 308, 238 308 C 239.667 308, 240 307.333, 240 304 C 240 300.667, 240.333 300, 242 300 C 243.905 300, 244 299.333, 244 286 C 244 272.667, 243.905 272, 242 272 C 240.222 272, 240 271.333, 240 266 L 240 260 234 260 L 228 260 228 256 C 228 252.667, 228.333 252, 230 252 C 231.333 252, 232 251.333, 232 250 C 232 248.667, 232.667 248, 234 248 C 235.867 248, 236 247.333, 236 238 C 236 228.667, 235.867 228, 234 228 C 232.667 228, 232 227.333, 232 226 C 232 224.667, 231.333 224, 230 224 C 228.667 224, 228 223.333, 228 222 C 228 220.133, 227.333 220, 218 220 C 208.667 220, 208 220.133, 208 222 C 208 223.667, 207.333 224, 204 224 C 200.667 224, 200 224.333, 200 226 C 200 227.333, 199.333 228, 198 228 C 196.667 228, 196 228.667, 196 230 C 196 231.333, 195.333 232, 194 232 C 192.667 232, 192 232.667, 192 234 C 192 235.333, 191.333 236, 190 236 C 188.111 236, 188 235.333, 188 224 C 188 212.667, 187.889 212, 186 212 C 184.667 212, 184 212.667, 184 214" stroke="none" fill="black" fill-rule="evenodd"/>
	<path fill-opacity="0.451" d="M 144 152 C 144 163.333, 144.111 164, 146 164 C 147.867 164, 148 164.667, 148 174 C 148 183.333, 147.867 184, 146 184 C 144.167 184, 144 184.667, 144 192 C 144 199.333, 144.167 200, 146 200 C 147.333 200, 148 200.667, 148 202 C 148 203.333, 148.667 204, 150 204 C 151.333 204, 152 204.667, 152 206 C 152 207.667, 152.667 208, 156 208 C 159.333 208, 160 208.333, 160 210 C 160 211.667, 160.667 212, 164 212 L 168 212 168 216 C 168 219.333, 167.667 220, 166 220 C 164.222 220, 164 220.667, 164 226 C 164 231.333, 163.778 232, 162 232 C 160.222 232, 160 232.667, 160 238 C 160 243.333, 160.222 244, 162 244 C 163.905 244, 164 244.667, 164 258 C 164 271.333, 163.905 272, 162 272 C 160.167 272, 160 272.667, 160 280 C 160 287.333, 159.833 288, 158 288 C 156.222 288, 156 288.667, 156 294 C 156 299.333, 155.778 300, 154 300 C 152.222 300, 152 300.667, 152 306 L 152 312 158 312 C 163.333 312, 164 312.222, 164 314 C 164 315.905, 164.667 316, 178 316 L 192 316 192 312 C 192 308.667, 192.333 308, 194 308 C 195.939 308, 196 307.333, 196 286 L 196 264 202 264 C 207.333 264, 208 264.222, 208 266 C 208 267.333, 208.667 268, 210 268 C 211.917 268, 212 268.667, 212 284 C 212 299.333, 211.917 300, 210 300 C 208.222 300, 208 300.667, 208 306 L 208 312 214 312 C 219.333 312, 220 312.222, 220 314 C 220 315.905, 220.667 316, 234 316 C 247.333 316, 248 315.905, 248 314 C 248 312.667, 248.667 312, 250 312 C 251.905 312, 252 311.333, 252 298 C 252 284.667, 251.905 284, 250 284 C 248.222 284, 248 283.333, 248 278 C 248 272.667, 247.778 272, 246 272 C 244.222 272, 244 271.333, 244 266 C 244 260.667, 243.778 260, 242 260 C 240.667 260, 240 259.333, 240 258 C 240 256.667, 239.333 256, 238 256 C 236.333 256, 236 255.333, 236 252 C 236 248.667, 236.333 248, 238 248 C 239.867 248, 240 247.333, 240 238 C 240 228.667, 239.867 228, 238 228 C 236.667 228, 236 227.333, 236 226 C 236 224.667, 235.333 224, 234 224 C 232.667 224, 232 223.333, 232 222 C 232 220.667, 231.333 220, 230 220 C 228.667 220, 228 219.333, 228 218 C 228 216.133, 227.333 216, 218 216 C 208.667 216, 208 216.133, 208 218 C 208 219.778, 207.333 220, 202 220 L 196 220 196 212 C 196 204.667, 196.167 204, 198 204 C 199.667 204, 200 203.333, 200 200 C 200 196.667, 200.333 196, 202 196 C 203.833 196, 204 195.333, 204 188 L 204 180 208 180 C 211.333 180, 212 179.667, 212 178 C 212 176.667, 212.667 176, 214 176 C 215.333 176, 216 175.333, 216 174 C 216 172.667, 216.667 172, 218 172 C 219.889 172, 220 171.333, 220 160 C 220 148.667, 219.889 148, 218 148 C 216.667 148, 216 147.333, 216 146 C 216 144.667, 215.333 144, 214 144 C 212.667 144, 212 143.333, 212 142 C 212 140.167, 211.333 140, 204 140 L 196 140 196 148 C 196 155.333, 195.833 156, 194 156 C 192.667 156, 192 155.333, 192 154 C 192 152.111, 191.333 152, 180 152 C 168.667 152, 168 151.889, 168 150 C 168 148.667, 167.333 148, 166 148 C 164.667 148, 164 147.333, 164 146 C 164 144.667, 163.333 144, 162 144 C 160.667 144, 160 143.333, 160 142 C 160 140.167, 159.333 140, 152 140 L 144 140 144 152 M 148 154 C 148 163.333, 148.133 164, 150 164 C 151.833 164, 152 163.333, 152 156 C 152 148.667, 152.167 148, 154 148 C 155.667 148, 156 148.667, 156 152 C 156 155.333, 156.333 156, 158 156 C 159.778 156, 160 155.333, 160 150 L 160 144 154 144 L 148 144 148 154 M 200 154 C 200 163.333, 199.867 164, 198 164 C 196.667 164, 196 163.333, 196 162 C 196 160.667, 195.333 160, 194 160 C 192.667 160, 192 159.333, 192 158 C 192 156.095, 191.333 156, 178 156 C 164.667 156, 164 156.095, 164 158 C 164 159.667, 163.333 160, 160 160 L 156 160 156 164 C 156 167.333, 155.667 168, 154 168 C 152.167 168, 152 168.667, 152 176 C 152 183.333, 151.833 184, 150 184 C 148.167 184, 148 184.667, 148 192 C 148 199.333, 148.167 200, 150 200 C 151.333 200, 152 200.667, 152 202 C 152 203.667, 152.667 204, 156 204 C 159.333 204, 160 204.333, 160 206 C 160 207.867, 160.667 208, 170 208 C 179.333 208, 180 208.133, 180 210 C 180 211.667, 179.333 212, 176 212 L 172 212 172 216 C 172 219.333, 171.667 220, 170 220 C 168.222 220, 168 220.667, 168 226 C 168 231.333, 167.778 232, 166 232 C 164.222 232, 164 232.667, 164 238 C 164 243.333, 164.222 244, 166 244 C 167.667 244, 168 244.667, 168 248 C 168 251.333, 168.333 252, 170 252 C 171.333 252, 172 252.667, 172 254 C 172 255.333, 171.333 256, 170 256 C 168.167 256, 168 256.667, 168 264 C 168 271.333, 167.833 272, 166 272 C 164.167 272, 164 272.667, 164 280 C 164 287.333, 163.833 288, 162 288 C 160.222 288, 160 288.667, 160 294 C 160 299.333, 159.778 300, 158 300 C 156.333 300, 156 300.667, 156 304 L 156 308 160 308 C 163.333 308, 164 307.667, 164 306 C 164 304.667, 164.667 304, 166 304 C 167.667 304, 168 304.667, 168 308 L 168 312 178 312 C 187.333 312, 188 311.867, 188 310 C 188 308.667, 188.667 308, 190 308 C 191.952 308, 192 307.333, 192 280 C 192 252.667, 192.048 252, 194 252 C 195.667 252, 196 252.667, 196 256 L 196 260 202 260 C 207.333 260, 208 259.778, 208 258 C 208 256.667, 208.667 256, 210 256 C 211.333 256, 212 256.667, 212 258 C 212 259.333, 212.667 260, 214 260 C 215.333 260, 216 260.667, 216 262 C 216 263.333, 215.333 264, 214 264 C 212.667 264, 212 264.667, 212 266 C 212 267.333, 212.667 268, 214 268 C 215.917 268, 216 268.667, 216 284 C 216 299.333, 215.917 300, 214 300 C 212.333 300, 212 300.667, 212 304 L 212 308 216 308 C 219.333 308, 220 307.667, 220 306 C 220 304.667, 220.667 304, 222 304 C 223.667 304, 224 304.667, 224 308 L 224 312 236 312 L 248 312 248 298 C 248 284.667, 247.905 284, 246 284 C 244.222 284, 244 283.333, 244 278 C 244 272.667, 243.778 272, 242 272 C 240.222 272, 240 271.333, 240 266 L 240 260 236 260 L 232 260 232 254 C 232 248.667, 232.222 248, 234 248 C 235.867 248, 236 247.333, 236 238 C 236 228.667, 235.867 228, 234 228 C 232.667 228, 232 227.333, 232 226 C 232 224.667, 231.333 224, 230 224 C 228.667 224, 228 223.333, 228 222 C 228 220.133, 227.333 220, 218 220 C 208.667 220, 208 220.133, 208 222 C 208 223.778, 207.333 224, 202 224 C 196.667 224, 196 224.222, 196 226 C 196 227.333, 195.333 228, 194 228 C 192.111 228, 192 227.333, 192 216 C 192 204.667, 192.111 204, 194 204 C 195.667 204, 196 203.333, 196 200 C 196 196.667, 196.333 196, 198 196 C 199.833 196, 200 195.333, 200 188 C 200 180.667, 200.167 180, 202 180 C 203.333 180, 204 179.333, 204 178 C 204 176.333, 204.667 176, 208 176 C 211.333 176, 212 175.667, 212 174 C 212 172.667, 212.667 172, 214 172 C 215.889 172, 216 171.333, 216 160 C 216 148.667, 215.889 148, 214 148 C 212.667 148, 212 147.333, 212 146 C 212 144.222, 211.333 144, 206 144 L 200 144 200 154 M 204 156 C 204 163.333, 204.167 164, 206 164 C 207.833 164, 208 163.333, 208 156 C 208 148.667, 207.833 148, 206 148 C 204.167 148, 204 148.667, 204 156 M 156 190 C 156 195.333, 156.222 196, 158 196 C 159.333 196, 160 196.667, 160 198 C 160 199.778, 160.667 200, 166 200 C 171.333 200, 172 199.778, 172 198 C 172 196.667, 172.667 196, 174 196 C 175.333 196, 176 195.333, 176 194 C 176 192.667, 175.333 192, 174 192 C 172.667 192, 172 192.667, 172 194 C 172 195.778, 171.333 196, 166 196 L 160 196 160 192 L 160 188 166 188 C 171.333 188, 172 187.778, 172 186 C 172 184.167, 171.333 184, 164 184 L 156 184 156 190 M 180 206 C 180 207.333, 180.667 208, 182 208 C 183.333 208, 184 207.333, 184 206 C 184 204.667, 183.333 204, 182 204 C 180.667 204, 180 204.667, 180 206 M 204 252 C 204 255.333, 204.333 256, 206 256 C 207.667 256, 208 255.333, 208 252 C 208 248.667, 207.667 248, 206 248 C 204.333 248, 204 248.667, 204 252 M 172 258 C 172 259.333, 172.667 260, 174 260 C 175.833 260, 176 260.667, 176 268 C 176 275.333, 175.833 276, 174 276 C 172.167 276, 172 276.667, 172 284 C 172 291.333, 171.833 292, 170 292 C 168.222 292, 168 292.667, 168 298 C 168 303.333, 168.222 304, 170 304 C 171.778 304, 172 303.333, 172 298 C 172 292.667, 172.222 292, 174 292 C 175.833 292, 176 291.333, 176 284 C 176 276.667, 176.167 276, 178 276 C 179.867 276, 180 275.333, 180 266 L 180 256 176 256 C 172.667 256, 172 256.333, 172 258 M 216 266 C 216 267.333, 216.667 268, 218 268 C 219.333 268, 220 268.667, 220 270 C 220 271.333, 220.667 272, 222 272 C 223.917 272, 224 272.667, 224 288 C 224 303.333, 224.083 304, 226 304 C 227.917 304, 228 303.333, 228 288 C 228 272.667, 227.917 272, 226 272 C 224.333 272, 224 271.333, 224 268 L 224 264 220 264 C 216.667 264, 216 264.333, 216 266" stroke="none" fill="black" fill-rule="evenodd"/>
	<path fill-opacity="0.027" d="M 144 152 C 144 163.333, 144.111 164, 146 164 C 147.867 164, 148 164.667, 148 174 C 148 183.333, 147.867 184, 146 184 C 144.167 184, 144 184.667, 144 192 C 144 199.333, 144.167 200, 146 200 C 147.333 200, 148 200.667, 148 202 C 148 203.333, 148.667 204, 150 204 C 151.333 204, 152 204.667, 152 206 C 152 207.667, 152.667 208, 156 208 C 159.333 208, 160 208.333, 160 210 C 160 211.667, 160.667 212, 164 212 L 168 212 168 216 C 168 219.333, 167.667 220, 166 220 C 164.222 220, 164 220.667, 164 226 C 164 231.333, 163.778 232, 162 232 C 160.222 232, 160 232.667, 160 238 C 160 243.333, 160.222 244, 162 244 C 163.905 244, 164 244.667, 164 258 C 164 271.333, 163.905 272, 162 272 C 160.167 272, 160 272.667, 160 280 C 160 287.333, 159.833 288, 158 288 C 156.222 288, 156 288.667, 156 294 C 156 299.333, 155.778 300, 154 300 C 152.222 300, 152 300.667, 152 306 L 152 312 158 312 C 163.333 312, 164 312.222, 164 314 C 164 315.905, 164.667 316, 178 316 L 192 316 192 312 C 192 308.667, 192.333 308, 194 308 C 195.939 308, 196 307.333, 196 286 L 196 264 202 264 C 207.333 264, 208 264.222, 208 266 C 208 267.333, 208.667 268, 210 268 C 211.917 268, 212 268.667, 212 284 C 212 299.333, 211.917 300, 210 300 C 208.222 300, 208 300.667, 208 306 L 208 312 214 312 C 219.333 312, 220 312.222, 220 314 C 220 315.905, 220.667 316, 234 316 C 247.333 316, 248 315.905, 248 314 C 248 312.667, 248.667 312, 250 312 C 251.905 312, 252 311.333, 252 298 C 252 284.667, 251.905 284, 250 284 C 248.222 284, 248 283.333, 248 278 C 248 272.667, 247.778 272, 246 272 C 244.222 272, 244 271.333, 244 266 C 244 260.667, 243.778 260, 242 260 C 240.667 260, 240 259.333, 240 258 C 240 256.667, 239.333 256, 238 256 C 236.333 256, 236 255.333, 236 252 C 236 248.667, 236.333 248, 238 248 C 239.867 248, 240 247.333, 240 238 C 240 228.667, 239.867 228, 238 228 C 236.667 228, 236 227.333, 236 226 C 236 224.667, 235.333 224, 234 224 C 232.667 224, 232 223.333, 232 222 C 232 220.667, 231.333 220, 230 220 C 228.667 220, 228 219.333, 228 218 C 228 216.133, 227.333 216, 218 216 C 208.667 216, 208 216.133, 208 218 C 208 219.778, 207.333 220, 202 220 L 196 220 196 212 C 196 204.667, 196.167 204, 198 204 C 199.667 204, 200 203.333, 200 200 C 200 196.667, 200.333 196, 202 196 C 203.833 196, 204 195.333, 204 188 L 204 180 208 180 C 211.333 180, 212 179.667, 212 178 C 212 176.667, 212.667 176, 214 176 C 215.333 176, 216 175.333, 216 174 C 216 172.667, 216.667 172, 218 172 C 219.889 172, 220 171.333, 220 160 C 220 148.667, 219.889 148, 218 148 C 216.667 148, 216 147.333, 216 146 C 216 144.667, 215.333 144, 214 144 C 212.667 144, 212 143.333, 212 142 C 212 140.167, 211.333 140, 204 140 L 196 140 196 148 C 196 155.333, 195.833 156, 194 156 C 192.667 156, 192 155.333, 192 154 C 192 152.111, 191.333 152, 180 152 C 168.667 152, 168 151.889, 168 150 C 168 148.667, 167.333 148, 166 148 C 164.667 148, 164 147.333, 164 146 C 164 144.667, 163.333 144, 162 144 C 160.667 144, 160 143.333, 160 142 C 160 140.167, 159.333 140, 152 140 L 144 140 144 152 M 148 154 C 148 163.333, 148.133 164, 150 164 C 151.833 164, 152 163.333, 152 156 C 152 148.667, 152.167 148, 154 148 C 155.667 148, 156 148.667, 156 152 L 156 156 160 156 C 163.333 156, 164 156.333, 164 158 C 164 159.667, 163.333 160, 160 160 L 156 160 156 164 C 156 167.333, 155.667 168, 154 168 C 152.167 168, 152 168.667, 152 176 C 152 183.333, 151.833 184, 150 184 C 148.167 184, 148 184.667, 148 192 C 148 199.333, 148.167 200, 150 200 C 151.333 200, 152 200.667, 152 202 C 152 203.667, 152.667 204, 156 204 C 159.333 204, 160 204.333, 160 206 C 160 207.867, 160.667 208, 170 208 C 179.333 208, 180 208.133, 180 210 C 180 211.667, 179.333 212, 176 212 L 172 212 172 216 C 172 219.333, 171.667 220, 170 220 C 168.222 220, 168 220.667, 168 226 C 168 231.333, 167.778 232, 166 232 C 164.222 232, 164 232.667, 164 238 C 164 243.333, 164.222 244, 166 244 C 167.667 244, 168 244.667, 168 248 C 168 251.333, 168.333 252, 170 252 C 171.333 252, 172 252.667, 172 254 C 172 255.333, 171.333 256, 170 256 C 168.167 256, 168 256.667, 168 264 C 168 271.333, 167.833 272, 166 272 C 164.167 272, 164 272.667, 164 280 C 164 287.333, 163.833 288, 162 288 C 160.222 288, 160 288.667, 160 294 C 160 299.333, 159.778 300, 158 300 C 156.333 300, 156 300.667, 156 304 L 156 308 160 308 C 163.333 308, 164 307.667, 164 306 C 164 304.667, 164.667 304, 166 304 C 167.667 304, 168 304.667, 168 308 L 168 312 178 312 C 187.333 312, 188 311.867, 188 310 C 188 308.667, 188.667 308, 190 308 C 191.952 308, 192 307.333, 192 280 C 192 252.667, 192.048 252, 194 252 C 195.667 252, 196 252.667, 196 256 L 196 260 202 260 C 207.333 260, 208 259.778, 208 258 C 208 256.667, 208.667 256, 210 256 C 211.333 256, 212 256.667, 212 258 C 212 259.333, 212.667 260, 214 260 C 215.333 260, 216 260.667, 216 262 C 216 263.333, 215.333 264, 214 264 C 212.667 264, 212 264.667, 212 266 C 212 267.333, 212.667 268, 214 268 C 215.917 268, 216 268.667, 216 284 C 216 299.333, 215.917 300, 214 300 C 212.333 300, 212 300.667, 212 304 L 212 308 216 308 C 219.333 308, 220 307.667, 220 306 C 220 304.667, 220.667 304, 222 304 C 223.667 304, 224 304.667, 224 308 L 224 312 236 312 L 248 312 248 298 C 248 284.667, 247.905 284, 246 284 C 244.222 284, 244 283.333, 244 278 C 244 272.667, 243.778 272, 242 272 C 240.222 272, 240 271.333, 240 266 L 240 260 236 260 L 232 260 232 254 C 232 248.667, 232.222 248, 234 248 C 235.867 248, 236 247.333, 236 238 C 236 228.667, 235.867 228, 234 228 C 232.667 228, 232 227.333, 232 226 C 232 224.667, 231.333 224, 230 224 C 228.667 224, 228 223.333, 228 222 C 228 220.133, 227.333 220, 218 220 C 208.667 220, 208 220.133, 208 222 C 208 223.778, 207.333 224, 202 224 C 196.667 224, 196 224.222, 196 226 C 196 227.333, 195.333 228, 194 228 C 192.111 228, 192 227.333, 192 216 C 192 204.667, 192.111 204, 194 204 C 195.667 204, 196 203.333, 196 200 C 196 196.667, 196.333 196, 198 196 C 199.833 196, 200 195.333, 200 188 C 200 180.667, 200.167 180, 202 180 C 203.333 180, 204 179.333, 204 178 C 204 176.333, 204.667 176, 208 176 C 211.333 176, 212 175.667, 212 174 C 212 172.667, 212.667 172, 214 172 C 215.889 172, 216 171.333, 216 160 C 216 148.667, 215.889 148, 214 148 C 212.667 148, 212 147.333, 212 146 C 212 144.222, 211.333 144, 206 144 L 200 144 200 154 C 200 163.333, 199.867 164, 198 164 C 196.667 164, 196 163.333, 196 162 C 196 160.667, 195.333 160, 194 160 C 192.667 160, 192 159.333, 192 158 C 192 156.095, 191.333 156, 178 156 L 164 156 164 152 C 164 148.667, 163.667 148, 162 148 C 160.667 148, 160 147.333, 160 146 C 160 144.222, 159.333 144, 154 144 L 148 144 148 154 M 204 156 C 204 163.333, 204.167 164, 206 164 C 207.833 164, 208 163.333, 208 156 C 208 148.667, 207.833 148, 206 148 C 204.167 148, 204 148.667, 204 156 M 156 190 C 156 195.333, 156.222 196, 158 196 C 159.333 196, 160 196.667, 160 198 C 160 199.778, 160.667 200, 166 200 C 171.333 200, 172 199.778, 172 198 C 172 196.667, 172.667 196, 174 196 C 175.333 196, 176 195.333, 176 194 C 176 192.667, 175.333 192, 174 192 C 172.667 192, 172 192.667, 172 194 C 172 195.778, 171.333 196, 166 196 L 160 196 160 192 L 160 188 166 188 C 171.333 188, 172 187.778, 172 186 C 172 184.167, 171.333 184, 164 184 L 156 184 156 190 M 180 206 C 180 207.333, 180.667 208, 182 208 C 183.333 208, 184 207.333, 184 206 C 184 204.667, 183.333 204, 182 204 C 180.667 204, 180 204.667, 180 206 M 204 252 C 204 255.333, 204.333 256, 206 256 C 207.667 256, 208 255.333, 208 252 C 208 248.667, 207.667 248, 206 248 C 204.333 248, 204 248.667, 204 252 M 172 258 C 172 259.333, 172.667 260, 174 260 C 175.833 260, 176 260.667, 176 268 C 176 275.333, 175.833 276, 174 276 C 172.167 276, 172 276.667, 172 284 C 172 291.333, 171.833 292, 170 292 C 168.222 292, 168 292.667, 168 298 C 168 303.333, 168.222 304, 170 304 C 171.778 304, 172 303.333, 172 298 C 172 292.667, 172.222 292, 174 292 C 175.833 292, 176 291.333, 176 284 C 176 276.667, 176.167 276, 178 276 C 179.867 276, 180 275.333, 180 266 L 180 256 176 256 C 172.667 256, 172 256.333, 172 258 M 216 266 C 216 267.333, 216.667 268, 218 268 C 219.333 268, 220 268.667, 220 270 C 220 271.333, 220.667 272, 222 272 C 223.917 272, 224 272.667, 224 288 C 224 303.333, 224.083 304, 226 304 C 227.917 304, 228 303.333, 228 288 C 228 272.667, 227.917 272, 226 272 C 224.333 272, 224 271.333, 224 268 L 224 264 220 264 C 216.667 264, 216 264.333, 216 266" stroke="none" fill="black" fill-rule="evenodd"/>
	<path fill-opacity="0.266" d="M 144 152 C 144 163.333, 144.111 164, 146 164 C 147.333 164, 148 164.667, 148 166 C 148 167.333, 148.667 168, 150 168 C 151.333 168, 152 167.333, 152 166 C 152 164.667, 151.333 164, 150 164 C 148.133 164, 148 163.333, 148 154 L 148 144 154 144 C 159.333 144, 160 144.222, 160 146 C 160 147.333, 160.667 148, 162 148 C 163.333 148, 164 148.667, 164 150 C 164 151.333, 164.667 152, 166 152 C 167.333 152, 168 151.333, 168 150 C 168 148.667, 167.333 148, 166 148 C 164.667 148, 164 147.333, 164 146 C 164 144.667, 163.333 144, 162 144 C 160.667 144, 160 143.333, 160 142 C 160 140.167, 159.333 140, 152 140 L 144 140 144 152 M 152 154 C 152 159.333, 152.222 160, 154 160 C 155.778 160, 156 159.333, 156 154 C 156 148.667, 155.778 148, 154 148 C 152.222 148, 152 148.667, 152 154 M 164 262 C 164 271.333, 163.867 272, 162 272 C 160.167 272, 160 272.667, 160 280 C 160 287.333, 159.833 288, 158 288 C 156.222 288, 156 288.667, 156 294 C 156 299.333, 155.778 300, 154 300 C 152.222 300, 152 300.667, 152 306 L 152 312 158 312 C 163.333 312, 164 311.778, 164 310 C 164 308.333, 163.333 308, 160 308 L 156 308 156 304 C 156 300.667, 156.333 300, 158 300 C 159.778 300, 160 299.333, 160 294 C 160 288.667, 160.222 288, 162 288 C 163.833 288, 164 287.333, 164 280 C 164 272.667, 164.167 272, 166 272 C 167.867 272, 168 271.333, 168 262 C 168 252.667, 167.867 252, 166 252 C 164.133 252, 164 252.667, 164 262 M 208 266 C 208 267.333, 208.667 268, 210 268 C 211.917 268, 212 268.667, 212 284 C 212 299.333, 211.917 300, 210 300 C 208.222 300, 208 300.667, 208 306 L 208 312 214 312 C 219.333 312, 220 311.778, 220 310 C 220 308.333, 219.333 308, 216 308 L 212 308 212 304 C 212 300.667, 212.333 300, 214 300 C 215.917 300, 216 299.333, 216 284 C 216 268.667, 215.917 268, 214 268 C 212.667 268, 212 267.333, 212 266 C 212 264.667, 211.333 264, 210 264 C 208.667 264, 208 264.667, 208 266" stroke="none" fill="black" fill-rule="evenodd"/>
</svg>