<svg xmlns="http://www.w3.org/2000/svg" width="400" height="400" viewBox="0 0 400 400" version="1.1">
	<path fill-opacity="1.000" d="M 148 182 C 148 183.333, 148.667 184, 150 184 C 151.333 184, 152 184.667, 152 186 C 152 187.333, 152.667 188, 154 188 C 155.333 188, 156 187.333, 156 186 C 156 184.667, 155.333 184, 154 184 C 152.667 184, 152 183.333, 152 182 C 152 180.667, 151.333 180, 150 180 C 148.667 180, 148 180.667, 148 182 M 160 182 C 160 183.333, 160.667 184, 162 184 C 163.333 184, 164 183.333, 164 182 C 164 180.667, 163.333 180, 162 180 C 160.667 180, 160 180.667, 160 182 M 176 184 L 176 188 184 188 C 191.333 188, 192 187.833, 192 186 C 192 184.667, 192.667 184, 194 184 C 195.333 184, 196 183.333, 196 182 C 196 180.667, 195.333 180, 194 180 C 192.667 180, 192 180.667, 192 182 C 192 183.778, 191.333 184, 186 184 C 180.667 184, 180 183.778, 180 182 C 180 180.667, 179.333 180, 178 180 C 176.333 180, 176 180.667, 176 184" stroke="none" fill="black" fill-rule="evenodd"/>
</svg>