<svg xmlns="http://www.w3.org/2000/svg" width="400" height="400" viewBox="0 0 400 400" version="1.1">
	<path fill-opacity="1.000" d="M 152 166 C 152 167.333, 151.333 168, 150 168 C 148.667 168, 148 168.667, 148 170 C 148 171.333, 147.333 172, 146 172 C 144.667 172, 144 172.667, 144 174 C 144 175.333, 144.667 176, 146 176 C 147.333 176, 148 176.667, 148 178 C 148 179.333, 147.333 180, 146 180 C 144.667 180, 144 180.667, 144 182 C 144 183.667, 144.667 184, 148 184 C 151.333 184, 152 184.333, 152 186 C 152 187.333, 152.667 188, 154 188 C 155.333 188, 156 187.333, 156 186 C 156 184.667, 155.333 184, 154 184 C 152.167 184, 152 183.333, 152 176 L 152 168 156 168 L 160 168 160 176 C 160 183.333, 160.167 184, 162 184 C 163.867 184, 164 183.333, 164 174 L 164 164 158 164 C 152.667 164, 152 164.222, 152 166 M 176 176 L 176 188 184 188 C 191.333 188, 192 187.833, 192 186 C 192 184.333, 192.667 184, 196 184 C 199.333 184, 200 183.667, 200 182 C 200 180.667, 199.333 180, 198 180 C 196.667 180, 196 179.333, 196 178 C 196 176.667, 196.667 176, 198 176 C 199.333 176, 200 175.333, 200 174 C 200 172.667, 199.333 172, 198 172 C 196.667 172, 196 171.333, 196 170 C 196 168.667, 195.333 168, 194 168 C 192.667 168, 192 167.333, 192 166 C 192 164.167, 191.333 164, 184 164 L 176 164 176 176 M 180 176 L 180 184 186 184 L 192 184 192 176 L 192 168 186 168 L 180 168 180 176" stroke="none" fill="black" fill-rule="evenodd"/>
</svg>