<svg xmlns="http://www.w3.org/2000/svg" width="400" height="400" viewBox="0 0 400 400" version="1.1">
	<path fill-opacity="0.663" d="M 152 114 C 152 115.333, 151.333 116, 150 116 C 148.667 116, 148 116.667, 148 118 C 148 119.333, 147.333 120, 146 120 C 144.333 120, 144 120.667, 144 124 C 144 127.333, 143.667 128, 142 128 C 140.111 128, 140 128.667, 140 140 C 140 151.333, 140.111 152, 142 152 C 143.778 152, 144 151.333, 144 146 L 144 140 152 140 C 159.333 140, 160 140.167, 160 142 C 160 143.333, 160.667 144, 162 144 C 163.333 144, 164 144.667, 164 146 C 164 147.333, 164.667 148, 166 148 C 167.333 148, 168 148.667, 168 150 C 168 151.889, 168.667 152, 180 152 C 191.333 152, 192 152.111, 192 154 C 192 155.333, 192.667 156, 194 156 C 195.833 156, 196 155.333, 196 148 L 196 140 204 140 C 211.333 140, 212 140.167, 212 142 C 212 143.333, 212.667 144, 214 144 C 215.333 144, 216 144.667, 216 146 C 216 147.333, 216.667 148, 218 148 C 219.889 148, 220 148.667, 220 160 C 220 171.333, 219.889 172, 218 172 C 216.667 172, 216 172.667, 216 174 C 216 175.333, 215.333 176, 214 176 C 212.667 176, 212 176.667, 212 178 C 212 179.667, 211.333 180, 208 180 L 204 180 204 188 C 204 195.333, 203.833 196, 202 196 C 200.333 196, 200 196.667, 200 200 C 200 203.333, 199.667 204, 198 204 C 196.167 204, 196 204.667, 196 212 L 196 220 202 220 C 207.333 220, 208 219.778, 208 218 C 208 216.133, 208.667 216, 218 216 L 228 216 228 210 C 228 204.667, 228.222 204, 230 204 C 231.833 204, 232 203.333, 232 196 C 232 188.667, 232.167 188, 234 188 C 235.667 188, 236 187.333, 236 184 C 236 180.667, 236.333 180, 238 180 C 239.667 180, 240 179.333, 240 176 L 240 172 244 172 C 247.333 172, 248 171.667, 248 170 C 248 168.667, 248.667 168, 250 168 C 251.333 168, 252 168.667, 252 170 C 252 171.333, 252.667 172, 254 172 C 255.333 172, 256 172.667, 256 174 C 256 175.333, 256.667 176, 258 176 C 259.333 176, 260 176.667, 260 178 C 260 179.333, 260.667 180, 262 180 C 263.333 180, 264 179.333, 264 178 C 264 176.667, 264.667 176, 266 176 C 267.889 176, 268 175.333, 268 164 C 268 152.667, 267.889 152, 266 152 C 264.333 152, 264 151.333, 264 148 C 264 144.667, 263.667 144, 262 144 C 260.333 144, 260 143.333, 260 140 C 260 136.667, 259.667 136, 258 136 C 256.667 136, 256 135.333, 256 134 C 256 132.667, 255.333 132, 254 132 C 252.667 132, 252 131.333, 252 130 C 252 128.667, 251.333 128, 250 128 C 248.667 128, 248 127.333, 248 126 C 248 124.667, 247.333 124, 246 124 C 244.667 124, 244 123.333, 244 122 C 244 120.667, 243.333 120, 242 120 C 240.667 120, 240 119.333, 240 118 C 240 116.333, 239.333 116, 236 116 C 232.667 116, 232 115.667, 232 114 C 232 112.333, 231.333 112, 228 112 C 224.667 112, 224 112.333, 224 114 C 224 115.778, 223.333 116, 218 116 C 212.667 116, 212 116.222, 212 118 C 212 119.667, 211.333 120, 208 120 C 204.667 120, 204 120.333, 204 122 C 204 123.778, 203.333 124, 198 124 C 192.667 124, 192 123.778, 192 122 C 192 120.333, 191.333 120, 188 120 C 184.667 120, 184 119.667, 184 118 C 184 116.333, 183.333 116, 180 116 C 176.667 116, 176 115.667, 176 114 C 176 112.111, 175.333 112, 164 112 C 152.667 112, 152 112.111, 152 114" stroke="none" fill="black" fill-rule="evenodd"/>
	<path fill-opacity="0.081" d="M 152 114 C 152 115.333, 151.333 116, 150 116 C 148.667 116, 148 116.667, 148 118 C 148 119.333, 147.333 120, 146 120 C 144.333 120, 144 120.667, 144 124 C 144 127.333, 143.667 128, 142 128 C 140.111 128, 140 128.667, 140 140 C 140 151.333, 140.111 152, 142 152 C 143.889 152, 144 151.333, 144 140 C 144 128.667, 144.111 128, 146 128 C 147.667 128, 148 127.333, 148 124 C 148 120.667, 148.333 120, 150 120 C 151.333 120, 152 119.333, 152 118 C 152 116.111, 152.667 116, 164 116 C 175.333 116, 176 116.111, 176 118 C 176 119.667, 176.667 120, 180 120 C 183.333 120, 184 120.333, 184 122 C 184 123.667, 184.667 124, 188 124 C 191.333 124, 192 124.333, 192 126 C 192 127.667, 192.667 128, 196 128 C 199.333 128, 200 128.333, 200 130 C 200 131.333, 200.667 132, 202 132 C 203.333 132, 204 132.667, 204 134 C 204 135.333, 204.667 136, 206 136 C 207.333 136, 208 136.667, 208 138 C 208 139.333, 208.667 140, 210 140 C 211.333 140, 212 140.667, 212 142 C 212 143.333, 212.667 144, 214 144 C 215.333 144, 216 144.667, 216 146 C 216 147.333, 216.667 148, 218 148 C 219.778 148, 220 148.667, 220 154 C 220 159.333, 220.222 160, 222 160 C 223.778 160, 224 160.667, 224 166 C 224 171.333, 224.222 172, 226 172 C 227.889 172, 228 172.667, 228 184 C 228 195.333, 227.889 196, 226 196 C 224.222 196, 224 195.333, 224 190 C 224 184.667, 223.778 184, 222 184 C 220.333 184, 220 183.333, 220 180 L 220 176 216 176 C 212.667 176, 212 176.333, 212 178 C 212 179.667, 211.333 180, 208 180 L 204 180 204 188 C 204 195.333, 203.833 196, 202 196 C 200.333 196, 200 196.667, 200 200 C 200 203.333, 199.667 204, 198 204 C 196.167 204, 196 204.667, 196 212 L 196 220 202 220 C 207.333 220, 208 219.778, 208 218 C 208 216.133, 208.667 216, 218 216 L 228 216 228 210 C 228 204.667, 228.222 204, 230 204 C 231.833 204, 232 203.333, 232 196 C 232 188.667, 232.167 188, 234 188 C 235.667 188, 236 187.333, 236 184 C 236 180.667, 236.333 180, 238 180 C 239.667 180, 240 179.333, 240 176 L 240 172 244 172 C 247.333 172, 248 171.667, 248 170 C 248 168.667, 248.667 168, 250 168 C 251.333 168, 252 168.667, 252 170 C 252 171.333, 252.667 172, 254 172 C 255.333 172, 256 172.667, 256 174 C 256 175.333, 256.667 176, 258 176 C 259.333 176, 260 176.667, 260 178 C 260 179.333, 260.667 180, 262 180 C 263.333 180, 264 179.333, 264 178 C 264 176.667, 264.667 176, 266 176 C 267.889 176, 268 175.333, 268 164 C 268 152.667, 267.889 152, 266 152 C 264.333 152, 264 151.333, 264 148 C 264 144.667, 263.667 144, 262 144 C 260.333 144, 260 143.333, 260 140 C 260 136.667, 259.667 136, 258 136 C 256.667 136, 256 135.333, 256 134 C 256 132.667, 255.333 132, 254 132 C 252.667 132, 252 131.333, 252 130 C 252 128.667, 251.333 128, 250 128 C 248.667 128, 248 127.333, 248 126 C 248 124.667, 247.333 124, 246 124 C 244.667 124, 244 123.333, 244 122 C 244 120.667, 243.333 120, 242 120 C 240.667 120, 240 119.333, 240 118 C 240 116.333, 239.333 116, 236 116 C 232.667 116, 232 115.667, 232 114 C 232 112.333, 231.333 112, 228 112 C 224.667 112, 224 112.333, 224 114 C 224 115.778, 223.333 116, 218 116 C 212.667 116, 212 116.222, 212 118 C 212 119.667, 211.333 120, 208 120 C 204.667 120, 204 120.333, 204 122 C 204 123.778, 203.333 124, 198 124 C 192.667 124, 192 123.778, 192 122 C 192 120.333, 191.333 120, 188 120 C 184.667 120, 184 119.667, 184 118 C 184 116.333, 183.333 116, 180 116 C 176.667 116, 176 115.667, 176 114 C 176 112.111, 175.333 112, 164 112 C 152.667 112, 152 112.111, 152 114 M 224 118 C 224 119.778, 223.333 120, 218 120 C 212.667 120, 212 120.222, 212 122 C 212 123.333, 211.333 124, 210 124 C 208.667 124, 208 124.667, 208 126 C 208 127.333, 208.667 128, 210 128 C 211.333 128, 212 128.667, 212 130 C 212 131.333, 212.667 132, 214 132 C 215.333 132, 216 132.667, 216 134 C 216 135.333, 216.667 136, 218 136 C 219.333 136, 220 136.667, 220 138 C 220 139.333, 220.667 140, 222 140 C 223.333 140, 224 140.667, 224 142 C 224 143.333, 224.667 144, 226 144 C 227.333 144, 228 144.667, 228 146 C 228 147.333, 228.667 148, 230 148 C 231.333 148, 232 148.667, 232 150 C 232 151.833, 232.667 152, 240 152 L 248 152 248 148 C 248 144.667, 248.333 144, 250 144 C 251.778 144, 252 143.333, 252 138 C 252 132.667, 251.778 132, 250 132 C 248.667 132, 248 131.333, 248 130 C 248 128.667, 247.333 128, 246 128 C 244.667 128, 244 127.333, 244 126 C 244 124.667, 243.333 124, 242 124 C 240.667 124, 240 123.333, 240 122 C 240 120.333, 239.333 120, 236 120 C 232.667 120, 232 119.667, 232 118 C 232 116.333, 231.333 116, 228 116 C 224.667 116, 224 116.333, 224 118 M 156 130 C 156 131.333, 155.333 132, 154 132 C 152.333 132, 152 132.667, 152 136 L 152 140 156 140 C 159.333 140, 160 140.333, 160 142 C 160 143.333, 160.667 144, 162 144 C 163.333 144, 164 144.667, 164 146 C 164 147.333, 164.667 148, 166 148 C 167.333 148, 168 148.667, 168 150 C 168 151.889, 168.667 152, 180 152 C 191.333 152, 192 152.111, 192 154 C 192 155.333, 192.667 156, 194 156 C 195.778 156, 196 155.333, 196 150 C 196 144.667, 195.778 144, 194 144 C 192.667 144, 192 143.333, 192 142 C 192 140.667, 191.333 140, 190 140 C 188.667 140, 188 139.333, 188 138 C 188 136.333, 187.333 136, 184 136 C 180.667 136, 180 135.667, 180 134 C 180 132.333, 179.333 132, 176 132 C 172.667 132, 172 131.667, 172 130 C 172 128.167, 171.333 128, 164 128 C 156.667 128, 156 128.167, 156 130" stroke="none" fill="black" fill-rule="evenodd"/>
	<path fill-opacity="0.696" d="M 152 114 C 152 115.333, 151.333 116, 150 116 C 148.667 116, 148 116.667, 148 118 C 148 119.333, 147.333 120, 146 120 C 144.333 120, 144 120.667, 144 124 C 144 127.333, 143.667 128, 142 128 C 140.111 128, 140 128.667, 140 140 C 140 151.333, 140.111 152, 142 152 C 143.889 152, 144 151.333, 144 140 C 144 128.667, 144.111 128, 146 128 C 147.667 128, 148 127.333, 148 124 C 148 120.667, 148.333 120, 150 120 C 151.333 120, 152 119.333, 152 118 C 152 116.111, 152.667 116, 164 116 C 175.333 116, 176 116.111, 176 118 C 176 119.667, 176.667 120, 180 120 C 183.333 120, 184 120.333, 184 122 C 184 123.667, 184.667 124, 188 124 C 191.333 124, 192 124.333, 192 126 C 192 127.667, 192.667 128, 196 128 C 199.333 128, 200 128.333, 200 130 C 200 131.333, 200.667 132, 202 132 C 203.333 132, 204 132.667, 204 134 C 204 135.333, 204.667 136, 206 136 C 207.333 136, 208 136.667, 208 138 C 208 139.333, 208.667 140, 210 140 C 211.333 140, 212 140.667, 212 142 C 212 143.333, 212.667 144, 214 144 C 215.333 144, 216 144.667, 216 146 C 216 147.333, 216.667 148, 218 148 C 219.333 148, 220 147.333, 220 146 C 220 144.667, 219.333 144, 218 144 C 216.667 144, 216 143.333, 216 142 C 216 140.667, 215.333 140, 214 140 C 212.667 140, 212 139.333, 212 138 C 212 136.667, 211.333 136, 210 136 C 208.667 136, 208 135.333, 208 134 C 208 132.667, 207.333 132, 206 132 C 204.333 132, 204 131.333, 204 128 L 204 124 208 124 C 211.333 124, 212 123.667, 212 122 C 212 120.222, 212.667 120, 218 120 C 223.333 120, 224 119.778, 224 118 C 224 116.333, 224.667 116, 228 116 C 231.333 116, 232 116.333, 232 118 C 232 119.667, 232.667 120, 236 120 C 239.333 120, 240 120.333, 240 122 C 240 123.333, 240.667 124, 242 124 C 243.333 124, 244 124.667, 244 126 C 244 127.333, 244.667 128, 246 128 C 247.333 128, 248 128.667, 248 130 C 248 131.333, 248.667 132, 250 132 C 251.333 132, 252 132.667, 252 134 C 252 135.333, 252.667 136, 254 136 C 255.667 136, 256 136.667, 256 140 C 256 143.333, 256.333 144, 258 144 C 259.667 144, 260 144.667, 260 148 C 260 151.333, 260.333 152, 262 152 C 263.889 152, 264 152.667, 264 164 C 264 175.333, 263.889 176, 262 176 C 260.667 176, 260 175.333, 260 174 C 260 172.667, 259.333 172, 258 172 C 256.667 172, 256 171.333, 256 170 C 256 168.667, 255.333 168, 254 168 C 252.333 168, 252 167.333, 252 164 C 252 160.667, 251.667 160, 250 160 C 248.333 160, 248 160.667, 248 164 C 248 167.333, 247.667 168, 246 168 C 244.667 168, 244 167.333, 244 166 C 244 164.667, 243.333 164, 242 164 C 240.667 164, 240 163.333, 240 162 C 240 160.667, 239.333 160, 238 160 C 236.667 160, 236 159.333, 236 158 C 236 156.667, 235.333 156, 234 156 C 232.667 156, 232 156.667, 232 158 C 232 159.333, 232.667 160, 234 160 C 235.333 160, 236 160.667, 236 162 C 236 163.333, 236.667 164, 238 164 C 239.667 164, 240 164.667, 240 168 C 240 171.333, 239.667 172, 238 172 C 236.333 172, 236 172.667, 236 176 C 236 179.333, 235.667 180, 234 180 C 232.333 180, 232 179.333, 232 176 C 232 172.667, 231.667 172, 230 172 C 228.222 172, 228 171.333, 228 166 C 228 160.667, 227.778 160, 226 160 C 224.333 160, 224 159.333, 224 156 C 224 152.667, 223.667 152, 222 152 C 220.333 152, 220 152.667, 220 156 C 220 159.333, 220.333 160, 222 160 C 223.778 160, 224 160.667, 224 166 C 224 171.333, 224.222 172, 226 172 C 227.917 172, 228 172.667, 228 188 C 228 203.333, 227.917 204, 226 204 C 224.222 204, 224 204.667, 224 210 C 224 215.333, 224.222 216, 226 216 C 227.778 216, 228 215.333, 228 210 C 228 204.667, 228.222 204, 230 204 C 231.833 204, 232 203.333, 232 196 C 232 188.667, 232.167 188, 234 188 C 235.667 188, 236 187.333, 236 184 C 236 180.667, 236.333 180, 238 180 C 239.667 180, 240 179.333, 240 176 L 240 172 244 172 C 247.333 172, 248 171.667, 248 170 C 248 168.667, 248.667 168, 250 168 C 251.333 168, 252 168.667, 252 170 C 252 171.333, 252.667 172, 254 172 C 255.333 172, 256 172.667, 256 174 C 256 175.333, 256.667 176, 258 176 C 259.333 176, 260 176.667, 260 178 C 260 179.333, 260.667 180, 262 180 C 263.333 180, 264 179.333, 264 178 C 264 176.667, 264.667 176, 266 176 C 267.889 176, 268 175.333, 268 164 C 268 152.667, 267.889 152, 266 152 C 264.333 152, 264 151.333, 264 148 C 264 144.667, 263.667 144, 262 144 C 260.333 144, 260 143.333, 260 140 C 260 136.667, 259.667 136, 258 136 C 256.667 136, 256 135.333, 256 134 C 256 132.667, 255.333 132, 254 132 C 252.667 132, 252 131.333, 252 130 C 252 128.667, 251.333 128, 250 128 C 248.667 128, 248 127.333, 248 126 C 248 124.667, 247.333 124, 246 124 C 244.667 124, 244 123.333, 244 122 C 244 120.667, 243.333 120, 242 120 C 240.667 120, 240 119.333, 240 118 C 240 116.333, 239.333 116, 236 116 C 232.667 116, 232 115.667, 232 114 C 232 112.333, 231.333 112, 228 112 C 224.667 112, 224 112.333, 224 114 C 224 115.778, 223.333 116, 218 116 C 212.667 116, 212 116.222, 212 118 C 212 119.667, 211.333 120, 208 120 C 204.667 120, 204 120.333, 204 122 C 204 123.778, 203.333 124, 198 124 C 192.667 124, 192 123.778, 192 122 C 192 120.333, 191.333 120, 188 120 C 184.667 120, 184 119.667, 184 118 C 184 116.333, 183.333 116, 180 116 C 176.667 116, 176 115.667, 176 114 C 176 112.111, 175.333 112, 164 112 C 152.667 112, 152 112.111, 152 114" stroke="none" fill="black" fill-rule="evenodd"/>
</svg>