<svg xmlns="http://www.w3.org/2000/svg" width="400" height="400" viewBox="0 0 400 400" version="1.1">
	<path fill-opacity="0.561" d="M 152 190 C 152 191.333, 151.333 192, 150 192 C 148.667 192, 148 192.667, 148 194 C 148 195.333, 147.333 196, 146 196 C 144.667 196, 144 196.667, 144 198 C 144 199.333, 144.667 200, 146 200 C 147.333 200, 148 200.667, 148 202 C 148 203.778, 148.667 204, 154 204 C 159.333 204, 160 203.778, 160 202 C 160 200.333, 160.667 200, 164 200 C 167.333 200, 168 200.333, 168 202 C 168 203.833, 168.667 204, 176 204 C 183.333 204, 184 203.833, 184 202 C 184 200.667, 184.667 200, 186 200 C 187.333 200, 188 199.333, 188 198 C 188 196.333, 187.333 196, 184 196 C 180.667 196, 180 195.667, 180 194 C 180 192.667, 179.333 192, 178 192 C 176.667 192, 176 191.333, 176 190 C 176 188.333, 175.333 188, 172 188 C 168.667 188, 168 188.333, 168 190 C 168 191.667, 167.333 192, 164 192 C 160.667 192, 160 191.667, 160 190 C 160 188.333, 159.333 188, 156 188 C 152.667 188, 152 188.333, 152 190 M 152 194 C 152 195.667, 152.667 196, 156 196 C 159.333 196, 160 195.667, 160 194 C 160 192.333, 159.333 192, 156 192 C 152.667 192, 152 192.333, 152 194 M 168 194 C 168 195.333, 168.667 196, 170 196 C 171.333 196, 172 196.667, 172 198 C 172 199.333, 172.667 200, 174 200 C 175.667 200, 176 199.333, 176 196 L 176 192 172 192 C 168.667 192, 168 192.333, 168 194" stroke="none" fill="black" fill-rule="evenodd"/>
	<path fill-opacity="0.107" d="M 152 190 C 152 191.333, 151.333 192, 150 192 C 148.667 192, 148 192.667, 148 194 C 148 195.333, 147.333 196, 146 196 C 144.667 196, 144 196.667, 144 198 C 144 199.333, 144.667 200, 146 200 C 147.333 200, 148 200.667, 148 202 C 148 203.778, 148.667 204, 154 204 C 159.333 204, 160 203.778, 160 202 C 160 200.333, 160.667 200, 164 200 C 167.333 200, 168 200.333, 168 202 C 168 203.833, 168.667 204, 176 204 C 183.333 204, 184 203.833, 184 202 C 184 200.667, 184.667 200, 186 200 C 187.333 200, 188 199.333, 188 198 C 188 196.333, 187.333 196, 184 196 C 180.667 196, 180 195.667, 180 194 C 180 192.667, 179.333 192, 178 192 C 176.667 192, 176 191.333, 176 190 C 176 188.333, 175.333 188, 172 188 C 168.667 188, 168 188.333, 168 190 C 168 191.667, 167.333 192, 164 192 C 160.667 192, 160 191.667, 160 190 C 160 188.333, 159.333 188, 156 188 C 152.667 188, 152 188.333, 152 190 M 152 196 C 152 199.333, 152.333 200, 154 200 C 155.333 200, 156 199.333, 156 198 C 156 196.667, 156.667 196, 158 196 C 159.333 196, 160 195.333, 160 194 C 160 192.333, 159.333 192, 156 192 L 152 192 152 196 M 168 194 C 168 195.333, 168.667 196, 170 196 C 171.333 196, 172 196.667, 172 198 C 172 199.667, 172.667 200, 176 200 C 179.333 200, 180 199.667, 180 198 C 180 196.667, 179.333 196, 178 196 C 176.667 196, 176 195.333, 176 194 C 176 192.333, 175.333 192, 172 192 C 168.667 192, 168 192.333, 168 194" stroke="none" fill="black" fill-rule="evenodd"/>
</svg>