<svg xmlns="http://www.w3.org/2000/svg" width="400" height="400" viewBox="0 0 400 400" version="1.1">
	<path fill-opacity="0.278" d="M 204 150 C 204 151.333, 203.333 152, 202 152 C 200.667 152, 200 152.667, 200 154 C 200 155.333, 199.333 156, 198 156 C 196.133 156, 196 156.667, 196 166 C 196 175.333, 196.133 176, 198 176 C 199.629 176, 200 176.667, 200 179.594 C 200 182.346, 199.532 183.310, 198 183.710 C 196.893 184, 196 185.074, 196 186.117 C 196 187.333, 195.292 188, 194 188 C 192.667 188, 192 188.667, 192 190 C 192 191.333, 191.333 192, 190 192 C 188.667 192, 188 192.667, 188 194 C 188 195.667, 187.333 196, 184 196 C 180.667 196, 180 196.333, 180 198 C 180 199.667, 180.667 200, 184 200 C 187.333 200, 188 199.667, 188 198 C 188 196.333, 188.667 196, 192 196 C 195.333 196, 196 195.667, 196 194 C 196 192.667, 196.667 192, 198 192 C 199.333 192, 200 191.333, 200 190 C 200 188.667, 200.667 188, 202 188 C 203.667 188, 204 188.667, 204 192 C 204 195.333, 204.333 196, 206 196 C 207.333 196, 208 195.333, 208 194 C 208 192.667, 208.667 192, 210 192 C 211.667 192, 212 191.333, 212 188 C 212 184.667, 212.333 184, 214 184 C 215.333 184, 216 183.333, 216 182 C 216 180.667, 216.667 180, 218 180 C 219.333 180, 220 179.333, 220 178 C 220 176.667, 220.667 176, 222 176 C 223.867 176, 224 175.333, 224 166 C 224 156.667, 223.867 156, 222 156 C 220.667 156, 220 155.333, 220 154 C 220 152.667, 219.333 152, 218 152 C 216.667 152, 216 151.333, 216 150 C 216 148.222, 215.333 148, 210 148 C 204.667 148, 204 148.222, 204 150 M 140 154 C 140 155.333, 139.333 156, 138 156 C 136.133 156, 136 156.667, 136 166 C 136 175.333, 136.133 176, 138 176 C 139.333 176, 140 176.667, 140 178 C 140 179.667, 140.667 180, 144 180 L 148 180 148 172 C 148 164.667, 147.833 164, 146 164 C 144.222 164, 144 163.333, 144 158 C 144 152.667, 143.778 152, 142 152 C 140.667 152, 140 152.667, 140 154" stroke="none" fill="black" fill-rule="evenodd"/>
	<path fill-opacity="0.718" d="M 204 150 C 204 151.333, 203.333 152, 202 152 C 200.667 152, 200 152.667, 200 154 C 200 155.333, 199.333 156, 198 156 C 196.133 156, 196 156.667, 196 166 C 196 175.333, 196.133 176, 198 176 C 199.667 176, 200 176.667, 200 180 C 200 183.333, 199.667 184, 198 184 C 196.667 184, 196 184.667, 196 186 C 196 187.333, 195.333 188, 194 188 C 192.667 188, 192 188.667, 192 190 C 192 191.333, 191.333 192, 190 192 C 188.667 192, 188 192.667, 188 194 C 188 195.667, 187.333 196, 184 196 C 180.667 196, 180 196.333, 180 198 C 180 199.667, 180.667 200, 184 200 C 187.333 200, 188 199.667, 188 198 C 188 196.333, 188.667 196, 192 196 C 195.333 196, 196 195.667, 196 194 C 196 192.667, 196.667 192, 198 192 C 199.333 192, 200 191.333, 200 190 C 200 188.667, 200.667 188, 202 188 C 203.667 188, 204 188.667, 204 192 C 204 195.333, 204.333 196, 206 196 C 207.333 196, 208 195.333, 208 194 C 208 192.667, 208.667 192, 210 192 C 211.667 192, 212 191.333, 212 188 C 212 184.667, 212.333 184, 214 184 C 215.333 184, 216 183.333, 216 182 C 216 180.667, 216.667 180, 218 180 C 219.333 180, 220 179.333, 220 178 C 220 176.667, 220.667 176, 222 176 C 223.867 176, 224 175.333, 224 166 C 224 156.667, 223.867 156, 222 156 C 220.667 156, 220 155.333, 220 154 C 220 152.667, 219.333 152, 218 152 C 216.667 152, 216 151.333, 216 150 C 216 148.222, 215.333 148, 210 148 C 204.667 148, 204 148.222, 204 150 M 140 154 C 140 155.333, 139.333 156, 138 156 C 136.133 156, 136 156.667, 136 166 C 136 175.333, 136.133 176, 138 176 C 139.333 176, 140 176.667, 140 178 C 140 179.667, 140.667 180, 144 180 L 148 180 148 172 C 148 164.667, 147.833 164, 146 164 C 144.222 164, 144 163.333, 144 158 C 144 152.667, 143.778 152, 142 152 C 140.667 152, 140 152.667, 140 154" stroke="none" fill="black" fill-rule="evenodd"/>
	<path fill-opacity="0.557" d="M 204 150 C 204 151.333, 203.333 152, 202 152 C 200.667 152, 200 152.667, 200 154 C 200 155.333, 199.333 156, 198 156 C 196.133 156, 196 156.667, 196 166 C 196 175.333, 196.133 176, 198 176 C 199.778 176, 200 176.667, 200 182 C 200 187.333, 199.778 188, 198 188 C 196.667 188, 196 188.667, 196 190 C 196 191.333, 195.333 192, 194 192 C 192.667 192, 192 192.667, 192 194 C 192 195.333, 192.667 196, 194 196 C 195.333 196, 196 195.333, 196 194 C 196 192.667, 196.667 192, 198 192 C 199.333 192, 200 191.333, 200 190 C 200 188.667, 200.667 188, 202 188 C 203.667 188, 204 188.667, 204 192 C 204 195.333, 204.333 196, 206 196 C 207.333 196, 208 195.333, 208 194 C 208 192.667, 208.667 192, 210 192 C 211.667 192, 212 191.333, 212 188 C 212 184.667, 212.333 184, 214 184 C 215.333 184, 216 183.333, 216 182 C 216 180.667, 216.667 180, 218 180 C 219.333 180, 220 179.333, 220 178 C 220 176.667, 220.667 176, 222 176 C 223.867 176, 224 175.333, 224 166 C 224 156.667, 223.867 156, 222 156 C 220.667 156, 220 155.333, 220 154 C 220 152.667, 219.333 152, 218 152 C 216.667 152, 216 151.333, 216 150 C 216 148.222, 215.333 148, 210 148 C 204.667 148, 204 148.222, 204 150 M 140 154 C 140 155.333, 139.333 156, 138 156 C 136.133 156, 136 156.667, 136 166 C 136 175.333, 136.133 176, 138 176 C 139.333 176, 140 176.667, 140 178 C 140 179.667, 140.667 180, 144 180 L 148 180 148 172 C 148 164.667, 147.833 164, 146 164 C 144.222 164, 144 163.333, 144 158 C 144 152.667, 143.778 152, 142 152 C 140.667 152, 140 152.667, 140 154 M 208 154 C 208 155.333, 207.333 156, 206 156 C 204.133 156, 204 156.667, 204 166 C 204 175.333, 204.133 176, 206 176 C 207.333 176, 208 176.667, 208 178 C 208 179.667, 208.667 180, 212 180 C 215.333 180, 216 179.667, 216 178 C 216 176.667, 216.667 176, 218 176 C 219.867 176, 220 175.333, 220 166 C 220 156.667, 219.867 156, 218 156 C 216.667 156, 216 155.333, 216 154 C 216 152.333, 215.333 152, 212 152 C 208.667 152, 208 152.333, 208 154 M 184 198 C 184 199.333, 184.667 200, 186 200 C 187.333 200, 188 199.333, 188 198 C 188 196.667, 187.333 196, 186 196 C 184.667 196, 184 196.667, 184 198" stroke="none" fill="black" fill-rule="evenodd"/>
	<path fill-opacity="0.217" d="M 204 150 C 204 151.333, 203.333 152, 202 152 C 200.667 152, 200 152.667, 200 154 C 200 155.333, 199.333 156, 198 156 C 196.133 156, 196 156.667, 196 166 C 196 175.333, 196.133 176, 198 176 C 199.333 176, 200 176.667, 200 178 C 200 179.333, 200.667 180, 202 180 C 203.333 180, 204 180.667, 204 182 C 204 183.333, 203.333 184, 202 184 C 200.667 184, 200 184.667, 200 186 C 200 187.333, 199.333 188, 198 188 C 196.667 188, 196 188.667, 196 190 C 196 191.333, 195.333 192, 194 192 C 192.667 192, 192 192.667, 192 194 C 192 195.333, 192.667 196, 194 196 C 195.333 196, 196 195.333, 196 194 C 196 192.667, 196.667 192, 198 192 C 199.333 192, 200 191.333, 200 190 C 200 188.667, 200.667 188, 202 188 C 203.333 188, 204 187.333, 204 186 C 204 184.667, 204.667 184, 206 184 C 207.667 184, 208 184.667, 208 188 C 208 191.333, 207.667 192, 206 192 C 204.667 192, 204 192.667, 204 194 C 204 195.333, 204.667 196, 206 196 C 207.333 196, 208 195.333, 208 194 C 208 192.667, 208.667 192, 210 192 C 211.667 192, 212 191.333, 212 188 C 212 184.667, 212.333 184, 214 184 C 215.333 184, 216 183.333, 216 182 C 216 180.667, 216.667 180, 218 180 C 219.333 180, 220 179.333, 220 178 C 220 176.667, 220.667 176, 222 176 C 223.867 176, 224 175.333, 224 166 C 224 156.667, 223.867 156, 222 156 C 220.667 156, 220 155.333, 220 154 C 220 152.667, 219.333 152, 218 152 C 216.667 152, 216 151.333, 216 150 C 216 148.222, 215.333 148, 210 148 C 204.667 148, 204 148.222, 204 150 M 140 154 C 140 155.333, 139.333 156, 138 156 C 136.133 156, 136 156.667, 136 166 C 136 175.333, 136.133 176, 138 176 C 139.333 176, 140 176.667, 140 178 C 140 179.333, 140.667 180, 142 180 C 143.333 180, 144 179.333, 144 178 C 144 176.667, 143.333 176, 142 176 C 140.133 176, 140 175.333, 140 166 C 140 156.667, 140.133 156, 142 156 C 143.333 156, 144 155.333, 144 154 C 144 152.667, 143.333 152, 142 152 C 140.667 152, 140 152.667, 140 154 M 204 154 C 204 155.333, 203.333 156, 202 156 C 200.133 156, 200 156.667, 200 166 C 200 175.333, 200.133 176, 202 176 C 203.333 176, 204 176.667, 204 178 C 204 179.778, 204.667 180, 210 180 C 215.333 180, 216 179.778, 216 178 C 216 176.667, 216.667 176, 218 176 C 219.867 176, 220 175.333, 220 166 C 220 156.667, 219.867 156, 218 156 C 216.667 156, 216 155.333, 216 154 C 216 152.222, 215.333 152, 210 152 C 204.667 152, 204 152.222, 204 154" stroke="none" fill="black" fill-rule="evenodd"/>
</svg>