<svg xmlns="http://www.w3.org/2000/svg" width="400" height="400" viewBox="0 0 400 400" version="1.1">
	<path fill-opacity="0.498" d="M 188 214 C 188 215.889, 187.333 216, 176 216 L 164 216 164 222 C 164 227.333, 164.222 228, 166 228 C 167.333 228, 168 228.667, 168 230 C 168 231.333, 168.667 232, 170 232 C 171.333 232, 172 232.667, 172 234 C 172 235.333, 172.667 236, 174 236 C 175.333 236, 176 235.333, 176 234 C 176 232.667, 176.667 232, 178 232 C 179.333 232, 180 231.333, 180 230 C 180 228.333, 180.667 228, 184 228 C 187.333 228, 188 227.667, 188 226 C 188 224.667, 188.667 224, 190 224 C 191.333 224, 192 223.333, 192 222 C 192 220.667, 192.667 220, 194 220 C 195.667 220, 196 219.333, 196 216 L 196 212 192 212 C 188.667 212, 188 212.333, 188 214" stroke="none" fill="black" fill-rule="evenodd"/>
	<path fill-opacity="0.609" d="M 188 214 C 188 215.889, 187.333 216, 176 216 L 164 216 164 222 C 164 227.333, 164.222 228, 166 228 C 167.333 228, 168 228.667, 168 230 C 168 231.333, 168.667 232, 170 232 C 171.333 232, 172 232.667, 172 234 C 172 235.333, 172.667 236, 174 236 C 175.333 236, 176 235.333, 176 234 C 176 232.667, 176.667 232, 178 232 C 179.333 232, 180 231.333, 180 230 C 180 228.333, 180.667 228, 184 228 C 187.333 228, 188 227.667, 188 226 C 188 224.667, 188.667 224, 190 224 C 191.333 224, 192 223.333, 192 222 C 192 220.667, 192.667 220, 194 220 C 195.667 220, 196 219.333, 196 216 L 196 212 192 212 C 188.667 212, 188 212.333, 188 214 M 168 224 C 168 227.333, 168.333 228, 170 228 C 171.333 228, 172 228.667, 172 230 C 172 231.333, 172.667 232, 174 232 C 175.333 232, 176 231.333, 176 230 C 176 228.667, 176.667 228, 178 228 C 179.667 228, 180 227.333, 180 224 C 180 220.667, 179.667 220, 178 220 C 176.667 220, 176 220.667, 176 222 C 176 223.333, 175.333 224, 174 224 C 172.667 224, 172 223.333, 172 222 C 172 220.667, 171.333 220, 170 220 C 168.333 220, 168 220.667, 168 224" stroke="none" fill="black" fill-rule="evenodd"/>
	<path fill-opacity="0.121" d="M 188 214 C 188 215.889, 187.333 216, 176 216 L 164 216 164 222 C 164 227.333, 164.222 228, 166 228 C 167.333 228, 168 228.667, 168 230 C 168 231.333, 168.667 232, 170 232 C 171.333 232, 172 232.667, 172 234 C 172 235.333, 172.667 236, 174 236 C 175.333 236, 176 235.333, 176 234 C 176 232.667, 176.667 232, 178 232 C 179.333 232, 180 231.333, 180 230 C 180 228.333, 180.667 228, 184 228 C 187.333 228, 188 227.667, 188 226 C 188 224.667, 188.667 224, 190 224 C 191.333 224, 192 223.333, 192 222 C 192 220.667, 192.667 220, 194 220 C 195.667 220, 196 219.333, 196 216 L 196 212 192 212 C 188.667 212, 188 212.333, 188 214 M 168 224 C 168 227.333, 168.333 228, 170 228 C 171.333 228, 172 228.667, 172 230 C 172 231.333, 172.667 232, 174 232 C 175.333 232, 176 231.333, 176 230 C 176 228.667, 176.667 228, 178 228 C 179.667 228, 180 227.333, 180 224 C 180 220.667, 179.667 220, 178 220 C 176.667 220, 176 220.667, 176 222 C 176 223.333, 175.333 224, 174 224 C 172.667 224, 172 223.333, 172 222 C 172 220.667, 171.333 220, 170 220 C 168.333 220, 168 220.667, 168 224 M 184 222 C 184 223.333, 184.667 224, 186 224 C 187.333 224, 188 223.333, 188 222 C 188 220.667, 187.333 220, 186 220 C 184.667 220, 184 220.667, 184 222" stroke="none" fill="black" fill-rule="evenodd"/>
	<path fill-opacity="0.523" d="M 188 214 C 188 215.667, 187.333 216, 184 216 C 180.667 216, 180 216.333, 180 218 C 180 219.667, 180.667 220, 184 220 C 187.333 220, 188 220.333, 188 222 C 188 223.333, 187.333 224, 186 224 C 184.667 224, 184 224.667, 184 226 C 184 227.333, 184.667 228, 186 228 C 187.333 228, 188 227.333, 188 226 C 188 224.667, 188.667 224, 190 224 C 191.333 224, 192 223.333, 192 222 C 192 220.667, 192.667 220, 194 220 C 195.667 220, 196 219.333, 196 216 L 196 212 192 212 C 188.667 212, 188 212.333, 188 214 M 164 218 C 164 219.333, 164.667 220, 166 220 C 167.333 220, 168 219.333, 168 218 C 168 216.667, 167.333 216, 166 216 C 164.667 216, 164 216.667, 164 218 M 188 218 C 188 219.333, 188.667 220, 190 220 C 191.333 220, 192 219.333, 192 218 C 192 216.667, 191.333 216, 190 216 C 188.667 216, 188 216.667, 188 218" stroke="none" fill="black" fill-rule="evenodd"/>
</svg>