<svg xmlns="http://www.w3.org/2000/svg" width="400" height="400" viewBox="0 0 400 400" version="1.1">
	<path fill-opacity="1.000" d="M 140 178 C 140 183.333, 140.222 184, 142 184 C 143.333 184, 144 184.667, 144 186 C 144 187.333, 144.667 188, 146 188 C 147.333 188, 148 188.667, 148 190 C 148 191.667, 148.667 192, 152 192 C 155.333 192, 156 191.667, 156 190 C 156 188.333, 155.333 188, 152 188 C 148.667 188, 148 187.667, 148 186 C 148 184.667, 147.333 184, 146 184 C 144.333 184, 144 183.333, 144 180 L 144 176 152 176 L 160 176 160 180 C 160 183.333, 160.333 184, 162 184 C 163.333 184, 164 183.333, 164 182 C 164 180.667, 164.667 180, 166 180 C 167.333 180, 168 180.667, 168 182 C 168 183.333, 168.667 184, 170 184 C 171.333 184, 172 184.667, 172 186 C 172 187.333, 172.667 188, 174 188 C 175.333 188, 176 188.667, 176 190 C 176 191.778, 176.667 192, 182 192 C 187.333 192, 188 191.778, 188 190 C 188 188.667, 188.667 188, 190 188 C 191.333 188, 192 187.333, 192 186 C 192 184.333, 192.667 184, 196 184 C 199.333 184, 200 183.667, 200 182 C 200 180.333, 200.667 180, 204 180 C 207.333 180, 208 180.333, 208 182 C 208 183.333, 208.667 184, 210 184 C 211.667 184, 212 183.333, 212 180 L 212 176 204 176 C 196.667 176, 196 175.833, 196 174 C 196 172.095, 195.333 172, 182 172 C 168.667 172, 168 172.095, 168 174 C 168 175.333, 167.333 176, 166 176 C 164.667 176, 164 175.333, 164 174 C 164 172.111, 163.333 172, 152 172 L 140 172 140 178 M 172 180 C 172 183.333, 172.333 184, 174 184 C 175.333 184, 176 184.667, 176 186 C 176 187.778, 176.667 188, 182 188 C 187.333 188, 188 187.778, 188 186 C 188 184.667, 188.667 184, 190 184 C 191.667 184, 192 183.333, 192 180 L 192 176 182 176 L 172 176 172 180" stroke="none" fill="black" fill-rule="evenodd"/>
</svg>