<svg xmlns="http://www.w3.org/2000/svg" width="400" height="400" viewBox="0 0 400 400" version="1.1">
	<path fill-opacity="0.788" d="M 200 202 C 200 203.333, 199.333 204, 198 204 C 196.667 204, 196 204.667, 196 206 C 196 207.333, 195.333 208, 194 208 C 192.667 208, 192 208.667, 192 210 C 192 211.667, 191.333 212, 188 212 C 184.667 212, 184 212.333, 184 214 C 184 215.833, 183.333 216, 176 216 C 168.667 216, 168 215.833, 168 214 C 168 212.667, 167.333 212, 166 212 C 164.667 212, 164 212.667, 164 214 C 164 215.333, 163.333 216, 162 216 C 160.167 216, 160 216.667, 160 224 L 160 232 164 232 C 167.333 232, 168 232.333, 168 234 C 168 235.333, 168.667 236, 170 236 C 171.926 236, 172 236.667, 172 254 C 172 271.333, 172.074 272, 174 272 C 175.333 272, 176 271.333, 176 270 C 176 268.667, 176.667 268, 178 268 C 179.333 268, 180 268.667, 180 270 C 180 271.333, 180.667 272, 182 272 C 183.667 272, 184 271.333, 184 268 C 184 264.667, 184.333 264, 186 264 C 187.667 264, 188 263.333, 188 260 C 188 256.667, 188.333 256, 190 256 C 191.333 256, 192 256.667, 192 258 C 192 259.333, 192.667 260, 194 260 C 195.905 260, 196 259.333, 196 246 C 196 232.667, 196.095 232, 198 232 C 199.333 232, 200 231.333, 200 230 C 200 228.667, 200.667 228, 202 228 C 203.333 228, 204 227.333, 204 226 C 204 224.667, 204.667 224, 206 224 C 207.867 224, 208 223.333, 208 214 C 208 204.667, 207.867 204, 206 204 C 204.667 204, 204 203.333, 204 202 C 204 200.667, 203.333 200, 202 200 C 200.667 200, 200 200.667, 200 202" stroke="none" fill="black" fill-rule="evenodd"/>
	<path fill-opacity="0.556" d="M 200 202 C 200 203.333, 199.333 204, 198 204 C 196.667 204, 196 204.667, 196 206 C 196 207.333, 195.333 208, 194 208 C 192.667 208, 192 208.667, 192 210 C 192 211.667, 191.333 212, 188 212 C 184.667 212, 184 212.333, 184 214 C 184 215.833, 183.333 216, 176 216 C 168.667 216, 168 215.833, 168 214 C 168 212.667, 167.333 212, 166 212 C 164.667 212, 164 212.667, 164 214 C 164 215.333, 163.333 216, 162 216 C 160.167 216, 160 216.667, 160 224 L 160 232 164 232 C 167.333 232, 168 232.333, 168 234 C 168 235.333, 168.667 236, 170 236 C 171.926 236, 172 236.667, 172 254 C 172 271.333, 172.074 272, 174 272 C 175.333 272, 176 271.333, 176 270 C 176 268.667, 176.667 268, 178 268 C 179.333 268, 180 268.667, 180 270 C 180 271.333, 180.667 272, 182 272 C 183.667 272, 184 271.333, 184 268 C 184 264.667, 184.333 264, 186 264 C 187.667 264, 188 263.333, 188 260 C 188 256.667, 188.333 256, 190 256 C 191.333 256, 192 256.667, 192 258 C 192 259.333, 192.667 260, 194 260 C 195.905 260, 196 259.333, 196 246 C 196 232.667, 196.095 232, 198 232 C 199.333 232, 200 231.333, 200 230 C 200 228.667, 200.667 228, 202 228 C 203.333 228, 204 227.333, 204 226 C 204 224.667, 204.667 224, 206 224 C 207.867 224, 208 223.333, 208 214 C 208 204.667, 207.867 204, 206 204 C 204.667 204, 204 203.333, 204 202 C 204 200.667, 203.333 200, 202 200 C 200.667 200, 200 200.667, 200 202 M 200 206 C 200 207.333, 199.333 208, 198 208 C 196.667 208, 196 208.667, 196 210 C 196 211.333, 195.333 212, 194 212 C 192.667 212, 192 212.667, 192 214 C 192 215.667, 191.333 216, 188 216 C 184.667 216, 184 216.333, 184 218 C 184 219.778, 184.667 220, 190 220 C 195.333 220, 196 219.778, 196 218 C 196 216.667, 196.667 216, 198 216 C 199.333 216, 200 215.333, 200 214 C 200 212.667, 200.667 212, 202 212 C 203.667 212, 204 211.333, 204 208 C 204 204.667, 203.667 204, 202 204 C 200.667 204, 200 204.667, 200 206 M 164 222 L 164 228 170 228 C 175.333 228, 176 227.778, 176 226 C 176 224.667, 176.667 224, 178 224 C 179.333 224, 180 223.333, 180 222 C 180 220.222, 179.333 220, 174 220 C 168.667 220, 168 219.778, 168 218 C 168 216.667, 167.333 216, 166 216 C 164.222 216, 164 216.667, 164 222 M 176 252 C 176 263.333, 176.111 264, 178 264 C 179.333 264, 180 263.333, 180 262 C 180 260.667, 180.667 260, 182 260 C 183.867 260, 184 259.333, 184 250 L 184 240 180 240 L 176 240 176 252" stroke="none" fill="black" fill-rule="evenodd"/>
	<path fill-opacity="0.125" d="M 200 202 C 200 203.333, 199.333 204, 198 204 C 196.667 204, 196 204.667, 196 206 C 196 207.333, 195.333 208, 194 208 C 192.667 208, 192 208.667, 192 210 C 192 211.667, 191.333 212, 188 212 C 184.667 212, 184 212.333, 184 214 C 184 215.833, 183.333 216, 176 216 C 168.667 216, 168 215.833, 168 214 C 168 212.667, 167.333 212, 166 212 C 164.667 212, 164 212.667, 164 214 C 164 215.333, 163.333 216, 162 216 C 160.167 216, 160 216.667, 160 224 L 160 232 164 232 C 167.333 232, 168 232.333, 168 234 C 168 235.333, 168.667 236, 170 236 C 171.926 236, 172 236.667, 172 254 C 172 271.333, 172.074 272, 174 272 C 175.333 272, 176 271.333, 176 270 C 176 268.667, 176.667 268, 178 268 C 179.333 268, 180 268.667, 180 270 C 180 271.333, 180.667 272, 182 272 C 183.667 272, 184 271.333, 184 268 C 184 264.667, 184.333 264, 186 264 C 187.667 264, 188 263.333, 188 260 C 188 256.667, 188.333 256, 190 256 C 191.333 256, 192 256.667, 192 258 C 192 259.333, 192.667 260, 194 260 C 195.905 260, 196 259.333, 196 246 C 196 232.667, 196.095 232, 198 232 C 199.333 232, 200 231.333, 200 230 C 200 228.667, 200.667 228, 202 228 C 203.333 228, 204 227.333, 204 226 C 204 224.667, 204.667 224, 206 224 C 207.867 224, 208 223.333, 208 214 C 208 204.667, 207.867 204, 206 204 C 204.667 204, 204 203.333, 204 202 C 204 200.667, 203.333 200, 202 200 C 200.667 200, 200 200.667, 200 202 M 200 206 C 200 207.333, 199.333 208, 198 208 C 196.667 208, 196 208.667, 196 210 C 196 211.333, 195.333 212, 194 212 C 192.667 212, 192 212.667, 192 214 C 192 215.667, 191.333 216, 188 216 C 184.667 216, 184 216.333, 184 218 C 184 219.833, 183.333 220, 176 220 C 168.667 220, 168 219.833, 168 218 C 168 216.667, 167.333 216, 166 216 C 164.222 216, 164 216.667, 164 222 C 164 227.333, 164.222 228, 166 228 C 167.333 228, 168 228.667, 168 230 C 168 231.867, 168.667 232, 178 232 L 188 232 188 242 C 188 251.333, 188.133 252, 190 252 C 191.867 252, 192 251.333, 192 242 C 192 232.667, 191.867 232, 190 232 C 188.333 232, 188 231.333, 188 228 C 188 224.667, 188.333 224, 190 224 C 191.333 224, 192 224.667, 192 226 C 192 227.667, 192.667 228, 196 228 C 199.333 228, 200 227.667, 200 226 C 200 224.667, 200.667 224, 202 224 C 203.667 224, 204 223.333, 204 220 C 204 216.667, 203.667 216, 202 216 C 200.667 216, 200 215.333, 200 214 C 200 212.667, 200.667 212, 202 212 C 203.667 212, 204 211.333, 204 208 C 204 204.667, 203.667 204, 202 204 C 200.667 204, 200 204.667, 200 206 M 196 218 C 196 219.333, 196.667 220, 198 220 C 199.333 220, 200 219.333, 200 218 C 200 216.667, 199.333 216, 198 216 C 196.667 216, 196 216.667, 196 218 M 184 222 C 184 223.333, 184.667 224, 186 224 C 187.333 224, 188 223.333, 188 222 C 188 220.667, 187.333 220, 186 220 C 184.667 220, 184 220.667, 184 222 M 176 250 C 176 263.333, 176.095 264, 178 264 C 179.333 264, 180 263.333, 180 262 C 180 260.667, 180.667 260, 182 260 C 183.889 260, 184 259.333, 184 248 L 184 236 180 236 L 176 236 176 250" stroke="none" fill="black" fill-rule="evenodd"/>
</svg>