<svg xmlns="http://www.w3.org/2000/svg" width="400" height="400" viewBox="0 0 400 400" version="1.1">
	<path fill-opacity="0.600" d="M 156 182 C 156 183.778, 155.333 184, 150 184 L 144 184 144 194 C 144 203.333, 144.133 204, 146 204 C 147.667 204, 148 204.667, 148 208 C 148 211.333, 148.333 212, 150 212 C 151.833 212, 152 212.667, 152 220 C 152 227.333, 152.167 228, 154 228 C 155.833 228, 156 228.667, 156 236 L 156 244 162 244 C 167.333 244, 168 243.778, 168 242 C 168 240.667, 168.667 240, 170 240 C 171.333 240, 172 239.333, 172 238 C 172 236.667, 172.667 236, 174 236 C 175.667 236, 176 235.333, 176 232 C 176 228.667, 176.333 228, 178 228 C 179.333 228, 180 227.333, 180 226 C 180 224.667, 180.667 224, 182 224 C 183.333 224, 184 223.333, 184 222 C 184 220.667, 184.667 220, 186 220 C 187.667 220, 188 219.333, 188 216 C 188 212.667, 188.333 212, 190 212 C 191.333 212, 192 211.333, 192 210 C 192 208.667, 192.667 208, 194 208 C 195.333 208, 196 207.333, 196 206 C 196 204.667, 196.667 204, 198 204 C 199.333 204, 200 204.667, 200 206 C 200 207.778, 200.667 208, 206 208 L 212 208 212 204 C 212 200.667, 211.667 200, 210 200 C 208.667 200, 208 199.333, 208 198 C 208 196.333, 208.667 196, 212 196 L 216 196 216 192 C 216 188.667, 215.667 188, 214 188 C 212.667 188, 212 187.333, 212 186 C 212 184.333, 211.333 184, 208 184 C 204.667 184, 204 184.333, 204 186 C 204 187.778, 203.333 188, 198 188 C 192.667 188, 192 187.778, 192 186 C 192 184.133, 191.333 184, 182 184 C 172.667 184, 172 183.867, 172 182 C 172 180.167, 171.333 180, 164 180 C 156.667 180, 156 180.167, 156 182" stroke="none" fill="black" fill-rule="evenodd"/>
	<path fill-opacity="0.745" d="M 156 182 C 156 183.778, 155.333 184, 150 184 L 144 184 144 194 C 144 203.333, 144.133 204, 146 204 C 147.667 204, 148 204.667, 148 208 C 148 211.333, 148.333 212, 150 212 C 151.833 212, 152 212.667, 152 220 C 152 227.333, 152.167 228, 154 228 C 155.833 228, 156 228.667, 156 236 L 156 244 162 244 C 167.333 244, 168 243.778, 168 242 C 168 240.667, 168.667 240, 170 240 C 171.333 240, 172 239.333, 172 238 C 172 236.667, 172.667 236, 174 236 C 175.667 236, 176 235.333, 176 232 C 176 228.667, 176.333 228, 178 228 C 179.333 228, 180 227.333, 180 226 C 180 224.667, 180.667 224, 182 224 C 183.333 224, 184 223.333, 184 222 C 184 220.667, 184.667 220, 186 220 C 187.667 220, 188 219.333, 188 216 C 188 212.667, 188.333 212, 190 212 C 191.333 212, 192 211.333, 192 210 C 192 208.667, 192.667 208, 194 208 C 195.333 208, 196 207.333, 196 206 C 196 204.667, 196.667 204, 198 204 C 199.333 204, 200 204.667, 200 206 C 200 207.778, 200.667 208, 206 208 L 212 208 212 204 C 212 200.667, 211.667 200, 210 200 C 208.667 200, 208 199.333, 208 198 C 208 196.333, 208.667 196, 212 196 L 216 196 216 192 C 216 188.667, 215.667 188, 214 188 C 212.667 188, 212 187.333, 212 186 C 212 184.333, 211.333 184, 208 184 C 204.667 184, 204 184.333, 204 186 C 204 187.778, 203.333 188, 198 188 C 192.667 188, 192 187.778, 192 186 C 192 184.133, 191.333 184, 182 184 C 172.667 184, 172 183.867, 172 182 C 172 180.167, 171.333 180, 164 180 C 156.667 180, 156 180.167, 156 182 M 156 188 C 156 191.333, 155.667 192, 154 192 C 152.667 192, 152 191.333, 152 190 C 152 188.667, 151.333 188, 150 188 C 148.222 188, 148 188.667, 148 194 C 148 199.333, 148.222 200, 150 200 C 151.333 200, 152 200.667, 152 202 C 152 203.333, 152.667 204, 154 204 C 155.333 204, 156 204.667, 156 206 C 156 207.833, 156.667 208, 164 208 C 171.333 208, 172 207.833, 172 206 C 172 204.333, 172.667 204, 176 204 C 179.333 204, 180 203.667, 180 202 C 180 200.333, 180.667 200, 184 200 C 187.333 200, 188 199.667, 188 198 C 188 196.667, 188.667 196, 190 196 C 191.333 196, 192 195.333, 192 194 C 192 192.667, 191.333 192, 190 192 C 188.667 192, 188 191.333, 188 190 C 188 188.133, 187.333 188, 178 188 C 168.667 188, 168 187.867, 168 186 C 168 184.222, 167.333 184, 162 184 L 156 184 156 188 M 180 210 C 180 211.333, 179.333 212, 178 212 C 176.667 212, 176 212.667, 176 214 C 176 215.667, 175.333 216, 172 216 C 168.667 216, 168 216.333, 168 218 C 168 219.667, 167.333 220, 164 220 C 160.667 220, 160 219.667, 160 218 C 160 216.667, 159.333 216, 158 216 C 156.333 216, 156 216.667, 156 220 C 156 223.333, 156.333 224, 158 224 C 159.667 224, 160 224.667, 160 228 L 160 232 164 232 C 167.333 232, 168 231.667, 168 230 C 168 228.667, 168.667 228, 170 228 C 171.333 228, 172 227.333, 172 226 C 172 224.667, 172.667 224, 174 224 C 175.333 224, 176 223.333, 176 222 C 176 220.667, 176.667 220, 178 220 C 179.333 220, 180 219.333, 180 218 C 180 216.667, 180.667 216, 182 216 C 183.667 216, 184 215.333, 184 212 C 184 208.667, 183.667 208, 182 208 C 180.667 208, 180 208.667, 180 210" stroke="none" fill="black" fill-rule="evenodd"/>
	<path fill-opacity="0.116" d="M 156 182 C 156 183.778, 155.333 184, 150 184 L 144 184 144 194 C 144 203.333, 144.133 204, 146 204 C 147.667 204, 148 204.667, 148 208 C 148 211.333, 148.333 212, 150 212 C 151.833 212, 152 212.667, 152 220 C 152 227.333, 152.167 228, 154 228 C 155.833 228, 156 228.667, 156 236 L 156 244 162 244 C 167.333 244, 168 243.778, 168 242 C 168 240.667, 168.667 240, 170 240 C 171.333 240, 172 239.333, 172 238 C 172 236.667, 172.667 236, 174 236 C 175.667 236, 176 235.333, 176 232 C 176 228.667, 176.333 228, 178 228 C 179.333 228, 180 227.333, 180 226 C 180 224.667, 180.667 224, 182 224 C 183.333 224, 184 223.333, 184 222 C 184 220.667, 184.667 220, 186 220 C 187.667 220, 188 219.333, 188 216 C 188 212.667, 188.333 212, 190 212 C 191.333 212, 192 211.333, 192 210 C 192 208.667, 192.667 208, 194 208 C 195.333 208, 196 207.333, 196 206 C 196 204.667, 196.667 204, 198 204 C 199.333 204, 200 204.667, 200 206 C 200 207.778, 200.667 208, 206 208 L 212 208 212 204 C 212 200.667, 211.667 200, 210 200 C 208.667 200, 208 199.333, 208 198 C 208 196.333, 208.667 196, 212 196 L 216 196 216 192 C 216 188.667, 215.667 188, 214 188 C 212.667 188, 212 187.333, 212 186 C 212 184.333, 211.333 184, 208 184 C 204.667 184, 204 184.333, 204 186 C 204 187.778, 203.333 188, 198 188 C 192.667 188, 192 187.778, 192 186 C 192 184.133, 191.333 184, 182 184 C 172.667 184, 172 183.867, 172 182 C 172 180.167, 171.333 180, 164 180 C 156.667 180, 156 180.167, 156 182 M 156 186 C 156 187.667, 155.333 188, 152 188 L 148 188 148 196 C 148 203.333, 148.167 204, 150 204 C 151.667 204, 152 204.667, 152 208 C 152 211.333, 152.333 212, 154 212 C 155.833 212, 156 212.667, 156 220 C 156 227.333, 156.167 228, 158 228 C 159.778 228, 160 228.667, 160 234 L 160 240 164 240 C 167.333 240, 168 239.667, 168 238 C 168 236.667, 168.667 236, 170 236 C 171.667 236, 172 235.333, 172 232 C 172 228.667, 172.333 228, 174 228 C 175.333 228, 176 227.333, 176 226 C 176 224.667, 176.667 224, 178 224 C 179.333 224, 180 223.333, 180 222 C 180 220.667, 180.667 220, 182 220 C 183.667 220, 184 219.333, 184 216 C 184 212.667, 184.333 212, 186 212 C 187.333 212, 188 211.333, 188 210 C 188 208.667, 188.667 208, 190 208 C 191.333 208, 192 207.333, 192 206 C 192 204.667, 192.667 204, 194 204 C 195.667 204, 196 203.333, 196 200 C 196 196.667, 196.333 196, 198 196 C 199.667 196, 200 196.667, 200 200 L 200 204 204 204 C 207.333 204, 208 203.667, 208 202 C 208 200.667, 207.333 200, 206 200 C 204.667 200, 204 199.333, 204 198 C 204 196.667, 203.333 196, 202 196 C 200.667 196, 200 195.333, 200 194 C 200 192.333, 199.333 192, 196 192 C 192.667 192, 192 191.667, 192 190 C 192 188.133, 191.333 188, 182 188 C 172.667 188, 172 187.867, 172 186 C 172 184.167, 171.333 184, 164 184 C 156.667 184, 156 184.167, 156 186 M 204 190 C 204 191.667, 204.667 192, 208 192 C 211.333 192, 212 191.667, 212 190 C 212 188.333, 211.333 188, 208 188 C 204.667 188, 204 188.333, 204 190" stroke="none" fill="black" fill-rule="evenodd"/>
</svg>