<svg xmlns="http://www.w3.org/2000/svg" width="400" height="400" viewBox="0 0 400 400" version="1.1">
	<path fill-opacity="0.600" d="M 156 182 C 156 183.778, 155.333 184, 150 184 L 144 184 144 192 C 144 199.333, 144.167 200, 146 200 C 147.333 200, 148 200.667, 148 202 C 148 203.333, 148.667 204, 150 204 C 151.333 204, 152 204.667, 152 206 C 152 207.667, 152.667 208, 156 208 C 159.333 208, 160 208.333, 160 210 C 160 211.867, 160.667 212, 170 212 C 179.333 212, 180 211.867, 180 210 C 180 208.167, 180.667 208, 188 208 C 195.333 208, 196 207.833, 196 206 C 196 204.667, 196.667 204, 198 204 C 199.667 204, 200 203.333, 200 200 L 200 196 196 196 C 192.667 196, 192 195.667, 192 194 C 192 192.333, 192.667 192, 196 192 C 199.333 192, 200 191.667, 200 190 C 200 188.667, 200.667 188, 202 188 C 203.667 188, 204 187.333, 204 184 L 204 180 198 180 C 192.667 180, 192 180.222, 192 182 C 192 183.867, 191.333 184, 182 184 C 172.667 184, 172 183.867, 172 182 C 172 180.167, 171.333 180, 164 180 C 156.667 180, 156 180.167, 156 182" stroke="none" fill="black" fill-rule="evenodd"/>
	<path fill-opacity="0.745" d="M 156 182 C 156 183.778, 155.333 184, 150 184 L 144 184 144 192 C 144 199.333, 144.167 200, 146 200 C 147.333 200, 148 200.667, 148 202 C 148 203.333, 148.667 204, 150 204 C 151.333 204, 152 204.667, 152 206 C 152 207.667, 152.667 208, 156 208 C 159.333 208, 160 208.333, 160 210 C 160 211.867, 160.667 212, 170 212 C 179.333 212, 180 211.867, 180 210 C 180 208.167, 180.667 208, 188 208 C 195.333 208, 196 207.833, 196 206 C 196 204.667, 196.667 204, 198 204 C 199.667 204, 200 203.333, 200 200 L 200 196 196 196 C 192.667 196, 192 195.667, 192 194 C 192 192.333, 192.667 192, 196 192 C 199.333 192, 200 191.667, 200 190 C 200 188.667, 200.667 188, 202 188 C 203.667 188, 204 187.333, 204 184 L 204 180 198 180 C 192.667 180, 192 180.222, 192 182 C 192 183.867, 191.333 184, 182 184 C 172.667 184, 172 183.867, 172 182 C 172 180.167, 171.333 180, 164 180 C 156.667 180, 156 180.167, 156 182 M 156 188 C 156 191.333, 155.667 192, 154 192 C 152.667 192, 152 191.333, 152 190 C 152 188.667, 151.333 188, 150 188 C 148.333 188, 148 188.667, 148 192 C 148 195.333, 148.333 196, 150 196 C 151.333 196, 152 196.667, 152 198 C 152 199.333, 152.667 200, 154 200 C 155.333 200, 156 200.667, 156 202 C 156 203.833, 156.667 204, 164 204 C 171.333 204, 172 203.833, 172 202 C 172 200.333, 172.667 200, 176 200 C 179.333 200, 180 199.667, 180 198 C 180 196.667, 179.333 196, 178 196 C 176.667 196, 176 195.333, 176 194 C 176 192.333, 176.667 192, 180 192 C 183.333 192, 184 191.667, 184 190 C 184 188.167, 183.333 188, 176 188 C 168.667 188, 168 187.833, 168 186 C 168 184.222, 167.333 184, 162 184 L 156 184 156 188" stroke="none" fill="black" fill-rule="evenodd"/>
	<path fill-opacity="0.116" d="M 156 182 C 156 183.778, 155.333 184, 150 184 L 144 184 144 192 C 144 199.333, 144.167 200, 146 200 C 147.333 200, 148 200.667, 148 202 C 148 203.333, 148.667 204, 150 204 C 151.333 204, 152 204.667, 152 206 C 152 207.667, 152.667 208, 156 208 C 159.333 208, 160 208.333, 160 210 C 160 211.867, 160.667 212, 170 212 C 179.333 212, 180 211.867, 180 210 C 180 208.167, 180.667 208, 188 208 C 195.333 208, 196 207.833, 196 206 C 196 204.667, 196.667 204, 198 204 C 199.667 204, 200 203.333, 200 200 L 200 196 196 196 C 192.667 196, 192 195.667, 192 194 C 192 192.333, 192.667 192, 196 192 C 199.333 192, 200 191.667, 200 190 C 200 188.667, 200.667 188, 202 188 C 203.667 188, 204 187.333, 204 184 L 204 180 198 180 C 192.667 180, 192 180.222, 192 182 C 192 183.867, 191.333 184, 182 184 C 172.667 184, 172 183.867, 172 182 C 172 180.167, 171.333 180, 164 180 C 156.667 180, 156 180.167, 156 182 M 156 186 C 156 187.667, 155.333 188, 152 188 L 148 188 148 194 C 148 199.333, 148.222 200, 150 200 C 151.333 200, 152 200.667, 152 202 C 152 203.667, 152.667 204, 156 204 C 159.333 204, 160 204.333, 160 206 C 160 207.867, 160.667 208, 170 208 C 179.333 208, 180 207.867, 180 206 C 180 204.167, 180.667 204, 188 204 C 195.333 204, 196 203.833, 196 202 C 196 200.333, 195.333 200, 192 200 L 188 200 188 196 C 188 192.667, 188.333 192, 190 192 C 191.333 192, 192 191.333, 192 190 C 192 188.333, 192.667 188, 196 188 C 199.333 188, 200 187.667, 200 186 C 200 184.333, 199.333 184, 196 184 C 192.667 184, 192 184.333, 192 186 C 192 187.867, 191.333 188, 182 188 C 172.667 188, 172 187.867, 172 186 C 172 184.167, 171.333 184, 164 184 C 156.667 184, 156 184.167, 156 186" stroke="none" fill="black" fill-rule="evenodd"/>
</svg>