<svg xmlns="http://www.w3.org/2000/svg" width="400" height="400" viewBox="0 0 400 400" version="1.1">
	<path fill-opacity="1.000" d="M 148 168 C 148 171.333, 147.667 172, 146 172 C 144.222 172, 144 172.667, 144 178 C 144 183.333, 144.222 184, 146 184 C 147.333 184, 148 184.667, 148 186 C 148 187.667, 148.667 188, 152 188 C 155.333 188, 156 187.667, 156 186 C 156 184.133, 156.667 184, 166 184 C 175.333 184, 176 184.133, 176 186 C 176 187.833, 176.667 188, 184 188 C 191.333 188, 192 188.167, 192 190 C 192 191.778, 192.667 192, 198 192 L 204 192 204 186 C 204 180.667, 203.778 180, 202 180 C 200.333 180, 200 179.333, 200 176 C 200 172.667, 199.667 172, 198 172 C 196.667 172, 196 171.333, 196 170 C 196 168.667, 195.333 168, 194 168 C 192.667 168, 192 167.333, 192 166 C 192 164.061, 191.333 164, 170 164 L 148 164 148 168" stroke="none" fill="black" fill-rule="evenodd"/>
</svg>