<svg xmlns="http://www.w3.org/2000/svg" width="400" height="400" viewBox="0 0 400 400" version="1.1">
	<path fill-opacity="0.584" d="M 184 102 C 184 103.333, 183.333 104, 182 104 C 180.333 104, 180 104.667, 180 108 C 180 111.333, 180.333 112, 182 112 C 183.333 112, 184 112.667, 184 114 C 184 115.333, 183.333 116, 182 116 C 180.333 116, 180 116.667, 180 120 C 180 123.333, 179.667 124, 178 124 C 176.167 124, 176 124.667, 176 132 C 176 139.333, 175.833 140, 174 140 C 172.667 140, 172 140.667, 172 142 C 172 143.333, 171.333 144, 170 144 C 168.333 144, 168 144.667, 168 148 L 168 152 180 152 C 191.333 152, 192 152.111, 192 154 C 192 155.333, 192.667 156, 194 156 C 195.833 156, 196 155.333, 196 148 L 196 140 204 140 C 211.333 140, 212 140.167, 212 142 C 212 143.333, 212.667 144, 214 144 C 215.333 144, 216 144.667, 216 146 C 216 147.333, 216.667 148, 218 148 C 219.889 148, 220 148.667, 220 160 C 220 171.333, 220.111 172, 222 172 C 223.333 172, 224 171.333, 224 170 C 224 168.333, 224.667 168, 228 168 C 231.333 168, 232 167.667, 232 166 C 232 164.667, 232.667 164, 234 164 C 235.333 164, 236 164.667, 236 166 C 236 167.667, 236.667 168, 240 168 C 243.333 168, 244 167.667, 244 166 C 244 164.667, 244.667 164, 246 164 C 247.667 164, 248 163.333, 248 160 C 248 156.667, 247.667 156, 246 156 C 244.667 156, 244 155.333, 244 154 C 244 152.333, 243.333 152, 240 152 C 236.667 152, 236 152.333, 236 154 C 236 155.667, 235.333 156, 232 156 C 228.667 156, 228 155.667, 228 154 C 228 152.667, 227.333 152, 226 152 C 224.167 152, 224 151.333, 224 144 C 224 136.667, 224.167 136, 226 136 C 227.667 136, 228 135.333, 228 132 C 228 128.667, 228.333 128, 230 128 C 231.333 128, 232 127.333, 232 126 C 232 124.667, 232.667 124, 234 124 C 235.667 124, 236 123.333, 236 120 C 236 116.667, 235.667 116, 234 116 C 232.667 116, 232 115.333, 232 114 C 232 112.333, 231.333 112, 228 112 C 224.667 112, 224 112.333, 224 114 C 224 115.333, 223.333 116, 222 116 C 220.667 116, 220 116.667, 220 118 C 220 119.667, 219.333 120, 216 120 C 212.667 120, 212 120.333, 212 122 C 212 123.833, 211.333 124, 204 124 C 196.667 124, 196 123.833, 196 122 C 196 120.667, 195.333 120, 194 120 C 192.333 120, 192 119.333, 192 116 C 192 112.667, 192.333 112, 194 112 C 195.667 112, 196 111.333, 196 108 C 196 104.667, 195.667 104, 194 104 C 192.667 104, 192 103.333, 192 102 C 192 100.333, 191.333 100, 188 100 C 184.667 100, 184 100.333, 184 102" stroke="none" fill="black" fill-rule="evenodd"/>
	<path fill-opacity="0.745" d="M 184 102 C 184 103.333, 183.333 104, 182 104 C 180.333 104, 180 104.667, 180 108 C 180 111.333, 180.333 112, 182 112 C 183.333 112, 184 112.667, 184 114 C 184 115.333, 183.333 116, 182 116 C 180.333 116, 180 116.667, 180 120 C 180 123.333, 179.667 124, 178 124 C 176.167 124, 176 124.667, 176 132 C 176 139.333, 175.833 140, 174 140 C 172.667 140, 172 140.667, 172 142 C 172 143.333, 171.333 144, 170 144 C 168.333 144, 168 144.667, 168 148 L 168 152 180 152 C 191.333 152, 192 152.111, 192 154 C 192 155.333, 192.667 156, 194 156 C 195.333 156, 196 155.333, 196 154 C 196 152.667, 195.333 152, 194 152 C 192.667 152, 192 151.333, 192 150 C 192 148.333, 191.333 148, 188 148 C 184.667 148, 184 147.667, 184 146 C 184 144.333, 183.333 144, 180 144 C 176.667 144, 176 143.667, 176 142 C 176 140.222, 176.667 140, 182 140 C 187.333 140, 188 140.222, 188 142 C 188 143.667, 188.667 144, 192 144 C 195.333 144, 196 143.667, 196 142 C 196 140.667, 195.333 140, 194 140 C 192.667 140, 192 139.333, 192 138 C 192 136.222, 191.333 136, 186 136 L 180 136 180 130 C 180 124.667, 180.222 124, 182 124 C 183.667 124, 184 123.333, 184 120 C 184 116.667, 184.333 116, 186 116 C 187.333 116, 188 116.667, 188 118 C 188 119.333, 188.667 120, 190 120 C 191.667 120, 192 120.667, 192 124 L 192 128 202 128 C 211.333 128, 212 127.867, 212 126 C 212 124.222, 212.667 124, 218 124 L 224 124 224 130 C 224 135.333, 223.778 136, 222 136 C 220.667 136, 220 136.667, 220 138 C 220 139.333, 219.333 140, 218 140 C 216.333 140, 216 140.667, 216 144 C 216 147.333, 216.333 148, 218 148 C 219.889 148, 220 148.667, 220 160 C 220 171.333, 220.111 172, 222 172 C 223.333 172, 224 171.333, 224 170 C 224 168.333, 224.667 168, 228 168 C 231.333 168, 232 167.667, 232 166 C 232 164.667, 232.667 164, 234 164 C 235.333 164, 236 164.667, 236 166 C 236 167.667, 236.667 168, 240 168 C 243.333 168, 244 167.667, 244 166 C 244 164.667, 244.667 164, 246 164 C 247.667 164, 248 163.333, 248 160 C 248 156.667, 247.667 156, 246 156 C 244.667 156, 244 155.333, 244 154 C 244 152.333, 243.333 152, 240 152 C 236.667 152, 236 152.333, 236 154 C 236 155.667, 235.333 156, 232 156 C 228.667 156, 228 155.667, 228 154 C 228 152.667, 227.333 152, 226 152 C 224.167 152, 224 151.333, 224 144 C 224 136.667, 224.167 136, 226 136 C 227.667 136, 228 135.333, 228 132 C 228 128.667, 228.333 128, 230 128 C 231.333 128, 232 127.333, 232 126 C 232 124.667, 232.667 124, 234 124 C 235.667 124, 236 123.333, 236 120 C 236 116.667, 235.667 116, 234 116 C 232.667 116, 232 115.333, 232 114 C 232 112.333, 231.333 112, 228 112 C 224.667 112, 224 112.333, 224 114 C 224 115.333, 223.333 116, 222 116 C 220.667 116, 220 116.667, 220 118 C 220 119.667, 219.333 120, 216 120 C 212.667 120, 212 120.333, 212 122 C 212 123.833, 211.333 124, 204 124 C 196.667 124, 196 123.833, 196 122 C 196 120.667, 195.333 120, 194 120 C 192.333 120, 192 119.333, 192 116 C 192 112.667, 192.333 112, 194 112 C 195.667 112, 196 111.333, 196 108 C 196 104.667, 195.667 104, 194 104 C 192.667 104, 192 103.333, 192 102 C 192 100.333, 191.333 100, 188 100 C 184.667 100, 184 100.333, 184 102 M 184 108 C 184 111.333, 184.333 112, 186 112 C 187.333 112, 188 111.333, 188 110 C 188 108.667, 188.667 108, 190 108 C 191.333 108, 192 107.333, 192 106 C 192 104.333, 191.333 104, 188 104 L 184 104 184 108 M 224 120 C 224 123.333, 224.333 124, 226 124 C 227.333 124, 228 123.333, 228 122 C 228 120.667, 228.667 120, 230 120 C 231.333 120, 232 119.333, 232 118 C 232 116.333, 231.333 116, 228 116 L 224 116 224 120 M 236 160 C 236 163.333, 236.333 164, 238 164 C 239.333 164, 240 163.333, 240 162 C 240 160.667, 240.667 160, 242 160 C 243.333 160, 244 159.333, 244 158 C 244 156.333, 243.333 156, 240 156 L 236 156 236 160" stroke="none" fill="black" fill-rule="evenodd"/>
	<path fill-opacity="0.113" d="M 184 102 C 184 103.333, 183.333 104, 182 104 C 180.333 104, 180 104.667, 180 108 C 180 111.333, 180.333 112, 182 112 C 183.333 112, 184 112.667, 184 114 C 184 115.333, 183.333 116, 182 116 C 180.333 116, 180 116.667, 180 120 C 180 123.333, 179.667 124, 178 124 C 176.167 124, 176 124.667, 176 132 C 176 139.333, 175.833 140, 174 140 C 172.667 140, 172 140.667, 172 142 C 172 143.333, 171.333 144, 170 144 C 168.333 144, 168 144.667, 168 148 C 168 151.333, 168.333 152, 170 152 C 171.333 152, 172 151.333, 172 150 C 172 148.222, 172.667 148, 178 148 C 183.333 148, 184 148.222, 184 150 C 184 151.667, 184.667 152, 188 152 C 191.333 152, 192 152.333, 192 154 C 192 155.333, 192.667 156, 194 156 C 195.333 156, 196 155.333, 196 154 C 196 152.667, 195.333 152, 194 152 C 192.667 152, 192 151.333, 192 150 C 192 148.333, 191.333 148, 188 148 C 184.667 148, 184 147.667, 184 146 C 184 144.333, 183.333 144, 180 144 C 176.667 144, 176 143.667, 176 142 C 176 140.222, 176.667 140, 182 140 C 187.333 140, 188 140.222, 188 142 C 188 143.667, 188.667 144, 192 144 C 195.333 144, 196 143.667, 196 142 C 196 140.333, 195.333 140, 192 140 C 188.667 140, 188 139.667, 188 138 C 188 136.333, 187.333 136, 184 136 L 180 136 180 130 C 180 124.667, 180.222 124, 182 124 C 183.667 124, 184 123.333, 184 120 C 184 116.667, 184.333 116, 186 116 C 187.333 116, 188 116.667, 188 118 C 188 119.333, 188.667 120, 190 120 C 191.667 120, 192 120.667, 192 124 L 192 128 202 128 C 211.333 128, 212 127.867, 212 126 C 212 124.222, 212.667 124, 218 124 L 224 124 224 130 C 224 135.333, 223.778 136, 222 136 C 220.133 136, 220 136.667, 220 146 L 220 156 224 156 C 227.333 156, 228 156.333, 228 158 C 228 159.333, 228.667 160, 230 160 C 231.333 160, 232 160.667, 232 162 C 232 163.667, 231.333 164, 228 164 C 224.667 164, 224 164.333, 224 166 C 224 167.333, 223.333 168, 222 168 C 220.667 168, 220 168.667, 220 170 C 220 171.333, 220.667 172, 222 172 C 223.333 172, 224 171.333, 224 170 C 224 168.333, 224.667 168, 228 168 C 231.333 168, 232 167.667, 232 166 C 232 164.667, 232.667 164, 234 164 C 235.333 164, 236 164.667, 236 166 C 236 167.667, 236.667 168, 240 168 C 243.333 168, 244 167.667, 244 166 C 244 164.667, 244.667 164, 246 164 C 247.667 164, 248 163.333, 248 160 C 248 156.667, 247.667 156, 246 156 C 244.667 156, 244 155.333, 244 154 C 244 152.333, 243.333 152, 240 152 C 236.667 152, 236 152.333, 236 154 C 236 155.667, 235.333 156, 232 156 C 228.667 156, 228 155.667, 228 154 C 228 152.667, 227.333 152, 226 152 C 224.167 152, 224 151.333, 224 144 C 224 136.667, 224.167 136, 226 136 C 227.667 136, 228 135.333, 228 132 C 228 128.667, 228.333 128, 230 128 C 231.333 128, 232 127.333, 232 126 C 232 124.667, 232.667 124, 234 124 C 235.667 124, 236 123.333, 236 120 C 236 116.667, 235.667 116, 234 116 C 232.667 116, 232 115.333, 232 114 C 232 112.333, 231.333 112, 228 112 C 224.667 112, 224 112.333, 224 114 C 224 115.333, 223.333 116, 222 116 C 220.667 116, 220 116.667, 220 118 C 220 119.667, 219.333 120, 216 120 C 212.667 120, 212 120.333, 212 122 C 212 123.833, 211.333 124, 204 124 C 196.667 124, 196 123.833, 196 122 C 196 120.667, 195.333 120, 194 120 C 192.333 120, 192 119.333, 192 116 C 192 112.667, 192.333 112, 194 112 C 195.667 112, 196 111.333, 196 108 C 196 104.667, 195.667 104, 194 104 C 192.667 104, 192 103.333, 192 102 C 192 100.333, 191.333 100, 188 100 C 184.667 100, 184 100.333, 184 102 M 184 108 L 184 112 188 112 L 192 112 192 108 L 192 104 188 104 L 184 104 184 108 M 224 120 L 224 124 228 124 L 232 124 232 120 L 232 116 228 116 L 224 116 224 120 M 236 160 L 236 164 240 164 L 244 164 244 160 L 244 156 240 156 L 236 156 236 160" stroke="none" fill="black" fill-rule="evenodd"/>
</svg>