<svg xmlns="http://www.w3.org/2000/svg" width="400" height="400" viewBox="0 0 400 400" version="1.1">
	<path fill-opacity="0.561" d="M 204 182 C 204 183.333, 203.333 184, 202 184 C 200.667 184, 200 184.667, 200 186 C 200 187.333, 199.333 188, 198 188 C 196.667 188, 196 188.667, 196 190 C 196 191.333, 195.333 192, 194 192 C 192.667 192, 192 192.667, 192 194 C 192 195.778, 191.333 196, 186 196 C 180.667 196, 180 195.778, 180 194 C 180 192.667, 179.333 192, 178 192 C 176.667 192, 176 191.333, 176 190 C 176 188.333, 175.333 188, 172 188 C 168.667 188, 168 188.333, 168 190 C 168 191.667, 167.333 192, 164 192 C 160.667 192, 160 191.667, 160 190 C 160 188.333, 159.333 188, 156 188 C 152.667 188, 152 188.333, 152 190 C 152 191.333, 151.333 192, 150 192 C 148.667 192, 148 191.333, 148 190 C 148 188.667, 147.333 188, 146 188 C 144.667 188, 144 188.667, 144 190 C 144 191.333, 143.333 192, 142 192 C 140.133 192, 140 192.667, 140 202 C 140 211.333, 140.133 212, 142 212 C 143.778 212, 144 212.667, 144 218 C 144 223.333, 144.222 224, 146 224 C 147.667 224, 148 224.667, 148 228 C 148 231.333, 148.333 232, 150 232 C 151.333 232, 152 232.667, 152 234 C 152 235.333, 152.667 236, 154 236 C 155.667 236, 156 236.667, 156 240 C 156 243.333, 156.333 244, 158 244 C 159.333 244, 160 244.667, 160 246 C 160 247.333, 159.333 248, 158 248 C 156.667 248, 156 248.667, 156 250 C 156 251.333, 155.333 252, 154 252 C 152.667 252, 152 251.333, 152 250 C 152 248.667, 151.333 248, 150 248 C 148.222 248, 148 248.667, 148 254 C 148 259.333, 148.222 260, 150 260 C 151.333 260, 152 260.667, 152 262 C 152 263.778, 152.667 264, 158 264 C 163.333 264, 164 264.222, 164 266 C 164 267.667, 164.667 268, 168 268 C 171.333 268, 172 267.667, 172 266 C 172 264.667, 172.667 264, 174 264 C 175.333 264, 176 263.333, 176 262 C 176 260.667, 176.667 260, 178 260 C 179.778 260, 180 259.333, 180 254 C 180 248.667, 179.778 248, 178 248 C 176.222 248, 176 247.333, 176 242 C 176 236.667, 176.222 236, 178 236 C 179.333 236, 180 235.333, 180 234 C 180 232.667, 180.667 232, 182 232 C 183.333 232, 184 231.333, 184 230 C 184 228.667, 184.667 228, 186 228 C 187.333 228, 188 227.333, 188 226 C 188 224.667, 188.667 224, 190 224 C 191.333 224, 192 223.333, 192 222 C 192 220.667, 192.667 220, 194 220 C 195.333 220, 196 219.333, 196 218 C 196 216.667, 196.667 216, 198 216 C 199.667 216, 200 215.333, 200 212 C 200 208.667, 200.333 208, 202 208 C 203.667 208, 204 207.333, 204 204 C 204 200.667, 204.333 200, 206 200 C 207.867 200, 208 199.333, 208 190 C 208 180.667, 207.867 180, 206 180 C 204.667 180, 204 180.667, 204 182 M 152 196 C 152 199.333, 152.333 200, 154 200 C 155.333 200, 156 199.333, 156 198 C 156 196.667, 156.667 196, 158 196 C 159.333 196, 160 195.333, 160 194 C 160 192.333, 159.333 192, 156 192 L 152 192 152 196 M 168 194 C 168 195.333, 168.667 196, 170 196 C 171.333 196, 172 196.667, 172 198 C 172 199.333, 172.667 200, 174 200 C 175.667 200, 176 199.333, 176 196 L 176 192 172 192 C 168.667 192, 168 192.333, 168 194 M 144 204 C 144 211.333, 144.167 212, 146 212 C 147.667 212, 148 212.667, 148 216 C 148 219.333, 148.333 220, 150 220 C 151.333 220, 152 219.333, 152 218 C 152 216.667, 152.667 216, 154 216 C 155.667 216, 156 216.667, 156 220 C 156 223.333, 156.333 224, 158 224 C 159.333 224, 160 224.667, 160 226 C 160 227.667, 160.667 228, 164 228 L 168 228 168 222 C 168 216.667, 168.222 216, 170 216 C 171.667 216, 172 216.667, 172 220 C 172 223.333, 172.333 224, 174 224 C 175.333 224, 176 223.333, 176 222 C 176 220.667, 176.667 220, 178 220 C 179.667 220, 180 219.333, 180 216 C 180 212.667, 180.333 212, 182 212 C 183.333 212, 184 211.333, 184 210 C 184 208.667, 184.667 208, 186 208 C 187.667 208, 188 207.333, 188 204 C 188 200.667, 187.667 200, 186 200 C 184.667 200, 184 200.667, 184 202 C 184 203.333, 183.333 204, 182 204 C 180.667 204, 180 204.667, 180 206 C 180 207.333, 179.333 208, 178 208 C 176.667 208, 176 207.333, 176 206 C 176 204.133, 175.333 204, 166 204 C 156.667 204, 156 204.133, 156 206 C 156 207.333, 155.333 208, 154 208 C 152.667 208, 152 207.333, 152 206 C 152 204.667, 151.333 204, 150 204 C 148.333 204, 148 203.333, 148 200 C 148 196.667, 147.667 196, 146 196 C 144.167 196, 144 196.667, 144 204 M 160 252 L 160 256 164 256 C 167.333 256, 168 255.667, 168 254 C 168 252.667, 168.667 252, 170 252 C 171.333 252, 172 251.333, 172 250 C 172 248.222, 171.333 248, 166 248 L 160 248 160 252" stroke="none" fill="black" fill-rule="evenodd"/>
	<path fill-opacity="0.017" d="M 204 182 C 204 183.333, 203.333 184, 202 184 C 200.667 184, 200 184.667, 200 186 C 200 187.333, 199.333 188, 198 188 C 196.667 188, 196 188.667, 196 190 C 196 191.333, 195.333 192, 194 192 C 192.667 192, 192 192.667, 192 194 C 192 195.778, 191.333 196, 186 196 C 180.667 196, 180 195.778, 180 194 C 180 192.667, 179.333 192, 178 192 C 176.667 192, 176 191.333, 176 190 C 176 188.333, 175.333 188, 172 188 C 168.667 188, 168 188.333, 168 190 C 168 191.667, 167.333 192, 164 192 C 160.667 192, 160 191.667, 160 190 C 160 188.333, 159.333 188, 156 188 C 152.667 188, 152 188.333, 152 190 C 152 191.333, 151.333 192, 150 192 C 148.667 192, 148 191.333, 148 190 C 148 188.667, 147.333 188, 146 188 C 144.667 188, 144 188.667, 144 190 C 144 191.333, 143.333 192, 142 192 C 140.133 192, 140 192.667, 140 202 C 140 211.333, 140.133 212, 142 212 C 143.778 212, 144 212.667, 144 218 C 144 223.333, 144.222 224, 146 224 C 147.667 224, 148 224.667, 148 228 C 148 231.333, 148.333 232, 150 232 C 151.333 232, 152 232.667, 152 234 C 152 235.333, 152.667 236, 154 236 C 155.667 236, 156 236.667, 156 240 C 156 243.333, 156.333 244, 158 244 C 159.333 244, 160 244.667, 160 246 C 160 247.333, 159.333 248, 158 248 C 156.667 248, 156 248.667, 156 250 C 156 251.333, 155.333 252, 154 252 C 152.667 252, 152 251.333, 152 250 C 152 248.667, 151.333 248, 150 248 C 148.222 248, 148 248.667, 148 254 C 148 259.333, 148.222 260, 150 260 C 151.333 260, 152 260.667, 152 262 C 152 263.778, 152.667 264, 158 264 C 163.333 264, 164 264.222, 164 266 C 164 267.667, 164.667 268, 168 268 C 171.333 268, 172 267.667, 172 266 C 172 264.667, 172.667 264, 174 264 C 175.333 264, 176 263.333, 176 262 C 176 260.667, 176.667 260, 178 260 C 179.778 260, 180 259.333, 180 254 C 180 248.667, 179.778 248, 178 248 C 176.222 248, 176 247.333, 176 242 C 176 236.667, 176.222 236, 178 236 C 179.333 236, 180 235.333, 180 234 C 180 232.667, 180.667 232, 182 232 C 183.333 232, 184 231.333, 184 230 C 184 228.667, 184.667 228, 186 228 C 187.333 228, 188 227.333, 188 226 C 188 224.667, 188.667 224, 190 224 C 191.333 224, 192 223.333, 192 222 C 192 220.667, 192.667 220, 194 220 C 195.333 220, 196 219.333, 196 218 C 196 216.667, 196.667 216, 198 216 C 199.667 216, 200 215.333, 200 212 C 200 208.667, 200.333 208, 202 208 C 203.667 208, 204 207.333, 204 204 C 204 200.667, 204.333 200, 206 200 C 207.867 200, 208 199.333, 208 190 C 208 180.667, 207.867 180, 206 180 C 204.667 180, 204 180.667, 204 182 M 200 190 C 200 191.333, 199.333 192, 198 192 C 196.667 192, 196 192.667, 196 194 C 196 195.333, 195.333 196, 194 196 C 192.667 196, 192 196.667, 192 198 C 192 199.667, 191.333 200, 188 200 C 184.667 200, 184 200.333, 184 202 C 184 203.333, 183.333 204, 182 204 C 180.333 204, 180 203.333, 180 200 C 180 196.667, 179.667 196, 178 196 C 176.667 196, 176 195.333, 176 194 C 176 192.333, 175.333 192, 172 192 C 168.667 192, 168 192.333, 168 194 C 168 195.333, 168.667 196, 170 196 C 171.333 196, 172 196.667, 172 198 C 172 199.333, 172.667 200, 174 200 C 175.333 200, 176 200.667, 176 202 C 176 203.667, 175.333 204, 172 204 C 168.667 204, 168 203.667, 168 202 C 168 200.333, 167.333 200, 164 200 C 160.667 200, 160 200.333, 160 202 C 160 203.333, 159.333 204, 158 204 C 156.333 204, 156 203.333, 156 200 C 156 196.667, 156.333 196, 158 196 C 159.333 196, 160 195.333, 160 194 C 160 192.333, 159.333 192, 156 192 L 152 192 152 198 C 152 203.333, 151.778 204, 150 204 C 148.222 204, 148 203.333, 148 198 C 148 192.667, 147.778 192, 146 192 C 144.133 192, 144 192.667, 144 202 C 144 211.333, 144.133 212, 146 212 C 147.778 212, 148 212.667, 148 218 C 148 223.333, 148.222 224, 150 224 C 151.667 224, 152 224.667, 152 228 C 152 231.333, 152.333 232, 154 232 C 155.333 232, 156 232.667, 156 234 C 156 235.867, 156.667 236, 166 236 C 175.333 236, 176 235.867, 176 234 C 176 232.667, 176.667 232, 178 232 C 179.333 232, 180 231.333, 180 230 C 180 228.667, 180.667 228, 182 228 C 183.333 228, 184 227.333, 184 226 C 184 224.667, 184.667 224, 186 224 C 187.333 224, 188 223.333, 188 222 C 188 220.667, 188.667 220, 190 220 C 191.333 220, 192 219.333, 192 218 C 192 216.667, 192.667 216, 194 216 C 195.667 216, 196 215.333, 196 212 C 196 208.667, 196.333 208, 198 208 C 199.667 208, 200 207.333, 200 204 C 200 200.667, 200.333 200, 202 200 C 203.778 200, 204 199.333, 204 194 C 204 188.667, 203.778 188, 202 188 C 200.667 188, 200 188.667, 200 190 M 152 206 C 152 207.333, 152.667 208, 154 208 C 155.333 208, 156 207.333, 156 206 C 156 204.667, 155.333 204, 154 204 C 152.667 204, 152 204.667, 152 206 M 176 206 C 176 207.333, 176.667 208, 178 208 C 179.333 208, 180 207.333, 180 206 C 180 204.667, 179.333 204, 178 204 C 176.667 204, 176 204.667, 176 206 M 160 252 L 160 256 156 256 C 152.667 256, 152 256.333, 152 258 C 152 259.778, 152.667 260, 158 260 C 163.333 260, 164 259.778, 164 258 C 164 256.667, 164.667 256, 166 256 C 167.667 256, 168 256.667, 168 260 C 168 263.333, 168.333 264, 170 264 C 171.333 264, 172 263.333, 172 262 C 172 260.667, 172.667 260, 174 260 C 175.778 260, 176 259.333, 176 254 L 176 248 168 248 L 160 248 160 252" stroke="none" fill="black" fill-rule="evenodd"/>
	<path fill-opacity="0.555" d="M 156 240 C 156 243.333, 156.333 244, 158 244 C 159.333 244, 160 244.667, 160 246 C 160 247.833, 160.667 248, 168 248 L 176 248 176 242 L 176 236 166 236 L 156 236 156 240" stroke="none" fill="black" fill-rule="evenodd"/>
	<path fill-opacity="0.122" d="M 156 240 C 156 243.333, 156.333 244, 158 244 C 159.333 244, 160 244.667, 160 246 C 160 247.833, 160.667 248, 168 248 L 176 248 176 242 L 176 236 166 236 L 156 236 156 240 M 160 242 C 160 243.778, 160.667 244, 166 244 C 171.333 244, 172 243.778, 172 242 C 172 240.222, 171.333 240, 166 240 C 160.667 240, 160 240.222, 160 242" stroke="none" fill="black" fill-rule="evenodd"/>
</svg>