<svg xmlns="http://www.w3.org/2000/svg" width="400" height="400" viewBox="0 0 400 400" version="1.1">
	<path fill-opacity="0.584" d="M 180 122 C 180 123.333, 179.333 124, 178 124 C 176.667 124, 176 124.667, 176 126 C 176 127.333, 175.333 128, 174 128 C 172.333 128, 172 128.667, 172 132 C 172 135.333, 171.667 136, 170 136 C 168.167 136, 168 136.667, 168 144 L 168 152 180 152 C 191.333 152, 192 152.111, 192 154 C 192 155.333, 192.667 156, 194 156 C 195.833 156, 196 155.333, 196 148 C 196 140.667, 196.167 140, 198 140 C 199.667 140, 200 139.333, 200 136 C 200 132.667, 199.667 132, 198 132 C 196.667 132, 196 131.333, 196 130 C 196 128.667, 195.333 128, 194 128 C 192.667 128, 192 127.333, 192 126 C 192 124.667, 191.333 124, 190 124 C 188.667 124, 188 123.333, 188 122 C 188 120.333, 187.333 120, 184 120 C 180.667 120, 180 120.333, 180 122 M 236 122 C 236 123.667, 235.333 124, 232 124 C 228.667 124, 228 124.333, 228 126 C 228 127.333, 227.333 128, 226 128 C 224.667 128, 224 128.667, 224 130 C 224 131.333, 223.333 132, 222 132 C 220.667 132, 220 132.667, 220 134 C 220 135.333, 219.333 136, 218 136 C 216.667 136, 216 136.667, 216 138 C 216 139.333, 215.333 140, 214 140 C 212.667 140, 212 140.667, 212 142 C 212 143.333, 212.667 144, 214 144 C 215.333 144, 216 144.667, 216 146 C 216 147.333, 216.667 148, 218 148 C 219.889 148, 220 148.667, 220 160 C 220 171.333, 219.889 172, 218 172 C 216.667 172, 216 172.667, 216 174 C 216 175.333, 215.333 176, 214 176 C 212.667 176, 212 176.667, 212 178 C 212 179.667, 211.333 180, 208 180 L 204 180 204 184 C 204 187.333, 204.333 188, 206 188 C 207.667 188, 208 188.667, 208 192 C 208 195.333, 208.333 196, 210 196 C 211.833 196, 212 196.667, 212 204 L 212 212 218 212 C 223.333 212, 224 211.778, 224 210 C 224 208.667, 224.667 208, 226 208 C 227.333 208, 228 207.333, 228 206 C 228 204.222, 228.667 204, 234 204 C 239.333 204, 240 203.778, 240 202 C 240 200.333, 240.667 200, 244 200 C 247.333 200, 248 199.667, 248 198 C 248 196.667, 247.333 196, 246 196 C 244.667 196, 244 195.333, 244 194 C 244 192.333, 243.333 192, 240 192 C 236.667 192, 236 191.667, 236 190 C 236 188.333, 235.333 188, 232 188 C 228.667 188, 228 187.667, 228 186 C 228 184.667, 227.333 184, 226 184 C 224.667 184, 224 183.333, 224 182 C 224 180.667, 223.333 180, 222 180 C 220.667 180, 220 179.333, 220 178 C 220 176.167, 220.667 176, 228 176 C 235.333 176, 236 175.833, 236 174 C 236 172.222, 236.667 172, 242 172 C 247.333 172, 248 171.778, 248 170 C 248 168.333, 248.667 168, 252 168 C 255.333 168, 256 167.667, 256 166 C 256 164.667, 256.667 164, 258 164 C 259.889 164, 260 163.333, 260 152 C 260 140.667, 259.889 140, 258 140 C 256.333 140, 256 139.333, 256 136 C 256 132.667, 255.667 132, 254 132 C 252.667 132, 252 131.333, 252 130 C 252 128.667, 251.333 128, 250 128 C 248.667 128, 248 127.333, 248 126 C 248 124.667, 247.333 124, 246 124 C 244.667 124, 244 123.333, 244 122 C 244 120.333, 243.333 120, 240 120 C 236.667 120, 236 120.333, 236 122" stroke="none" fill="black" fill-rule="evenodd"/>
	<path fill-opacity="0.745" d="M 180 122 C 180 123.333, 179.333 124, 178 124 C 176.667 124, 176 124.667, 176 126 C 176 127.333, 175.333 128, 174 128 C 172.333 128, 172 128.667, 172 132 C 172 135.333, 171.667 136, 170 136 C 168.167 136, 168 136.667, 168 144 C 168 151.333, 168.167 152, 170 152 C 171.833 152, 172 151.333, 172 144 C 172 136.667, 172.167 136, 174 136 C 175.667 136, 176 135.333, 176 132 C 176 128.667, 176.333 128, 178 128 C 179.333 128, 180 127.333, 180 126 C 180 124.333, 180.667 124, 184 124 C 187.333 124, 188 124.333, 188 126 C 188 127.333, 188.667 128, 190 128 C 191.333 128, 192 128.667, 192 130 C 192 131.333, 192.667 132, 194 132 C 195.667 132, 196 132.667, 196 136 C 196 139.333, 196.333 140, 198 140 C 199.667 140, 200 139.333, 200 136 C 200 132.667, 199.667 132, 198 132 C 196.667 132, 196 131.333, 196 130 C 196 128.667, 195.333 128, 194 128 C 192.667 128, 192 127.333, 192 126 C 192 124.667, 191.333 124, 190 124 C 188.667 124, 188 123.333, 188 122 C 188 120.333, 187.333 120, 184 120 C 180.667 120, 180 120.333, 180 122 M 236 122 C 236 123.667, 235.333 124, 232 124 C 228.667 124, 228 124.333, 228 126 C 228 127.333, 227.333 128, 226 128 C 224.667 128, 224 128.667, 224 130 C 224 131.333, 223.333 132, 222 132 C 220.667 132, 220 132.667, 220 134 C 220 135.333, 219.333 136, 218 136 C 216.667 136, 216 136.667, 216 138 C 216 139.333, 215.333 140, 214 140 C 212.667 140, 212 140.667, 212 142 C 212 143.333, 212.667 144, 214 144 C 215.333 144, 216 143.333, 216 142 C 216 140.667, 216.667 140, 218 140 C 219.333 140, 220 139.333, 220 138 C 220 136.667, 220.667 136, 222 136 C 223.333 136, 224 135.333, 224 134 C 224 132.667, 224.667 132, 226 132 C 227.333 132, 228 131.333, 228 130 C 228 128.333, 228.667 128, 232 128 C 235.333 128, 236 127.667, 236 126 C 236 124.333, 236.667 124, 240 124 C 243.333 124, 244 124.333, 244 126 C 244 127.333, 244.667 128, 246 128 C 247.333 128, 248 128.667, 248 130 C 248 131.333, 248.667 132, 250 132 C 251.833 132, 252 132.667, 252 140 C 252 147.333, 251.833 148, 250 148 C 248.667 148, 248 148.667, 248 150 C 248 151.667, 247.333 152, 244 152 C 240.667 152, 240 152.333, 240 154 C 240 155.867, 239.333 156, 230 156 L 220 156 220 164 C 220 171.333, 219.833 172, 218 172 C 216.667 172, 216 172.667, 216 174 C 216 175.333, 215.333 176, 214 176 C 212.667 176, 212 176.667, 212 178 C 212 179.667, 211.333 180, 208 180 L 204 180 204 184 C 204 187.333, 204.333 188, 206 188 C 207.667 188, 208 188.667, 208 192 C 208 195.333, 208.333 196, 210 196 C 211.833 196, 212 196.667, 212 204 L 212 212 218 212 C 223.333 212, 224 211.778, 224 210 C 224 208.667, 224.667 208, 226 208 C 227.333 208, 228 207.333, 228 206 C 228 204.222, 228.667 204, 234 204 C 239.333 204, 240 203.778, 240 202 C 240 200.333, 240.667 200, 244 200 C 247.333 200, 248 199.667, 248 198 C 248 196.667, 247.333 196, 246 196 C 244.667 196, 244 195.333, 244 194 C 244 192.333, 243.333 192, 240 192 C 236.667 192, 236 191.667, 236 190 C 236 188.333, 235.333 188, 232 188 C 228.667 188, 228 187.667, 228 186 C 228 184.667, 227.333 184, 226 184 C 224.667 184, 224 183.333, 224 182 C 224 180.667, 223.333 180, 222 180 C 220.667 180, 220 179.333, 220 178 C 220 176.167, 220.667 176, 228 176 C 235.333 176, 236 175.833, 236 174 C 236 172.222, 236.667 172, 242 172 C 247.333 172, 248 171.778, 248 170 C 248 168.333, 248.667 168, 252 168 C 255.333 168, 256 167.667, 256 166 C 256 164.667, 256.667 164, 258 164 C 259.889 164, 260 163.333, 260 152 C 260 140.667, 259.889 140, 258 140 C 256.333 140, 256 139.333, 256 136 C 256 132.667, 255.667 132, 254 132 C 252.667 132, 252 131.333, 252 130 C 252 128.667, 251.333 128, 250 128 C 248.667 128, 248 127.333, 248 126 C 248 124.667, 247.333 124, 246 124 C 244.667 124, 244 123.333, 244 122 C 244 120.333, 243.333 120, 240 120 C 236.667 120, 236 120.333, 236 122 M 192 152 C 192 155.333, 192.333 156, 194 156 C 195.667 156, 196 155.333, 196 152 C 196 148.667, 195.667 148, 194 148 C 192.333 148, 192 148.667, 192 152 M 216 186 C 216 191.333, 216.222 192, 218 192 C 219.333 192, 220 192.667, 220 194 C 220 195.333, 220.667 196, 222 196 C 223.333 196, 224 196.667, 224 198 C 224 199.833, 224.667 200, 232 200 C 239.333 200, 240 199.833, 240 198 C 240 196.667, 239.333 196, 238 196 C 236.667 196, 236 195.333, 236 194 C 236 192.333, 235.333 192, 232 192 C 228.667 192, 228 191.667, 228 190 C 228 188.667, 227.333 188, 226 188 C 224.667 188, 224 187.333, 224 186 C 224 184.667, 223.333 184, 222 184 C 220.667 184, 220 183.333, 220 182 C 220 180.667, 219.333 180, 218 180 C 216.222 180, 216 180.667, 216 186" stroke="none" fill="black" fill-rule="evenodd"/>
	<path fill-opacity="0.113" d="M 180 122 C 180 123.333, 179.333 124, 178 124 C 176.667 124, 176 124.667, 176 126 C 176 127.333, 175.333 128, 174 128 C 172.333 128, 172 128.667, 172 132 C 172 135.333, 171.667 136, 170 136 C 168.167 136, 168 136.667, 168 144 C 168 151.333, 168.167 152, 170 152 C 171.833 152, 172 151.333, 172 144 C 172 136.667, 172.167 136, 174 136 C 175.667 136, 176 135.333, 176 132 C 176 128.667, 176.333 128, 178 128 C 179.333 128, 180 127.333, 180 126 C 180 124.333, 180.667 124, 184 124 C 187.333 124, 188 124.333, 188 126 C 188 127.333, 188.667 128, 190 128 C 191.333 128, 192 128.667, 192 130 C 192 131.333, 192.667 132, 194 132 C 195.667 132, 196 132.667, 196 136 C 196 139.333, 196.333 140, 198 140 C 199.667 140, 200 139.333, 200 136 C 200 132.667, 199.667 132, 198 132 C 196.667 132, 196 131.333, 196 130 C 196 128.667, 195.333 128, 194 128 C 192.667 128, 192 127.333, 192 126 C 192 124.667, 191.333 124, 190 124 C 188.667 124, 188 123.333, 188 122 C 188 120.333, 187.333 120, 184 120 C 180.667 120, 180 120.333, 180 122 M 236 122 C 236 123.667, 235.333 124, 232 124 C 228.667 124, 228 124.333, 228 126 C 228 127.333, 227.333 128, 226 128 C 224.667 128, 224 128.667, 224 130 C 224 131.333, 223.333 132, 222 132 C 220.667 132, 220 132.667, 220 134 C 220 135.333, 219.333 136, 218 136 C 216.667 136, 216 136.667, 216 138 C 216 139.333, 215.333 140, 214 140 C 212.667 140, 212 140.667, 212 142 C 212 143.333, 212.667 144, 214 144 C 215.333 144, 216 143.333, 216 142 C 216 140.667, 216.667 140, 218 140 C 219.333 140, 220 139.333, 220 138 C 220 136.667, 220.667 136, 222 136 C 223.333 136, 224 135.333, 224 134 C 224 132.667, 224.667 132, 226 132 C 227.333 132, 228 131.333, 228 130 C 228 128.333, 228.667 128, 232 128 C 235.333 128, 236 127.667, 236 126 C 236 124.333, 236.667 124, 240 124 C 243.333 124, 244 124.333, 244 126 C 244 127.333, 244.667 128, 246 128 C 247.333 128, 248 128.667, 248 130 C 248 131.333, 248.667 132, 250 132 C 251.667 132, 252 132.667, 252 136 C 252 139.333, 252.333 140, 254 140 C 255.867 140, 256 140.667, 256 150 L 256 160 242 160 C 228.667 160, 228 160.095, 228 162 C 228 163.667, 227.333 164, 224 164 C 220.667 164, 220 164.333, 220 166 C 220 167.667, 220.667 168, 224 168 C 227.333 168, 228 167.667, 228 166 C 228 164.133, 228.667 164, 238 164 C 247.333 164, 248 164.133, 248 166 C 248 167.778, 247.333 168, 242 168 C 236.667 168, 236 168.222, 236 170 C 236 171.867, 235.333 172, 226 172 L 216 172 216 176 C 216 179.333, 216.333 180, 218 180 C 219.333 180, 220 180.667, 220 182 C 220 183.333, 220.667 184, 222 184 C 223.333 184, 224 184.667, 224 186 C 224 187.333, 224.667 188, 226 188 C 227.333 188, 228 188.667, 228 190 C 228 191.667, 228.667 192, 232 192 C 235.333 192, 236 192.333, 236 194 C 236 195.333, 236.667 196, 238 196 C 239.333 196, 240 196.667, 240 198 C 240 199.833, 239.333 200, 232 200 L 224 200 224 204 L 224 208 220 208 L 216 208 216 202 C 216 196.667, 215.778 196, 214 196 C 212.333 196, 212 195.333, 212 192 C 212 188.667, 211.667 188, 210 188 C 208.333 188, 208 187.333, 208 184 C 208 180.667, 207.667 180, 206 180 C 204.333 180, 204 180.667, 204 184 C 204 187.333, 204.333 188, 206 188 C 207.667 188, 208 188.667, 208 192 C 208 195.333, 208.333 196, 210 196 C 211.833 196, 212 196.667, 212 204 L 212 212 218 212 C 223.333 212, 224 211.778, 224 210 C 224 208.667, 224.667 208, 226 208 C 227.333 208, 228 207.333, 228 206 C 228 204.222, 228.667 204, 234 204 C 239.333 204, 240 203.778, 240 202 C 240 200.333, 240.667 200, 244 200 C 247.333 200, 248 199.667, 248 198 C 248 196.667, 247.333 196, 246 196 C 244.667 196, 244 195.333, 244 194 C 244 192.333, 243.333 192, 240 192 C 236.667 192, 236 191.667, 236 190 C 236 188.333, 235.333 188, 232 188 C 228.667 188, 228 187.667, 228 186 C 228 184.667, 227.333 184, 226 184 C 224.667 184, 224 183.333, 224 182 C 224 180.667, 223.333 180, 222 180 C 220.667 180, 220 179.333, 220 178 C 220 176.167, 220.667 176, 228 176 C 235.333 176, 236 175.833, 236 174 C 236 172.222, 236.667 172, 242 172 C 247.333 172, 248 171.778, 248 170 C 248 168.333, 248.667 168, 252 168 C 255.333 168, 256 167.667, 256 166 C 256 164.667, 256.667 164, 258 164 C 259.889 164, 260 163.333, 260 152 C 260 140.667, 259.889 140, 258 140 C 256.333 140, 256 139.333, 256 136 C 256 132.667, 255.667 132, 254 132 C 252.667 132, 252 131.333, 252 130 C 252 128.667, 251.333 128, 250 128 C 248.667 128, 248 127.333, 248 126 C 248 124.667, 247.333 124, 246 124 C 244.667 124, 244 123.333, 244 122 C 244 120.333, 243.333 120, 240 120 C 236.667 120, 236 120.333, 236 122" stroke="none" fill="black" fill-rule="evenodd"/>
</svg>