<svg xmlns="http://www.w3.org/2000/svg" width="400" height="400" viewBox="0 0 400 400" version="1.1">
	<path fill-opacity="0.596" d="M 184 214 C 184 215.867, 183.333 216, 174 216 C 164.667 216, 164 216.133, 164 218 C 164 219.333, 163.333 220, 162 220 C 160.667 220, 160 220.667, 160 222 C 160 223.333, 159.333 224, 158 224 C 156.667 224, 156 224.667, 156 226 C 156 227.333, 156.667 228, 158 228 C 159.333 228, 160 228.667, 160 230 C 160 231.889, 160.667 232, 172 232 C 183.333 232, 184 231.889, 184 230 C 184 228.222, 184.667 228, 190 228 C 195.333 228, 196 227.778, 196 226 C 196 224.667, 196.667 224, 198 224 C 199.333 224, 200 223.333, 200 222 C 200 220.667, 200.667 220, 202 220 C 203.333 220, 204 219.333, 204 218 C 204 216.667, 203.333 216, 202 216 C 200.667 216, 200 215.333, 200 214 C 200 212.167, 199.333 212, 192 212 C 184.667 212, 184 212.167, 184 214" stroke="none" fill="black" fill-rule="evenodd"/>
	<path fill-opacity="0.058" d="M 184 214 C 184 215.867, 183.333 216, 174 216 C 164.667 216, 164 216.133, 164 218 C 164 219.333, 163.333 220, 162 220 C 160.667 220, 160 220.667, 160 222 C 160 223.333, 159.333 224, 158 224 C 156.667 224, 156 224.667, 156 226 C 156 227.333, 156.667 228, 158 228 C 159.333 228, 160 228.667, 160 230 C 160 231.889, 160.667 232, 172 232 C 183.333 232, 184 231.889, 184 230 C 184 228.222, 184.667 228, 190 228 C 195.333 228, 196 227.778, 196 226 C 196 224.667, 196.667 224, 198 224 C 199.333 224, 200 223.333, 200 222 C 200 220.667, 200.667 220, 202 220 C 203.333 220, 204 219.333, 204 218 C 204 216.667, 203.333 216, 202 216 C 200.667 216, 200 215.333, 200 214 C 200 212.167, 199.333 212, 192 212 C 184.667 212, 184 212.167, 184 214 M 192 218 C 192 219.667, 192.667 220, 196 220 C 199.333 220, 200 219.667, 200 218 C 200 216.333, 199.333 216, 196 216 C 192.667 216, 192 216.333, 192 218 M 160 226 C 160 227.667, 160.667 228, 164 228 C 167.333 228, 168 227.667, 168 226 C 168 224.333, 167.333 224, 164 224 C 160.667 224, 160 224.333, 160 226 M 180 226 C 180 227.333, 180.667 228, 182 228 C 183.333 228, 184 227.333, 184 226 C 184 224.667, 183.333 224, 182 224 C 180.667 224, 180 224.667, 180 226" stroke="none" fill="black" fill-rule="evenodd"/>
	<path fill-opacity="0.753" d="M 184 214 C 184 215.867, 183.333 216, 174 216 L 164 216 164 220 C 164 223.333, 164.333 224, 166 224 C 167.333 224, 168 224.667, 168 226 C 168 227.333, 167.333 228, 166 228 C 164.667 228, 164 228.667, 164 230 C 164 231.833, 164.667 232, 172 232 C 179.333 232, 180 231.833, 180 230 C 180 228.667, 179.333 228, 178 228 C 176.667 228, 176 227.333, 176 226 C 176 224.222, 176.667 224, 182 224 C 187.333 224, 188 224.222, 188 226 C 188 227.667, 188.667 228, 192 228 L 196 228 196 224 C 196 220.667, 195.667 220, 194 220 C 192.667 220, 192 219.333, 192 218 C 192 216.667, 192.667 216, 194 216 C 195.333 216, 196 215.333, 196 214 C 196 212.222, 195.333 212, 190 212 C 184.667 212, 184 212.222, 184 214" stroke="none" fill="black" fill-rule="evenodd"/>
	<path fill-opacity="0.124" d="M 184 214 C 184 215.867, 183.333 216, 174 216 L 164 216 164 220 C 164 223.333, 164.333 224, 166 224 C 167.333 224, 168 223.333, 168 222 C 168 220.167, 168.667 220, 176 220 C 183.333 220, 184 219.833, 184 218 C 184 216.222, 184.667 216, 190 216 C 195.333 216, 196 215.778, 196 214 C 196 212.222, 195.333 212, 190 212 C 184.667 212, 184 212.222, 184 214 M 192 222 C 192 223.333, 191.333 224, 190 224 C 188.667 224, 188 224.667, 188 226 C 188 227.667, 188.667 228, 192 228 L 196 228 196 224 C 196 220.667, 195.667 220, 194 220 C 192.667 220, 192 220.667, 192 222 M 164 230 C 164 231.833, 164.667 232, 172 232 C 179.333 232, 180 231.833, 180 230 C 180 228.167, 179.333 228, 172 228 C 164.667 228, 164 228.167, 164 230" stroke="none" fill="black" fill-rule="evenodd"/>
</svg>