<svg xmlns="http://www.w3.org/2000/svg" width="400" height="400" viewBox="0 0 400 400" version="1.1">
	<path fill-opacity="0.078" d="M 156 134 C 156 135.778, 155.333 136, 150 136 C 144.667 136, 144 136.222, 144 138 C 144 139.333, 143.333 140, 142 140 C 140.667 140, 140 140.667, 140 142 C 140 143.667, 139.333 144, 136 144 C 132.667 144, 132 144.333, 132 146 C 132 147.333, 131.333 148, 130 148 C 128.333 148, 128 148.667, 128 152 C 128 155.333, 128.333 156, 130 156 C 131.667 156, 132 156.667, 132 160 C 132 163.333, 132.333 164, 134 164 C 135.333 164, 136 164.667, 136 166 C 136 167.333, 136.667 168, 138 168 C 139.333 168, 140 168.667, 140 170 C 140 171.667, 140.667 172, 144 172 C 147.333 172, 148 171.667, 148 170 C 148 168.667, 148.667 168, 150 168 C 151.333 168, 152 167.333, 152 166 C 152 164.333, 152.667 164, 156 164 C 159.333 164, 160 163.667, 160 162 C 160 160.667, 160.667 160, 162 160 C 163.333 160, 164 160.667, 164 162 C 164 163.333, 164.667 164, 166 164 C 167.333 164, 168 164.667, 168 166 C 168 167.667, 168.667 168, 172 168 C 175.333 168, 176 167.667, 176 166 C 176 164.667, 176.667 164, 178 164 C 179.333 164, 180 164.667, 180 166 C 180 167.833, 180.667 168, 188 168 C 195.333 168, 196 168.167, 196 170 C 196 171.333, 196.667 172, 198 172 C 199.333 172, 200 172.667, 200 174 C 200 175.333, 200.667 176, 202 176 C 203.333 176, 204 176.667, 204 178 C 204 179.667, 204.667 180, 208 180 L 212 180 212 176 C 212 172.667, 212.333 172, 214 172 C 215.333 172, 216 171.333, 216 170 C 216 168.667, 216.667 168, 218 168 C 219.667 168, 220 167.333, 220 164 C 220 160.667, 219.667 160, 218 160 C 216.667 160, 216 159.333, 216 158 C 216 156.667, 215.333 156, 214 156 C 212.333 156, 212 155.333, 212 152 C 212 148.667, 211.667 148, 210 148 C 208.667 148, 208 147.333, 208 146 C 208 144.222, 207.333 144, 202 144 C 196.667 144, 196 143.778, 196 142 C 196 140.222, 195.333 140, 190 140 C 184.667 140, 184 139.778, 184 138 C 184 136.333, 183.333 136, 180 136 C 176.667 136, 176 136.333, 176 138 C 176 139.333, 175.333 140, 174 140 C 172.667 140, 172 139.333, 172 138 C 172 136.333, 171.333 136, 168 136 C 164.667 136, 164 135.667, 164 134 C 164 132.333, 163.333 132, 160 132 C 156.667 132, 156 132.333, 156 134" stroke="none" fill="black" fill-rule="evenodd"/>
	<path fill-opacity="0.213" d="M 156 134 C 156 135.778, 155.333 136, 150 136 C 144.667 136, 144 136.222, 144 138 C 144 139.333, 143.333 140, 142 140 C 140.667 140, 140 140.667, 140 142 C 140 143.667, 139.333 144, 136 144 C 132.667 144, 132 144.333, 132 146 C 132 147.333, 131.333 148, 130 148 C 128.333 148, 128 148.667, 128 152 C 128 155.333, 128.333 156, 130 156 C 131.667 156, 132 156.667, 132 160 C 132 163.333, 132.333 164, 134 164 C 135.333 164, 136 164.667, 136 166 C 136 167.333, 136.667 168, 138 168 C 139.333 168, 140 168.667, 140 170 C 140 171.667, 140.667 172, 144 172 C 147.333 172, 148 171.667, 148 170 C 148 168.667, 148.667 168, 150 168 C 151.333 168, 152 167.333, 152 166 C 152 164.333, 152.667 164, 156 164 C 159.333 164, 160 163.667, 160 162 C 160 160.667, 160.667 160, 162 160 C 163.333 160, 164 160.667, 164 162 C 164 163.333, 164.667 164, 166 164 C 167.333 164, 168 164.667, 168 166 C 168 167.667, 168.667 168, 172 168 C 175.333 168, 176 167.667, 176 166 C 176 164.667, 176.667 164, 178 164 C 179.333 164, 180 164.667, 180 166 C 180 167.833, 180.667 168, 188 168 C 195.333 168, 196 168.167, 196 170 C 196 171.333, 196.667 172, 198 172 C 199.333 172, 200 172.667, 200 174 C 200 175.333, 200.667 176, 202 176 C 203.333 176, 204 176.667, 204 178 C 204 179.667, 204.667 180, 208 180 L 212 180 212 176 C 212 172.667, 212.333 172, 214 172 C 215.333 172, 216 171.333, 216 170 C 216 168.667, 216.667 168, 218 168 C 219.667 168, 220 167.333, 220 164 C 220 160.667, 219.667 160, 218 160 C 216.667 160, 216 159.333, 216 158 C 216 156.667, 215.333 156, 214 156 C 212.333 156, 212 155.333, 212 152 C 212 148.667, 211.667 148, 210 148 C 208.667 148, 208 147.333, 208 146 C 208 144.222, 207.333 144, 202 144 C 196.667 144, 196 143.778, 196 142 C 196 140.222, 195.333 140, 190 140 C 184.667 140, 184 139.778, 184 138 C 184 136.333, 183.333 136, 180 136 C 176.667 136, 176 136.333, 176 138 C 176 139.333, 175.333 140, 174 140 C 172.667 140, 172 139.333, 172 138 C 172 136.333, 171.333 136, 168 136 C 164.667 136, 164 135.667, 164 134 C 164 132.333, 163.333 132, 160 132 C 156.667 132, 156 132.333, 156 134 M 156 138 C 156 139.333, 156.667 140, 158 140 C 159.333 140, 160 140.667, 160 142 C 160 143.333, 160.667 144, 162 144 C 163.667 144, 164 143.333, 164 140 L 164 136 160 136 C 156.667 136, 156 136.333, 156 138 M 144 144 C 144 147.333, 144.333 148, 146 148 C 147.333 148, 148 147.333, 148 146 C 148 144.667, 148.667 144, 150 144 C 151.333 144, 152 143.333, 152 142 C 152 140.333, 151.333 140, 148 140 L 144 140 144 144 M 176 144 C 176 147.333, 176.333 148, 178 148 C 179.333 148, 180 147.333, 180 146 C 180 144.667, 180.667 144, 182 144 C 183.333 144, 184 143.333, 184 142 C 184 140.333, 183.333 140, 180 140 L 176 140 176 144 M 188 146 C 188 147.333, 188.667 148, 190 148 C 191.333 148, 192 148.667, 192 150 C 192 151.333, 192.667 152, 194 152 C 195.667 152, 196 151.333, 196 148 L 196 144 192 144 C 188.667 144, 188 144.333, 188 146 M 132 150 C 132 151.667, 132.667 152, 136 152 C 139.333 152, 140 151.667, 140 150 C 140 148.333, 139.333 148, 136 148 C 132.667 148, 132 148.333, 132 150 M 164 150 C 164 151.333, 163.333 152, 162 152 C 160.667 152, 160 152.667, 160 154 C 160 155.667, 160.667 156, 164 156 L 168 156 168 152 C 168 148.667, 167.667 148, 166 148 C 164.667 148, 164 148.667, 164 150 M 200 150 C 200 151.333, 200.667 152, 202 152 C 203.333 152, 204 152.667, 204 154 C 204 155.333, 204.667 156, 206 156 C 207.667 156, 208 155.333, 208 152 L 208 148 204 148 C 200.667 148, 200 148.333, 200 150 M 148 156 L 148 160 152 160 C 155.333 160, 156 159.667, 156 158 C 156 156.667, 155.333 156, 154 156 C 152.667 156, 152 155.333, 152 154 C 152 152.667, 151.333 152, 150 152 C 148.333 152, 148 152.667, 148 156 M 172 156 L 172 160 176 160 C 179.333 160, 180 159.667, 180 158 C 180 156.667, 179.333 156, 178 156 C 176.667 156, 176 155.333, 176 154 C 176 152.667, 175.333 152, 174 152 C 172.333 152, 172 152.667, 172 156 M 136 160 L 136 164 140 164 C 143.333 164, 144 163.667, 144 162 C 144 160.667, 143.333 160, 142 160 C 140.667 160, 140 159.333, 140 158 C 140 156.667, 139.333 156, 138 156 C 136.333 156, 136 156.667, 136 160 M 188 158 C 188 159.333, 187.333 160, 186 160 C 184.667 160, 184 160.667, 184 162 C 184 163.667, 184.667 164, 188 164 L 192 164 192 160 C 192 156.667, 191.667 156, 190 156 C 188.667 156, 188 156.667, 188 158 M 200 162 C 200 163.333, 199.333 164, 198 164 C 196.667 164, 196 164.667, 196 166 C 196 167.667, 196.667 168, 200 168 L 204 168 204 164 C 204 160.667, 203.667 160, 202 160 C 200.667 160, 200 160.667, 200 162 M 212 162 C 212 163.333, 211.333 164, 210 164 C 208.667 164, 208 164.667, 208 166 C 208 167.667, 208.667 168, 212 168 L 216 168 216 164 C 216 160.667, 215.667 160, 214 160 C 212.667 160, 212 160.667, 212 162" stroke="none" fill="black" fill-rule="evenodd"/>
	<path fill-opacity="0.443" d="M 156 134 C 156 135.778, 155.333 136, 150 136 C 144.667 136, 144 136.222, 144 138 C 144 139.333, 143.333 140, 142 140 C 140.667 140, 140 140.667, 140 142 C 140 143.667, 139.333 144, 136 144 C 132.667 144, 132 144.333, 132 146 C 132 147.333, 131.333 148, 130 148 C 128.333 148, 128 148.667, 128 152 C 128 155.333, 128.333 156, 130 156 C 131.667 156, 132 156.667, 132 160 C 132 163.333, 132.333 164, 134 164 C 135.333 164, 136 164.667, 136 166 C 136 167.333, 136.667 168, 138 168 C 139.333 168, 140 168.667, 140 170 C 140 171.667, 140.667 172, 144 172 C 147.333 172, 148 171.667, 148 170 C 148 168.667, 148.667 168, 150 168 C 151.333 168, 152 167.333, 152 166 C 152 164.333, 152.667 164, 156 164 C 159.333 164, 160 163.667, 160 162 C 160 160.667, 160.667 160, 162 160 C 163.333 160, 164 160.667, 164 162 C 164 163.333, 164.667 164, 166 164 C 167.333 164, 168 164.667, 168 166 C 168 167.667, 168.667 168, 172 168 C 175.333 168, 176 167.667, 176 166 C 176 164.667, 176.667 164, 178 164 C 179.333 164, 180 164.667, 180 166 C 180 167.833, 180.667 168, 188 168 C 195.333 168, 196 168.167, 196 170 C 196 171.333, 196.667 172, 198 172 C 199.333 172, 200 172.667, 200 174 C 200 175.333, 200.667 176, 202 176 C 203.333 176, 204 176.667, 204 178 C 204 179.667, 204.667 180, 208 180 L 212 180 212 176 C 212 172.667, 212.333 172, 214 172 C 215.333 172, 216 171.333, 216 170 C 216 168.667, 216.667 168, 218 168 C 219.667 168, 220 167.333, 220 164 C 220 160.667, 219.667 160, 218 160 C 216.667 160, 216 159.333, 216 158 C 216 156.667, 215.333 156, 214 156 C 212.333 156, 212 155.333, 212 152 C 212 148.667, 211.667 148, 210 148 C 208.667 148, 208 147.333, 208 146 C 208 144.222, 207.333 144, 202 144 C 196.667 144, 196 143.778, 196 142 C 196 140.222, 195.333 140, 190 140 C 184.667 140, 184 139.778, 184 138 C 184 136.333, 183.333 136, 180 136 C 176.667 136, 176 136.333, 176 138 C 176 139.333, 175.333 140, 174 140 C 172.667 140, 172 139.333, 172 138 C 172 136.333, 171.333 136, 168 136 C 164.667 136, 164 135.667, 164 134 C 164 132.333, 163.333 132, 160 132 C 156.667 132, 156 132.333, 156 134 M 156 140 C 156 143.333, 155.667 144, 154 144 C 152.667 144, 152 143.333, 152 142 C 152 140.333, 151.333 140, 148 140 L 144 140 144 144 L 144 148 148 148 C 151.333 148, 152 148.333, 152 150 C 152 151.333, 151.333 152, 150 152 C 148.333 152, 148 152.667, 148 156 L 148 160 152 160 L 156 160 156 156 C 156 152.667, 156.333 152, 158 152 C 159.333 152, 160 152.667, 160 154 C 160 155.667, 160.667 156, 164 156 L 168 156 168 152 L 168 148 164 148 C 160.667 148, 160 147.667, 160 146 C 160 144.667, 160.667 144, 162 144 C 163.667 144, 164 143.333, 164 140 L 164 136 160 136 L 156 136 156 140 M 176 144 C 176 147.333, 176.333 148, 178 148 C 179.333 148, 180 148.667, 180 150 C 180 151.667, 179.333 152, 176 152 L 172 152 172 156 L 172 160 176 160 C 179.333 160, 180 159.667, 180 158 C 180 156.667, 180.667 156, 182 156 C 183.667 156, 184 156.667, 184 160 L 184 164 188 164 L 192 164 192 160 C 192 156.667, 191.667 156, 190 156 C 188.667 156, 188 155.333, 188 154 C 188 152.333, 188.667 152, 192 152 L 196 152 196 160 L 196 168 200 168 L 204 168 204 164 C 204 160.667, 203.667 160, 202 160 C 200.667 160, 200 159.333, 200 158 C 200 156.333, 200.667 156, 204 156 L 208 156 208 152 L 208 148 204 148 C 200.667 148, 200 148.333, 200 150 C 200 151.333, 199.333 152, 198 152 C 196.333 152, 196 151.333, 196 148 L 196 144 192 144 C 188.667 144, 188 144.333, 188 146 C 188 147.333, 187.333 148, 186 148 C 184.333 148, 184 147.333, 184 144 L 184 140 180 140 L 176 140 176 144 M 132 150 C 132 151.667, 132.667 152, 136 152 C 139.333 152, 140 151.667, 140 150 C 140 148.333, 139.333 148, 136 148 C 132.667 148, 132 148.333, 132 150 M 136 160 L 136 164 140 164 L 144 164 144 160 L 144 156 140 156 L 136 156 136 160 M 208 164 L 208 168 212 168 L 216 168 216 164 L 216 160 212 160 L 208 160 208 164" stroke="none" fill="black" fill-rule="evenodd"/>
	<path fill-opacity="0.107" d="M 156 134 C 156 135.778, 155.333 136, 150 136 C 144.667 136, 144 136.222, 144 138 C 144 139.333, 143.333 140, 142 140 C 140.667 140, 140 140.667, 140 142 C 140 143.667, 139.333 144, 136 144 C 132.667 144, 132 144.333, 132 146 C 132 147.333, 131.333 148, 130 148 C 128.333 148, 128 148.667, 128 152 C 128 155.333, 128.333 156, 130 156 C 131.667 156, 132 156.667, 132 160 C 132 163.333, 132.333 164, 134 164 C 135.333 164, 136 164.667, 136 166 C 136 167.333, 136.667 168, 138 168 C 139.333 168, 140 168.667, 140 170 C 140 171.667, 140.667 172, 144 172 C 147.333 172, 148 171.667, 148 170 C 148 168.667, 148.667 168, 150 168 C 151.333 168, 152 167.333, 152 166 C 152 164.333, 152.667 164, 156 164 C 159.333 164, 160 163.667, 160 162 C 160 160.667, 160.667 160, 162 160 C 163.333 160, 164 160.667, 164 162 C 164 163.333, 164.667 164, 166 164 C 167.333 164, 168 164.667, 168 166 C 168 167.667, 168.667 168, 172 168 C 175.333 168, 176 167.667, 176 166 C 176 164.667, 176.667 164, 178 164 C 179.333 164, 180 164.667, 180 166 C 180 167.833, 180.667 168, 188 168 C 195.333 168, 196 168.167, 196 170 C 196 171.333, 196.667 172, 198 172 C 199.333 172, 200 172.667, 200 174 C 200 175.333, 200.667 176, 202 176 C 203.333 176, 204 176.667, 204 178 C 204 179.667, 204.667 180, 208 180 L 212 180 212 176 C 212 172.667, 212.333 172, 214 172 C 215.333 172, 216 171.333, 216 170 C 216 168.667, 216.667 168, 218 168 C 219.667 168, 220 167.333, 220 164 C 220 160.667, 219.667 160, 218 160 C 216.667 160, 216 159.333, 216 158 C 216 156.667, 215.333 156, 214 156 C 212.333 156, 212 155.333, 212 152 C 212 148.667, 211.667 148, 210 148 C 208.667 148, 208 147.333, 208 146 C 208 144.222, 207.333 144, 202 144 C 196.667 144, 196 143.778, 196 142 C 196 140.222, 195.333 140, 190 140 C 184.667 140, 184 139.778, 184 138 C 184 136.333, 183.333 136, 180 136 C 176.667 136, 176 136.333, 176 138 C 176 139.333, 175.333 140, 174 140 C 172.667 140, 172 139.333, 172 138 C 172 136.333, 171.333 136, 168 136 C 164.667 136, 164 135.667, 164 134 C 164 132.333, 163.333 132, 160 132 C 156.667 132, 156 132.333, 156 134 M 156 140 C 156 143.333, 155.667 144, 154 144 C 152.667 144, 152 143.333, 152 142 C 152 140.333, 151.333 140, 148 140 L 144 140 144 144 L 144 148 148 148 C 151.333 148, 152 148.333, 152 150 C 152 151.333, 151.333 152, 150 152 C 148.333 152, 148 152.667, 148 156 L 148 160 152 160 L 156 160 156 156 C 156 152.667, 156.333 152, 158 152 C 159.333 152, 160 152.667, 160 154 C 160 155.667, 160.667 156, 164 156 L 168 156 168 152 C 168 148.667, 168.333 148, 170 148 C 171.667 148, 172 147.333, 172 144 C 172 140.667, 171.667 140, 170 140 C 168.333 140, 168 140.667, 168 144 L 168 148 164 148 C 160.667 148, 160 147.667, 160 146 C 160 144.667, 160.667 144, 162 144 C 163.667 144, 164 143.333, 164 140 L 164 136 160 136 L 156 136 156 140 M 176 144 C 176 147.333, 176.333 148, 178 148 C 179.333 148, 180 148.667, 180 150 C 180 151.667, 179.333 152, 176 152 L 172 152 172 156 C 172 159.333, 171.667 160, 170 160 C 168.667 160, 168 160.667, 168 162 C 168 163.333, 168.667 164, 170 164 C 171.333 164, 172 163.333, 172 162 C 172 160.333, 172.667 160, 176 160 C 179.333 160, 180 159.667, 180 158 C 180 156.667, 180.667 156, 182 156 C 183.667 156, 184 156.667, 184 160 L 184 164 188 164 L 192 164 192 160 C 192 156.667, 191.667 156, 190 156 C 188.667 156, 188 155.333, 188 154 C 188 152.333, 188.667 152, 192 152 L 196 152 196 160 L 196 168 200 168 L 204 168 204 164 C 204 160.667, 203.667 160, 202 160 C 200.667 160, 200 159.333, 200 158 C 200 156.333, 200.667 156, 204 156 L 208 156 208 152 L 208 148 204 148 C 200.667 148, 200 148.333, 200 150 C 200 151.333, 199.333 152, 198 152 C 196.333 152, 196 151.333, 196 148 L 196 144 192 144 C 188.667 144, 188 144.333, 188 146 C 188 147.333, 187.333 148, 186 148 C 184.333 148, 184 147.333, 184 144 L 184 140 180 140 L 176 140 176 144 M 132 150 C 132 151.667, 132.667 152, 136 152 C 139.333 152, 140 151.667, 140 150 C 140 148.333, 139.333 148, 136 148 C 132.667 148, 132 148.333, 132 150 M 136 160 L 136 164 140 164 C 143.333 164, 144 164.333, 144 166 C 144 167.333, 144.667 168, 146 168 C 147.333 168, 148 167.333, 148 166 C 148 164.667, 147.333 164, 146 164 C 144.333 164, 144 163.333, 144 160 L 144 156 140 156 L 136 156 136 160 M 208 164 L 208 168 212 168 L 216 168 216 164 L 216 160 212 160 L 208 160 208 164 M 204 174 C 204 175.333, 204.667 176, 206 176 C 207.333 176, 208 175.333, 208 174 C 208 172.667, 207.333 172, 206 172 C 204.667 172, 204 172.667, 204 174" stroke="none" fill="black" fill-rule="evenodd"/>
</svg>