<svg xmlns="http://www.w3.org/2000/svg" width="400" height="400" viewBox="0 0 400 400" version="1.1">
	<path fill-opacity="0.561" d="M 200 186 C 200 187.333, 199.333 188, 198 188 C 196.667 188, 196 188.667, 196 190 C 196 191.333, 195.333 192, 194 192 C 192.667 192, 192 192.667, 192 194 C 192 195.778, 191.333 196, 186 196 C 180.667 196, 180 195.778, 180 194 C 180 192.667, 179.333 192, 178 192 C 176.667 192, 176 191.333, 176 190 C 176 188.333, 175.333 188, 172 188 C 168.667 188, 168 188.333, 168 190 C 168 191.667, 167.333 192, 164 192 C 160.667 192, 160 191.667, 160 190 C 160 188.333, 159.333 188, 156 188 C 152.667 188, 152 188.333, 152 190 C 152 191.333, 151.333 192, 150 192 C 148.667 192, 148 191.333, 148 190 C 148 188.667, 147.333 188, 146 188 C 144.167 188, 144 188.667, 144 196 C 144 203.333, 144.167 204, 146 204 C 147.333 204, 148 204.667, 148 206 C 148 207.333, 148.667 208, 150 208 C 151.333 208, 152 208.667, 152 210 C 152 211.667, 152.667 212, 156 212 C 159.333 212, 160 212.333, 160 214 C 160 215.867, 160.667 216, 170 216 C 179.333 216, 180 215.867, 180 214 C 180 212.222, 180.667 212, 186 212 C 191.333 212, 192 211.778, 192 210 C 192 208.667, 192.667 208, 194 208 C 195.333 208, 196 207.333, 196 206 C 196 204.667, 196.667 204, 198 204 C 199.667 204, 200 203.333, 200 200 C 200 196.667, 200.333 196, 202 196 C 203.778 196, 204 195.333, 204 190 C 204 184.667, 203.778 184, 202 184 C 200.667 184, 200 184.667, 200 186 M 152 194 C 152 195.667, 152.667 196, 156 196 C 159.333 196, 160 195.667, 160 194 C 160 192.333, 159.333 192, 156 192 C 152.667 192, 152 192.333, 152 194 M 168 194 C 168 195.333, 168.667 196, 170 196 C 171.333 196, 172 196.667, 172 198 C 172 199.333, 172.667 200, 174 200 C 175.667 200, 176 199.333, 176 196 L 176 192 172 192 C 168.667 192, 168 192.333, 168 194 M 180 202 C 180 203.905, 179.333 204, 166 204 C 152.667 204, 152 204.095, 152 206 C 152 207.667, 152.667 208, 156 208 C 159.333 208, 160 208.333, 160 210 C 160 211.833, 160.667 212, 168 212 C 175.333 212, 176 211.833, 176 210 C 176 208.333, 176.667 208, 180 208 C 183.333 208, 184 207.667, 184 206 C 184 204.667, 184.667 204, 186 204 C 187.333 204, 188 203.333, 188 202 C 188 200.333, 187.333 200, 184 200 C 180.667 200, 180 200.333, 180 202" stroke="none" fill="black" fill-rule="evenodd"/>
	<path fill-opacity="0.107" d="M 200 186 C 200 187.333, 199.333 188, 198 188 C 196.667 188, 196 188.667, 196 190 C 196 191.333, 195.333 192, 194 192 C 192.667 192, 192 192.667, 192 194 C 192 195.778, 191.333 196, 186 196 C 180.667 196, 180 195.778, 180 194 C 180 192.667, 179.333 192, 178 192 C 176.667 192, 176 191.333, 176 190 C 176 188.333, 175.333 188, 172 188 C 168.667 188, 168 188.333, 168 190 C 168 191.667, 167.333 192, 164 192 C 160.667 192, 160 191.667, 160 190 C 160 188.333, 159.333 188, 156 188 C 152.667 188, 152 188.333, 152 190 C 152 191.333, 151.333 192, 150 192 C 148.667 192, 148 191.333, 148 190 C 148 188.667, 147.333 188, 146 188 C 144.167 188, 144 188.667, 144 196 C 144 203.333, 144.167 204, 146 204 C 147.333 204, 148 204.667, 148 206 C 148 207.333, 148.667 208, 150 208 C 151.333 208, 152 208.667, 152 210 C 152 211.667, 152.667 212, 156 212 C 159.333 212, 160 212.333, 160 214 C 160 215.867, 160.667 216, 170 216 C 179.333 216, 180 215.867, 180 214 C 180 212.222, 180.667 212, 186 212 C 191.333 212, 192 211.778, 192 210 C 192 208.667, 192.667 208, 194 208 C 195.333 208, 196 207.333, 196 206 C 196 204.667, 196.667 204, 198 204 C 199.667 204, 200 203.333, 200 200 C 200 196.667, 200.333 196, 202 196 C 203.778 196, 204 195.333, 204 190 C 204 184.667, 203.778 184, 202 184 C 200.667 184, 200 184.667, 200 186 M 152 196 C 152 199.333, 151.667 200, 150 200 C 148.667 200, 148 200.667, 148 202 C 148 203.333, 148.667 204, 150 204 C 151.333 204, 152 204.667, 152 206 C 152 207.667, 152.667 208, 156 208 C 159.333 208, 160 208.333, 160 210 C 160 211.867, 160.667 212, 170 212 C 179.333 212, 180 211.867, 180 210 C 180 208.222, 180.667 208, 186 208 C 191.333 208, 192 207.778, 192 206 C 192 204.667, 192.667 204, 194 204 C 195.667 204, 196 203.333, 196 200 C 196 196.667, 196.333 196, 198 196 C 199.333 196, 200 195.333, 200 194 C 200 192.667, 199.333 192, 198 192 C 196.667 192, 196 192.667, 196 194 C 196 195.333, 195.333 196, 194 196 C 192.667 196, 192 196.667, 192 198 C 192 199.778, 191.333 200, 186 200 C 180.667 200, 180 199.778, 180 198 C 180 196.667, 179.333 196, 178 196 C 176.667 196, 176 195.333, 176 194 C 176 192.333, 175.333 192, 172 192 C 168.667 192, 168 192.333, 168 194 C 168 195.333, 168.667 196, 170 196 C 171.333 196, 172 196.667, 172 198 C 172 199.667, 172.667 200, 176 200 C 179.333 200, 180 200.333, 180 202 C 180 203.778, 179.333 204, 174 204 C 168.667 204, 168 203.778, 168 202 C 168 200.333, 167.333 200, 164 200 C 160.667 200, 160 200.333, 160 202 C 160 203.667, 159.333 204, 156 204 C 152.667 204, 152 203.667, 152 202 C 152 200.667, 152.667 200, 154 200 C 155.333 200, 156 199.333, 156 198 C 156 196.667, 156.667 196, 158 196 C 159.333 196, 160 195.333, 160 194 C 160 192.333, 159.333 192, 156 192 L 152 192 152 196" stroke="none" fill="black" fill-rule="evenodd"/>
</svg>