<svg xmlns="http://www.w3.org/2000/svg" width="400" height="400" viewBox="0 0 400 400" version="1.1">
	<path fill-opacity="0.200" d="M 136 118 C 136 119.667, 135.333 120, 132 120 C 128.667 120, 128 120.333, 128 122 C 128 123.333, 127.333 124, 126 124 C 124.667 124, 124 124.667, 124 126 C 124 127.333, 123.333 128, 122 128 C 120.222 128, 120 128.667, 120 134 L 120 140 114 140 C 108.667 140, 108 140.222, 108 142 C 108 143.333, 108.667 144, 110 144 C 111.333 144, 112 144.667, 112 146 C 112 147.333, 112.667 148, 114 148 C 115.667 148, 116 148.667, 116 152 C 116 155.333, 115.667 156, 114 156 C 112.667 156, 112 156.667, 112 158 C 112 159.333, 111.333 160, 110 160 C 108.167 160, 108 160.667, 108 168 C 108 175.333, 108.167 176, 110 176 C 111.333 176, 112 176.667, 112 178 C 112 179.667, 112.667 180, 116 180 C 119.333 180, 120 180.333, 120 182 C 120 183.333, 120.667 184, 122 184 C 123.333 184, 124 184.667, 124 186 C 124 187.333, 123.333 188, 122 188 C 120.333 188, 120 188.667, 120 192 C 120 195.333, 120.333 196, 122 196 C 123.333 196, 124 196.667, 124 198 C 124 199.333, 124.667 200, 126 200 C 127.667 200, 128 200.667, 128 204 L 128 208 124 208 C 120.667 208, 120 207.667, 120 206 C 120 204.667, 119.333 204, 118 204 C 116.222 204, 116 204.667, 116 210 C 116 215.333, 116.222 216, 118 216 C 119.333 216, 120 216.667, 120 218 C 120 219.333, 120.667 220, 122 220 C 123.333 220, 124 220.667, 124 222 C 124 223.333, 124.667 224, 126 224 C 127.833 224, 128 224.667, 128 232 C 128 239.333, 128.167 240, 130 240 C 131.333 240, 132 240.667, 132 242 C 132 243.333, 132.667 244, 134 244 C 135.333 244, 136 244.667, 136 246 C 136 247.333, 136.667 248, 138 248 C 139.667 248, 140 247.333, 140 244 C 140 240.667, 140.333 240, 142 240 C 143.333 240, 144 240.667, 144 242 C 144 243.333, 144.667 244, 146 244 C 147.333 244, 148 244.667, 148 246 C 148 247.333, 148.667 248, 150 248 C 151.333 248, 152 248.667, 152 250 C 152 251.778, 152.667 252, 158 252 L 164 252 164 248 C 164 244.667, 163.667 244, 162 244 C 160.222 244, 160 243.333, 160 238 C 160 232.667, 160.222 232, 162 232 C 163.778 232, 164 231.333, 164 226 C 164 220.667, 164.222 220, 166 220 C 167.667 220, 168 219.333, 168 216 L 168 212 164 212 C 160.667 212, 160 211.667, 160 210 C 160 208.333, 159.333 208, 156 208 C 152.667 208, 152 207.667, 152 206 C 152 204.667, 151.333 204, 150 204 C 148.667 204, 148 203.333, 148 202 C 148 200.667, 147.333 200, 146 200 C 144.167 200, 144 199.333, 144 192 C 144 184.667, 144.167 184, 146 184 C 147.778 184, 148 183.333, 148 178 C 148 172.667, 148.222 172, 150 172 C 151.333 172, 152 171.333, 152 170 C 152 168.333, 152.667 168, 156 168 C 159.333 168, 160 167.667, 160 166 C 160 164.667, 160.667 164, 162 164 C 163.333 164, 164 163.333, 164 162 C 164 160.333, 164.667 160, 168 160 C 171.333 160, 172 159.667, 172 158 C 172 156.133, 172.667 156, 182 156 C 191.333 156, 192 156.133, 192 158 C 192 159.333, 192.667 160, 194 160 C 195.867 160, 196 159.333, 196 150 C 196 140.667, 196.133 140, 198 140 C 199.667 140, 200 139.333, 200 136 C 200 132.667, 199.667 132, 198 132 C 196.222 132, 196 131.333, 196 126 C 196 120.667, 196.222 120, 198 120 C 199.333 120, 200 119.333, 200 118 C 200 116.222, 199.333 116, 194 116 C 188.667 116, 188 116.222, 188 118 C 188 119.333, 187.333 120, 186 120 C 184.667 120, 184 120.667, 184 122 C 184 123.667, 183.333 124, 180 124 C 176.667 124, 176 123.667, 176 122 C 176 120.333, 175.333 120, 172 120 C 168.667 120, 168 119.667, 168 118 C 168 116.083, 167.333 116, 152 116 C 136.667 116, 136 116.083, 136 118 M 136 122 C 136 123.667, 135.333 124, 132 124 C 128.667 124, 128 124.333, 128 126 C 128 127.333, 127.333 128, 126 128 C 124.222 128, 124 128.667, 124 134 C 124 139.333, 124.222 140, 126 140 C 127.333 140, 128 140.667, 128 142 C 128 143.778, 127.333 144, 122 144 C 116.667 144, 116 144.222, 116 146 C 116 147.778, 116.667 148, 122 148 C 127.333 148, 128 148.222, 128 150 C 128 151.333, 127.333 152, 126 152 C 124.667 152, 124 152.667, 124 154 C 124 155.667, 123.333 156, 120 156 C 116.667 156, 116 156.333, 116 158 C 116 159.333, 115.333 160, 114 160 C 112.222 160, 112 160.667, 112 166 C 112 171.333, 112.222 172, 114 172 C 115.333 172, 116 172.667, 116 174 C 116 175.867, 116.667 176, 126 176 C 135.333 176, 136 175.867, 136 174 C 136 172.333, 136.667 172, 140 172 C 143.333 172, 144 171.667, 144 170 C 144 168.667, 144.667 168, 146 168 C 147.333 168, 148 167.333, 148 166 C 148 164.667, 148.667 164, 150 164 C 151.667 164, 152 163.333, 152 160 C 152 156.667, 151.667 156, 150 156 C 148.667 156, 148 155.333, 148 154 C 148 152.222, 148.667 152, 154 152 C 159.333 152, 160 151.778, 160 150 C 160 148.333, 160.667 148, 164 148 C 167.333 148, 168 147.667, 168 146 C 168 144.667, 168.667 144, 170 144 C 171.333 144, 172 143.333, 172 142 C 172 140.667, 172.667 140, 174 140 C 175.333 140, 176 139.333, 176 138 C 176 136.667, 176.667 136, 178 136 C 179.667 136, 180 135.333, 180 132 C 180 128.667, 179.667 128, 178 128 C 176.667 128, 176 127.333, 176 126 C 176 124.333, 175.333 124, 172 124 C 168.667 124, 168 123.667, 168 122 C 168 120.083, 167.333 120, 152 120 C 136.667 120, 136 120.083, 136 122 M 216 174 C 216 175.333, 215.333 176, 214 176 C 212.667 176, 212 176.667, 212 178 C 212 179.333, 211.333 180, 210 180 C 208.667 180, 208 180.667, 208 182 C 208 183.333, 208.667 184, 210 184 C 211.778 184, 212 184.667, 212 190 C 212 195.333, 211.778 196, 210 196 C 208.667 196, 208 196.667, 208 198 C 208 199.333, 207.333 200, 206 200 C 204.667 200, 204 200.667, 204 202 C 204 203.778, 203.333 204, 198 204 C 192.667 204, 192 203.778, 192 202 C 192 200.667, 192.667 200, 194 200 C 195.333 200, 196 199.333, 196 198 C 196 196.667, 196.667 196, 198 196 C 199.333 196, 200 195.333, 200 194 C 200 192.667, 200.667 192, 202 192 C 203.667 192, 204 191.333, 204 188 C 204 184.667, 203.667 184, 202 184 C 200.333 184, 200 184.667, 200 188 C 200 191.333, 199.667 192, 198 192 C 196.667 192, 196 192.667, 196 194 C 196 195.778, 195.333 196, 190 196 C 184.667 196, 184 196.222, 184 198 C 184 199.333, 184.667 200, 186 200 C 187.333 200, 188 200.667, 188 202 C 188 203.333, 188.667 204, 190 204 C 191.667 204, 192 204.667, 192 208 C 192 211.333, 191.667 212, 190 212 C 188.667 212, 188 212.667, 188 214 C 188 215.333, 187.333 216, 186 216 C 184.222 216, 184 216.667, 184 222 C 184 227.333, 184.222 228, 186 228 C 187.333 228, 188 228.667, 188 230 C 188 231.333, 188.667 232, 190 232 C 191.333 232, 192 232.667, 192 234 C 192 235.333, 192.667 236, 194 236 C 195.333 236, 196 236.667, 196 238 C 196 239.778, 196.667 240, 202 240 C 207.333 240, 208 239.778, 208 238 C 208 236.667, 208.667 236, 210 236 C 211.333 236, 212 235.333, 212 234 C 212 232.333, 211.333 232, 208 232 L 204 232 204 228 C 204 224.667, 204.333 224, 206 224 C 207.333 224, 208 223.333, 208 222 C 208 220.667, 208.667 220, 210 220 C 211.333 220, 212 219.333, 212 218 C 212 216.667, 212.667 216, 214 216 C 215.333 216, 216 215.333, 216 214 C 216 212.667, 216.667 212, 218 212 C 219.667 212, 220 211.333, 220 208 C 220 204.667, 220.333 204, 222 204 C 223.889 204, 224 203.333, 224 192 C 224 180.667, 223.889 180, 222 180 C 220.333 180, 220 179.333, 220 176 C 220 172.667, 219.667 172, 218 172 C 216.667 172, 216 172.667, 216 174 M 132 206 C 132 207.333, 131.333 208, 130 208 C 128.667 208, 128 208.667, 128 210 C 128 211.667, 127.333 212, 124 212 C 120.667 212, 120 212.333, 120 214 C 120 215.333, 120.667 216, 122 216 C 123.333 216, 124 216.667, 124 218 C 124 219.667, 124.667 220, 128 220 C 131.333 220, 132 219.667, 132 218 C 132 216.667, 132.667 216, 134 216 C 135.667 216, 136 216.667, 136 220 L 136 224 140 224 C 143.333 224, 144 223.667, 144 222 C 144 220.667, 144.667 220, 146 220 C 147.667 220, 148 219.333, 148 216 L 148 212 144 212 L 140 212 140 208 L 140 204 136 204 C 132.667 204, 132 204.333, 132 206" stroke="none" fill="black" fill-rule="evenodd"/>
	<path fill-opacity="0.510" d="M 136 118 C 136 119.667, 135.333 120, 132 120 C 128.667 120, 128 120.333, 128 122 C 128 123.333, 127.333 124, 126 124 C 124.667 124, 124 124.667, 124 126 C 124 127.333, 123.333 128, 122 128 C 120.222 128, 120 128.667, 120 134 L 120 140 114 140 C 108.667 140, 108 140.222, 108 142 C 108 143.333, 108.667 144, 110 144 C 111.333 144, 112 144.667, 112 146 C 112 147.333, 112.667 148, 114 148 C 115.667 148, 116 148.667, 116 152 C 116 155.333, 115.667 156, 114 156 C 112.667 156, 112 156.667, 112 158 C 112 159.333, 111.333 160, 110 160 C 108.167 160, 108 160.667, 108 168 C 108 175.333, 108.167 176, 110 176 C 111.333 176, 112 176.667, 112 178 C 112 179.667, 112.667 180, 116 180 C 119.333 180, 120 180.333, 120 182 C 120 183.333, 120.667 184, 122 184 C 123.333 184, 124 184.667, 124 186 C 124 187.333, 123.333 188, 122 188 C 120.333 188, 120 188.667, 120 192 C 120 195.333, 120.333 196, 122 196 C 123.333 196, 124 196.667, 124 198 C 124 199.333, 124.667 200, 126 200 C 127.667 200, 128 200.667, 128 204 L 128 208 124 208 C 120.667 208, 120 207.667, 120 206 C 120 204.667, 119.333 204, 118 204 C 116.222 204, 116 204.667, 116 210 C 116 215.333, 116.222 216, 118 216 C 119.333 216, 120 216.667, 120 218 C 120 219.333, 120.667 220, 122 220 C 123.333 220, 124 220.667, 124 222 C 124 223.333, 124.667 224, 126 224 C 127.833 224, 128 224.667, 128 232 C 128 239.333, 128.167 240, 130 240 C 131.333 240, 132 240.667, 132 242 C 132 243.333, 132.667 244, 134 244 C 135.333 244, 136 244.667, 136 246 C 136 247.333, 136.667 248, 138 248 C 139.667 248, 140 247.333, 140 244 C 140 240.667, 140.333 240, 142 240 C 143.333 240, 144 240.667, 144 242 C 144 243.333, 144.667 244, 146 244 C 147.333 244, 148 244.667, 148 246 C 148 247.333, 148.667 248, 150 248 C 151.333 248, 152 248.667, 152 250 C 152 251.778, 152.667 252, 158 252 C 163.333 252, 164 251.778, 164 250 C 164 248.222, 163.333 248, 158 248 C 152.667 248, 152 247.778, 152 246 C 152 244.667, 151.333 244, 150 244 C 148.667 244, 148 243.333, 148 242 C 148 240.667, 147.333 240, 146 240 C 144.222 240, 144 239.333, 144 234 C 144 228.667, 143.778 228, 142 228 C 140.333 228, 140 228.667, 140 232 C 140 235.333, 139.667 236, 138 236 C 136.667 236, 136 236.667, 136 238 C 136 239.333, 135.333 240, 134 240 C 132.133 240, 132 239.333, 132 230 C 132 220.667, 132.133 220, 134 220 C 135.333 220, 136 219.333, 136 218 C 136 216.667, 135.333 216, 134 216 C 132.667 216, 132 216.667, 132 218 C 132 219.667, 131.333 220, 128 220 C 124.667 220, 124 219.667, 124 218 C 124 216.667, 123.333 216, 122 216 C 120.667 216, 120 215.333, 120 214 C 120 212.333, 120.667 212, 124 212 C 127.333 212, 128 211.667, 128 210 C 128 208.667, 128.667 208, 130 208 C 131.667 208, 132 207.333, 132 204 C 132 200.667, 132.333 200, 134 200 C 135.333 200, 136 199.333, 136 198 C 136 196.222, 135.333 196, 130 196 L 124 196 124 192 C 124 188.667, 124.333 188, 126 188 C 127.333 188, 128 187.333, 128 186 C 128 184.667, 128.667 184, 130 184 C 131.333 184, 132 183.333, 132 182 C 132 180.222, 131.333 180, 126 180 C 120.667 180, 120 179.778, 120 178 C 120 176.333, 119.333 176, 116 176 L 112 176 112 168 C 112 160.667, 112.167 160, 114 160 C 115.333 160, 116 159.333, 116 158 C 116 156.667, 116.667 156, 118 156 C 119.333 156, 120 155.333, 120 154 C 120 152.333, 120.667 152, 124 152 C 127.333 152, 128 151.667, 128 150 C 128 148.222, 127.333 148, 122 148 C 116.667 148, 116 147.778, 116 146 C 116 144.222, 116.667 144, 122 144 C 127.333 144, 128 143.778, 128 142 C 128 140.667, 127.333 140, 126 140 C 124.222 140, 124 139.333, 124 134 C 124 128.667, 124.222 128, 126 128 C 127.333 128, 128 127.333, 128 126 C 128 124.333, 128.667 124, 132 124 C 135.333 124, 136 123.667, 136 122 C 136 120.083, 136.667 120, 152 120 C 167.333 120, 168 120.083, 168 122 C 168 123.667, 168.667 124, 172 124 C 175.333 124, 176 124.333, 176 126 C 176 127.333, 176.667 128, 178 128 C 179.333 128, 180 128.667, 180 130 C 180 131.333, 180.667 132, 182 132 C 183.333 132, 184 132.667, 184 134 C 184 135.333, 184.667 136, 186 136 C 187.333 136, 188 135.333, 188 134 C 188 132.667, 187.333 132, 186 132 C 184.333 132, 184 131.333, 184 128 C 184 124.667, 184.333 124, 186 124 C 187.333 124, 188 123.333, 188 122 C 188 120.667, 188.667 120, 190 120 C 191.778 120, 192 120.667, 192 126 C 192 131.333, 192.222 132, 194 132 C 195.667 132, 196 132.667, 196 136 C 196 139.333, 196.333 140, 198 140 C 199.667 140, 200 139.333, 200 136 C 200 132.667, 199.667 132, 198 132 C 196.222 132, 196 131.333, 196 126 C 196 120.667, 196.222 120, 198 120 C 199.333 120, 200 119.333, 200 118 C 200 116.222, 199.333 116, 194 116 C 188.667 116, 188 116.222, 188 118 C 188 119.333, 187.333 120, 186 120 C 184.667 120, 184 120.667, 184 122 C 184 123.667, 183.333 124, 180 124 C 176.667 124, 176 123.667, 176 122 C 176 120.333, 175.333 120, 172 120 C 168.667 120, 168 119.667, 168 118 C 168 116.083, 167.333 116, 152 116 C 136.667 116, 136 116.083, 136 118 M 172 154 C 172 155.667, 171.333 156, 168 156 C 164.667 156, 164 156.333, 164 158 C 164 159.333, 163.333 160, 162 160 C 160.667 160, 160 160.667, 160 162 C 160 163.667, 159.333 164, 156 164 C 152.667 164, 152 164.333, 152 166 C 152 167.333, 151.333 168, 150 168 C 148.667 168, 148 168.667, 148 170 C 148 171.333, 147.333 172, 146 172 C 144.667 172, 144 172.667, 144 174 C 144 175.333, 144.667 176, 146 176 C 147.333 176, 148 175.333, 148 174 C 148 172.667, 148.667 172, 150 172 C 151.333 172, 152 171.333, 152 170 C 152 168.333, 152.667 168, 156 168 C 159.333 168, 160 167.667, 160 166 C 160 164.667, 160.667 164, 162 164 C 163.333 164, 164 163.333, 164 162 C 164 160.333, 164.667 160, 168 160 C 171.333 160, 172 159.667, 172 158 C 172 156.133, 172.667 156, 182 156 C 191.333 156, 192 156.133, 192 158 C 192 159.333, 192.667 160, 194 160 C 195.333 160, 196 159.333, 196 158 C 196 156.667, 195.333 156, 194 156 C 192.667 156, 192 155.333, 192 154 C 192 152.133, 191.333 152, 182 152 C 172.667 152, 172 152.133, 172 154 M 216 176 C 216 179.333, 216.333 180, 218 180 C 219.889 180, 220 180.667, 220 192 C 220 203.333, 219.889 204, 218 204 C 216.333 204, 216 204.667, 216 208 C 216 211.333, 215.667 212, 214 212 C 212.667 212, 212 212.667, 212 214 C 212 215.333, 211.333 216, 210 216 C 208.667 216, 208 216.667, 208 218 C 208 219.333, 207.333 220, 206 220 C 204.667 220, 204 220.667, 204 222 C 204 223.333, 203.333 224, 202 224 C 200.333 224, 200 224.667, 200 228 C 200 231.333, 200.333 232, 202 232 C 203.333 232, 204 232.667, 204 234 C 204 235.667, 203.333 236, 200 236 C 196.667 236, 196 235.667, 196 234 C 196 232.667, 195.333 232, 194 232 C 192.667 232, 192 231.333, 192 230 C 192 228.667, 191.333 228, 190 228 C 188.222 228, 188 227.333, 188 222 C 188 216.667, 188.222 216, 190 216 C 191.333 216, 192 215.333, 192 214 C 192 212.667, 192.667 212, 194 212 C 195.333 212, 196 211.333, 196 210 C 196 208.333, 196.667 208, 200 208 C 203.333 208, 204 207.667, 204 206 C 204 204.667, 204.667 204, 206 204 C 207.333 204, 208 203.333, 208 202 C 208 200.667, 207.333 200, 206 200 C 204.667 200, 204 200.667, 204 202 C 204 203.778, 203.333 204, 198 204 C 192.667 204, 192 203.778, 192 202 C 192 200.667, 192.667 200, 194 200 C 195.333 200, 196 199.333, 196 198 C 196 196.667, 196.667 196, 198 196 C 199.333 196, 200 195.333, 200 194 C 200 192.667, 200.667 192, 202 192 C 203.667 192, 204 191.333, 204 188 C 204 184.667, 203.667 184, 202 184 C 200.333 184, 200 184.667, 200 188 C 200 191.333, 199.667 192, 198 192 C 196.667 192, 196 192.667, 196 194 C 196 195.778, 195.333 196, 190 196 C 184.667 196, 184 196.222, 184 198 C 184 199.333, 184.667 200, 186 200 C 187.333 200, 188 200.667, 188 202 C 188 203.333, 188.667 204, 190 204 C 191.667 204, 192 204.667, 192 208 C 192 211.333, 191.667 212, 190 212 C 188.667 212, 188 212.667, 188 214 C 188 215.333, 187.333 216, 186 216 C 184.222 216, 184 216.667, 184 222 C 184 227.333, 184.222 228, 186 228 C 187.333 228, 188 228.667, 188 230 C 188 231.333, 188.667 232, 190 232 C 191.333 232, 192 232.667, 192 234 C 192 235.333, 192.667 236, 194 236 C 195.333 236, 196 236.667, 196 238 C 196 239.778, 196.667 240, 202 240 C 207.333 240, 208 239.778, 208 238 C 208 236.667, 208.667 236, 210 236 C 211.333 236, 212 235.333, 212 234 C 212 232.333, 211.333 232, 208 232 L 204 232 204 228 C 204 224.667, 204.333 224, 206 224 C 207.333 224, 208 223.333, 208 222 C 208 220.667, 208.667 220, 210 220 C 211.333 220, 212 219.333, 212 218 C 212 216.667, 212.667 216, 214 216 C 215.333 216, 216 215.333, 216 214 C 216 212.667, 216.667 212, 218 212 C 219.667 212, 220 211.333, 220 208 C 220 204.667, 220.333 204, 222 204 C 223.889 204, 224 203.333, 224 192 C 224 180.667, 223.889 180, 222 180 C 220.333 180, 220 179.333, 220 176 C 220 172.667, 219.667 172, 218 172 C 216.333 172, 216 172.667, 216 176" stroke="none" fill="black" fill-rule="evenodd"/>
</svg>