<svg xmlns="http://www.w3.org/2000/svg" width="400" height="400" viewBox="0 0 400 400" version="1.1">
	<path fill-opacity="0.200" d="M 168 118 C 168 119.667, 167.333 120, 164 120 C 160.667 120, 160 120.333, 160 122 C 160 123.778, 159.333 124, 154 124 C 148.667 124, 148 124.222, 148 126 C 148 127.667, 147.333 128, 144 128 C 140.667 128, 140 128.333, 140 130 C 140 131.333, 139.333 132, 138 132 C 136.667 132, 136 132.667, 136 134 C 136 135.333, 135.333 136, 134 136 C 132.333 136, 132 136.667, 132 140 C 132 143.333, 131.667 144, 130 144 C 128.222 144, 128 144.667, 128 150 C 128 155.333, 127.778 156, 126 156 C 124.667 156, 124 156.667, 124 158 C 124 159.333, 123.333 160, 122 160 C 120.667 160, 120 160.667, 120 162 C 120 163.778, 120.667 164, 126 164 L 132 164 132 176 C 132 187.333, 132.111 188, 134 188 C 135.333 188, 136 187.333, 136 186 C 136 184.667, 136.667 184, 138 184 C 139.333 184, 140 183.333, 140 182 C 140 180.333, 140.667 180, 144 180 L 148 180 148 174 C 148 168.667, 148.222 168, 150 168 C 151.333 168, 152 167.333, 152 166 C 152 164.667, 152.667 164, 154 164 C 155.333 164, 156 163.333, 156 162 C 156 160.667, 156.667 160, 158 160 C 159.867 160, 160 160.667, 160 170 L 160 180 164 180 C 167.333 180, 168 179.667, 168 178 C 168 176.667, 168.667 176, 170 176 C 171.333 176, 172 175.333, 172 174 C 172 172.667, 172.667 172, 174 172 C 175.667 172, 176 171.333, 176 168 L 176 164 180 164 C 183.333 164, 184 164.333, 184 166 C 184 167.333, 184.667 168, 186 168 C 187.667 168, 188 168.667, 188 172 C 188 175.333, 188.333 176, 190 176 C 191.333 176, 192 176.667, 192 178 C 192 179.333, 192.667 180, 194 180 C 195.333 180, 196 180.667, 196 182 C 196 183.333, 196.667 184, 198 184 C 199.667 184, 200 184.667, 200 188 C 200 191.333, 199.667 192, 198 192 C 196.167 192, 196 192.667, 196 200 C 196 207.333, 195.833 208, 194 208 C 192.667 208, 192 208.667, 192 210 C 192 211.333, 191.333 212, 190 212 C 188.167 212, 188 212.667, 188 220 C 188 227.333, 188.167 228, 190 228 C 191.667 228, 192 228.667, 192 232 L 192 236 196 236 L 200 236 200 240 C 200 243.333, 199.667 244, 198 244 C 196.333 244, 196 244.667, 196 248 C 196 251.333, 195.667 252, 194 252 C 192.667 252, 192 251.333, 192 250 C 192 248.667, 191.333 248, 190 248 C 188.222 248, 188 247.333, 188 242 C 188 236.667, 187.778 236, 186 236 C 184.222 236, 184 236.667, 184 242 C 184 247.333, 184.222 248, 186 248 C 187.667 248, 188 248.667, 188 252 L 188 256 192 256 C 195.333 256, 196 255.667, 196 254 C 196 252.667, 196.667 252, 198 252 C 199.333 252, 200 252.667, 200 254 C 200 255.333, 200.667 256, 202 256 C 203.667 256, 204 255.333, 204 252 C 204 248.667, 204.333 248, 206 248 C 207.778 248, 208 247.333, 208 242 L 208 236 204 236 C 200.667 236, 200 235.667, 200 234 C 200 232.667, 200.667 232, 202 232 C 203.333 232, 204 231.333, 204 230 C 204 228.667, 204.667 228, 206 228 C 207.333 228, 208 227.333, 208 226 C 208 224.667, 208.667 224, 210 224 C 211.667 224, 212 223.333, 212 220 C 212 216.667, 212.333 216, 214 216 C 215.333 216, 216 215.333, 216 214 C 216 212.667, 216.667 212, 218 212 C 219.778 212, 220 211.333, 220 206 C 220 200.667, 220.222 200, 222 200 C 223.889 200, 224 199.333, 224 188 C 224 176.667, 223.889 176, 222 176 C 220.667 176, 220 175.333, 220 174 C 220 172.667, 219.333 172, 218 172 C 216.667 172, 216 172.667, 216 174 C 216 175.333, 215.333 176, 214 176 C 212.667 176, 212 176.667, 212 178 C 212 179.333, 211.333 180, 210 180 C 208.222 180, 208 180.667, 208 186 C 208 191.333, 207.778 192, 206 192 C 204.333 192, 204 191.333, 204 188 C 204 184.667, 203.667 184, 202 184 C 200.083 184, 200 183.333, 200 168 C 200 152.667, 199.917 152, 198 152 C 196.667 152, 196 152.667, 196 154 C 196 155.333, 195.333 156, 194 156 C 192.667 156, 192 156.667, 192 158 C 192 159.778, 191.333 160, 186 160 L 180 160 180 156 C 180 152.667, 179.667 152, 178 152 C 176.222 152, 176 152.667, 176 158 L 176 164 172 164 C 168.667 164, 168 163.667, 168 162 C 168 160.667, 167.333 160, 166 160 C 164.167 160, 164 159.333, 164 152 C 164 144.667, 164.167 144, 166 144 C 167.333 144, 168 143.333, 168 142 C 168 140.667, 167.333 140, 166 140 C 164.667 140, 164 140.667, 164 142 C 164 143.333, 163.333 144, 162 144 C 160.667 144, 160 144.667, 160 146 C 160 147.333, 159.333 148, 158 148 C 156.667 148, 156 148.667, 156 150 C 156 151.333, 155.333 152, 154 152 C 152.667 152, 152 152.667, 152 154 C 152 155.667, 151.333 156, 148 156 L 144 156 144 150 C 144 144.667, 143.778 144, 142 144 C 140.667 144, 140 144.667, 140 146 C 140 147.333, 139.333 148, 138 148 C 136.222 148, 136 147.333, 136 142 C 136 136.667, 136.222 136, 138 136 C 139.333 136, 140 135.333, 140 134 C 140 132.222, 140.667 132, 146 132 C 151.333 132, 152 131.778, 152 130 C 152 128.133, 152.667 128, 162 128 C 171.333 128, 172 128.133, 172 130 C 172 131.778, 172.667 132, 178 132 C 183.333 132, 184 132.222, 184 134 C 184 135.667, 184.667 136, 188 136 C 191.333 136, 192 136.333, 192 138 C 192 139.778, 192.667 140, 198 140 C 203.333 140, 204 139.778, 204 138 C 204 136.667, 204.667 136, 206 136 C 207.333 136, 208 136.667, 208 138 C 208 139.333, 208.667 140, 210 140 C 211.333 140, 212 140.667, 212 142 C 212 143.333, 212.667 144, 214 144 C 215.333 144, 216 144.667, 216 146 C 216 147.333, 216.667 148, 218 148 C 219.667 148, 220 147.333, 220 144 C 220 140.667, 219.667 140, 218 140 C 216.333 140, 216 139.333, 216 136 C 216 132.667, 215.667 132, 214 132 C 212.667 132, 212 131.333, 212 130 C 212 128.667, 211.333 128, 210 128 C 208.667 128, 208 127.333, 208 126 C 208 124.333, 207.333 124, 204 124 C 200.667 124, 200 123.667, 200 122 C 200 120.333, 199.333 120, 196 120 C 192.667 120, 192 119.667, 192 118 C 192 116.111, 191.333 116, 180 116 C 168.667 116, 168 116.111, 168 118 M 168 122 C 168 123.889, 168.667 124, 180 124 C 191.333 124, 192 124.111, 192 126 C 192 127.667, 192.667 128, 196 128 C 199.333 128, 200 128.333, 200 130 C 200 131.333, 200.667 132, 202 132 C 203.333 132, 204 131.333, 204 130 C 204 128.667, 203.333 128, 202 128 C 200.667 128, 200 127.333, 200 126 C 200 124.333, 199.333 124, 196 124 C 192.667 124, 192 123.667, 192 122 C 192 120.111, 191.333 120, 180 120 C 168.667 120, 168 120.111, 168 122 M 212 190 C 212 191.333, 211.333 192, 210 192 C 208.333 192, 208 192.667, 208 196 L 208 200 212 200 C 215.333 200, 216 199.667, 216 198 C 216 196.667, 216.667 196, 218 196 C 219.667 196, 220 195.333, 220 192 L 220 188 216 188 C 212.667 188, 212 188.333, 212 190 M 200 200 C 200 207.333, 199.833 208, 198 208 C 196.667 208, 196 208.667, 196 210 C 196 211.333, 195.333 212, 194 212 C 192.333 212, 192 212.667, 192 216 C 192 219.333, 192.333 220, 194 220 C 195.667 220, 196 220.667, 196 224 L 196 228 200 228 C 203.333 228, 204 227.667, 204 226 C 204 224.667, 204.667 224, 206 224 C 207.333 224, 208 223.333, 208 222 C 208 220.222, 207.333 220, 202 220 C 196.667 220, 196 219.778, 196 218 C 196 216.667, 196.667 216, 198 216 C 199.667 216, 200 215.333, 200 212 C 200 208.667, 200.333 208, 202 208 C 203.667 208, 204 208.667, 204 212 L 204 216 208 216 C 211.333 216, 212 215.667, 212 214 C 212 212.667, 212.667 212, 214 212 C 215.667 212, 216 211.333, 216 208 L 216 204 212 204 C 208.667 204, 208 204.333, 208 206 C 208 207.333, 207.333 208, 206 208 C 204.167 208, 204 207.333, 204 200 C 204 192.667, 203.833 192, 202 192 C 200.167 192, 200 192.667, 200 200 M 156 218 C 156 223.333, 156.222 224, 158 224 C 159.667 224, 160 224.667, 160 228 C 160 231.333, 159.667 232, 158 232 C 156.667 232, 156 232.667, 156 234 C 156 235.333, 155.333 236, 154 236 C 152.167 236, 152 236.667, 152 244 C 152 251.333, 152.167 252, 154 252 C 155.333 252, 156 251.333, 156 250 C 156 248.667, 156.667 248, 158 248 C 159.333 248, 160 248.667, 160 250 C 160 251.333, 160.667 252, 162 252 C 163.667 252, 164 251.333, 164 248 C 164 244.667, 163.667 244, 162 244 C 160.222 244, 160 243.333, 160 238 C 160 232.667, 160.222 232, 162 232 C 163.778 232, 164 231.333, 164 226 C 164 220.667, 164.222 220, 166 220 C 167.667 220, 168 219.333, 168 216 L 168 212 162 212 L 156 212 156 218" stroke="none" fill="black" fill-rule="evenodd"/>
	<path fill-opacity="0.451" d="M 168 118 C 168 119.667, 167.333 120, 164 120 C 160.667 120, 160 120.333, 160 122 C 160 123.778, 159.333 124, 154 124 C 148.667 124, 148 124.222, 148 126 C 148 127.667, 147.333 128, 144 128 C 140.667 128, 140 128.333, 140 130 C 140 131.333, 139.333 132, 138 132 C 136.667 132, 136 132.667, 136 134 C 136 135.333, 135.333 136, 134 136 C 132.333 136, 132 136.667, 132 140 C 132 143.333, 131.667 144, 130 144 C 128.222 144, 128 144.667, 128 150 C 128 155.333, 127.778 156, 126 156 C 124.667 156, 124 156.667, 124 158 C 124 159.333, 123.333 160, 122 160 C 120.667 160, 120 160.667, 120 162 C 120 163.778, 120.667 164, 126 164 L 132 164 132 176 C 132 187.333, 132.111 188, 134 188 C 135.333 188, 136 187.333, 136 186 C 136 184.667, 136.667 184, 138 184 C 139.333 184, 140 183.333, 140 182 C 140 180.333, 140.667 180, 144 180 C 147.333 180, 148 179.667, 148 178 C 148 176.333, 147.333 176, 144 176 C 140.667 176, 140 176.333, 140 178 C 140 179.333, 139.333 180, 138 180 C 136.133 180, 136 179.333, 136 170 C 136 160.667, 136.133 160, 138 160 C 139.333 160, 140 159.333, 140 158 C 140 156.667, 139.333 156, 138 156 C 136.667 156, 136 156.667, 136 158 C 136 159.667, 135.333 160, 132 160 C 128.667 160, 128 159.667, 128 158 C 128 156.667, 128.667 156, 130 156 C 131.778 156, 132 155.333, 132 150 C 132 144.667, 132.222 144, 134 144 C 135.667 144, 136 143.333, 136 140 C 136 136.667, 136.333 136, 138 136 C 139.333 136, 140 135.333, 140 134 C 140 132.333, 140.667 132, 144 132 C 147.333 132, 148 131.667, 148 130 C 148 128.095, 148.667 128, 162 128 C 175.333 128, 176 128.095, 176 130 C 176 131.667, 176.667 132, 180 132 C 183.333 132, 184 132.333, 184 134 C 184 135.667, 184.667 136, 188 136 C 191.333 136, 192 136.333, 192 138 C 192 139.778, 192.667 140, 198 140 L 204 140 204 136 C 204 132.667, 203.667 132, 202 132 C 200.667 132, 200 131.333, 200 130 C 200 128.333, 200.667 128, 204 128 C 207.333 128, 208 128.333, 208 130 C 208 131.333, 208.667 132, 210 132 C 211.667 132, 212 132.667, 212 136 C 212 139.333, 212.333 140, 214 140 C 215.667 140, 216 140.667, 216 144 C 216 147.333, 216.333 148, 218 148 C 219.667 148, 220 147.333, 220 144 C 220 140.667, 219.667 140, 218 140 C 216.333 140, 216 139.333, 216 136 C 216 132.667, 215.667 132, 214 132 C 212.667 132, 212 131.333, 212 130 C 212 128.667, 211.333 128, 210 128 C 208.667 128, 208 127.333, 208 126 C 208 124.333, 207.333 124, 204 124 C 200.667 124, 200 123.667, 200 122 C 200 120.333, 199.333 120, 196 120 C 192.667 120, 192 119.667, 192 118 C 192 116.111, 191.333 116, 180 116 C 168.667 116, 168 116.111, 168 118 M 168 122 C 168 123.889, 168.667 124, 180 124 C 191.333 124, 192 124.111, 192 126 C 192 127.667, 192.667 128, 196 128 C 199.333 128, 200 127.667, 200 126 C 200 124.333, 199.333 124, 196 124 C 192.667 124, 192 123.667, 192 122 C 192 120.111, 191.333 120, 180 120 C 168.667 120, 168 120.111, 168 122 M 160 154 C 160 155.333, 159.333 156, 158 156 C 156.667 156, 156 156.667, 156 158 C 156 159.333, 155.333 160, 154 160 C 152.667 160, 152 160.667, 152 162 C 152 163.333, 151.333 164, 150 164 C 148.667 164, 148 164.667, 148 166 C 148 167.333, 148.667 168, 150 168 C 151.333 168, 152 167.333, 152 166 C 152 164.667, 152.667 164, 154 164 C 155.333 164, 156 163.333, 156 162 C 156 160.667, 156.667 160, 158 160 C 159.867 160, 160 160.667, 160 170 L 160 180 164 180 C 167.333 180, 168 179.667, 168 178 C 168 176.667, 168.667 176, 170 176 C 171.333 176, 172 175.333, 172 174 C 172 172.667, 172.667 172, 174 172 C 175.667 172, 176 171.333, 176 168 L 176 164 180 164 C 183.333 164, 184 164.333, 184 166 C 184 167.333, 184.667 168, 186 168 C 187.667 168, 188 168.667, 188 172 C 188 175.333, 188.333 176, 190 176 C 191.333 176, 192 176.667, 192 178 C 192 179.333, 192.667 180, 194 180 C 195.333 180, 196 180.667, 196 182 C 196 183.333, 196.667 184, 198 184 C 199.667 184, 200 184.667, 200 188 C 200 191.333, 199.667 192, 198 192 C 196.167 192, 196 192.667, 196 200 C 196 207.333, 195.833 208, 194 208 C 192.667 208, 192 208.667, 192 210 C 192 211.333, 191.333 212, 190 212 C 188.167 212, 188 212.667, 188 220 C 188 227.333, 188.167 228, 190 228 C 191.667 228, 192 228.667, 192 232 L 192 236 196 236 C 199.333 236, 200 235.667, 200 234 C 200 232.667, 200.667 232, 202 232 C 203.333 232, 204 231.333, 204 230 C 204 228.667, 204.667 228, 206 228 C 207.333 228, 208 227.333, 208 226 C 208 224.667, 208.667 224, 210 224 C 211.667 224, 212 223.333, 212 220 C 212 216.667, 212.333 216, 214 216 C 215.333 216, 216 215.333, 216 214 C 216 212.667, 216.667 212, 218 212 C 219.778 212, 220 211.333, 220 206 C 220 200.667, 220.222 200, 222 200 C 223.889 200, 224 199.333, 224 188 C 224 176.667, 223.889 176, 222 176 C 220.667 176, 220 175.333, 220 174 C 220 172.667, 219.333 172, 218 172 C 216.667 172, 216 172.667, 216 174 C 216 175.333, 216.667 176, 218 176 C 219.667 176, 220 176.667, 220 180 L 220 184 216 184 C 212.667 184, 212 184.333, 212 186 C 212 187.667, 212.667 188, 216 188 L 220 188 220 194 L 220 200 216 200 C 212.667 200, 212 200.333, 212 202 C 212 203.333, 212.667 204, 214 204 C 215.667 204, 216 204.667, 216 208 C 216 211.333, 215.667 212, 214 212 C 212.667 212, 212 212.667, 212 214 C 212 215.667, 211.333 216, 208 216 C 204.667 216, 204 216.333, 204 218 C 204 219.333, 204.667 220, 206 220 C 207.333 220, 208 220.667, 208 222 C 208 223.333, 207.333 224, 206 224 C 204.667 224, 204 224.667, 204 226 C 204 227.778, 203.333 228, 198 228 L 192 228 192 220 C 192 212.667, 192.167 212, 194 212 C 195.333 212, 196 211.333, 196 210 C 196 208.667, 196.667 208, 198 208 C 199.333 208, 200 208.667, 200 210 C 200 211.333, 200.667 212, 202 212 C 203.333 212, 204 211.333, 204 210 C 204 208.667, 203.333 208, 202 208 C 200.167 208, 200 207.333, 200 200 C 200 192.667, 200.167 192, 202 192 C 203.333 192, 204 192.667, 204 194 C 204 195.333, 204.667 196, 206 196 C 207.333 196, 208 195.333, 208 194 C 208 192.667, 207.333 192, 206 192 C 204.333 192, 204 191.333, 204 188 C 204 184.667, 203.667 184, 202 184 C 200.083 184, 200 183.333, 200 168 C 200 152.667, 199.917 152, 198 152 C 196.111 152, 196 152.667, 196 164 C 196 175.333, 195.889 176, 194 176 C 192.333 176, 192 175.333, 192 172 C 192 168.667, 191.667 168, 190 168 C 188.667 168, 188 167.333, 188 166 C 188 164.667, 187.333 164, 186 164 C 184.667 164, 184 163.333, 184 162 C 184 160.667, 183.333 160, 182 160 C 180.667 160, 180 159.333, 180 158 C 180 156.667, 179.333 156, 178 156 C 176.333 156, 176 156.667, 176 160 C 176 163.333, 175.667 164, 174 164 C 172.333 164, 172 164.667, 172 168 C 172 171.333, 171.667 172, 170 172 C 168.667 172, 168 172.667, 168 174 C 168 175.333, 167.333 176, 166 176 C 164.111 176, 164 175.333, 164 164 C 164 152.667, 163.889 152, 162 152 C 160.667 152, 160 152.667, 160 154 M 156 218 C 156 223.333, 156.222 224, 158 224 C 159.667 224, 160 224.667, 160 228 C 160 231.333, 159.667 232, 158 232 C 156.667 232, 156 232.667, 156 234 C 156 235.333, 155.333 236, 154 236 C 152.167 236, 152 236.667, 152 244 C 152 251.333, 152.167 252, 154 252 C 155.333 252, 156 251.333, 156 250 C 156 248.667, 156.667 248, 158 248 C 159.333 248, 160 248.667, 160 250 C 160 251.333, 160.667 252, 162 252 C 163.333 252, 164 251.333, 164 250 C 164 248.667, 163.333 248, 162 248 C 160.667 248, 160 247.333, 160 246 C 160 244.667, 159.333 244, 158 244 C 156.333 244, 156 243.333, 156 240 C 156 236.667, 156.333 236, 158 236 C 159.333 236, 160 235.333, 160 234 C 160 232.667, 160.667 232, 162 232 C 163.667 232, 164 231.333, 164 228 C 164 224.667, 163.667 224, 162 224 C 160.222 224, 160 223.333, 160 218 C 160 212.667, 159.778 212, 158 212 C 156.222 212, 156 212.667, 156 218 M 184 242 C 184 247.333, 184.222 248, 186 248 C 187.667 248, 188 248.667, 188 252 L 188 256 192 256 C 195.333 256, 196 255.667, 196 254 C 196 252.667, 196.667 252, 198 252 C 199.333 252, 200 252.667, 200 254 C 200 255.333, 200.667 256, 202 256 C 203.667 256, 204 255.333, 204 252 C 204 248.667, 204.333 248, 206 248 C 207.778 248, 208 247.333, 208 242 C 208 236.667, 207.778 236, 206 236 C 204.222 236, 204 236.667, 204 242 L 204 248 200 248 C 196.667 248, 196 248.333, 196 250 C 196 251.333, 195.333 252, 194 252 C 192.667 252, 192 251.333, 192 250 C 192 248.667, 191.333 248, 190 248 C 188.222 248, 188 247.333, 188 242 C 188 236.667, 187.778 236, 186 236 C 184.222 236, 184 236.667, 184 242" stroke="none" fill="black" fill-rule="evenodd"/>
	<path fill-opacity="0.036" d="M 168 118 C 168 119.667, 167.333 120, 164 120 C 160.667 120, 160 120.333, 160 122 C 160 123.778, 159.333 124, 154 124 C 148.667 124, 148 124.222, 148 126 C 148 127.667, 147.333 128, 144 128 C 140.667 128, 140 128.333, 140 130 C 140 131.333, 139.333 132, 138 132 C 136.667 132, 136 132.667, 136 134 C 136 135.333, 135.333 136, 134 136 C 132.333 136, 132 136.667, 132 140 C 132 143.333, 131.667 144, 130 144 C 128.222 144, 128 144.667, 128 150 C 128 155.333, 127.778 156, 126 156 C 124.667 156, 124 156.667, 124 158 C 124 159.333, 123.333 160, 122 160 C 120.667 160, 120 160.667, 120 162 C 120 163.778, 120.667 164, 126 164 L 132 164 132 176 C 132 187.333, 132.111 188, 134 188 C 135.333 188, 136 187.333, 136 186 C 136 184.667, 136.667 184, 138 184 C 139.333 184, 140 183.333, 140 182 C 140 180.333, 140.667 180, 144 180 C 147.333 180, 148 179.667, 148 178 C 148 176.333, 147.333 176, 144 176 C 140.667 176, 140 176.333, 140 178 C 140 179.333, 139.333 180, 138 180 C 136.133 180, 136 179.333, 136 170 C 136 160.667, 136.133 160, 138 160 C 139.333 160, 140 159.333, 140 158 C 140 156.667, 139.333 156, 138 156 C 136.667 156, 136 156.667, 136 158 C 136 159.667, 135.333 160, 132 160 C 128.667 160, 128 159.667, 128 158 C 128 156.667, 128.667 156, 130 156 C 131.778 156, 132 155.333, 132 150 C 132 144.667, 132.222 144, 134 144 C 135.667 144, 136 143.333, 136 140 C 136 136.667, 136.333 136, 138 136 C 139.333 136, 140 135.333, 140 134 C 140 132.333, 140.667 132, 144 132 C 147.333 132, 148 131.667, 148 130 C 148 128.095, 148.667 128, 162 128 C 175.333 128, 176 128.095, 176 130 C 176 131.667, 176.667 132, 180 132 C 183.333 132, 184 132.333, 184 134 C 184 135.667, 184.667 136, 188 136 C 191.333 136, 192 136.333, 192 138 C 192 139.333, 192.667 140, 194 140 C 195.333 140, 196 139.333, 196 138 C 196 136.667, 195.333 136, 194 136 C 192.667 136, 192 135.333, 192 134 C 192 132.333, 192.667 132, 196 132 C 199.333 132, 200 132.333, 200 134 C 200 135.333, 200.667 136, 202 136 C 203.333 136, 204 135.333, 204 134 C 204 132.667, 203.333 132, 202 132 C 200.667 132, 200 131.333, 200 130 C 200 128.333, 200.667 128, 204 128 C 207.333 128, 208 128.333, 208 130 C 208 131.333, 208.667 132, 210 132 C 211.667 132, 212 132.667, 212 136 C 212 139.333, 212.333 140, 214 140 C 215.667 140, 216 140.667, 216 144 C 216 147.333, 216.333 148, 218 148 C 219.667 148, 220 147.333, 220 144 C 220 140.667, 219.667 140, 218 140 C 216.333 140, 216 139.333, 216 136 C 216 132.667, 215.667 132, 214 132 C 212.667 132, 212 131.333, 212 130 C 212 128.667, 211.333 128, 210 128 C 208.667 128, 208 127.333, 208 126 C 208 124.333, 207.333 124, 204 124 C 200.667 124, 200 123.667, 200 122 C 200 120.333, 199.333 120, 196 120 C 192.667 120, 192 119.667, 192 118 C 192 116.111, 191.333 116, 180 116 C 168.667 116, 168 116.111, 168 118 M 168 122 C 168 123.889, 168.667 124, 180 124 C 191.333 124, 192 124.111, 192 126 C 192 127.667, 191.333 128, 188 128 C 184.667 128, 184 128.333, 184 130 C 184 131.667, 184.667 132, 188 132 C 191.333 132, 192 131.667, 192 130 C 192 128.333, 192.667 128, 196 128 C 199.333 128, 200 127.667, 200 126 C 200 124.333, 199.333 124, 196 124 C 192.667 124, 192 123.667, 192 122 C 192 120.111, 191.333 120, 180 120 C 168.667 120, 168 120.111, 168 122 M 160 154 C 160 155.333, 159.333 156, 158 156 C 156.667 156, 156 156.667, 156 158 C 156 159.333, 155.333 160, 154 160 C 152.667 160, 152 160.667, 152 162 C 152 163.333, 151.333 164, 150 164 C 148.667 164, 148 164.667, 148 166 C 148 167.333, 148.667 168, 150 168 C 151.333 168, 152 167.333, 152 166 C 152 164.667, 152.667 164, 154 164 C 155.333 164, 156 163.333, 156 162 C 156 160.667, 156.667 160, 158 160 C 159.867 160, 160 160.667, 160 170 L 160 180 164 180 C 167.333 180, 168 179.667, 168 178 C 168 176.667, 168.667 176, 170 176 C 171.333 176, 172 175.333, 172 174 C 172 172.667, 172.667 172, 174 172 C 175.667 172, 176 171.333, 176 168 L 176 164 180 164 C 183.333 164, 184 164.333, 184 166 C 184 167.333, 184.667 168, 186 168 C 187.667 168, 188 168.667, 188 172 C 188 175.333, 188.333 176, 190 176 C 191.333 176, 192 176.667, 192 178 C 192 179.333, 192.667 180, 194 180 C 195.333 180, 196 180.667, 196 182 C 196 183.333, 196.667 184, 198 184 C 199.667 184, 200 184.667, 200 188 C 200 191.333, 199.667 192, 198 192 C 196.167 192, 196 192.667, 196 200 C 196 207.333, 195.833 208, 194 208 C 192.667 208, 192 208.667, 192 210 C 192 211.333, 191.333 212, 190 212 C 188.167 212, 188 212.667, 188 220 C 188 227.333, 188.167 228, 190 228 C 191.333 228, 192 228.667, 192 230 C 192 231.778, 192.667 232, 198 232 C 203.333 232, 204 231.778, 204 230 C 204 228.667, 204.667 228, 206 228 C 207.333 228, 208 227.333, 208 226 C 208 224.667, 208.667 224, 210 224 C 211.667 224, 212 223.333, 212 220 C 212 216.667, 212.333 216, 214 216 C 215.333 216, 216 215.333, 216 214 C 216 212.667, 216.667 212, 218 212 C 219.778 212, 220 211.333, 220 206 C 220 200.667, 220.222 200, 222 200 C 223.889 200, 224 199.333, 224 188 C 224 176.667, 223.889 176, 222 176 C 220.667 176, 220 175.333, 220 174 C 220 172.667, 219.333 172, 218 172 C 216.667 172, 216 172.667, 216 174 C 216 175.333, 216.667 176, 218 176 C 219.667 176, 220 176.667, 220 180 L 220 184 216 184 C 212.667 184, 212 184.333, 212 186 C 212 187.667, 212.667 188, 216 188 L 220 188 220 194 L 220 200 216 200 C 212.667 200, 212 200.333, 212 202 C 212 203.333, 212.667 204, 214 204 C 215.667 204, 216 204.667, 216 208 C 216 211.333, 215.667 212, 214 212 C 212.667 212, 212 212.667, 212 214 C 212 215.667, 211.333 216, 208 216 C 204.667 216, 204 216.333, 204 218 C 204 219.333, 204.667 220, 206 220 C 207.333 220, 208 220.667, 208 222 C 208 223.333, 207.333 224, 206 224 C 204.667 224, 204 224.667, 204 226 C 204 227.778, 203.333 228, 198 228 L 192 228 192 220 C 192 212.667, 192.167 212, 194 212 C 195.333 212, 196 211.333, 196 210 C 196 208.667, 196.667 208, 198 208 C 199.333 208, 200 208.667, 200 210 C 200 211.333, 200.667 212, 202 212 C 203.333 212, 204 211.333, 204 210 C 204 208.667, 203.333 208, 202 208 C 200.167 208, 200 207.333, 200 200 C 200 192.667, 200.167 192, 202 192 C 203.333 192, 204 192.667, 204 194 C 204 195.333, 204.667 196, 206 196 C 207.333 196, 208 195.333, 208 194 C 208 192.667, 207.333 192, 206 192 C 204.333 192, 204 191.333, 204 188 C 204 184.667, 203.667 184, 202 184 C 200.083 184, 200 183.333, 200 168 C 200 152.667, 199.917 152, 198 152 C 196.111 152, 196 152.667, 196 164 C 196 175.333, 195.889 176, 194 176 C 192.333 176, 192 175.333, 192 172 C 192 168.667, 191.667 168, 190 168 C 188.667 168, 188 167.333, 188 166 C 188 164.667, 187.333 164, 186 164 C 184.667 164, 184 163.333, 184 162 C 184 160.667, 183.333 160, 182 160 C 180.667 160, 180 159.333, 180 158 C 180 156.667, 179.333 156, 178 156 C 176.333 156, 176 156.667, 176 160 C 176 163.333, 175.667 164, 174 164 C 172.333 164, 172 164.667, 172 168 C 172 171.333, 171.667 172, 170 172 C 168.667 172, 168 172.667, 168 174 C 168 175.333, 167.333 176, 166 176 C 164.111 176, 164 175.333, 164 164 C 164 152.667, 163.889 152, 162 152 C 160.667 152, 160 152.667, 160 154 M 156 218 C 156 223.333, 156.222 224, 158 224 C 159.667 224, 160 224.667, 160 228 C 160 231.333, 159.667 232, 158 232 C 156.667 232, 156 232.667, 156 234 C 156 235.333, 155.333 236, 154 236 C 152.167 236, 152 236.667, 152 244 C 152 251.333, 152.167 252, 154 252 C 155.333 252, 156 251.333, 156 250 C 156 248.667, 156.667 248, 158 248 C 159.333 248, 160 248.667, 160 250 C 160 251.333, 160.667 252, 162 252 C 163.333 252, 164 251.333, 164 250 C 164 248.667, 163.333 248, 162 248 C 160.667 248, 160 247.333, 160 246 C 160 244.667, 159.333 244, 158 244 C 156.333 244, 156 243.333, 156 240 C 156 236.667, 156.333 236, 158 236 C 159.333 236, 160 235.333, 160 234 C 160 232.667, 160.667 232, 162 232 C 163.667 232, 164 231.333, 164 228 C 164 224.667, 163.667 224, 162 224 C 160.222 224, 160 223.333, 160 218 C 160 212.667, 159.778 212, 158 212 C 156.222 212, 156 212.667, 156 218 M 184 242 C 184 247.333, 184.222 248, 186 248 C 187.667 248, 188 248.667, 188 252 L 188 256 192 256 C 195.333 256, 196 255.667, 196 254 C 196 252.667, 196.667 252, 198 252 C 199.333 252, 200 252.667, 200 254 C 200 255.333, 200.667 256, 202 256 C 203.667 256, 204 255.333, 204 252 C 204 248.667, 204.333 248, 206 248 C 207.778 248, 208 247.333, 208 242 C 208 236.667, 207.778 236, 206 236 C 204.222 236, 204 236.667, 204 242 L 204 248 200 248 C 196.667 248, 196 248.333, 196 250 C 196 251.333, 195.333 252, 194 252 C 192.667 252, 192 251.333, 192 250 C 192 248.667, 191.333 248, 190 248 C 188.222 248, 188 247.333, 188 242 C 188 236.667, 187.778 236, 186 236 C 184.222 236, 184 236.667, 184 242" stroke="none" fill="black" fill-rule="evenodd"/>
	<path fill-opacity="0.296" d="M 176 126 C 176 127.833, 176.667 128, 184 128 C 191.333 128, 192 128.167, 192 130 C 192 131.667, 192.667 132, 196 132 C 199.333 132, 200 132.333, 200 134 C 200 135.333, 200.667 136, 202 136 C 203.333 136, 204 135.333, 204 134 C 204 132.667, 203.333 132, 202 132 C 200.667 132, 200 131.333, 200 130 C 200 128.333, 199.333 128, 196 128 C 192.667 128, 192 127.667, 192 126 C 192 124.167, 191.333 124, 184 124 C 176.667 124, 176 124.167, 176 126" stroke="none" fill="black" fill-rule="evenodd"/>
</svg>