<svg xmlns="http://www.w3.org/2000/svg" width="400" height="400" viewBox="0 0 400 400" version="1.1">
	<path fill-opacity="0.561" d="M 148 126 C 148 127.333, 147.333 128, 146 128 C 144.167 128, 144 128.667, 144 136 L 144 144 140 144 C 136.667 144, 136 144.333, 136 146 C 136 147.333, 135.333 148, 134 148 C 132.333 148, 132 148.667, 132 152 C 132 155.333, 131.667 156, 130 156 C 128.133 156, 128 156.667, 128 166 C 128 175.333, 128.133 176, 130 176 C 131.333 176, 132 176.667, 132 178 C 132 179.333, 132.667 180, 134 180 C 135.333 180, 136 180.667, 136 182 C 136 183.333, 136.667 184, 138 184 C 139.333 184, 140 184.667, 140 186 C 140 187.333, 140.667 188, 142 188 C 143.333 188, 144 187.333, 144 186 C 144 184.667, 144.667 184, 146 184 C 147.833 184, 148 183.333, 148 176 C 148 168.667, 148.167 168, 150 168 C 151.667 168, 152 167.333, 152 164 L 152 160 160 160 C 167.333 160, 168 159.833, 168 158 C 168 156.333, 168.667 156, 172 156 C 175.333 156, 176 156.333, 176 158 C 176 159.333, 176.667 160, 178 160 C 179.333 160, 180 160.667, 180 162 C 180 163.333, 180.667 164, 182 164 C 183.333 164, 184 164.667, 184 166 C 184 167.333, 184.667 168, 186 168 C 187.333 168, 188 168.667, 188 170 C 188 171.333, 188.667 172, 190 172 C 191.667 172, 192 172.667, 192 176 C 192 179.333, 192.333 180, 194 180 C 195.333 180, 196 180.667, 196 182 C 196 183.333, 196.667 184, 198 184 C 199.333 184, 200 184.667, 200 186 C 200 187.333, 200.667 188, 202 188 C 203.667 188, 204 188.667, 204 192 C 204 195.333, 203.667 196, 202 196 C 200.333 196, 200 196.667, 200 200 C 200 203.333, 199.667 204, 198 204 C 196.222 204, 196 204.667, 196 210 C 196 215.333, 196.222 216, 198 216 C 199.333 216, 200 215.333, 200 214 C 200 212.667, 200.667 212, 202 212 C 203.333 212, 204 211.333, 204 210 C 204 208.667, 204.667 208, 206 208 C 207.333 208, 208 207.333, 208 206 C 208 204.667, 208.667 204, 210 204 C 211.667 204, 212 203.333, 212 200 C 212 196.667, 212.333 196, 214 196 C 215.667 196, 216 195.333, 216 192 C 216 188.667, 216.333 188, 218 188 C 219.333 188, 220 187.333, 220 186 C 220 184.667, 220.667 184, 222 184 C 223.333 184, 224 183.333, 224 182 C 224 180.667, 224.667 180, 226 180 C 227.833 180, 228 179.333, 228 172 C 228 164.667, 227.833 164, 226 164 C 224.667 164, 224 164.667, 224 166 C 224 167.667, 223.333 168, 220 168 C 216.667 168, 216 167.667, 216 166 C 216 164.667, 215.333 164, 214 164 C 212.333 164, 212 163.333, 212 160 C 212 156.667, 211.667 156, 210 156 C 208.333 156, 208 155.333, 208 152 C 208 148.667, 207.667 148, 206 148 C 204.333 148, 204 147.333, 204 144 C 204 140.667, 203.667 140, 202 140 C 200.667 140, 200 139.333, 200 138 C 200 136.667, 199.333 136, 198 136 C 196.667 136, 196 135.333, 196 134 C 196 132.133, 195.333 132, 186 132 C 176.667 132, 176 131.867, 176 130 C 176 128.333, 175.333 128, 172 128 C 168.667 128, 168 127.667, 168 126 C 168 124.133, 167.333 124, 158 124 C 148.667 124, 148 124.133, 148 126 M 148 136 C 148 143.333, 148.167 144, 150 144 C 151.333 144, 152 144.667, 152 146 C 152 147.333, 152.667 148, 154 148 C 155.667 148, 156 147.333, 156 144 L 156 140 160 140 C 163.333 140, 164 140.333, 164 142 C 164 143.333, 164.667 144, 166 144 C 167.333 144, 168 144.667, 168 146 C 168 147.333, 168.667 148, 170 148 C 171.333 148, 172 148.667, 172 150 C 172 151.333, 172.667 152, 174 152 C 175.333 152, 176 152.667, 176 154 C 176 155.333, 176.667 156, 178 156 C 179.333 156, 180 156.667, 180 158 C 180 159.333, 180.667 160, 182 160 C 183.333 160, 184 160.667, 184 162 C 184 163.833, 184.667 164, 192 164 C 199.333 164, 200 163.833, 200 162 C 200 160.667, 200.667 160, 202 160 C 203.778 160, 204 159.333, 204 154 C 204 148.667, 203.778 148, 202 148 C 200.333 148, 200 147.333, 200 144 C 200 140.667, 199.667 140, 198 140 C 196.667 140, 196 139.333, 196 138 C 196 136.333, 195.333 136, 192 136 C 188.667 136, 188 136.333, 188 138 C 188 139.667, 187.333 140, 184 140 C 180.667 140, 180 139.667, 180 138 C 180 136.667, 179.333 136, 178 136 C 176.667 136, 176 135.333, 176 134 C 176 132.333, 175.333 132, 172 132 C 168.667 132, 168 131.667, 168 130 C 168 128.133, 167.333 128, 158 128 L 148 128 148 136 M 136 152 C 136 155.333, 135.667 156, 134 156 C 132.167 156, 132 156.667, 132 164 C 132 171.333, 132.167 172, 134 172 C 135.667 172, 136 171.333, 136 168 C 136 164.667, 136.333 164, 138 164 C 139.333 164, 140 163.333, 140 162 C 140 160.667, 140.667 160, 142 160 C 143.333 160, 144 159.333, 144 158 C 144 156.667, 144.667 156, 146 156 C 147.667 156, 148 155.333, 148 152 L 148 148 142 148 L 136 148 136 152" stroke="none" fill="black" fill-rule="evenodd"/>
	<path fill-opacity="0.107" d="M 148 126 C 148 127.333, 147.333 128, 146 128 C 144.167 128, 144 128.667, 144 136 L 144 144 140 144 C 136.667 144, 136 144.333, 136 146 C 136 147.333, 135.333 148, 134 148 C 132.333 148, 132 148.667, 132 152 C 132 155.333, 131.667 156, 130 156 C 128.133 156, 128 156.667, 128 166 C 128 175.333, 128.133 176, 130 176 C 131.333 176, 132 176.667, 132 178 C 132 179.333, 132.667 180, 134 180 C 135.333 180, 136 180.667, 136 182 C 136 183.333, 136.667 184, 138 184 C 139.333 184, 140 184.667, 140 186 C 140 187.333, 140.667 188, 142 188 C 143.333 188, 144 187.333, 144 186 C 144 184.667, 143.333 184, 142 184 C 140.667 184, 140 183.333, 140 182 C 140 180.667, 139.333 180, 138 180 C 136.667 180, 136 179.333, 136 178 C 136 176.667, 135.333 176, 134 176 C 132.133 176, 132 175.333, 132 166 C 132 156.667, 132.133 156, 134 156 C 135.667 156, 136 155.333, 136 152 L 136 148 142 148 C 147.333 148, 148 148.222, 148 150 C 148 151.333, 148.667 152, 150 152 C 151.333 152, 152 152.667, 152 154 C 152 155.333, 152.667 156, 154 156 C 155.333 156, 156 156.667, 156 158 C 156 159.778, 156.667 160, 162 160 C 167.333 160, 168 159.778, 168 158 C 168 156.333, 168.667 156, 172 156 C 175.333 156, 176 156.333, 176 158 C 176 159.333, 176.667 160, 178 160 C 179.333 160, 180 160.667, 180 162 C 180 163.333, 180.667 164, 182 164 C 183.333 164, 184 164.667, 184 166 C 184 167.333, 184.667 168, 186 168 C 187.333 168, 188 168.667, 188 170 C 188 171.333, 188.667 172, 190 172 C 191.667 172, 192 172.667, 192 176 C 192 179.333, 192.333 180, 194 180 C 195.333 180, 196 180.667, 196 182 C 196 183.333, 196.667 184, 198 184 C 199.333 184, 200 184.667, 200 186 C 200 187.333, 200.667 188, 202 188 C 203.333 188, 204 188.667, 204 190 C 204 191.667, 204.667 192, 208 192 C 211.333 192, 212 192.333, 212 194 C 212 195.333, 211.333 196, 210 196 C 208.333 196, 208 196.667, 208 200 C 208 203.333, 207.667 204, 206 204 C 204.667 204, 204 204.667, 204 206 C 204 207.333, 203.333 208, 202 208 C 200.667 208, 200 208.667, 200 210 C 200 211.333, 199.333 212, 198 212 C 196.667 212, 196 212.667, 196 214 C 196 215.333, 196.667 216, 198 216 C 199.333 216, 200 215.333, 200 214 C 200 212.667, 200.667 212, 202 212 C 203.333 212, 204 211.333, 204 210 C 204 208.667, 204.667 208, 206 208 C 207.333 208, 208 207.333, 208 206 C 208 204.667, 208.667 204, 210 204 C 211.667 204, 212 203.333, 212 200 C 212 196.667, 212.333 196, 214 196 C 215.667 196, 216 195.333, 216 192 C 216 188.667, 216.333 188, 218 188 C 219.333 188, 220 187.333, 220 186 C 220 184.667, 220.667 184, 222 184 C 223.333 184, 224 183.333, 224 182 C 224 180.667, 224.667 180, 226 180 C 227.833 180, 228 179.333, 228 172 C 228 164.667, 227.833 164, 226 164 C 224.667 164, 224 164.667, 224 166 C 224 167.667, 223.333 168, 220 168 C 216.667 168, 216 167.667, 216 166 C 216 164.667, 215.333 164, 214 164 C 212.333 164, 212 163.333, 212 160 C 212 156.667, 211.667 156, 210 156 C 208.333 156, 208 155.333, 208 152 C 208 148.667, 207.667 148, 206 148 C 204.333 148, 204 147.333, 204 144 C 204 140.667, 203.667 140, 202 140 C 200.667 140, 200 139.333, 200 138 C 200 136.667, 199.333 136, 198 136 C 196.667 136, 196 135.333, 196 134 C 196 132.133, 195.333 132, 186 132 C 176.667 132, 176 131.867, 176 130 C 176 128.333, 175.333 128, 172 128 C 168.667 128, 168 127.667, 168 126 C 168 124.133, 167.333 124, 158 124 C 148.667 124, 148 124.133, 148 126 M 148 138 C 148 147.333, 148.133 148, 150 148 C 151.333 148, 152 148.667, 152 150 C 152 151.333, 152.667 152, 154 152 C 155.333 152, 156 152.667, 156 154 C 156 155.778, 156.667 156, 162 156 L 168 156 168 152 C 168 148.667, 168.333 148, 170 148 C 171.333 148, 172 148.667, 172 150 C 172 151.333, 172.667 152, 174 152 C 175.333 152, 176 152.667, 176 154 C 176 155.333, 176.667 156, 178 156 C 179.333 156, 180 156.667, 180 158 C 180 159.333, 180.667 160, 182 160 C 183.333 160, 184 160.667, 184 162 C 184 163.333, 184.667 164, 186 164 C 187.333 164, 188 164.667, 188 166 C 188 167.333, 188.667 168, 190 168 C 191.333 168, 192 168.667, 192 170 C 192 171.333, 192.667 172, 194 172 C 195.667 172, 196 172.667, 196 176 C 196 179.333, 196.333 180, 198 180 C 199.333 180, 200 180.667, 200 182 C 200 183.333, 200.667 184, 202 184 C 203.333 184, 204 184.667, 204 186 C 204 187.778, 204.667 188, 210 188 C 215.333 188, 216 187.778, 216 186 C 216 184.667, 215.333 184, 214 184 C 212.667 184, 212 183.333, 212 182 C 212 180.222, 212.667 180, 218 180 L 224 180 224 176 L 224 172 220 172 C 216.667 172, 216 171.667, 216 170 C 216 168.667, 215.333 168, 214 168 C 212.667 168, 212 167.333, 212 166 C 212 164.667, 211.333 164, 210 164 C 208.333 164, 208 163.333, 208 160 C 208 156.667, 207.667 156, 206 156 C 204.333 156, 204 155.333, 204 152 C 204 148.667, 203.667 148, 202 148 C 200.333 148, 200 147.333, 200 144 C 200 140.667, 199.667 140, 198 140 C 196.667 140, 196 139.333, 196 138 C 196 136.133, 195.333 136, 186 136 C 176.667 136, 176 135.867, 176 134 C 176 132.333, 175.333 132, 172 132 C 168.667 132, 168 131.667, 168 130 C 168 128.133, 167.333 128, 158 128 L 148 128 148 138 M 156 142 C 156 143.667, 156.667 144, 160 144 C 163.333 144, 164 144.333, 164 146 C 164 147.333, 164.667 148, 166 148 C 167.333 148, 168 147.333, 168 146 C 168 144.667, 167.333 144, 166 144 C 164.667 144, 164 143.333, 164 142 C 164 140.333, 163.333 140, 160 140 C 156.667 140, 156 140.333, 156 142 M 144 162 C 144 163.667, 144.667 164, 148 164 C 151.333 164, 152 163.667, 152 162 C 152 160.333, 151.333 160, 148 160 C 144.667 160, 144 160.333, 144 162 M 208 178 C 208 179.333, 208.667 180, 210 180 C 211.333 180, 212 179.333, 212 178 C 212 176.667, 211.333 176, 210 176 C 208.667 176, 208 176.667, 208 178" stroke="none" fill="black" fill-rule="evenodd"/>
</svg>