<svg xmlns="http://www.w3.org/2000/svg" width="400" height="400" viewBox="0 0 400 400" version="1.1">
	<path fill-opacity="0.561" d="M 148 142 L 148 148 144 148 C 140.667 148, 140 148.333, 140 150 C 140 151.333, 139.333 152, 138 152 C 136.667 152, 136 152.667, 136 154 C 136 155.333, 135.333 156, 134 156 C 132.667 156, 132 156.667, 132 158 C 132 159.667, 132.667 160, 136 160 C 139.333 160, 140 160.333, 140 162 C 140 163.333, 139.333 164, 138 164 C 136.667 164, 136 164.667, 136 166 C 136 167.833, 136.667 168, 144 168 C 151.333 168, 152 167.833, 152 166 C 152 164.333, 152.667 164, 156 164 C 159.333 164, 160 163.667, 160 162 C 160 160.667, 160.667 160, 162 160 C 163.333 160, 164 159.333, 164 158 C 164 156.667, 164.667 156, 166 156 C 167.333 156, 168 155.333, 168 154 C 168 152.667, 167.333 152, 166 152 C 164.667 152, 164 151.333, 164 150 C 164 148.667, 163.333 148, 162 148 C 160.667 148, 160 147.333, 160 146 C 160 144.667, 159.333 144, 158 144 C 156.667 144, 156 143.333, 156 142 C 156 140.667, 155.333 140, 154 140 C 152.667 140, 152 139.333, 152 138 C 152 136.667, 151.333 136, 150 136 C 148.222 136, 148 136.667, 148 142 M 152 148 L 152 152 156 152 C 159.333 152, 160 151.667, 160 150 C 160 148.667, 159.333 148, 158 148 C 156.667 148, 156 147.333, 156 146 C 156 144.667, 155.333 144, 154 144 C 152.333 144, 152 144.667, 152 148 M 140 154 C 140 155.667, 140.667 156, 144 156 C 147.333 156, 148 155.667, 148 154 C 148 152.333, 147.333 152, 144 152 C 140.667 152, 140 152.333, 140 154" stroke="none" fill="black" fill-rule="evenodd"/>
	<path fill-opacity="0.107" d="M 148 142 L 148 148 144 148 C 140.667 148, 140 148.333, 140 150 C 140 151.333, 139.333 152, 138 152 C 136.667 152, 136 152.667, 136 154 C 136 155.333, 135.333 156, 134 156 C 132.667 156, 132 156.667, 132 158 C 132 159.667, 132.667 160, 136 160 C 139.333 160, 140 160.333, 140 162 C 140 163.333, 139.333 164, 138 164 C 136.667 164, 136 164.667, 136 166 C 136 167.833, 136.667 168, 144 168 C 151.333 168, 152 167.833, 152 166 C 152 164.333, 152.667 164, 156 164 C 159.333 164, 160 163.667, 160 162 C 160 160.333, 159.333 160, 156 160 C 152.667 160, 152 160.333, 152 162 C 152 163.667, 151.333 164, 148 164 C 144.667 164, 144 163.667, 144 162 C 144 160.667, 144.667 160, 146 160 C 147.333 160, 148 159.333, 148 158 C 148 156.333, 147.333 156, 144 156 C 140.667 156, 140 155.667, 140 154 C 140 152.222, 140.667 152, 146 152 C 151.333 152, 152 152.222, 152 154 C 152 155.333, 152.667 156, 154 156 C 155.333 156, 156 155.333, 156 154 C 156 152.667, 155.333 152, 154 152 C 152.333 152, 152 151.333, 152 148 C 152 144.667, 152.333 144, 154 144 C 155.333 144, 156 144.667, 156 146 C 156 147.333, 156.667 148, 158 148 C 159.333 148, 160 148.667, 160 150 C 160 151.333, 160.667 152, 162 152 C 163.333 152, 164 152.667, 164 154 C 164 155.333, 164.667 156, 166 156 C 167.333 156, 168 155.333, 168 154 C 168 152.667, 167.333 152, 166 152 C 164.667 152, 164 151.333, 164 150 C 164 148.667, 163.333 148, 162 148 C 160.667 148, 160 147.333, 160 146 C 160 144.667, 159.333 144, 158 144 C 156.667 144, 156 143.333, 156 142 C 156 140.667, 155.333 140, 154 140 C 152.667 140, 152 139.333, 152 138 C 152 136.667, 151.333 136, 150 136 C 148.222 136, 148 136.667, 148 142" stroke="none" fill="black" fill-rule="evenodd"/>
</svg>