<svg xmlns="http://www.w3.org/2000/svg" width="400" height="400" viewBox="0 0 400 400" version="1.1">
	<path fill-opacity="0.200" d="M 152 110 C 152 111.333, 151.333 112, 150 112 C 148.667 112, 148 112.667, 148 114 C 148 115.667, 147.333 116, 144 116 C 140.667 116, 140 116.333, 140 118 C 140 119.667, 139.333 120, 136 120 C 132.667 120, 132 120.333, 132 122 C 132 123.333, 131.333 124, 130 124 C 128.667 124, 128 124.667, 128 126 C 128 127.333, 127.333 128, 126 128 C 124.667 128, 124 128.667, 124 130 C 124 131.333, 123.333 132, 122 132 C 120.333 132, 120 132.667, 120 136 C 120 139.333, 120.333 140, 122 140 C 123.333 140, 124 140.667, 124 142 C 124 143.333, 123.333 144, 122 144 C 120.667 144, 120 144.667, 120 146 C 120 147.333, 119.333 148, 118 148 C 116.333 148, 116 148.667, 116 152 C 116 155.333, 115.667 156, 114 156 C 112.222 156, 112 156.667, 112 162 C 112 167.333, 112.222 168, 114 168 C 115.333 168, 116 168.667, 116 170 C 116 171.333, 116.667 172, 118 172 C 119.833 172, 120 172.667, 120 180 C 120 187.333, 120.167 188, 122 188 C 123.333 188, 124 188.667, 124 190 C 124 191.333, 124.667 192, 126 192 C 127.667 192, 128 192.667, 128 196 C 128 199.333, 128.333 200, 130 200 C 131.333 200, 132 200.667, 132 202 C 132 203.667, 132.667 204, 136 204 C 139.333 204, 140 204.333, 140 206 C 140 207.333, 140.667 208, 142 208 C 143.333 208, 144 208.667, 144 210 C 144 211.667, 144.667 212, 148 212 C 151.333 212, 152 212.333, 152 214 C 152 215.833, 152.667 216, 160 216 C 167.333 216, 168 215.833, 168 214 C 168 212.333, 167.333 212, 164 212 C 160.667 212, 160 211.667, 160 210 C 160 208.333, 159.333 208, 156 208 C 152.667 208, 152 207.667, 152 206 C 152 204.667, 151.333 204, 150 204 C 148.667 204, 148 203.333, 148 202 C 148 200.667, 147.333 200, 146 200 C 144.167 200, 144 199.333, 144 192 C 144 184.667, 144.167 184, 146 184 C 147.778 184, 148 183.333, 148 178 C 148 172.667, 148.222 172, 150 172 C 151.333 172, 152 171.333, 152 170 C 152 168.333, 152.667 168, 156 168 C 159.333 168, 160 167.667, 160 166 C 160 164.667, 160.667 164, 162 164 C 163.333 164, 164 164.667, 164 166 C 164 167.667, 164.667 168, 168 168 C 171.333 168, 172 167.667, 172 166 C 172 164.667, 172.667 164, 174 164 C 175.333 164, 176 163.333, 176 162 C 176 160.667, 176.667 160, 178 160 C 179.333 160, 180 159.333, 180 158 C 180 156.222, 180.667 156, 186 156 C 191.333 156, 192 156.222, 192 158 C 192 159.333, 192.667 160, 194 160 C 195.867 160, 196 159.333, 196 150 L 196 140 200 140 L 204 140 204 136 L 204 132 208 132 C 211.333 132, 212 132.333, 212 134 C 212 135.667, 212.667 136, 216 136 L 220 136 220 140 C 220 143.333, 219.667 144, 218 144 C 216.667 144, 216 144.667, 216 146 C 216 147.333, 216.667 148, 218 148 C 219.889 148, 220 148.667, 220 160 C 220 171.333, 219.889 172, 218 172 C 216.667 172, 216 172.667, 216 174 C 216 175.333, 215.333 176, 214 176 C 212.667 176, 212 176.667, 212 178 C 212 179.667, 211.333 180, 208 180 L 204 180 204 188 C 204 195.333, 203.833 196, 202 196 C 200.333 196, 200 196.667, 200 200 C 200 203.333, 199.667 204, 198 204 C 196.222 204, 196 204.667, 196 210 L 196 216 200 216 C 203.333 216, 204 215.667, 204 214 C 204 212.667, 204.667 212, 206 212 C 207.333 212, 208 211.333, 208 210 C 208 208.667, 208.667 208, 210 208 C 211.333 208, 212 207.333, 212 206 C 212 204.333, 212.667 204, 216 204 C 219.333 204, 220 203.667, 220 202 C 220 200.667, 220.667 200, 222 200 C 223.667 200, 224 199.333, 224 196 C 224 192.667, 224.333 192, 226 192 C 227.667 192, 228 191.333, 228 188 C 228 184.667, 228.333 184, 230 184 C 231.333 184, 232 183.333, 232 182 C 232 180.667, 232.667 180, 234 180 C 235.833 180, 236 179.333, 236 172 C 236 164.667, 235.833 164, 234 164 C 232.333 164, 232 163.333, 232 160 C 232 156.667, 231.667 156, 230 156 C 228.667 156, 228 155.333, 228 154 C 228 152.667, 228.667 152, 230 152 C 231.667 152, 232 151.333, 232 148 C 232 144.667, 231.667 144, 230 144 C 228.667 144, 228 143.333, 228 142 C 228 140.667, 227.333 140, 226 140 C 224.667 140, 224 139.333, 224 138 C 224 136.667, 223.333 136, 222 136 C 220.667 136, 220 135.333, 220 134 C 220 132.333, 219.333 132, 216 132 C 212.667 132, 212 131.667, 212 130 C 212 128.333, 211.333 128, 208 128 L 204 128 204 124 C 204 120.667, 203.667 120, 202 120 C 200.667 120, 200 119.333, 200 118 C 200 116.667, 199.333 116, 198 116 C 196.667 116, 196 115.333, 196 114 C 196 112.333, 195.333 112, 192 112 C 188.667 112, 188 112.333, 188 114 C 188 115.333, 187.333 116, 186 116 C 184.667 116, 184 115.333, 184 114 C 184 112.333, 183.333 112, 180 112 C 176.667 112, 176 111.667, 176 110 C 176 108.111, 175.333 108, 164 108 C 152.667 108, 152 108.111, 152 110 M 152 114 C 152 115.778, 152.667 116, 158 116 C 163.333 116, 164 116.222, 164 118 C 164 119.889, 163.333 120, 152 120 C 140.667 120, 140 120.111, 140 122 C 140 123.667, 139.333 124, 136 124 C 132.667 124, 132 124.333, 132 126 C 132 127.333, 131.333 128, 130 128 C 128.667 128, 128 128.667, 128 130 C 128 131.333, 127.333 132, 126 132 C 124.667 132, 124 132.667, 124 134 C 124 135.667, 124.667 136, 128 136 C 131.333 136, 132 136.333, 132 138 C 132 139.333, 131.333 140, 130 140 C 128.222 140, 128 140.667, 128 146 C 128 151.333, 128.222 152, 130 152 C 131.333 152, 132 152.667, 132 154 C 132 155.667, 132.667 156, 136 156 C 139.333 156, 140 155.667, 140 154 C 140 152.667, 140.667 152, 142 152 C 143.667 152, 144 152.667, 144 156 L 144 160 150 160 C 155.333 160, 156 159.778, 156 158 C 156 156.667, 156.667 156, 158 156 C 159.667 156, 160 155.333, 160 152 C 160 148.667, 160.333 148, 162 148 C 163.333 148, 164 148.667, 164 150 C 164 151.667, 164.667 152, 168 152 C 171.333 152, 172 151.667, 172 150 C 172 148.667, 172.667 148, 174 148 C 175.333 148, 176 147.333, 176 146 C 176 144.667, 176.667 144, 178 144 C 179.667 144, 180 143.333, 180 140 C 180 136.667, 180.333 136, 182 136 C 183.833 136, 184 135.333, 184 128 C 184 120.667, 183.833 120, 182 120 C 180.667 120, 180 119.333, 180 118 C 180 116.667, 179.333 116, 178 116 C 176.667 116, 176 115.333, 176 114 C 176 112.111, 175.333 112, 164 112 C 152.667 112, 152 112.111, 152 114 M 132 134 C 132 135.333, 132.667 136, 134 136 C 135.333 136, 136 135.333, 136 134 C 136 132.667, 135.333 132, 134 132 C 132.667 132, 132 132.667, 132 134" stroke="none" fill="black" fill-rule="evenodd"/>
	<path fill-opacity="0.510" d="M 152 110 C 152 111.333, 151.333 112, 150 112 C 148.667 112, 148 112.667, 148 114 C 148 115.667, 147.333 116, 144 116 C 140.667 116, 140 116.333, 140 118 C 140 119.667, 139.333 120, 136 120 C 132.667 120, 132 120.333, 132 122 C 132 123.333, 131.333 124, 130 124 C 128.667 124, 128 124.667, 128 126 C 128 127.333, 127.333 128, 126 128 C 124.667 128, 124 128.667, 124 130 C 124 131.333, 123.333 132, 122 132 C 120.333 132, 120 132.667, 120 136 C 120 139.333, 120.333 140, 122 140 C 123.333 140, 124 140.667, 124 142 C 124 143.333, 123.333 144, 122 144 C 120.667 144, 120 144.667, 120 146 C 120 147.333, 119.333 148, 118 148 C 116.333 148, 116 148.667, 116 152 C 116 155.333, 115.667 156, 114 156 C 112.222 156, 112 156.667, 112 162 C 112 167.333, 112.222 168, 114 168 C 115.333 168, 116 168.667, 116 170 C 116 171.333, 116.667 172, 118 172 C 119.833 172, 120 172.667, 120 180 C 120 187.333, 120.167 188, 122 188 C 123.333 188, 124 188.667, 124 190 C 124 191.333, 124.667 192, 126 192 C 127.667 192, 128 192.667, 128 196 C 128 199.333, 128.333 200, 130 200 C 131.333 200, 132 200.667, 132 202 C 132 203.667, 132.667 204, 136 204 C 139.333 204, 140 204.333, 140 206 C 140 207.333, 140.667 208, 142 208 C 143.333 208, 144 208.667, 144 210 C 144 211.667, 144.667 212, 148 212 C 151.333 212, 152 212.333, 152 214 C 152 215.833, 152.667 216, 160 216 C 167.333 216, 168 215.833, 168 214 C 168 212.167, 167.333 212, 160 212 C 152.667 212, 152 211.833, 152 210 C 152 208.333, 151.333 208, 148 208 C 144.667 208, 144 207.667, 144 206 C 144 204.667, 143.333 204, 142 204 C 140.333 204, 140 203.333, 140 200 C 140 196.667, 139.667 196, 138 196 C 136.667 196, 136 196.667, 136 198 C 136 199.333, 135.333 200, 134 200 C 132.167 200, 132 199.333, 132 192 C 132 184.667, 131.833 184, 130 184 C 128.667 184, 128 184.667, 128 186 C 128 187.333, 127.333 188, 126 188 C 124.133 188, 124 187.333, 124 178 C 124 168.667, 124.133 168, 126 168 C 127.333 168, 128 167.333, 128 166 C 128 164.667, 127.333 164, 126 164 C 124.667 164, 124 164.667, 124 166 C 124 167.667, 123.333 168, 120 168 L 116 168 116 162 C 116 156.667, 116.222 156, 118 156 C 119.667 156, 120 155.333, 120 152 C 120 148.667, 120.333 148, 122 148 C 123.333 148, 124 147.333, 124 146 C 124 144.667, 124.667 144, 126 144 C 127.333 144, 128 143.333, 128 142 C 128 140.667, 128.667 140, 130 140 C 131.333 140, 132 139.333, 132 138 C 132 136.333, 131.333 136, 128 136 C 124.667 136, 124 135.667, 124 134 C 124 132.667, 124.667 132, 126 132 C 127.333 132, 128 131.333, 128 130 C 128 128.667, 128.667 128, 130 128 C 131.333 128, 132 127.333, 132 126 C 132 124.333, 132.667 124, 136 124 C 139.333 124, 140 123.667, 140 122 C 140 120.133, 140.667 120, 150 120 C 159.333 120, 160 119.867, 160 118 C 160 116.333, 159.333 116, 156 116 C 152.667 116, 152 115.667, 152 114 C 152 112.111, 152.667 112, 164 112 C 175.333 112, 176 112.111, 176 114 C 176 115.667, 176.667 116, 180 116 C 183.333 116, 184 116.333, 184 118 C 184 119.333, 184.667 120, 186 120 C 187.333 120, 188 120.667, 188 122 C 188 123.333, 188.667 124, 190 124 C 191.333 124, 192 124.667, 192 126 C 192 127.333, 192.667 128, 194 128 C 195.333 128, 196 127.333, 196 126 C 196 124.667, 195.333 124, 194 124 C 192.333 124, 192 123.333, 192 120 C 192 116.667, 192.333 116, 194 116 C 195.333 116, 196 116.667, 196 118 C 196 119.333, 196.667 120, 198 120 C 199.778 120, 200 120.667, 200 126 L 200 132 206 132 C 211.333 132, 212 132.222, 212 134 C 212 135.667, 212.667 136, 216 136 C 219.333 136, 220 136.333, 220 138 C 220 139.333, 220.667 140, 222 140 C 223.333 140, 224 140.667, 224 142 C 224 143.333, 224.667 144, 226 144 C 227.667 144, 228 144.667, 228 148 C 228 151.333, 227.667 152, 226 152 C 224.667 152, 224 152.667, 224 154 C 224 155.333, 224.667 156, 226 156 C 227.667 156, 228 156.667, 228 160 C 228 163.333, 228.333 164, 230 164 C 231.833 164, 232 164.667, 232 172 C 232 179.333, 231.833 180, 230 180 C 228.667 180, 228 179.333, 228 178 C 228 176.667, 227.333 176, 226 176 C 224.167 176, 224 176.667, 224 184 C 224 191.333, 223.833 192, 222 192 C 220.333 192, 220 192.667, 220 196 L 220 200 216 200 C 212.667 200, 212 199.667, 212 198 C 212 196.667, 211.333 196, 210 196 C 208.222 196, 208 196.667, 208 202 C 208 207.333, 207.778 208, 206 208 C 204.667 208, 204 208.667, 204 210 C 204 211.667, 203.333 212, 200 212 C 196.667 212, 196 212.333, 196 214 C 196 215.667, 196.667 216, 200 216 C 203.333 216, 204 215.667, 204 214 C 204 212.667, 204.667 212, 206 212 C 207.333 212, 208 211.333, 208 210 C 208 208.667, 208.667 208, 210 208 C 211.333 208, 212 207.333, 212 206 C 212 204.333, 212.667 204, 216 204 C 219.333 204, 220 203.667, 220 202 C 220 200.667, 220.667 200, 222 200 C 223.667 200, 224 199.333, 224 196 C 224 192.667, 224.333 192, 226 192 C 227.667 192, 228 191.333, 228 188 C 228 184.667, 228.333 184, 230 184 C 231.333 184, 232 183.333, 232 182 C 232 180.667, 232.667 180, 234 180 C 235.833 180, 236 179.333, 236 172 C 236 164.667, 235.833 164, 234 164 C 232.333 164, 232 163.333, 232 160 C 232 156.667, 231.667 156, 230 156 C 228.667 156, 228 155.333, 228 154 C 228 152.667, 228.667 152, 230 152 C 231.667 152, 232 151.333, 232 148 C 232 144.667, 231.667 144, 230 144 C 228.667 144, 228 143.333, 228 142 C 228 140.667, 227.333 140, 226 140 C 224.667 140, 224 139.333, 224 138 C 224 136.667, 223.333 136, 222 136 C 220.667 136, 220 135.333, 220 134 C 220 132.333, 219.333 132, 216 132 C 212.667 132, 212 131.667, 212 130 C 212 128.333, 211.333 128, 208 128 L 204 128 204 124 C 204 120.667, 203.667 120, 202 120 C 200.667 120, 200 119.333, 200 118 C 200 116.667, 199.333 116, 198 116 C 196.667 116, 196 115.333, 196 114 C 196 112.333, 195.333 112, 192 112 C 188.667 112, 188 112.333, 188 114 C 188 115.333, 187.333 116, 186 116 C 184.667 116, 184 115.333, 184 114 C 184 112.333, 183.333 112, 180 112 C 176.667 112, 176 111.667, 176 110 C 176 108.111, 175.333 108, 164 108 C 152.667 108, 152 108.111, 152 110 M 180 152 C 180 155.333, 179.667 156, 178 156 C 176.667 156, 176 156.667, 176 158 C 176 159.333, 175.333 160, 174 160 C 172.667 160, 172 160.667, 172 162 C 172 163.667, 171.333 164, 168 164 C 164.667 164, 164 163.667, 164 162 C 164 160.667, 163.333 160, 162 160 C 160.667 160, 160 160.667, 160 162 C 160 163.667, 159.333 164, 156 164 C 152.667 164, 152 164.333, 152 166 C 152 167.778, 151.333 168, 146 168 C 140.667 168, 140 168.222, 140 170 C 140 171.778, 140.667 172, 146 172 C 151.333 172, 152 171.778, 152 170 C 152 168.333, 152.667 168, 156 168 C 159.333 168, 160 167.667, 160 166 C 160 164.667, 160.667 164, 162 164 C 163.333 164, 164 164.667, 164 166 C 164 167.667, 164.667 168, 168 168 C 171.333 168, 172 167.667, 172 166 C 172 164.667, 172.667 164, 174 164 C 175.333 164, 176 163.333, 176 162 C 176 160.667, 176.667 160, 178 160 C 179.333 160, 180 159.333, 180 158 C 180 156.222, 180.667 156, 186 156 C 191.333 156, 192 156.222, 192 158 C 192 159.333, 192.667 160, 194 160 C 195.333 160, 196 159.333, 196 158 C 196 156.667, 195.333 156, 194 156 C 192.667 156, 192 155.333, 192 154 C 192 152.333, 191.333 152, 188 152 C 184.667 152, 184 151.667, 184 150 C 184 148.667, 183.333 148, 182 148 C 180.333 148, 180 148.667, 180 152" stroke="none" fill="black" fill-rule="evenodd"/>
</svg>