<svg xmlns="http://www.w3.org/2000/svg" width="400" height="400" viewBox="0 0 400 400" version="1.1">
	<path fill-opacity="0.561" d="M 172 110 C 172 111.333, 171.333 112, 170 112 C 168.667 112, 168 112.667, 168 114 C 168 115.333, 167.333 116, 166 116 C 164.333 116, 164 116.667, 164 120 C 164 123.333, 163.667 124, 162 124 C 160.333 124, 160 124.667, 160 128 C 160 131.333, 159.667 132, 158 132 C 156.667 132, 156 131.333, 156 130 C 156 128.667, 155.333 128, 154 128 C 152.667 128, 152 127.333, 152 126 C 152 124.667, 151.333 124, 150 124 C 148.111 124, 148 124.667, 148 136 C 148 147.333, 148.111 148, 150 148 C 151.667 148, 152 148.667, 152 152 C 152 155.333, 152.333 156, 154 156 C 155.333 156, 156 156.667, 156 158 C 156 159.333, 156.667 160, 158 160 C 159.333 160, 160 160.667, 160 162 C 160 163.667, 160.667 164, 164 164 C 167.333 164, 168 163.667, 168 162 C 168 160.333, 168.667 160, 172 160 C 175.333 160, 176 159.667, 176 158 C 176 156.222, 176.667 156, 182 156 C 187.333 156, 188 156.222, 188 158 C 188 159.667, 188.667 160, 192 160 L 196 160 196 150 C 196 140.667, 196.133 140, 198 140 C 199.333 140, 200 139.333, 200 138 C 200 136.667, 200.667 136, 202 136 C 203.333 136, 204 135.333, 204 134 C 204 132.222, 204.667 132, 210 132 C 215.333 132, 216 132.222, 216 134 C 216 135.333, 216.667 136, 218 136 C 219.333 136, 220 136.667, 220 138 C 220 139.667, 219.333 140, 216 140 C 212.667 140, 212 140.333, 212 142 C 212 143.333, 212.667 144, 214 144 C 215.333 144, 216 144.667, 216 146 C 216 147.333, 216.667 148, 218 148 C 219.333 148, 220 148.667, 220 150 C 220 151.833, 220.667 152, 228 152 L 236 152 236 148 C 236 144.667, 235.667 144, 234 144 C 232.667 144, 232 143.333, 232 142 C 232 140.667, 231.333 140, 230 140 C 228.667 140, 228 139.333, 228 138 C 228 136.667, 227.333 136, 226 136 C 224.667 136, 224 135.333, 224 134 C 224 132.333, 223.333 132, 220 132 C 216.667 132, 216 131.667, 216 130 C 216 128.667, 215.333 128, 214 128 C 212.667 128, 212 127.333, 212 126 C 212 124.667, 212.667 124, 214 124 C 215.333 124, 216 123.333, 216 122 C 216 120.667, 216.667 120, 218 120 C 219.333 120, 220 119.333, 220 118 C 220 116.111, 219.333 116, 208 116 C 196.667 116, 196 116.111, 196 118 C 196 119.667, 195.333 120, 192 120 C 188.667 120, 188 120.333, 188 122 C 188 123.333, 187.333 124, 186 124 C 184.167 124, 184 123.333, 184 116 L 184 108 178 108 C 172.667 108, 172 108.222, 172 110 M 172 114 C 172 115.333, 171.333 116, 170 116 C 168.333 116, 168 116.667, 168 120 C 168 123.333, 167.667 124, 166 124 C 164.095 124, 164 124.667, 164 138 C 164 151.333, 164.095 152, 166 152 C 167.333 152, 168 151.333, 168 150 C 168 148.667, 168.667 148, 170 148 C 171.833 148, 172 147.333, 172 140 C 172 132.667, 172.167 132, 174 132 C 175.667 132, 176 131.333, 176 128 C 176 124.667, 176.333 124, 178 124 C 179.778 124, 180 123.333, 180 118 L 180 112 176 112 C 172.667 112, 172 112.333, 172 114 M 196 122 C 196 123.667, 195.333 124, 192 124 C 188.667 124, 188 124.333, 188 126 C 188 127.333, 187.333 128, 186 128 C 184.667 128, 184 128.667, 184 130 C 184 131.333, 183.333 132, 182 132 C 180.167 132, 180 132.667, 180 140 C 180 147.333, 180.167 148, 182 148 C 183.333 148, 184 147.333, 184 146 C 184 144.667, 184.667 144, 186 144 C 187.333 144, 188 143.333, 188 142 C 188 140.667, 188.667 140, 190 140 C 191.333 140, 192 139.333, 192 138 C 192 136.667, 192.667 136, 194 136 C 195.333 136, 196 135.333, 196 134 C 196 132.667, 196.667 132, 198 132 C 199.333 132, 200 131.333, 200 130 C 200 128.667, 200.667 128, 202 128 C 203.333 128, 204 127.333, 204 126 C 204 124.667, 204.667 124, 206 124 C 207.333 124, 208 123.333, 208 122 C 208 120.222, 207.333 120, 202 120 C 196.667 120, 196 120.222, 196 122 M 152 140 C 152 147.333, 152.167 148, 154 148 C 155.333 148, 156 148.667, 156 150 C 156 151.333, 156.667 152, 158 152 C 159.667 152, 160 151.333, 160 148 C 160 144.667, 159.667 144, 158 144 C 156.222 144, 156 143.333, 156 138 C 156 132.667, 155.778 132, 154 132 C 152.167 132, 152 132.667, 152 140" stroke="none" fill="black" fill-rule="evenodd"/>
	<path fill-opacity="0.107" d="M 172 110 C 172 111.333, 171.333 112, 170 112 C 168.667 112, 168 112.667, 168 114 C 168 115.333, 167.333 116, 166 116 C 164.333 116, 164 116.667, 164 120 C 164 123.333, 163.667 124, 162 124 C 160.333 124, 160 124.667, 160 128 C 160 131.333, 159.667 132, 158 132 C 156.667 132, 156 131.333, 156 130 C 156 128.667, 155.333 128, 154 128 C 152.667 128, 152 127.333, 152 126 C 152 124.667, 151.333 124, 150 124 C 148.111 124, 148 124.667, 148 136 C 148 147.333, 148.111 148, 150 148 C 151.667 148, 152 148.667, 152 152 C 152 155.333, 152.333 156, 154 156 C 155.333 156, 156 156.667, 156 158 C 156 159.333, 156.667 160, 158 160 C 159.333 160, 160 160.667, 160 162 C 160 163.667, 160.667 164, 164 164 C 167.333 164, 168 163.667, 168 162 C 168 160.333, 168.667 160, 172 160 C 175.333 160, 176 159.667, 176 158 C 176 156.222, 176.667 156, 182 156 C 187.333 156, 188 156.222, 188 158 C 188 159.667, 188.667 160, 192 160 C 195.333 160, 196 159.667, 196 158 C 196 156.333, 195.333 156, 192 156 C 188.667 156, 188 155.667, 188 154 C 188 152.222, 187.333 152, 182 152 C 176.667 152, 176 152.222, 176 154 C 176 155.667, 175.333 156, 172 156 C 168.667 156, 168 156.333, 168 158 C 168 159.667, 167.333 160, 164 160 C 160.667 160, 160 159.667, 160 158 C 160 156.667, 159.333 156, 158 156 C 156.333 156, 156 155.333, 156 152 C 156 148.667, 155.667 148, 154 148 C 152.167 148, 152 147.333, 152 140 C 152 132.667, 152.167 132, 154 132 C 155.333 132, 156 132.667, 156 134 C 156 135.333, 156.667 136, 158 136 C 159.333 136, 160 136.667, 160 138 C 160 139.333, 160.667 140, 162 140 C 163.833 140, 164 139.333, 164 132 C 164 124.667, 164.167 124, 166 124 C 167.667 124, 168 123.333, 168 120 C 168 116.667, 168.333 116, 170 116 C 171.333 116, 172 115.333, 172 114 C 172 112.333, 172.667 112, 176 112 L 180 112 180 122 C 180 131.333, 180.133 132, 182 132 C 183.333 132, 184 131.333, 184 130 C 184 128.667, 184.667 128, 186 128 C 187.333 128, 188 127.333, 188 126 C 188 124.333, 188.667 124, 192 124 C 195.333 124, 196 123.667, 196 122 C 196 120.167, 196.667 120, 204 120 C 211.333 120, 212 120.167, 212 122 C 212 123.333, 211.333 124, 210 124 C 208.667 124, 208 124.667, 208 126 C 208 127.333, 207.333 128, 206 128 C 204.667 128, 204 128.667, 204 130 C 204 131.333, 203.333 132, 202 132 C 200.667 132, 200 132.667, 200 134 C 200 135.333, 200.667 136, 202 136 C 203.333 136, 204 135.333, 204 134 C 204 132.222, 204.667 132, 210 132 C 215.333 132, 216 132.222, 216 134 C 216 135.667, 216.667 136, 220 136 C 223.333 136, 224 136.333, 224 138 C 224 139.333, 224.667 140, 226 140 C 227.333 140, 228 140.667, 228 142 C 228 143.333, 228.667 144, 230 144 C 231.333 144, 232 144.667, 232 146 C 232 147.778, 231.333 148, 226 148 C 220.667 148, 220 148.222, 220 150 C 220 151.833, 220.667 152, 228 152 L 236 152 236 148 C 236 144.667, 235.667 144, 234 144 C 232.667 144, 232 143.333, 232 142 C 232 140.667, 231.333 140, 230 140 C 228.667 140, 228 139.333, 228 138 C 228 136.667, 227.333 136, 226 136 C 224.667 136, 224 135.333, 224 134 C 224 132.333, 223.333 132, 220 132 C 216.667 132, 216 131.667, 216 130 C 216 128.667, 215.333 128, 214 128 C 212.667 128, 212 127.333, 212 126 C 212 124.667, 212.667 124, 214 124 C 215.333 124, 216 123.333, 216 122 C 216 120.667, 216.667 120, 218 120 C 219.333 120, 220 119.333, 220 118 C 220 116.111, 219.333 116, 208 116 C 196.667 116, 196 116.111, 196 118 C 196 119.667, 195.333 120, 192 120 C 188.667 120, 188 120.333, 188 122 C 188 123.333, 187.333 124, 186 124 C 184.167 124, 184 123.333, 184 116 L 184 108 178 108 C 172.667 108, 172 108.222, 172 110" stroke="none" fill="black" fill-rule="evenodd"/>
</svg>