<svg xmlns="http://www.w3.org/2000/svg" width="400" height="400" viewBox="0 0 400 400" version="1.1">
	<path fill-opacity="0.200" d="M 156 118 C 156 119.333, 156.667 120, 158 120 C 159.333 120, 160 120.667, 160 122 C 160 123.778, 159.333 124, 154 124 C 148.667 124, 148 124.222, 148 126 C 148 127.667, 147.333 128, 144 128 C 140.667 128, 140 128.333, 140 130 C 140 131.333, 139.333 132, 138 132 C 136.667 132, 136 132.667, 136 134 C 136 135.333, 135.333 136, 134 136 C 132.333 136, 132 136.667, 132 140 C 132 143.333, 131.667 144, 130 144 C 128.111 144, 128 144.667, 128 156 C 128 167.333, 128.111 168, 130 168 C 131.778 168, 132 168.667, 132 174 L 132 180 128 180 C 124.667 180, 124 179.667, 124 178 C 124 176.667, 123.333 176, 122 176 C 120.222 176, 120 176.667, 120 182 C 120 187.333, 120.222 188, 122 188 C 123.333 188, 124 188.667, 124 190 C 124 191.333, 124.667 192, 126 192 C 127.333 192, 128 192.667, 128 194 C 128 195.667, 128.667 196, 132 196 L 136 196 136 200 C 136 203.333, 136.333 204, 138 204 C 139.333 204, 140 204.667, 140 206 C 140 207.333, 140.667 208, 142 208 C 143.778 208, 144 208.667, 144 214 C 144 219.333, 144.222 220, 146 220 C 147.333 220, 148 220.667, 148 222 C 148 223.667, 147.333 224, 144 224 C 140.667 224, 140 224.333, 140 226 C 140 227.333, 140.667 228, 142 228 C 143.333 228, 144 228.667, 144 230 C 144 231.333, 144.667 232, 146 232 C 147.333 232, 148 232.667, 148 234 C 148 235.778, 148.667 236, 154 236 C 159.333 236, 160 235.778, 160 234 C 160 232.667, 160.667 232, 162 232 C 163.778 232, 164 231.333, 164 226 C 164 220.667, 164.222 220, 166 220 C 167.667 220, 168 219.333, 168 216 L 168 212 164 212 C 160.667 212, 160 211.667, 160 210 C 160 208.167, 159.333 208, 152 208 C 144.667 208, 144 207.833, 144 206 C 144 204.667, 143.333 204, 142 204 C 140.667 204, 140 203.333, 140 202 C 140 200.667, 140.667 200, 142 200 C 143.833 200, 144 199.333, 144 192 C 144 184.667, 144.167 184, 146 184 C 147.833 184, 148 183.333, 148 176 L 148 168 152 168 C 155.333 168, 156 168.333, 156 170 C 156 171.333, 156.667 172, 158 172 C 159.333 172, 160 172.667, 160 174 C 160 175.333, 160.667 176, 162 176 C 163.333 176, 164 176.667, 164 178 C 164 179.667, 164.667 180, 168 180 L 172 180 172 172 C 172 164.667, 172.167 164, 174 164 C 175.333 164, 176 163.333, 176 162 C 176 160.667, 176.667 160, 178 160 C 179.333 160, 180 160.667, 180 162 C 180 163.333, 180.667 164, 182 164 C 183.333 164, 184 164.667, 184 166 C 184 167.333, 184.667 168, 186 168 C 187.333 168, 188 168.667, 188 170 C 188 171.333, 188.667 172, 190 172 C 191.867 172, 192 172.667, 192 182 L 192 192 186 192 C 180.667 192, 180 192.222, 180 194 C 180 195.333, 180.667 196, 182 196 C 183.667 196, 184 196.667, 184 200 C 184 203.333, 184.333 204, 186 204 C 187.333 204, 188 204.667, 188 206 C 188 207.333, 187.333 208, 186 208 C 184.222 208, 184 208.667, 184 214 C 184 219.333, 184.222 220, 186 220 C 187.333 220, 188 220.667, 188 222 C 188 223.667, 187.333 224, 184 224 C 180.667 224, 180 224.333, 180 226 C 180 227.333, 180.667 228, 182 228 C 183.333 228, 184 228.667, 184 230 C 184 231.333, 184.667 232, 186 232 C 187.333 232, 188 232.667, 188 234 C 188 235.778, 188.667 236, 194 236 C 199.333 236, 200 235.778, 200 234 C 200 232.333, 200.667 232, 204 232 C 207.333 232, 208 232.333, 208 234 C 208 235.333, 207.333 236, 206 236 C 204.667 236, 204 236.667, 204 238 C 204 239.778, 204.667 240, 210 240 C 215.333 240, 216 239.778, 216 238 C 216 236.667, 216.667 236, 218 236 C 219.333 236, 220 235.333, 220 234 C 220 232.667, 220.667 232, 222 232 C 223.867 232, 224 231.333, 224 222 C 224 212.667, 224.133 212, 226 212 C 227.778 212, 228 211.333, 228 206 C 228 200.667, 227.778 200, 226 200 C 224.667 200, 224 200.667, 224 202 C 224 203.667, 223.333 204, 220 204 C 216.667 204, 216 203.667, 216 202 C 216 200.667, 216.667 200, 218 200 C 219.333 200, 220 199.333, 220 198 C 220 196.667, 220.667 196, 222 196 C 223.889 196, 224 195.333, 224 184 L 224 172 218 172 L 212 172 212 168 C 212 164.667, 211.667 164, 210 164 C 208.667 164, 208 163.333, 208 162 C 208 160.667, 207.333 160, 206 160 C 204.667 160, 204 159.333, 204 158 C 204 156.667, 203.333 156, 202 156 C 200.667 156, 200 155.333, 200 154 C 200 152.667, 199.333 152, 198 152 C 196.667 152, 196 152.667, 196 154 C 196 155.333, 196.667 156, 198 156 C 199.778 156, 200 156.667, 200 162 L 200 168 196 168 C 192.667 168, 192 167.667, 192 166 C 192 164.333, 191.333 164, 188 164 C 184.667 164, 184 163.667, 184 162 C 184 160.667, 183.333 160, 182 160 C 180.222 160, 180 159.333, 180 154 C 180 148.667, 180.222 148, 182 148 C 183.333 148, 184 147.333, 184 146 C 184 144.667, 183.333 144, 182 144 C 180.667 144, 180 144.667, 180 146 C 180 147.333, 179.333 148, 178 148 C 176.333 148, 176 148.667, 176 152 C 176 155.333, 175.667 156, 174 156 C 172.667 156, 172 156.667, 172 158 C 172 159.778, 171.333 160, 166 160 C 160.667 160, 160 159.778, 160 158 C 160 156.667, 159.333 156, 158 156 C 156.333 156, 156 155.333, 156 152 C 156 148.667, 156.333 148, 158 148 C 159.333 148, 160 147.333, 160 146 C 160 144.667, 160.667 144, 162 144 C 163.333 144, 164 143.333, 164 142 C 164 140.667, 163.333 140, 162 140 C 160.667 140, 160 140.667, 160 142 C 160 143.333, 159.333 144, 158 144 C 156.667 144, 156 144.667, 156 146 C 156 147.333, 155.333 148, 154 148 C 152.667 148, 152 148.667, 152 150 C 152 151.333, 151.333 152, 150 152 C 148.333 152, 148 152.667, 148 156 C 148 159.333, 147.667 160, 146 160 C 144.667 160, 144 160.667, 144 162 C 144 163.667, 143.333 164, 140 164 C 136.667 164, 136 163.667, 136 162 C 136 160.667, 135.333 160, 134 160 C 132.167 160, 132 159.333, 132 152 C 132 144.667, 132.167 144, 134 144 C 135.667 144, 136 143.333, 136 140 C 136 136.667, 136.333 136, 138 136 C 139.333 136, 140 135.333, 140 134 C 140 132.333, 140.667 132, 144 132 C 147.333 132, 148 131.667, 148 130 C 148 128.095, 148.667 128, 162 128 C 175.333 128, 176 127.905, 176 126 C 176 124.333, 176.667 124, 180 124 C 183.333 124, 184 124.333, 184 126 C 184 127.667, 184.667 128, 188 128 C 191.333 128, 192 128.333, 192 130 C 192 131.333, 192.667 132, 194 132 C 195.667 132, 196 132.667, 196 136 L 196 140 200 140 C 203.333 140, 204 139.667, 204 138 C 204 136.667, 203.333 136, 202 136 C 200.667 136, 200 135.333, 200 134 C 200 132.667, 199.333 132, 198 132 C 196.667 132, 196 131.333, 196 130 C 196 128.667, 195.333 128, 194 128 C 192.667 128, 192 127.333, 192 126 C 192 124.333, 191.333 124, 188 124 C 184.667 124, 184 123.667, 184 122 C 184 120.333, 183.333 120, 180 120 C 176.667 120, 176 119.667, 176 118 C 176 116.133, 175.333 116, 166 116 C 156.667 116, 156 116.133, 156 118 M 164 122 C 164 123.778, 164.667 124, 170 124 C 175.333 124, 176 123.778, 176 122 C 176 120.222, 175.333 120, 170 120 C 164.667 120, 164 120.222, 164 122 M 192 210 C 192 211.333, 191.333 212, 190 212 C 188.333 212, 188 212.667, 188 216 C 188 219.333, 188.333 220, 190 220 C 191.333 220, 192 220.667, 192 222 C 192 223.333, 192.667 224, 194 224 C 195.667 224, 196 223.333, 196 220 C 196 216.667, 196.333 216, 198 216 C 199.667 216, 200 216.667, 200 220 C 200 223.333, 200.333 224, 202 224 C 203.333 224, 204 224.667, 204 226 C 204 227.667, 204.667 228, 208 228 L 212 228 212 220 C 212 212.667, 211.833 212, 210 212 C 208.667 212, 208 211.333, 208 210 C 208 208.167, 207.333 208, 200 208 C 192.667 208, 192 208.167, 192 210 M 148 216 C 148 219.333, 148.333 220, 150 220 C 151.333 220, 152 220.667, 152 222 C 152 223.333, 152.667 224, 154 224 C 155.778 224, 156 223.333, 156 218 L 156 212 152 212 L 148 212 148 216" stroke="none" fill="black" fill-rule="evenodd"/>
	<path fill-opacity="0.510" d="M 156 118 C 156 119.333, 156.667 120, 158 120 C 159.333 120, 160 120.667, 160 122 C 160 123.778, 159.333 124, 154 124 C 148.667 124, 148 124.222, 148 126 C 148 127.667, 147.333 128, 144 128 C 140.667 128, 140 128.333, 140 130 C 140 131.333, 139.333 132, 138 132 C 136.667 132, 136 132.667, 136 134 C 136 135.333, 135.333 136, 134 136 C 132.333 136, 132 136.667, 132 140 C 132 143.333, 131.667 144, 130 144 C 128.111 144, 128 144.667, 128 156 C 128 167.333, 128.111 168, 130 168 C 131.778 168, 132 168.667, 132 174 L 132 180 128 180 C 124.667 180, 124 179.667, 124 178 C 124 176.667, 123.333 176, 122 176 C 120.222 176, 120 176.667, 120 182 C 120 187.333, 120.222 188, 122 188 C 123.333 188, 124 188.667, 124 190 C 124 191.333, 124.667 192, 126 192 C 127.333 192, 128 192.667, 128 194 C 128 195.667, 128.667 196, 132 196 L 136 196 136 200 C 136 203.333, 136.333 204, 138 204 C 139.333 204, 140 204.667, 140 206 C 140 207.333, 140.667 208, 142 208 C 143.778 208, 144 208.667, 144 214 C 144 219.333, 144.222 220, 146 220 C 147.333 220, 148 220.667, 148 222 C 148 223.667, 147.333 224, 144 224 C 140.667 224, 140 224.333, 140 226 C 140 227.333, 140.667 228, 142 228 C 143.333 228, 144 228.667, 144 230 C 144 231.333, 144.667 232, 146 232 C 147.333 232, 148 232.667, 148 234 C 148 235.778, 148.667 236, 154 236 C 159.333 236, 160 235.778, 160 234 C 160 232.222, 159.333 232, 154 232 L 148 232 148 228 C 148 224.667, 148.333 224, 150 224 C 151.333 224, 152 223.333, 152 222 C 152 220.667, 151.333 220, 150 220 C 148.333 220, 148 219.333, 148 216 C 148 212.667, 148.333 212, 150 212 C 151.333 212, 152 211.333, 152 210 C 152 208.333, 151.333 208, 148 208 C 144.667 208, 144 207.667, 144 206 C 144 204.667, 143.333 204, 142 204 C 140.667 204, 140 203.333, 140 202 C 140 200.667, 140.667 200, 142 200 C 143.333 200, 144 199.333, 144 198 C 144 196.333, 143.333 196, 140 196 C 136.667 196, 136 195.667, 136 194 C 136 192.333, 135.333 192, 132 192 C 128.667 192, 128 191.667, 128 190 C 128 188.667, 127.333 188, 126 188 C 124.667 188, 124 187.333, 124 186 C 124 184.333, 124.667 184, 128 184 C 131.333 184, 132 183.667, 132 182 C 132 180.667, 132.667 180, 134 180 C 135.778 180, 136 179.333, 136 174 C 136 168.667, 135.778 168, 134 168 C 132.111 168, 132 167.333, 132 156 C 132 144.667, 132.111 144, 134 144 C 135.667 144, 136 143.333, 136 140 C 136 136.667, 136.333 136, 138 136 C 139.333 136, 140 135.333, 140 134 C 140 132.333, 140.667 132, 144 132 C 147.333 132, 148 131.667, 148 130 C 148 128.133, 148.667 128, 158 128 C 167.333 128, 168 127.867, 168 126 C 168 124.667, 167.333 124, 166 124 C 164.667 124, 164 123.333, 164 122 C 164 120.222, 164.667 120, 170 120 C 175.333 120, 176 120.222, 176 122 C 176 123.667, 176.667 124, 180 124 C 183.333 124, 184 124.333, 184 126 C 184 127.667, 184.667 128, 188 128 C 191.333 128, 192 128.333, 192 130 C 192 131.333, 192.667 132, 194 132 C 195.333 132, 196 132.667, 196 134 C 196 135.333, 196.667 136, 198 136 C 199.333 136, 200 136.667, 200 138 C 200 139.333, 200.667 140, 202 140 C 203.333 140, 204 139.333, 204 138 C 204 136.667, 203.333 136, 202 136 C 200.667 136, 200 135.333, 200 134 C 200 132.667, 199.333 132, 198 132 C 196.667 132, 196 131.333, 196 130 C 196 128.667, 195.333 128, 194 128 C 192.667 128, 192 127.333, 192 126 C 192 124.333, 191.333 124, 188 124 C 184.667 124, 184 123.667, 184 122 C 184 120.333, 183.333 120, 180 120 C 176.667 120, 176 119.667, 176 118 C 176 116.133, 175.333 116, 166 116 C 156.667 116, 156 116.133, 156 118 M 156 146 C 156 147.333, 155.333 148, 154 148 C 152.133 148, 152 148.667, 152 158 C 152 167.333, 152.133 168, 154 168 C 155.333 168, 156 168.667, 156 170 C 156 171.333, 156.667 172, 158 172 C 159.333 172, 160 172.667, 160 174 C 160 175.333, 160.667 176, 162 176 C 163.333 176, 164 176.667, 164 178 C 164 179.667, 164.667 180, 168 180 L 172 180 172 172 C 172 164.667, 172.167 164, 174 164 C 175.333 164, 176 163.333, 176 162 C 176 160.667, 176.667 160, 178 160 C 179.333 160, 180 160.667, 180 162 C 180 163.333, 180.667 164, 182 164 C 183.333 164, 184 164.667, 184 166 C 184 167.333, 184.667 168, 186 168 C 187.333 168, 188 168.667, 188 170 C 188 171.333, 188.667 172, 190 172 C 191.867 172, 192 172.667, 192 182 L 192 192 186 192 C 180.667 192, 180 192.222, 180 194 C 180 195.333, 180.667 196, 182 196 C 183.667 196, 184 196.667, 184 200 C 184 203.333, 184.333 204, 186 204 C 187.333 204, 188 204.667, 188 206 C 188 207.333, 187.333 208, 186 208 C 184.222 208, 184 208.667, 184 214 C 184 219.333, 184.222 220, 186 220 C 187.333 220, 188 220.667, 188 222 C 188 223.667, 187.333 224, 184 224 C 180.667 224, 180 224.333, 180 226 C 180 227.333, 180.667 228, 182 228 C 183.333 228, 184 228.667, 184 230 C 184 231.333, 184.667 232, 186 232 C 187.333 232, 188 232.667, 188 234 C 188 235.778, 188.667 236, 194 236 C 199.333 236, 200 235.778, 200 234 C 200 232.333, 200.667 232, 204 232 C 207.333 232, 208 232.333, 208 234 C 208 235.333, 207.333 236, 206 236 C 204.667 236, 204 236.667, 204 238 C 204 239.778, 204.667 240, 210 240 C 215.333 240, 216 239.778, 216 238 C 216 236.667, 216.667 236, 218 236 C 219.333 236, 220 235.333, 220 234 C 220 232.667, 220.667 232, 222 232 C 223.867 232, 224 231.333, 224 222 C 224 212.667, 224.133 212, 226 212 C 227.778 212, 228 211.333, 228 206 C 228 200.667, 227.778 200, 226 200 C 224.667 200, 224 200.667, 224 202 C 224 203.667, 223.333 204, 220 204 C 216.667 204, 216 203.667, 216 202 C 216 200.667, 216.667 200, 218 200 C 219.333 200, 220 199.333, 220 198 C 220 196.667, 220.667 196, 222 196 C 223.889 196, 224 195.333, 224 184 C 224 172.667, 223.889 172, 222 172 C 220.111 172, 220 172.667, 220 184 C 220 195.333, 219.889 196, 218 196 C 216.667 196, 216 196.667, 216 198 C 216 199.333, 215.333 200, 214 200 C 212.667 200, 212 200.667, 212 202 C 212 203.333, 212.667 204, 214 204 C 215.333 204, 216 204.667, 216 206 C 216 207.667, 216.667 208, 220 208 C 223.333 208, 224 208.333, 224 210 C 224 211.667, 223.333 212, 220 212 C 216.667 212, 216 212.333, 216 214 C 216 215.333, 216.667 216, 218 216 C 219.833 216, 220 216.667, 220 224 C 220 231.333, 219.833 232, 218 232 C 216.667 232, 216 232.667, 216 234 C 216 235.333, 215.333 236, 214 236 C 212.667 236, 212 235.333, 212 234 C 212 232.667, 211.333 232, 210 232 C 208.667 232, 208 231.333, 208 230 C 208 228.667, 207.333 228, 206 228 C 204.667 228, 204 227.333, 204 226 C 204 224.667, 203.333 224, 202 224 C 200.667 224, 200 223.333, 200 222 C 200 220.667, 199.333 220, 198 220 C 196.667 220, 196 220.667, 196 222 C 196 223.333, 196.667 224, 198 224 C 199.667 224, 200 224.667, 200 228 L 200 232 194 232 C 188.667 232, 188 231.778, 188 230 C 188 228.667, 188.667 228, 190 228 C 191.667 228, 192 227.333, 192 224 C 192 220.667, 191.667 220, 190 220 C 188.222 220, 188 219.333, 188 214 L 188 208 192 208 C 195.333 208, 196 207.667, 196 206 C 196 204.333, 196.667 204, 200 204 C 203.333 204, 204 203.667, 204 202 C 204 200.667, 204.667 200, 206 200 C 207.333 200, 208 199.333, 208 198 C 208 196.667, 208.667 196, 210 196 C 211.667 196, 212 195.333, 212 192 C 212 188.667, 212.333 188, 214 188 C 215.833 188, 216 187.333, 216 180 C 216 172.667, 215.833 172, 214 172 C 212.333 172, 212 171.333, 212 168 C 212 164.667, 211.667 164, 210 164 C 208.667 164, 208 163.333, 208 162 C 208 160.667, 207.333 160, 206 160 C 204.667 160, 204 159.333, 204 158 C 204 156.667, 203.333 156, 202 156 C 200.667 156, 200 156.667, 200 158 C 200 159.333, 200.667 160, 202 160 C 203.333 160, 204 160.667, 204 162 C 204 163.333, 204.667 164, 206 164 C 207.667 164, 208 164.667, 208 168 C 208 171.333, 208.333 172, 210 172 C 211.833 172, 212 172.667, 212 180 C 212 187.333, 211.833 188, 210 188 C 208.333 188, 208 188.667, 208 192 C 208 195.333, 207.667 196, 206 196 C 204.667 196, 204 196.667, 204 198 C 204 199.833, 203.333 200, 196 200 C 188.667 200, 188 199.833, 188 198 C 188 196.667, 188.667 196, 190 196 C 191.333 196, 192 195.333, 192 194 C 192 192.667, 192.667 192, 194 192 C 195.867 192, 196 191.333, 196 182 C 196 172.667, 195.867 172, 194 172 C 192.667 172, 192 171.333, 192 170 C 192 168.667, 191.333 168, 190 168 C 188.667 168, 188 167.333, 188 166 C 188 164.667, 187.333 164, 186 164 C 184.667 164, 184 163.333, 184 162 C 184 160.667, 183.333 160, 182 160 C 180.333 160, 180 159.333, 180 156 C 180 152.667, 179.667 152, 178 152 C 176.333 152, 176 152.667, 176 156 C 176 159.333, 175.667 160, 174 160 C 172.667 160, 172 160.667, 172 162 C 172 163.333, 171.333 164, 170 164 C 168.222 164, 168 164.667, 168 170 C 168 175.333, 167.778 176, 166 176 C 164.667 176, 164 175.333, 164 174 C 164 172.667, 163.333 172, 162 172 C 160.667 172, 160 171.333, 160 170 C 160 168.667, 159.333 168, 158 168 C 156.133 168, 156 167.333, 156 158 C 156 148.667, 156.133 148, 158 148 C 159.333 148, 160 147.333, 160 146 C 160 144.667, 159.333 144, 158 144 C 156.667 144, 156 144.667, 156 146 M 156 218 C 156 219.333, 156.667 220, 158 220 C 159.333 220, 160 220.667, 160 222 C 160 223.333, 160.667 224, 162 224 C 163.333 224, 164 223.333, 164 222 C 164 220.667, 163.333 220, 162 220 C 160.667 220, 160 219.333, 160 218 C 160 216.667, 159.333 216, 158 216 C 156.667 216, 156 216.667, 156 218" stroke="none" fill="black" fill-rule="evenodd"/>
</svg>