<svg xmlns="http://www.w3.org/2000/svg" width="400" height="400" viewBox="0 0 400 400" version="1.1">
	<path fill-opacity="0.200" d="M 144 122 C 144 123.667, 143.333 124, 140 124 C 136.667 124, 136 124.333, 136 126 C 136 127.333, 135.333 128, 134 128 C 132.667 128, 132 128.667, 132 130 C 132 131.333, 131.333 132, 130 132 C 128.667 132, 128 132.667, 128 134 C 128 135.333, 127.333 136, 126 136 C 124.333 136, 124 136.667, 124 140 C 124 143.333, 123.667 144, 122 144 C 120.167 144, 120 144.667, 120 152 C 120 159.333, 119.833 160, 118 160 C 116.167 160, 116 160.667, 116 168 C 116 175.333, 115.833 176, 114 176 C 112.333 176, 112 176.667, 112 180 C 112 183.333, 111.667 184, 110 184 C 108.667 184, 108 184.667, 108 186 C 108 187.778, 108.667 188, 114 188 C 119.333 188, 120 187.778, 120 186 C 120 184.667, 120.667 184, 122 184 C 123.867 184, 124 184.667, 124 194 C 124 203.333, 124.133 204, 126 204 C 127.833 204, 128 204.667, 128 212 C 128 219.333, 128.167 220, 130 220 C 131.333 220, 132 219.333, 132 218 C 132 216.667, 132.667 216, 134 216 C 135.333 216, 136 215.333, 136 214 C 136 212.667, 136.667 212, 138 212 C 139.833 212, 140 212.667, 140 220 C 140 227.333, 139.833 228, 138 228 C 136.667 228, 136 228.667, 136 230 C 136 231.333, 135.333 232, 134 232 C 132.667 232, 132 232.667, 132 234 C 132 235.833, 132.667 236, 140 236 C 147.333 236, 148 235.833, 148 234 C 148 232.667, 148.667 232, 150 232 C 151.667 232, 152 232.667, 152 236 C 152 239.333, 152.333 240, 154 240 C 155.333 240, 156 240.667, 156 242 C 156 243.333, 156.667 244, 158 244 C 159.333 244, 160 244.667, 160 246 C 160 247.333, 160.667 248, 162 248 C 163.333 248, 164 247.333, 164 246 C 164 244.667, 163.333 244, 162 244 C 160.222 244, 160 243.333, 160 238 C 160 232.667, 160.222 232, 162 232 C 163.778 232, 164 231.333, 164 226 C 164 220.667, 164.222 220, 166 220 C 167.667 220, 168 219.333, 168 216 L 168 212 164 212 C 160.667 212, 160 211.667, 160 210 C 160 208.333, 159.333 208, 156 208 C 152.667 208, 152 207.667, 152 206 C 152 204.667, 151.333 204, 150 204 C 148.667 204, 148 203.333, 148 202 C 148 200.667, 147.333 200, 146 200 C 144.167 200, 144 199.333, 144 192 C 144 184.667, 144.167 184, 146 184 C 147.833 184, 148 183.333, 148 176 C 148 168.667, 148.167 168, 150 168 C 151.667 168, 152 167.333, 152 164 L 152 160 158 160 C 163.333 160, 164 160.222, 164 162 C 164 163.667, 164.667 164, 168 164 C 171.333 164, 172 163.667, 172 162 C 172 160.667, 172.667 160, 174 160 C 175.333 160, 176 159.333, 176 158 C 176 156.167, 176.667 156, 184 156 C 191.333 156, 192 156.167, 192 158 C 192 159.333, 192.667 160, 194 160 C 195.867 160, 196 159.333, 196 150 C 196 140.667, 196.133 140, 198 140 C 199.333 140, 200 139.333, 200 138 C 200 136.667, 199.333 136, 198 136 C 196.667 136, 196 135.333, 196 134 C 196 132.667, 195.333 132, 194 132 C 192.667 132, 192 131.333, 192 130 C 192 128.667, 191.333 128, 190 128 C 188.667 128, 188 127.333, 188 126 C 188 124.667, 187.333 124, 186 124 C 184.667 124, 184 123.333, 184 122 C 184 120.667, 183.333 120, 182 120 C 180.333 120, 180 120.667, 180 124 C 180 127.333, 179.667 128, 178 128 C 176.667 128, 176 127.333, 176 126 C 176 124.333, 175.333 124, 172 124 C 168.667 124, 168 123.667, 168 122 C 168 120.111, 167.333 120, 156 120 C 144.667 120, 144 120.111, 144 122 M 144 126 C 144 127.667, 143.333 128, 140 128 C 136.667 128, 136 128.333, 136 130 C 136 131.333, 135.333 132, 134 132 C 132.667 132, 132 132.667, 132 134 C 132 135.333, 131.333 136, 130 136 C 128.333 136, 128 136.667, 128 140 C 128 143.333, 127.667 144, 126 144 C 124.167 144, 124 144.667, 124 152 C 124 159.333, 124.167 160, 126 160 C 127.333 160, 128 160.667, 128 162 C 128 163.778, 128.667 164, 134 164 C 139.333 164, 140 163.778, 140 162 C 140 160.667, 140.667 160, 142 160 C 143.333 160, 144 159.333, 144 158 C 144 156.333, 144.667 156, 148 156 C 151.333 156, 152 155.667, 152 154 C 152 152.222, 152.667 152, 158 152 C 163.333 152, 164 151.778, 164 150 C 164 148.333, 164.667 148, 168 148 C 171.333 148, 172 147.667, 172 146 C 172 144.667, 172.667 144, 174 144 C 175.333 144, 176 143.333, 176 142 C 176 140.667, 176.667 140, 178 140 C 179.667 140, 180 139.333, 180 136 C 180 132.667, 179.667 132, 178 132 C 176.667 132, 176 131.333, 176 130 C 176 128.333, 175.333 128, 172 128 C 168.667 128, 168 127.667, 168 126 C 168 124.111, 167.333 124, 156 124 C 144.667 124, 144 124.111, 144 126 M 220 170 C 220 171.333, 219.333 172, 218 172 C 216.667 172, 216 172.667, 216 174 C 216 175.333, 215.333 176, 214 176 C 212.222 176, 212 176.667, 212 182 C 212 187.333, 211.778 188, 210 188 C 208.667 188, 208 188.667, 208 190 C 208 191.333, 207.333 192, 206 192 C 204.667 192, 204 192.667, 204 194 C 204 195.667, 203.333 196, 200 196 C 196.667 196, 196 195.667, 196 194 C 196 192.667, 196.667 192, 198 192 C 199.333 192, 200 191.333, 200 190 C 200 188.667, 200.667 188, 202 188 C 203.667 188, 204 187.333, 204 184 C 204 180.667, 203.667 180, 202 180 C 200.333 180, 200 180.667, 200 184 C 200 187.333, 199.667 188, 198 188 C 196.667 188, 196 188.667, 196 190 C 196 191.333, 195.333 192, 194 192 C 192.667 192, 192 192.667, 192 194 C 192 195.333, 191.333 196, 190 196 C 188.667 196, 188 196.667, 188 198 C 188 199.333, 187.333 200, 186 200 C 184.667 200, 184 200.667, 184 202 C 184 203.667, 184.667 204, 188 204 C 191.333 204, 192 204.333, 192 206 C 192 207.333, 191.333 208, 190 208 C 188.222 208, 188 208.667, 188 214 C 188 219.333, 188.222 220, 190 220 C 191.333 220, 192 220.667, 192 222 C 192 223.333, 192.667 224, 194 224 C 195.333 224, 196 224.667, 196 226 C 196 227.778, 196.667 228, 202 228 C 207.333 228, 208 227.778, 208 226 C 208 224.667, 207.333 224, 206 224 C 204.222 224, 204 223.333, 204 218 C 204 212.667, 204.222 212, 206 212 C 207.333 212, 208 211.333, 208 210 C 208 208.667, 208.667 208, 210 208 C 211.333 208, 212 207.333, 212 206 C 212 204.667, 212.667 204, 214 204 C 215.333 204, 216 203.333, 216 202 C 216 200.667, 216.667 200, 218 200 C 219.333 200, 220 199.333, 220 198 C 220 196.667, 220.667 196, 222 196 C 223.905 196, 224 195.333, 224 182 C 224 168.667, 223.905 168, 222 168 C 220.667 168, 220 168.667, 220 170" stroke="none" fill="black" fill-rule="evenodd"/>
	<path fill-opacity="0.510" d="M 144 122 C 144 123.667, 143.333 124, 140 124 C 136.667 124, 136 124.333, 136 126 C 136 127.333, 135.333 128, 134 128 C 132.667 128, 132 128.667, 132 130 C 132 131.333, 131.333 132, 130 132 C 128.667 132, 128 132.667, 128 134 C 128 135.333, 127.333 136, 126 136 C 124.333 136, 124 136.667, 124 140 C 124 143.333, 123.667 144, 122 144 C 120.167 144, 120 144.667, 120 152 C 120 159.333, 119.833 160, 118 160 C 116.167 160, 116 160.667, 116 168 C 116 175.333, 115.833 176, 114 176 C 112.333 176, 112 176.667, 112 180 C 112 183.333, 111.667 184, 110 184 C 108.667 184, 108 184.667, 108 186 C 108 187.778, 108.667 188, 114 188 C 119.333 188, 120 187.778, 120 186 C 120 184.667, 120.667 184, 122 184 C 123.867 184, 124 184.667, 124 194 C 124 203.333, 124.133 204, 126 204 C 127.833 204, 128 204.667, 128 212 C 128 219.333, 128.167 220, 130 220 C 131.333 220, 132 219.333, 132 218 C 132 216.667, 132.667 216, 134 216 C 135.333 216, 136 215.333, 136 214 C 136 212.667, 136.667 212, 138 212 C 139.833 212, 140 212.667, 140 220 C 140 227.333, 139.833 228, 138 228 C 136.667 228, 136 228.667, 136 230 C 136 231.333, 135.333 232, 134 232 C 132.667 232, 132 232.667, 132 234 C 132 235.833, 132.667 236, 140 236 C 147.333 236, 148 235.833, 148 234 C 148 232.667, 148.667 232, 150 232 C 151.667 232, 152 232.667, 152 236 C 152 239.333, 152.333 240, 154 240 C 155.333 240, 156 240.667, 156 242 C 156 243.333, 156.667 244, 158 244 C 159.333 244, 160 244.667, 160 246 C 160 247.333, 160.667 248, 162 248 C 163.333 248, 164 247.333, 164 246 C 164 244.667, 163.333 244, 162 244 C 160.667 244, 160 243.333, 160 242 C 160 240.667, 159.333 240, 158 240 C 156.133 240, 156 239.333, 156 230 C 156 220.667, 155.867 220, 154 220 C 152.333 220, 152 220.667, 152 224 C 152 227.333, 151.667 228, 150 228 C 148.667 228, 148 228.667, 148 230 C 148 231.667, 147.333 232, 144 232 C 140.667 232, 140 231.667, 140 230 C 140 228.667, 140.667 228, 142 228 C 143.833 228, 144 227.333, 144 220 C 144 212.667, 143.833 212, 142 212 C 140.222 212, 140 211.333, 140 206 C 140 200.667, 139.778 200, 138 200 C 136.222 200, 136 200.667, 136 206 C 136 211.333, 135.778 212, 134 212 C 132.333 212, 132 211.333, 132 208 C 132 204.667, 131.667 204, 130 204 C 128.095 204, 128 203.333, 128 190 C 128 176.667, 127.905 176, 126 176 C 124.667 176, 124 176.667, 124 178 C 124 179.333, 123.333 180, 122 180 C 120.667 180, 120 180.667, 120 182 C 120 183.333, 119.333 184, 118 184 C 116.333 184, 116 183.333, 116 180 C 116 176.667, 116.333 176, 118 176 C 119.833 176, 120 175.333, 120 168 C 120 160.667, 120.167 160, 122 160 C 123.833 160, 124 159.333, 124 152 C 124 144.667, 124.167 144, 126 144 C 127.667 144, 128 143.333, 128 140 C 128 136.667, 128.333 136, 130 136 C 131.333 136, 132 135.333, 132 134 C 132 132.667, 132.667 132, 134 132 C 135.333 132, 136 131.333, 136 130 C 136 128.333, 136.667 128, 140 128 C 143.333 128, 144 127.667, 144 126 C 144 124.111, 144.667 124, 156 124 C 167.333 124, 168 124.111, 168 126 C 168 127.667, 168.667 128, 172 128 C 175.333 128, 176 128.333, 176 130 C 176 131.667, 176.667 132, 180 132 C 183.333 132, 184 132.333, 184 134 C 184 135.333, 184.667 136, 186 136 C 187.333 136, 188 135.333, 188 134 C 188 132.667, 188.667 132, 190 132 C 191.333 132, 192 132.667, 192 134 C 192 135.333, 192.667 136, 194 136 C 195.333 136, 196 136.667, 196 138 C 196 139.333, 196.667 140, 198 140 C 199.333 140, 200 139.333, 200 138 C 200 136.667, 199.333 136, 198 136 C 196.667 136, 196 135.333, 196 134 C 196 132.667, 195.333 132, 194 132 C 192.667 132, 192 131.333, 192 130 C 192 128.667, 191.333 128, 190 128 C 188.667 128, 188 127.333, 188 126 C 188 124.667, 187.333 124, 186 124 C 184.667 124, 184 123.333, 184 122 C 184 120.667, 183.333 120, 182 120 C 180.333 120, 180 120.667, 180 124 C 180 127.333, 179.667 128, 178 128 C 176.667 128, 176 127.333, 176 126 C 176 124.333, 175.333 124, 172 124 C 168.667 124, 168 123.667, 168 122 C 168 120.111, 167.333 120, 156 120 C 144.667 120, 144 120.111, 144 122 M 184 130 C 184 131.333, 184.667 132, 186 132 C 187.333 132, 188 131.333, 188 130 C 188 128.667, 187.333 128, 186 128 C 184.667 128, 184 128.667, 184 130 M 176 154 C 176 155.333, 175.333 156, 174 156 C 172.667 156, 172 156.667, 172 158 C 172 159.667, 171.333 160, 168 160 C 164.667 160, 164 159.667, 164 158 C 164 156.133, 163.333 156, 154 156 C 144.667 156, 144 156.133, 144 158 C 144 159.333, 143.333 160, 142 160 C 140.667 160, 140 160.667, 140 162 C 140 163.333, 140.667 164, 142 164 C 143.333 164, 144 163.333, 144 162 C 144 160.133, 144.667 160, 154 160 C 163.333 160, 164 160.133, 164 162 C 164 163.667, 164.667 164, 168 164 C 171.333 164, 172 163.667, 172 162 C 172 160.667, 172.667 160, 174 160 C 175.333 160, 176 159.333, 176 158 C 176 156.167, 176.667 156, 184 156 C 191.333 156, 192 156.167, 192 158 C 192 159.333, 192.667 160, 194 160 C 195.333 160, 196 159.333, 196 158 C 196 156.667, 195.333 156, 194 156 C 192.667 156, 192 155.333, 192 154 C 192 152.167, 191.333 152, 184 152 C 176.667 152, 176 152.167, 176 154 M 220 182 C 220 195.333, 219.905 196, 218 196 C 216.667 196, 216 195.333, 216 194 C 216 192.667, 215.333 192, 214 192 C 212.222 192, 212 192.667, 212 198 C 212 203.333, 211.778 204, 210 204 C 208.667 204, 208 204.667, 208 206 C 208 207.333, 207.333 208, 206 208 C 204.667 208, 204 208.667, 204 210 C 204 211.333, 203.333 212, 202 212 C 200.222 212, 200 212.667, 200 218 C 200 223.333, 199.778 224, 198 224 C 196.667 224, 196 223.333, 196 222 C 196 220.667, 195.333 220, 194 220 C 192.222 220, 192 219.333, 192 214 C 192 208.667, 192.222 208, 194 208 C 195.333 208, 196 207.333, 196 206 C 196 204.667, 196.667 204, 198 204 C 199.333 204, 200 203.333, 200 202 C 200 200.333, 199.333 200, 196 200 C 192.667 200, 192 199.667, 192 198 C 192 196.667, 192.667 196, 194 196 C 195.333 196, 196 195.333, 196 194 C 196 192.667, 196.667 192, 198 192 C 199.333 192, 200 191.333, 200 190 C 200 188.667, 200.667 188, 202 188 C 203.667 188, 204 187.333, 204 184 C 204 180.667, 203.667 180, 202 180 C 200.333 180, 200 180.667, 200 184 C 200 187.333, 199.667 188, 198 188 C 196.667 188, 196 188.667, 196 190 C 196 191.333, 195.333 192, 194 192 C 192.667 192, 192 192.667, 192 194 C 192 195.333, 191.333 196, 190 196 C 188.667 196, 188 196.667, 188 198 C 188 199.333, 187.333 200, 186 200 C 184.667 200, 184 200.667, 184 202 C 184 203.667, 184.667 204, 188 204 C 191.333 204, 192 204.333, 192 206 C 192 207.333, 191.333 208, 190 208 C 188.222 208, 188 208.667, 188 214 C 188 219.333, 188.222 220, 190 220 C 191.333 220, 192 220.667, 192 222 C 192 223.333, 192.667 224, 194 224 C 195.333 224, 196 224.667, 196 226 C 196 227.778, 196.667 228, 202 228 C 207.333 228, 208 227.778, 208 226 C 208 224.667, 207.333 224, 206 224 C 204.222 224, 204 223.333, 204 218 C 204 212.667, 204.222 212, 206 212 C 207.333 212, 208 211.333, 208 210 C 208 208.667, 208.667 208, 210 208 C 211.333 208, 212 207.333, 212 206 C 212 204.667, 212.667 204, 214 204 C 215.333 204, 216 203.333, 216 202 C 216 200.667, 216.667 200, 218 200 C 219.333 200, 220 199.333, 220 198 C 220 196.667, 220.667 196, 222 196 C 223.905 196, 224 195.333, 224 182 C 224 168.667, 223.905 168, 222 168 C 220.095 168, 220 168.667, 220 182" stroke="none" fill="black" fill-rule="evenodd"/>
</svg>