<svg xmlns="http://www.w3.org/2000/svg" width="400" height="400" viewBox="0 0 400 400" version="1.1">
	<path fill-opacity="0.561" d="M 132 114 C 132 115.333, 132.667 116, 134 116 C 135.333 116, 136 116.667, 136 118 C 136 119.333, 136.667 120, 138 120 C 139.333 120, 140 120.667, 140 122 C 140 123.333, 140.667 124, 142 124 C 143.333 124, 144 124.667, 144 126 C 144 127.778, 143.333 128, 138 128 C 132.667 128, 132 128.222, 132 130 C 132 131.667, 131.333 132, 128 132 C 124.667 132, 124 132.333, 124 134 C 124 135.333, 123.333 136, 122 136 C 120.667 136, 120 136.667, 120 138 C 120 139.333, 119.333 140, 118 140 C 116.667 140, 116 140.667, 116 142 C 116 143.833, 116.667 144, 124 144 C 131.333 144, 132 144.167, 132 146 C 132 147.333, 131.333 148, 130 148 C 128.667 148, 128 148.667, 128 150 C 128 151.333, 127.333 152, 126 152 C 124.667 152, 124 152.667, 124 154 C 124 155.333, 123.333 156, 122 156 C 120.667 156, 120 156.667, 120 158 C 120 159.333, 119.333 160, 118 160 C 116.667 160, 116 160.667, 116 162 C 116 163.833, 116.667 164, 124 164 C 131.333 164, 132 163.833, 132 162 C 132 160.333, 132.667 160, 136 160 C 139.333 160, 140 160.333, 140 162 C 140 163.333, 139.333 164, 138 164 C 136.667 164, 136 164.667, 136 166 C 136 167.833, 136.667 168, 144 168 C 151.333 168, 152 167.833, 152 166 C 152 164.333, 152.667 164, 156 164 C 159.333 164, 160 163.667, 160 162 C 160 160.667, 160.667 160, 162 160 C 163.667 160, 164 160.667, 164 164 L 164 168 168 168 C 171.333 168, 172 167.667, 172 166 C 172 164.222, 172.667 164, 178 164 C 183.333 164, 184 163.778, 184 162 C 184 160.222, 184.667 160, 190 160 L 196 160 196 154 L 196 148 192 148 C 188.667 148, 188 148.333, 188 150 C 188 151.667, 187.333 152, 184 152 C 180.667 152, 180 152.333, 180 154 C 180 155.333, 179.333 156, 178 156 C 176.667 156, 176 156.667, 176 158 C 176 159.667, 175.333 160, 172 160 C 168.667 160, 168 159.667, 168 158 C 168 156.667, 168.667 156, 170 156 C 171.333 156, 172 155.333, 172 154 C 172 152.667, 172.667 152, 174 152 C 175.333 152, 176 151.333, 176 150 C 176 148.667, 175.333 148, 174 148 C 172.667 148, 172 148.667, 172 150 C 172 151.667, 171.333 152, 168 152 C 164.667 152, 164 152.333, 164 154 C 164 155.667, 163.333 156, 160 156 C 156.667 156, 156 156.333, 156 158 C 156 159.667, 155.333 160, 152 160 C 148.667 160, 148 159.667, 148 158 C 148 156.667, 148.667 156, 150 156 C 151.333 156, 152 155.333, 152 154 C 152 152.667, 152.667 152, 154 152 C 155.333 152, 156 151.333, 156 150 C 156 148.333, 156.667 148, 160 148 C 163.333 148, 164 147.667, 164 146 C 164 144.333, 163.333 144, 160 144 C 156.667 144, 156 144.333, 156 146 C 156 147.667, 155.333 148, 152 148 C 148.667 148, 148 148.333, 148 150 C 148 151.833, 147.333 152, 140 152 C 132.667 152, 132 151.833, 132 150 C 132 148.667, 132.667 148, 134 148 C 135.333 148, 136 147.333, 136 146 C 136 144.667, 136.667 144, 138 144 C 139.333 144, 140 143.333, 140 142 C 140 140.333, 140.667 140, 144 140 C 147.333 140, 148 139.667, 148 138 C 148 136.167, 147.333 136, 140 136 C 132.667 136, 132 135.833, 132 134 C 132 132.222, 132.667 132, 138 132 C 143.333 132, 144 131.778, 144 130 C 144 128.095, 144.667 128, 158 128 C 171.333 128, 172 128.095, 172 130 C 172 131.667, 172.667 132, 176 132 C 179.333 132, 180 131.667, 180 130 C 180 128.333, 179.333 128, 176 128 C 172.667 128, 172 127.667, 172 126 C 172 124.222, 171.333 124, 166 124 C 160.667 124, 160 123.778, 160 122 C 160 120.133, 159.333 120, 150 120 C 140.667 120, 140 119.867, 140 118 C 140 116.095, 140.667 116, 154 116 C 167.333 116, 168 116.095, 168 118 C 168 119.778, 168.667 120, 174 120 C 179.333 120, 180 120.222, 180 122 C 180 123.667, 180.667 124, 184 124 L 188 124 188 128 C 188 131.333, 188.333 132, 190 132 C 191.333 132, 192 132.667, 192 134 C 192 135.333, 192.667 136, 194 136 C 195.333 136, 196 136.667, 196 138 C 196 139.833, 196.667 140, 204 140 L 212 140 212 136 C 212 132.667, 212.333 132, 214 132 C 215.333 132, 216 131.333, 216 130 C 216 128.667, 215.333 128, 214 128 C 212.667 128, 212 128.667, 212 130 C 212 131.333, 211.333 132, 210 132 C 208.222 132, 208 131.333, 208 126 C 208 120.667, 207.778 120, 206 120 C 204.333 120, 204 120.667, 204 124 C 204 127.333, 203.667 128, 202 128 C 200.333 128, 200 127.333, 200 124 C 200 120.667, 199.667 120, 198 120 C 196.667 120, 196 119.333, 196 118 C 196 116.667, 195.333 116, 194 116 C 192.667 116, 192 115.333, 192 114 C 192 112.667, 191.333 112, 190 112 C 188.333 112, 188 112.667, 188 116 L 188 120 184 120 C 180.667 120, 180 119.667, 180 118 C 180 116.222, 179.333 116, 174 116 C 168.667 116, 168 115.778, 168 114 C 168 112.074, 167.333 112, 150 112 C 132.667 112, 132 112.074, 132 114 M 192 124 C 192 127.333, 192.333 128, 194 128 C 195.333 128, 196 128.667, 196 130 C 196 131.333, 196.667 132, 198 132 C 199.333 132, 200 131.333, 200 130 C 200 128.667, 199.333 128, 198 128 C 196.333 128, 196 127.333, 196 124 C 196 120.667, 195.667 120, 194 120 C 192.333 120, 192 120.667, 192 124 M 220 168 C 220 171.333, 219.667 172, 218 172 C 216.667 172, 216 172.667, 216 174 C 216 175.333, 215.333 176, 214 176 C 212.667 176, 212 176.667, 212 178 C 212 179.333, 211.333 180, 210 180 C 208.333 180, 208 180.667, 208 184 L 208 188 212 188 C 215.333 188, 216 188.333, 216 190 C 216 191.778, 215.333 192, 210 192 C 204.667 192, 204 192.222, 204 194 C 204 195.333, 203.333 196, 202 196 C 200.333 196, 200 196.667, 200 200 C 200 203.333, 199.667 204, 198 204 C 196.333 204, 196 204.667, 196 208 L 196 212 204 212 L 212 212 212 208 C 212 204.667, 211.667 204, 210 204 C 208.667 204, 208 203.333, 208 202 C 208 200.667, 208.667 200, 210 200 C 211.333 200, 212 199.333, 212 198 C 212 196.333, 212.667 196, 216 196 C 219.333 196, 220 195.667, 220 194 C 220 192.667, 220.667 192, 222 192 C 223.333 192, 224 191.333, 224 190 C 224 188.333, 223.333 188, 220 188 C 216.667 188, 216 187.667, 216 186 C 216 184.667, 215.333 184, 214 184 C 212.667 184, 212 183.333, 212 182 C 212 180.667, 212.667 180, 214 180 C 215.333 180, 216 179.333, 216 178 C 216 176.667, 216.667 176, 218 176 C 219.333 176, 220 175.333, 220 174 C 220 172.667, 220.667 172, 222 172 C 223.333 172, 224 171.333, 224 170 C 224 168.667, 224.667 168, 226 168 C 227.333 168, 228 167.333, 228 166 C 228 164.333, 227.333 164, 224 164 L 220 164 220 168" stroke="none" fill="black" fill-rule="evenodd"/>
	<path fill-opacity="0.107" d="M 132 114 C 132 115.333, 132.667 116, 134 116 C 135.333 116, 136 116.667, 136 118 C 136 119.333, 136.667 120, 138 120 C 139.333 120, 140 120.667, 140 122 C 140 123.333, 140.667 124, 142 124 C 143.333 124, 144 124.667, 144 126 C 144 127.778, 143.333 128, 138 128 C 132.667 128, 132 128.222, 132 130 C 132 131.667, 131.333 132, 128 132 C 124.667 132, 124 132.333, 124 134 C 124 135.333, 123.333 136, 122 136 C 120.667 136, 120 136.667, 120 138 C 120 139.333, 119.333 140, 118 140 C 116.667 140, 116 140.667, 116 142 C 116 143.833, 116.667 144, 124 144 C 131.333 144, 132 144.167, 132 146 C 132 147.333, 131.333 148, 130 148 C 128.667 148, 128 148.667, 128 150 C 128 151.333, 127.333 152, 126 152 C 124.667 152, 124 152.667, 124 154 C 124 155.333, 123.333 156, 122 156 C 120.667 156, 120 156.667, 120 158 C 120 159.333, 119.333 160, 118 160 C 116.667 160, 116 160.667, 116 162 C 116 163.833, 116.667 164, 124 164 C 131.333 164, 132 163.833, 132 162 C 132 160.333, 132.667 160, 136 160 C 139.333 160, 140 160.333, 140 162 C 140 163.333, 139.333 164, 138 164 C 136.667 164, 136 164.667, 136 166 C 136 167.833, 136.667 168, 144 168 C 151.333 168, 152 167.833, 152 166 C 152 164.333, 152.667 164, 156 164 C 159.333 164, 160 163.667, 160 162 C 160 160.667, 160.667 160, 162 160 C 163.667 160, 164 160.667, 164 164 L 164 168 168 168 C 171.333 168, 172 167.667, 172 166 C 172 164.222, 172.667 164, 178 164 C 183.333 164, 184 163.778, 184 162 C 184 160.222, 184.667 160, 190 160 C 195.333 160, 196 159.778, 196 158 C 196 156.222, 195.333 156, 190 156 C 184.667 156, 184 156.222, 184 158 C 184 159.778, 183.333 160, 178 160 C 172.667 160, 172 160.222, 172 162 C 172 163.333, 171.333 164, 170 164 C 168.333 164, 168 163.333, 168 160 C 168 156.667, 168.333 156, 170 156 C 171.333 156, 172 155.333, 172 154 C 172 152.667, 171.333 152, 170 152 C 168.667 152, 168 152.667, 168 154 C 168 155.667, 167.333 156, 164 156 C 160.667 156, 160 156.333, 160 158 C 160 159.667, 159.333 160, 156 160 C 152.667 160, 152 160.333, 152 162 C 152 163.667, 151.333 164, 148 164 C 144.667 164, 144 163.667, 144 162 C 144 160.667, 144.667 160, 146 160 C 147.333 160, 148 159.333, 148 158 C 148 156.667, 148.667 156, 150 156 C 151.333 156, 152 155.333, 152 154 C 152 152.667, 152.667 152, 154 152 C 155.333 152, 156 151.333, 156 150 C 156 148.667, 155.333 148, 154 148 C 152.667 148, 152 148.667, 152 150 C 152 151.667, 151.333 152, 148 152 C 144.667 152, 144 152.333, 144 154 C 144 155.778, 143.333 156, 138 156 C 132.667 156, 132 156.222, 132 158 C 132 159.667, 131.333 160, 128 160 C 124.667 160, 124 159.667, 124 158 C 124 156.667, 124.667 156, 126 156 C 127.333 156, 128 155.333, 128 154 C 128 152.667, 128.667 152, 130 152 C 131.333 152, 132 151.333, 132 150 C 132 148.667, 132.667 148, 134 148 C 135.333 148, 136 147.333, 136 146 C 136 144.667, 136.667 144, 138 144 C 139.333 144, 140 143.333, 140 142 C 140 140.167, 139.333 140, 132 140 C 124.667 140, 124 139.833, 124 138 C 124 136.333, 124.667 136, 128 136 C 131.333 136, 132 135.667, 132 134 C 132 132.222, 132.667 132, 138 132 C 143.333 132, 144 131.778, 144 130 C 144 128.333, 144.667 128, 148 128 C 151.333 128, 152 127.667, 152 126 C 152 124.333, 151.333 124, 148 124 C 144.667 124, 144 123.667, 144 122 C 144 120.667, 143.333 120, 142 120 C 140.667 120, 140 119.333, 140 118 C 140 116.095, 140.667 116, 154 116 C 167.333 116, 168 116.095, 168 118 C 168 119.778, 168.667 120, 174 120 C 179.333 120, 180 120.222, 180 122 C 180 123.667, 180.667 124, 184 124 C 187.333 124, 188 124.333, 188 126 C 188 127.333, 188.667 128, 190 128 C 191.667 128, 192 127.333, 192 124 C 192 120.667, 192.333 120, 194 120 C 195.667 120, 196 120.667, 196 124 C 196 127.333, 196.333 128, 198 128 C 199.667 128, 200 128.667, 200 132 C 200 135.333, 200.333 136, 202 136 C 203.333 136, 204 135.333, 204 134 C 204 132.667, 204.667 132, 206 132 C 207.667 132, 208 132.667, 208 136 C 208 139.333, 208.333 140, 210 140 C 211.667 140, 212 139.333, 212 136 C 212 132.667, 212.333 132, 214 132 C 215.333 132, 216 131.333, 216 130 C 216 128.667, 215.333 128, 214 128 C 212.667 128, 212 128.667, 212 130 C 212 131.333, 211.333 132, 210 132 C 208.222 132, 208 131.333, 208 126 C 208 120.667, 207.778 120, 206 120 C 204.333 120, 204 120.667, 204 124 C 204 127.333, 203.667 128, 202 128 C 200.333 128, 200 127.333, 200 124 C 200 120.667, 199.667 120, 198 120 C 196.667 120, 196 119.333, 196 118 C 196 116.667, 195.333 116, 194 116 C 192.667 116, 192 115.333, 192 114 C 192 112.667, 191.333 112, 190 112 C 188.333 112, 188 112.667, 188 116 L 188 120 184 120 C 180.667 120, 180 119.667, 180 118 C 180 116.222, 179.333 116, 174 116 C 168.667 116, 168 115.778, 168 114 C 168 112.074, 167.333 112, 150 112 C 132.667 112, 132 112.074, 132 114 M 220 168 C 220 171.333, 219.667 172, 218 172 C 216.667 172, 216 172.667, 216 174 C 216 175.333, 215.333 176, 214 176 C 212.667 176, 212 176.667, 212 178 C 212 179.333, 211.333 180, 210 180 C 208.333 180, 208 180.667, 208 184 L 208 188 212 188 C 215.333 188, 216 188.333, 216 190 C 216 191.333, 215.333 192, 214 192 C 212.667 192, 212 192.667, 212 194 C 212 195.667, 211.333 196, 208 196 L 204 196 204 200 C 204 203.333, 204.333 204, 206 204 C 207.333 204, 208 204.667, 208 206 C 208 207.778, 207.333 208, 202 208 C 196.667 208, 196 208.222, 196 210 C 196 211.833, 196.667 212, 204 212 L 212 212 212 208 C 212 204.667, 211.667 204, 210 204 C 208.667 204, 208 203.333, 208 202 C 208 200.667, 208.667 200, 210 200 C 211.333 200, 212 199.333, 212 198 C 212 196.333, 212.667 196, 216 196 C 219.333 196, 220 195.667, 220 194 C 220 192.667, 220.667 192, 222 192 C 223.333 192, 224 191.333, 224 190 C 224 188.333, 223.333 188, 220 188 C 216.667 188, 216 187.667, 216 186 C 216 184.667, 215.333 184, 214 184 C 212.667 184, 212 183.333, 212 182 C 212 180.667, 212.667 180, 214 180 C 215.333 180, 216 179.333, 216 178 C 216 176.667, 216.667 176, 218 176 C 219.333 176, 220 175.333, 220 174 C 220 172.667, 220.667 172, 222 172 C 223.333 172, 224 171.333, 224 170 C 224 168.667, 224.667 168, 226 168 C 227.333 168, 228 167.333, 228 166 C 228 164.333, 227.333 164, 224 164 L 220 164 220 168" stroke="none" fill="black" fill-rule="evenodd"/>
</svg>