<svg xmlns="http://www.w3.org/2000/svg" width="400" height="400" viewBox="0 0 400 400" version="1.1">
	<path fill-opacity="0.200" d="M 144 110 C 144 111.333, 144.667 112, 146 112 C 147.333 112, 148 112.667, 148 114 C 148 115.333, 148.667 116, 150 116 C 151.333 116, 152 116.667, 152 118 C 152 119.778, 151.333 120, 146 120 C 140.667 120, 140 120.222, 140 122 C 140 123.667, 139.333 124, 136 124 C 132.667 124, 132 124.333, 132 126 C 132 127.333, 131.333 128, 130 128 C 128.667 128, 128 128.667, 128 130 C 128 131.333, 127.333 132, 126 132 C 124.333 132, 124 132.667, 124 136 C 124 139.333, 123.667 140, 122 140 C 120.074 140, 120 140.667, 120 158 L 120 176 124 176 C 127.333 176, 128 175.667, 128 174 C 128 172.667, 128.667 172, 130 172 C 131.778 172, 132 172.667, 132 178 C 132 183.333, 132.222 184, 134 184 C 135.778 184, 136 184.667, 136 190 C 136 195.333, 136.222 196, 138 196 C 139.333 196, 140 195.333, 140 194 C 140 192.667, 140.667 192, 142 192 C 143.667 192, 144 191.333, 144 188 C 144 184.667, 144.333 184, 146 184 C 147.833 184, 148 183.333, 148 176 L 148 168 154 168 C 159.333 168, 160 168.222, 160 170 C 160 171.333, 159.333 172, 158 172 C 156.667 172, 156 172.667, 156 174 C 156 175.778, 156.667 176, 162 176 C 167.333 176, 168 175.778, 168 174 C 168 172.333, 168.667 172, 172 172 C 175.333 172, 176 171.667, 176 170 C 176 168.667, 176.667 168, 178 168 C 179.333 168, 180 167.333, 180 166 C 180 164.333, 180.667 164, 184 164 C 187.333 164, 188 164.333, 188 166 C 188 167.778, 188.667 168, 194 168 C 199.333 168, 200 167.778, 200 166 C 200 164.667, 200.667 164, 202 164 C 203.778 164, 204 163.333, 204 158 C 204 152.667, 203.778 152, 202 152 C 200.667 152, 200 152.667, 200 154 C 200 155.333, 199.333 156, 198 156 C 196.667 156, 196 155.333, 196 154 C 196 152.667, 195.333 152, 194 152 C 192.667 152, 192 152.667, 192 154 C 192 155.333, 192.667 156, 194 156 C 195.667 156, 196 156.667, 196 160 L 196 164 192 164 C 188.667 164, 188 163.667, 188 162 C 188 160.667, 187.333 160, 186 160 C 184.667 160, 184 159.333, 184 158 C 184 156.667, 183.333 156, 182 156 C 180.667 156, 180 156.667, 180 158 C 180 159.333, 179.333 160, 178 160 C 176.667 160, 176 160.667, 176 162 C 176 163.333, 175.333 164, 174 164 C 172.667 164, 172 164.667, 172 166 C 172 167.333, 171.333 168, 170 168 C 168.333 168, 168 167.333, 168 164 C 168 160.667, 168.333 160, 170 160 C 171.333 160, 172 159.333, 172 158 C 172 156.667, 172.667 156, 174 156 C 175.667 156, 176 155.333, 176 152 C 176 148.667, 175.667 148, 174 148 C 172.667 148, 172 148.667, 172 150 C 172 151.667, 171.333 152, 168 152 C 164.667 152, 164 152.333, 164 154 C 164 155.667, 163.333 156, 160 156 C 156.667 156, 156 156.333, 156 158 C 156 159.833, 155.333 160, 148 160 C 140.667 160, 140 160.167, 140 162 C 140 163.667, 139.333 164, 136 164 C 132.667 164, 132 164.333, 132 166 C 132 167.667, 131.333 168, 128 168 L 124 168 124 154 C 124 140.667, 124.095 140, 126 140 C 127.667 140, 128 139.333, 128 136 C 128 132.667, 128.333 132, 130 132 C 131.333 132, 132 131.333, 132 130 C 132 128.333, 132.667 128, 136 128 C 139.333 128, 140 127.667, 140 126 C 140 124.083, 140.667 124, 156 124 C 171.333 124, 172 123.917, 172 122 C 172 120.333, 171.333 120, 168 120 C 164.667 120, 164 119.667, 164 118 C 164 116.333, 163.333 116, 160 116 C 156.667 116, 156 115.667, 156 114 C 156 112.222, 156.667 112, 162 112 C 167.333 112, 168 112.222, 168 114 C 168 115.778, 168.667 116, 174 116 C 179.333 116, 180 116.222, 180 118 C 180 119.667, 180.667 120, 184 120 C 187.333 120, 188 119.667, 188 118 C 188 116.667, 188.667 116, 190 116 C 191.667 116, 192 116.667, 192 120 C 192 123.333, 192.333 124, 194 124 C 195.833 124, 196 124.667, 196 132 L 196 140 202 140 L 208 140 208 136 C 208 132.667, 207.667 132, 206 132 C 204.333 132, 204 131.333, 204 128 C 204 124.667, 203.667 124, 202 124 C 200.667 124, 200 123.333, 200 122 C 200 120.667, 199.333 120, 198 120 C 196.667 120, 196 119.333, 196 118 C 196 116.667, 195.333 116, 194 116 C 192.667 116, 192 115.333, 192 114 C 192 112.667, 191.333 112, 190 112 C 188.667 112, 188 111.333, 188 110 C 188 108.667, 187.333 108, 186 108 C 184.333 108, 184 108.667, 184 112 C 184 115.333, 183.667 116, 182 116 C 180.667 116, 180 115.333, 180 114 C 180 112.222, 179.333 112, 174 112 C 168.667 112, 168 111.778, 168 110 C 168 108.111, 167.333 108, 156 108 C 144.667 108, 144 108.111, 144 110 M 164 170 C 164 171.333, 164.667 172, 166 172 C 167.333 172, 168 171.333, 168 170 C 168 168.667, 167.333 168, 166 168 C 164.667 168, 164 168.667, 164 170" stroke="none" fill="black" fill-rule="evenodd"/>
	<path fill-opacity="0.451" d="M 144 110 C 144 111.333, 144.667 112, 146 112 C 147.333 112, 148 112.667, 148 114 C 148 115.333, 148.667 116, 150 116 C 151.333 116, 152 116.667, 152 118 C 152 119.778, 151.333 120, 146 120 C 140.667 120, 140 120.222, 140 122 C 140 123.667, 139.333 124, 136 124 C 132.667 124, 132 124.333, 132 126 C 132 127.333, 131.333 128, 130 128 C 128.667 128, 128 128.667, 128 130 C 128 131.333, 127.333 132, 126 132 C 124.333 132, 124 132.667, 124 136 C 124 139.333, 123.667 140, 122 140 C 120.074 140, 120 140.667, 120 158 L 120 176 124 176 C 127.333 176, 128 175.667, 128 174 C 128 172.667, 128.667 172, 130 172 C 131.778 172, 132 172.667, 132 178 C 132 183.333, 132.222 184, 134 184 C 135.778 184, 136 184.667, 136 190 C 136 195.333, 136.222 196, 138 196 C 139.333 196, 140 195.333, 140 194 C 140 192.667, 140.667 192, 142 192 C 143.333 192, 144 191.333, 144 190 C 144 188.667, 143.333 188, 142 188 C 140.667 188, 140 187.333, 140 186 C 140 184.667, 139.333 184, 138 184 C 136.333 184, 136 183.333, 136 180 C 136 176.667, 136.333 176, 138 176 C 139.333 176, 140 176.667, 140 178 C 140 179.333, 140.667 180, 142 180 C 143.333 180, 144 180.667, 144 182 C 144 183.333, 144.667 184, 146 184 C 147.833 184, 148 183.333, 148 176 L 148 168 154 168 C 159.333 168, 160 168.222, 160 170 C 160 171.333, 159.333 172, 158 172 C 156.667 172, 156 172.667, 156 174 C 156 175.778, 156.667 176, 162 176 C 167.333 176, 168 175.778, 168 174 C 168 172.333, 168.667 172, 172 172 C 175.333 172, 176 171.667, 176 170 C 176 168.667, 176.667 168, 178 168 C 179.333 168, 180 167.333, 180 166 C 180 164.333, 180.667 164, 184 164 C 187.333 164, 188 164.333, 188 166 C 188 167.778, 188.667 168, 194 168 C 199.333 168, 200 167.778, 200 166 C 200 164.667, 200.667 164, 202 164 C 203.778 164, 204 163.333, 204 158 C 204 152.667, 203.778 152, 202 152 C 200.667 152, 200 152.667, 200 154 C 200 155.333, 199.333 156, 198 156 C 196.667 156, 196 155.333, 196 154 C 196 152.667, 195.333 152, 194 152 C 192.667 152, 192 152.667, 192 154 C 192 155.333, 192.667 156, 194 156 C 195.333 156, 196 156.667, 196 158 C 196 159.333, 196.667 160, 198 160 C 199.333 160, 200 160.667, 200 162 C 200 163.778, 199.333 164, 194 164 C 188.667 164, 188 163.778, 188 162 C 188 160.333, 187.333 160, 184 160 C 180.667 160, 180 160.333, 180 162 C 180 163.333, 179.333 164, 178 164 C 176.667 164, 176 164.667, 176 166 C 176 167.667, 175.333 168, 172 168 L 168 168 168 164 C 168 160.667, 167.667 160, 166 160 C 164.667 160, 164 160.667, 164 162 C 164 163.905, 163.333 164, 150 164 C 136.667 164, 136 164.095, 136 166 C 136 167.667, 135.333 168, 132 168 C 128.667 168, 128 168.333, 128 170 C 128 171.333, 127.333 172, 126 172 C 124.083 172, 124 171.333, 124 156 C 124 140.667, 124.083 140, 126 140 C 127.667 140, 128 139.333, 128 136 C 128 132.667, 128.333 132, 130 132 C 131.333 132, 132 131.333, 132 130 C 132 128.333, 132.667 128, 136 128 C 139.333 128, 140 127.667, 140 126 C 140 124.222, 140.667 124, 146 124 C 151.333 124, 152 123.778, 152 122 C 152 120.667, 152.667 120, 154 120 C 155.333 120, 156 119.333, 156 118 C 156 116.667, 155.333 116, 154 116 C 152.667 116, 152 115.333, 152 114 C 152 112.167, 152.667 112, 160 112 C 167.333 112, 168 112.167, 168 114 C 168 115.778, 168.667 116, 174 116 C 179.333 116, 180 116.222, 180 118 C 180 119.667, 180.667 120, 184 120 C 187.333 120, 188 119.667, 188 118 C 188 116.667, 188.667 116, 190 116 C 191.333 116, 192 116.667, 192 118 C 192 119.333, 192.667 120, 194 120 C 195.333 120, 196 120.667, 196 122 C 196 123.333, 196.667 124, 198 124 C 199.667 124, 200 124.667, 200 128 C 200 131.333, 200.333 132, 202 132 C 203.667 132, 204 132.667, 204 136 C 204 139.333, 204.333 140, 206 140 C 207.667 140, 208 139.333, 208 136 C 208 132.667, 207.667 132, 206 132 C 204.333 132, 204 131.333, 204 128 C 204 124.667, 203.667 124, 202 124 C 200.667 124, 200 123.333, 200 122 C 200 120.667, 199.333 120, 198 120 C 196.667 120, 196 119.333, 196 118 C 196 116.667, 195.333 116, 194 116 C 192.667 116, 192 115.333, 192 114 C 192 112.667, 191.333 112, 190 112 C 188.667 112, 188 111.333, 188 110 C 188 108.667, 187.333 108, 186 108 C 184.333 108, 184 108.667, 184 112 C 184 115.333, 183.667 116, 182 116 C 180.667 116, 180 115.333, 180 114 C 180 112.222, 179.333 112, 174 112 C 168.667 112, 168 111.778, 168 110 C 168 108.111, 167.333 108, 156 108 C 144.667 108, 144 108.111, 144 110 M 164 170 C 164 171.333, 164.667 172, 166 172 C 167.333 172, 168 171.333, 168 170 C 168 168.667, 167.333 168, 166 168 C 164.667 168, 164 168.667, 164 170" stroke="none" fill="black" fill-rule="evenodd"/>
	<path fill-opacity="0.027" d="M 144 110 C 144 111.333, 144.667 112, 146 112 C 147.333 112, 148 112.667, 148 114 C 148 115.333, 148.667 116, 150 116 C 151.333 116, 152 116.667, 152 118 C 152 119.778, 151.333 120, 146 120 C 140.667 120, 140 120.222, 140 122 C 140 123.667, 139.333 124, 136 124 C 132.667 124, 132 124.333, 132 126 C 132 127.333, 131.333 128, 130 128 C 128.667 128, 128 128.667, 128 130 C 128 131.333, 127.333 132, 126 132 C 124.333 132, 124 132.667, 124 136 C 124 139.333, 123.667 140, 122 140 C 120.074 140, 120 140.667, 120 158 L 120 176 124 176 C 127.333 176, 128 175.667, 128 174 C 128 172.667, 128.667 172, 130 172 C 131.778 172, 132 172.667, 132 178 C 132 183.333, 132.222 184, 134 184 C 135.778 184, 136 184.667, 136 190 C 136 195.333, 136.222 196, 138 196 C 139.333 196, 140 195.333, 140 194 C 140 192.667, 140.667 192, 142 192 C 143.333 192, 144 191.333, 144 190 C 144 188.667, 143.333 188, 142 188 C 140.667 188, 140 187.333, 140 186 C 140 184.667, 139.333 184, 138 184 C 136.167 184, 136 183.333, 136 176 L 136 168 148 168 C 159.333 168, 160 168.111, 160 170 C 160 171.333, 159.333 172, 158 172 C 156.667 172, 156 172.667, 156 174 C 156 175.778, 156.667 176, 162 176 C 167.333 176, 168 175.778, 168 174 C 168 172.333, 168.667 172, 172 172 C 175.333 172, 176 171.667, 176 170 C 176 168.667, 176.667 168, 178 168 C 179.333 168, 180 167.333, 180 166 C 180 164.333, 180.667 164, 184 164 C 187.333 164, 188 164.333, 188 166 C 188 167.778, 188.667 168, 194 168 C 199.333 168, 200 167.778, 200 166 C 200 164.667, 200.667 164, 202 164 C 203.778 164, 204 163.333, 204 158 C 204 152.667, 203.778 152, 202 152 C 200.667 152, 200 152.667, 200 154 C 200 155.333, 199.333 156, 198 156 C 196.667 156, 196 155.333, 196 154 C 196 152.667, 195.333 152, 194 152 C 192.667 152, 192 152.667, 192 154 C 192 155.333, 192.667 156, 194 156 C 195.333 156, 196 156.667, 196 158 C 196 159.333, 196.667 160, 198 160 C 199.333 160, 200 160.667, 200 162 C 200 163.778, 199.333 164, 194 164 C 188.667 164, 188 163.778, 188 162 C 188 160.333, 187.333 160, 184 160 C 180.667 160, 180 160.333, 180 162 C 180 163.333, 179.333 164, 178 164 C 176.667 164, 176 164.667, 176 166 C 176 167.667, 175.333 168, 172 168 L 168 168 168 164 C 168 160.667, 167.667 160, 166 160 C 164.667 160, 164 160.667, 164 162 C 164 163.905, 163.333 164, 150 164 C 136.667 164, 136 164.095, 136 166 C 136 167.667, 135.333 168, 132 168 C 128.667 168, 128 168.333, 128 170 C 128 171.333, 127.333 172, 126 172 C 124.083 172, 124 171.333, 124 156 C 124 140.667, 124.083 140, 126 140 C 127.667 140, 128 139.333, 128 136 C 128 132.667, 128.333 132, 130 132 C 131.333 132, 132 131.333, 132 130 C 132 128.333, 132.667 128, 136 128 C 139.333 128, 140 127.667, 140 126 C 140 124.222, 140.667 124, 146 124 C 151.333 124, 152 123.778, 152 122 C 152 120.667, 152.667 120, 154 120 C 155.333 120, 156 119.333, 156 118 C 156 116.667, 155.333 116, 154 116 C 152.667 116, 152 115.333, 152 114 C 152 112.167, 152.667 112, 160 112 C 167.333 112, 168 112.167, 168 114 C 168 115.778, 168.667 116, 174 116 C 179.333 116, 180 116.222, 180 118 C 180 119.667, 180.667 120, 184 120 C 187.333 120, 188 119.667, 188 118 C 188 116.667, 188.667 116, 190 116 C 191.333 116, 192 116.667, 192 118 C 192 119.333, 192.667 120, 194 120 C 195.333 120, 196 120.667, 196 122 C 196 123.333, 196.667 124, 198 124 C 199.667 124, 200 124.667, 200 128 C 200 131.333, 200.333 132, 202 132 C 203.667 132, 204 132.667, 204 136 C 204 139.333, 204.333 140, 206 140 C 207.667 140, 208 139.333, 208 136 C 208 132.667, 207.667 132, 206 132 C 204.333 132, 204 131.333, 204 128 C 204 124.667, 203.667 124, 202 124 C 200.667 124, 200 123.333, 200 122 C 200 120.667, 199.333 120, 198 120 C 196.667 120, 196 119.333, 196 118 C 196 116.667, 195.333 116, 194 116 C 192.667 116, 192 115.333, 192 114 C 192 112.667, 191.333 112, 190 112 C 188.667 112, 188 111.333, 188 110 C 188 108.667, 187.333 108, 186 108 C 184.333 108, 184 108.667, 184 112 C 184 115.333, 183.667 116, 182 116 C 180.667 116, 180 115.333, 180 114 C 180 112.222, 179.333 112, 174 112 C 168.667 112, 168 111.778, 168 110 C 168 108.111, 167.333 108, 156 108 C 144.667 108, 144 108.111, 144 110 M 164 170 C 164 171.333, 164.667 172, 166 172 C 167.333 172, 168 171.333, 168 170 C 168 168.667, 167.333 168, 166 168 C 164.667 168, 164 168.667, 164 170" stroke="none" fill="black" fill-rule="evenodd"/>
	<path fill-opacity="0.266" d="M 132 178 C 132 183.333, 132.222 184, 134 184 C 135.778 184, 136 184.667, 136 190 C 136 195.333, 136.222 196, 138 196 C 139.333 196, 140 195.333, 140 194 C 140 192.667, 140.667 192, 142 192 C 143.333 192, 144 191.333, 144 190 C 144 188.667, 143.333 188, 142 188 C 140.667 188, 140 187.333, 140 186 C 140 184.667, 139.333 184, 138 184 C 136.222 184, 136 183.333, 136 178 C 136 172.667, 135.778 172, 134 172 C 132.222 172, 132 172.667, 132 178" stroke="none" fill="black" fill-rule="evenodd"/>
</svg>