<svg xmlns="http://www.w3.org/2000/svg" width="400" height="400" viewBox="0 0 400 400" version="1.1">
	<path fill-opacity="0.200" d="M 156 122 C 156 123.778, 155.333 124, 150 124 C 144.667 124, 144 124.222, 144 126 C 144 127.667, 143.333 128, 140 128 C 136.667 128, 136 128.333, 136 130 C 136 131.667, 135.333 132, 132 132 C 128.667 132, 128 132.333, 128 134 C 128 135.778, 127.333 136, 122 136 C 116.667 136, 116 136.222, 116 138 C 116 139.333, 116.667 140, 118 140 C 119.333 140, 120 140.667, 120 142 C 120 143.333, 120.667 144, 122 144 C 123.333 144, 124 144.667, 124 146 C 124 147.333, 123.333 148, 122 148 C 120.667 148, 120 148.667, 120 150 C 120 151.333, 119.333 152, 118 152 C 116.333 152, 116 152.667, 116 156 C 116 159.333, 115.667 160, 114 160 C 112.167 160, 112 160.667, 112 168 C 112 175.333, 112.167 176, 114 176 C 115.333 176, 116 175.333, 116 174 C 116 172.667, 116.667 172, 118 172 C 119.833 172, 120 172.667, 120 180 C 120 187.333, 120.167 188, 122 188 C 123.833 188, 124 188.667, 124 196 C 124 203.333, 124.167 204, 126 204 C 127.867 204, 128 204.667, 128 214 C 128 223.333, 128.133 224, 130 224 C 131.333 224, 132 223.333, 132 222 C 132 220.667, 132.667 220, 134 220 C 135.333 220, 136 219.333, 136 218 C 136 216.667, 136.667 216, 138 216 C 139.867 216, 140 216.667, 140 226 C 140 235.333, 139.867 236, 138 236 C 136.667 236, 136 236.667, 136 238 C 136 239.778, 136.667 240, 142 240 C 147.333 240, 148 239.778, 148 238 C 148 236.667, 148.667 236, 150 236 C 151.333 236, 152 235.333, 152 234 C 152 232.667, 152.667 232, 154 232 C 155.333 232, 156 231.333, 156 230 C 156 228.667, 156.667 228, 158 228 C 159.333 228, 160 228.667, 160 230 C 160 231.333, 160.667 232, 162 232 C 163.778 232, 164 231.333, 164 226 C 164 220.667, 164.222 220, 166 220 C 167.667 220, 168 219.333, 168 216 L 168 212 164 212 C 160.667 212, 160 211.667, 160 210 C 160 208.333, 159.333 208, 156 208 C 152.667 208, 152 207.667, 152 206 C 152 204.667, 151.333 204, 150 204 C 148.667 204, 148 203.333, 148 202 C 148 200.667, 147.333 200, 146 200 C 144.167 200, 144 199.333, 144 192 C 144 184.667, 144.167 184, 146 184 C 147.778 184, 148 183.333, 148 178 C 148 172.667, 148.222 172, 150 172 C 151.333 172, 152 171.333, 152 170 C 152 168.667, 152.667 168, 154 168 C 155.333 168, 156 167.333, 156 166 C 156 164.667, 156.667 164, 158 164 C 159.333 164, 160 163.333, 160 162 C 160 160.667, 160.667 160, 162 160 C 163.333 160, 164 159.333, 164 158 C 164 156.333, 164.667 156, 168 156 L 172 156 172 160 C 172 163.333, 172.333 164, 174 164 C 175.667 164, 176 164.667, 176 168 C 176 171.333, 176.333 172, 178 172 C 179.667 172, 180 172.667, 180 176 C 180 179.333, 180.333 180, 182 180 C 183.778 180, 184 180.667, 184 186 C 184 191.333, 184.222 192, 186 192 C 187.867 192, 188 192.667, 188 202 C 188 211.333, 187.867 212, 186 212 C 184.167 212, 184 212.667, 184 220 C 184 227.333, 183.833 228, 182 228 C 180.667 228, 180 228.667, 180 230 C 180 231.778, 180.667 232, 186 232 C 191.333 232, 192 231.778, 192 230 C 192 228.667, 192.667 228, 194 228 C 195.333 228, 196 227.333, 196 226 C 196 224.667, 196.667 224, 198 224 C 199.333 224, 200 223.333, 200 222 C 200 220.667, 200.667 220, 202 220 C 203.667 220, 204 219.333, 204 216 C 204 212.667, 204.333 212, 206 212 C 207.667 212, 208 211.333, 208 208 C 208 204.667, 208.333 204, 210 204 C 211.333 204, 212 204.667, 212 206 C 212 207.333, 212.667 208, 214 208 C 215.333 208, 216 208.667, 216 210 C 216 211.833, 216.667 212, 224 212 L 232 212 232 208 C 232 204.667, 231.667 204, 230 204 C 228.333 204, 228 203.333, 228 200 C 228 196.667, 228.333 196, 230 196 C 231.778 196, 232 195.333, 232 190 C 232 184.667, 231.778 184, 230 184 C 228.667 184, 228 183.333, 228 182 C 228 180.333, 227.333 180, 224 180 L 220 180 220 176 C 220 172.667, 219.667 172, 218 172 C 216.667 172, 216 172.667, 216 174 C 216 175.333, 215.333 176, 214 176 C 212.667 176, 212 175.333, 212 174 C 212 172.667, 211.333 172, 210 172 C 208.667 172, 208 171.333, 208 170 C 208 168.667, 207.333 168, 206 168 C 204.333 168, 204 167.333, 204 164 C 204 160.667, 203.667 160, 202 160 C 200.333 160, 200 159.333, 200 156 C 200 152.667, 199.667 152, 198 152 C 196.333 152, 196 152.667, 196 156 C 196 159.333, 196.333 160, 198 160 C 199.667 160, 200 160.667, 200 164 C 200 167.333, 200.333 168, 202 168 C 203.333 168, 204 168.667, 204 170 C 204 171.333, 204.667 172, 206 172 C 207.778 172, 208 172.667, 208 178 C 208 183.333, 207.778 184, 206 184 C 204.333 184, 204 184.667, 204 188 C 204 191.333, 203.667 192, 202 192 C 200.667 192, 200 192.667, 200 194 C 200 195.667, 199.333 196, 196 196 C 192.667 196, 192 195.667, 192 194 C 192 192.667, 191.333 192, 190 192 C 188.222 192, 188 191.333, 188 186 C 188 180.667, 187.778 180, 186 180 C 184.333 180, 184 179.333, 184 176 C 184 172.667, 183.667 172, 182 172 C 180.333 172, 180 171.333, 180 168 C 180 164.667, 179.667 164, 178 164 C 176.167 164, 176 163.333, 176 156 C 176 148.667, 176.167 148, 178 148 C 179.333 148, 180 147.333, 180 146 C 180 144.667, 180.667 144, 182 144 C 183.333 144, 184 143.333, 184 142 C 184 140.667, 183.333 140, 182 140 C 180.667 140, 180 140.667, 180 142 C 180 143.667, 179.333 144, 176 144 C 172.667 144, 172 144.333, 172 146 C 172 147.333, 171.333 148, 170 148 C 168.667 148, 168 148.667, 168 150 C 168 151.333, 167.333 152, 166 152 C 164.667 152, 164 152.667, 164 154 C 164 155.333, 163.333 156, 162 156 C 160.667 156, 160 156.667, 160 158 C 160 159.333, 159.333 160, 158 160 C 156.667 160, 156 160.667, 156 162 C 156 163.333, 155.333 164, 154 164 C 152.667 164, 152 164.667, 152 166 C 152 167.333, 151.333 168, 150 168 C 148.667 168, 148 168.667, 148 170 C 148 171.333, 147.333 172, 146 172 C 144.333 172, 144 172.667, 144 176 C 144 179.333, 143.667 180, 142 180 C 140.333 180, 140 180.667, 140 184 L 140 188 136 188 C 132.667 188, 132 187.667, 132 186 C 132 184.667, 131.333 184, 130 184 C 128.667 184, 128 183.333, 128 182 C 128 180.667, 127.333 180, 126 180 C 124.167 180, 124 179.333, 124 172 C 124 164.667, 124.167 164, 126 164 C 127.333 164, 128 163.333, 128 162 C 128 160.667, 128.667 160, 130 160 C 131.333 160, 132 159.333, 132 158 C 132 156.667, 131.333 156, 130 156 C 128.667 156, 128 156.667, 128 158 C 128 159.667, 127.333 160, 124 160 L 120 160 120 156 C 120 152.667, 120.333 152, 122 152 C 123.333 152, 124 151.333, 124 150 C 124 148.222, 124.667 148, 130 148 C 135.333 148, 136 147.778, 136 146 C 136 144.222, 135.333 144, 130 144 C 124.667 144, 124 143.778, 124 142 C 124 140.667, 124.667 140, 126 140 C 127.333 140, 128 139.333, 128 138 C 128 136.333, 128.667 136, 132 136 C 135.333 136, 136 135.667, 136 134 C 136 132.333, 136.667 132, 140 132 C 143.333 132, 144 131.667, 144 130 C 144 128.222, 144.667 128, 150 128 C 155.333 128, 156 127.778, 156 126 C 156 124.095, 156.667 124, 170 124 C 183.333 124, 184 124.095, 184 126 C 184 127.333, 184.667 128, 186 128 C 187.333 128, 188 128.667, 188 130 C 188 131.333, 188.667 132, 190 132 C 191.333 132, 192 132.667, 192 134 C 192 135.333, 192.667 136, 194 136 C 195.333 136, 196 136.667, 196 138 C 196 139.778, 196.667 140, 202 140 C 207.333 140, 208 139.778, 208 138 C 208 136.667, 207.333 136, 206 136 C 204.667 136, 204 135.333, 204 134 C 204 132.667, 203.333 132, 202 132 C 200.667 132, 200 131.333, 200 130 C 200 128.333, 199.333 128, 196 128 C 192.667 128, 192 127.667, 192 126 C 192 124.333, 191.333 124, 188 124 C 184.667 124, 184 123.667, 184 122 C 184 120.095, 183.333 120, 170 120 C 156.667 120, 156 120.095, 156 122 M 220 188 C 220 191.333, 220.333 192, 222 192 C 223.667 192, 224 191.333, 224 188 C 224 184.667, 223.667 184, 222 184 C 220.333 184, 220 184.667, 220 188" stroke="none" fill="black" fill-rule="evenodd"/>
	<path fill-opacity="0.451" d="M 156 122 C 156 123.778, 155.333 124, 150 124 C 144.667 124, 144 124.222, 144 126 C 144 127.667, 143.333 128, 140 128 C 136.667 128, 136 128.333, 136 130 C 136 131.667, 135.333 132, 132 132 C 128.667 132, 128 132.333, 128 134 C 128 135.778, 127.333 136, 122 136 C 116.667 136, 116 136.222, 116 138 C 116 139.333, 116.667 140, 118 140 C 119.333 140, 120 140.667, 120 142 C 120 143.333, 120.667 144, 122 144 C 123.333 144, 124 144.667, 124 146 C 124 147.333, 123.333 148, 122 148 C 120.667 148, 120 148.667, 120 150 C 120 151.333, 119.333 152, 118 152 C 116.333 152, 116 152.667, 116 156 C 116 159.333, 115.667 160, 114 160 C 112.167 160, 112 160.667, 112 168 C 112 175.333, 112.167 176, 114 176 C 115.333 176, 116 175.333, 116 174 C 116 172.667, 116.667 172, 118 172 C 119.833 172, 120 172.667, 120 180 C 120 187.333, 120.167 188, 122 188 C 123.833 188, 124 188.667, 124 196 C 124 203.333, 124.167 204, 126 204 C 127.867 204, 128 204.667, 128 214 C 128 223.333, 128.133 224, 130 224 C 131.333 224, 132 223.333, 132 222 C 132 220.667, 132.667 220, 134 220 C 135.333 220, 136 219.333, 136 218 C 136 216.667, 136.667 216, 138 216 C 139.867 216, 140 216.667, 140 226 C 140 235.333, 139.867 236, 138 236 C 136.667 236, 136 236.667, 136 238 C 136 239.778, 136.667 240, 142 240 C 147.333 240, 148 239.778, 148 238 C 148 236.667, 148.667 236, 150 236 C 151.333 236, 152 235.333, 152 234 C 152 232.667, 152.667 232, 154 232 C 155.333 232, 156 231.333, 156 230 C 156 228.667, 156.667 228, 158 228 C 159.333 228, 160 228.667, 160 230 C 160 231.333, 160.667 232, 162 232 C 163.333 232, 164 231.333, 164 230 C 164 228.667, 163.333 228, 162 228 C 160.667 228, 160 227.333, 160 226 C 160 224.667, 159.333 224, 158 224 C 156.667 224, 156 223.333, 156 222 C 156 220.667, 155.333 220, 154 220 C 152.222 220, 152 220.667, 152 226 C 152 231.333, 151.778 232, 150 232 C 148.667 232, 148 232.667, 148 234 C 148 235.333, 147.333 236, 146 236 C 144.133 236, 144 235.333, 144 226 C 144 216.667, 143.867 216, 142 216 C 140.222 216, 140 215.333, 140 210 C 140 204.667, 139.778 204, 138 204 C 136.222 204, 136 204.667, 136 210 C 136 215.333, 135.778 216, 134 216 C 132.222 216, 132 215.333, 132 210 C 132 204.667, 131.778 204, 130 204 C 128.167 204, 128 203.333, 128 196 C 128 188.667, 127.833 188, 126 188 C 124.111 188, 124 187.333, 124 176 C 124 164.667, 123.889 164, 122 164 C 120.667 164, 120 164.667, 120 166 C 120 167.333, 119.333 168, 118 168 C 116.333 168, 116 167.333, 116 164 C 116 160.667, 116.333 160, 118 160 C 119.667 160, 120 159.333, 120 156 C 120 152.667, 120.333 152, 122 152 C 123.333 152, 124 151.333, 124 150 C 124 148.667, 124.667 148, 126 148 C 127.333 148, 128 147.333, 128 146 C 128 144.667, 127.333 144, 126 144 C 124.667 144, 124 143.333, 124 142 C 124 140.667, 124.667 140, 126 140 C 127.333 140, 128 139.333, 128 138 C 128 136.333, 128.667 136, 132 136 C 135.333 136, 136 135.667, 136 134 C 136 132.333, 136.667 132, 140 132 C 143.333 132, 144 131.667, 144 130 C 144 128.222, 144.667 128, 150 128 C 155.333 128, 156 127.778, 156 126 C 156 124.095, 156.667 124, 170 124 C 183.333 124, 184 124.095, 184 126 C 184 127.667, 184.667 128, 188 128 C 191.333 128, 192 128.333, 192 130 C 192 131.667, 192.667 132, 196 132 C 199.333 132, 200 132.333, 200 134 C 200 135.333, 200.667 136, 202 136 C 203.333 136, 204 136.667, 204 138 C 204 139.333, 204.667 140, 206 140 C 207.333 140, 208 139.333, 208 138 C 208 136.667, 207.333 136, 206 136 C 204.667 136, 204 135.333, 204 134 C 204 132.667, 203.333 132, 202 132 C 200.667 132, 200 131.333, 200 130 C 200 128.333, 199.333 128, 196 128 C 192.667 128, 192 127.667, 192 126 C 192 124.333, 191.333 124, 188 124 C 184.667 124, 184 123.667, 184 122 C 184 120.095, 183.333 120, 170 120 C 156.667 120, 156 120.095, 156 122 M 164 154 C 164 155.333, 163.333 156, 162 156 C 160.667 156, 160 156.667, 160 158 C 160 159.333, 159.333 160, 158 160 C 156.667 160, 156 160.667, 156 162 C 156 163.333, 155.333 164, 154 164 C 152.667 164, 152 164.667, 152 166 C 152 167.333, 151.333 168, 150 168 C 148.667 168, 148 168.667, 148 170 C 148 171.333, 148.667 172, 150 172 C 151.333 172, 152 171.333, 152 170 C 152 168.667, 152.667 168, 154 168 C 155.333 168, 156 167.333, 156 166 C 156 164.667, 156.667 164, 158 164 C 159.333 164, 160 163.333, 160 162 C 160 160.667, 160.667 160, 162 160 C 163.333 160, 164 159.333, 164 158 C 164 156.333, 164.667 156, 168 156 L 172 156 172 160 C 172 163.333, 172.333 164, 174 164 C 175.667 164, 176 164.667, 176 168 C 176 171.333, 176.333 172, 178 172 C 179.667 172, 180 172.667, 180 176 C 180 179.333, 180.333 180, 182 180 C 183.778 180, 184 180.667, 184 186 C 184 191.333, 184.222 192, 186 192 C 187.867 192, 188 192.667, 188 202 C 188 211.333, 187.867 212, 186 212 C 184.167 212, 184 212.667, 184 220 C 184 227.333, 183.833 228, 182 228 C 180.667 228, 180 228.667, 180 230 C 180 231.778, 180.667 232, 186 232 C 191.333 232, 192 231.778, 192 230 C 192 228.667, 192.667 228, 194 228 C 195.333 228, 196 227.333, 196 226 C 196 224.667, 196.667 224, 198 224 C 199.333 224, 200 223.333, 200 222 C 200 220.667, 200.667 220, 202 220 C 203.667 220, 204 219.333, 204 216 C 204 212.667, 204.333 212, 206 212 C 207.667 212, 208 211.333, 208 208 C 208 204.667, 208.333 204, 210 204 C 211.333 204, 212 204.667, 212 206 C 212 207.333, 212.667 208, 214 208 C 215.333 208, 216 208.667, 216 210 C 216 211.833, 216.667 212, 224 212 L 232 212 232 208 C 232 204.667, 231.667 204, 230 204 C 228.333 204, 228 203.333, 228 200 C 228 196.667, 228.333 196, 230 196 C 231.778 196, 232 195.333, 232 190 C 232 184.667, 231.778 184, 230 184 C 228.667 184, 228 183.333, 228 182 C 228 180.333, 227.333 180, 224 180 L 220 180 220 176 C 220 172.667, 219.667 172, 218 172 C 216.667 172, 216 172.667, 216 174 C 216 175.333, 215.333 176, 214 176 C 212.667 176, 212 175.333, 212 174 C 212 172.667, 211.333 172, 210 172 C 208.667 172, 208 171.333, 208 170 C 208 168.667, 207.333 168, 206 168 C 204.333 168, 204 167.333, 204 164 C 204 160.667, 203.667 160, 202 160 C 200.333 160, 200 159.333, 200 156 C 200 152.667, 199.667 152, 198 152 C 196.333 152, 196 152.667, 196 156 C 196 159.333, 196.333 160, 198 160 C 199.667 160, 200 160.667, 200 164 C 200 167.333, 200.333 168, 202 168 C 203.333 168, 204 168.667, 204 170 C 204 171.333, 204.667 172, 206 172 C 207.333 172, 208 172.667, 208 174 C 208 175.333, 208.667 176, 210 176 C 211.667 176, 212 176.667, 212 180 C 212 183.333, 212.333 184, 214 184 C 215.667 184, 216 184.667, 216 188 C 216 191.333, 215.667 192, 214 192 C 212.667 192, 212 191.333, 212 190 C 212 188.667, 211.333 188, 210 188 C 208.167 188, 208 188.667, 208 196 C 208 203.333, 207.833 204, 206 204 C 204.333 204, 204 204.667, 204 208 C 204 211.333, 203.667 212, 202 212 C 200.333 212, 200 212.667, 200 216 C 200 219.333, 199.667 220, 198 220 C 196.667 220, 196 220.667, 196 222 C 196 223.333, 195.333 224, 194 224 C 192.667 224, 192 224.667, 192 226 C 192 227.333, 191.333 228, 190 228 C 188.167 228, 188 227.333, 188 220 C 188 212.667, 188.167 212, 190 212 C 191.867 212, 192 211.333, 192 202 C 192 192.667, 191.867 192, 190 192 C 188.222 192, 188 191.333, 188 186 C 188 180.667, 187.778 180, 186 180 C 184.333 180, 184 179.333, 184 176 C 184 172.667, 183.667 172, 182 172 C 180.333 172, 180 171.333, 180 168 C 180 164.667, 179.667 164, 178 164 C 176.222 164, 176 163.333, 176 158 L 176 152 170 152 C 164.667 152, 164 152.222, 164 154 M 220 192 C 220 199.333, 219.833 200, 218 200 C 216.333 200, 216 200.667, 216 204 L 216 208 222 208 C 227.333 208, 228 207.778, 228 206 C 228 204.667, 227.333 204, 226 204 C 224.333 204, 224 203.333, 224 200 C 224 196.667, 224.333 196, 226 196 C 227.778 196, 228 195.333, 228 190 L 228 184 224 184 L 220 184 220 192" stroke="none" fill="black" fill-rule="evenodd"/>
	<path fill-opacity="0.107" d="M 156 122 C 156 123.778, 155.333 124, 150 124 C 144.667 124, 144 124.222, 144 126 C 144 127.667, 143.333 128, 140 128 C 136.667 128, 136 128.333, 136 130 C 136 131.667, 135.333 132, 132 132 C 128.667 132, 128 132.333, 128 134 C 128 135.778, 127.333 136, 122 136 C 116.667 136, 116 136.222, 116 138 C 116 139.333, 116.667 140, 118 140 C 119.333 140, 120 140.667, 120 142 C 120 143.333, 120.667 144, 122 144 C 123.333 144, 124 144.667, 124 146 C 124 147.333, 123.333 148, 122 148 C 120.667 148, 120 148.667, 120 150 C 120 151.333, 119.333 152, 118 152 C 116.333 152, 116 152.667, 116 156 C 116 159.333, 115.667 160, 114 160 C 112.167 160, 112 160.667, 112 168 C 112 175.333, 112.167 176, 114 176 C 115.333 176, 116 175.333, 116 174 C 116 172.667, 116.667 172, 118 172 C 119.833 172, 120 172.667, 120 180 C 120 187.333, 120.167 188, 122 188 C 123.833 188, 124 188.667, 124 196 C 124 203.333, 124.167 204, 126 204 C 127.867 204, 128 204.667, 128 214 C 128 223.333, 128.133 224, 130 224 C 131.333 224, 132 223.333, 132 222 C 132 220.667, 132.667 220, 134 220 C 135.333 220, 136 219.333, 136 218 C 136 216.667, 136.667 216, 138 216 C 139.867 216, 140 216.667, 140 226 C 140 235.333, 139.867 236, 138 236 C 136.667 236, 136 236.667, 136 238 C 136 239.778, 136.667 240, 142 240 C 147.333 240, 148 239.778, 148 238 C 148 236.667, 148.667 236, 150 236 C 151.333 236, 152 235.333, 152 234 C 152 232.667, 152.667 232, 154 232 C 155.333 232, 156 231.333, 156 230 C 156 228.667, 156.667 228, 158 228 C 159.333 228, 160 228.667, 160 230 C 160 231.333, 160.667 232, 162 232 C 163.333 232, 164 231.333, 164 230 C 164 228.667, 163.333 228, 162 228 C 160.667 228, 160 227.333, 160 226 C 160 224.667, 159.333 224, 158 224 C 156.667 224, 156 223.333, 156 222 C 156 220.667, 155.333 220, 154 220 C 152.222 220, 152 220.667, 152 226 C 152 231.333, 151.778 232, 150 232 C 148.667 232, 148 232.667, 148 234 C 148 235.333, 147.333 236, 146 236 C 144.133 236, 144 235.333, 144 226 C 144 216.667, 143.867 216, 142 216 C 140.222 216, 140 215.333, 140 210 C 140 204.667, 139.778 204, 138 204 C 136.222 204, 136 204.667, 136 210 C 136 215.333, 135.778 216, 134 216 C 132.222 216, 132 215.333, 132 210 C 132 204.667, 131.778 204, 130 204 C 128.167 204, 128 203.333, 128 196 C 128 188.667, 127.833 188, 126 188 C 124.111 188, 124 187.333, 124 176 C 124 164.667, 123.889 164, 122 164 C 120.667 164, 120 164.667, 120 166 C 120 167.333, 119.333 168, 118 168 C 116.333 168, 116 167.333, 116 164 C 116 160.667, 116.333 160, 118 160 C 119.667 160, 120 159.333, 120 156 C 120 152.667, 120.333 152, 122 152 C 123.333 152, 124 151.333, 124 150 C 124 148.667, 124.667 148, 126 148 C 127.333 148, 128 147.333, 128 146 C 128 144.667, 127.333 144, 126 144 C 124.667 144, 124 143.333, 124 142 C 124 140.667, 124.667 140, 126 140 C 127.333 140, 128 139.333, 128 138 C 128 136.333, 128.667 136, 132 136 C 135.333 136, 136 135.667, 136 134 C 136 132.333, 136.667 132, 140 132 C 143.333 132, 144 131.667, 144 130 C 144 128.222, 144.667 128, 150 128 C 155.333 128, 156 127.778, 156 126 C 156 124.095, 156.667 124, 170 124 C 183.333 124, 184 124.095, 184 126 C 184 127.667, 184.667 128, 188 128 C 191.333 128, 192 128.333, 192 130 C 192 131.667, 192.667 132, 196 132 C 199.333 132, 200 132.333, 200 134 C 200 135.333, 200.667 136, 202 136 C 203.333 136, 204 136.667, 204 138 C 204 139.333, 204.667 140, 206 140 C 207.333 140, 208 139.333, 208 138 C 208 136.667, 207.333 136, 206 136 C 204.667 136, 204 135.333, 204 134 C 204 132.667, 203.333 132, 202 132 C 200.667 132, 200 131.333, 200 130 C 200 128.333, 199.333 128, 196 128 C 192.667 128, 192 127.667, 192 126 C 192 124.333, 191.333 124, 188 124 C 184.667 124, 184 123.667, 184 122 C 184 120.095, 183.333 120, 170 120 C 156.667 120, 156 120.095, 156 122 M 164 154 C 164 155.333, 163.333 156, 162 156 C 160.667 156, 160 156.667, 160 158 C 160 159.333, 159.333 160, 158 160 C 156.667 160, 156 160.667, 156 162 C 156 163.333, 155.333 164, 154 164 C 152.667 164, 152 164.667, 152 166 C 152 167.333, 151.333 168, 150 168 C 148.667 168, 148 168.667, 148 170 C 148 171.333, 148.667 172, 150 172 C 151.333 172, 152 171.333, 152 170 C 152 168.667, 152.667 168, 154 168 C 155.333 168, 156 167.333, 156 166 C 156 164.667, 156.667 164, 158 164 C 159.333 164, 160 163.333, 160 162 C 160 160.667, 160.667 160, 162 160 C 163.333 160, 164 159.333, 164 158 C 164 156.333, 164.667 156, 168 156 L 172 156 172 160 C 172 163.333, 172.333 164, 174 164 C 175.667 164, 176 164.667, 176 168 C 176 171.333, 176.333 172, 178 172 C 179.667 172, 180 172.667, 180 176 C 180 179.333, 180.333 180, 182 180 C 183.778 180, 184 180.667, 184 186 C 184 191.333, 184.222 192, 186 192 C 187.867 192, 188 192.667, 188 202 C 188 211.333, 187.867 212, 186 212 C 184.167 212, 184 212.667, 184 220 C 184 227.333, 183.833 228, 182 228 C 180.667 228, 180 228.667, 180 230 C 180 231.778, 180.667 232, 186 232 C 191.333 232, 192 231.778, 192 230 C 192 228.667, 192.667 228, 194 228 C 195.333 228, 196 227.333, 196 226 C 196 224.667, 196.667 224, 198 224 C 199.333 224, 200 223.333, 200 222 C 200 220.667, 200.667 220, 202 220 C 203.667 220, 204 219.333, 204 216 C 204 212.667, 204.333 212, 206 212 C 207.667 212, 208 211.333, 208 208 C 208 204.667, 208.333 204, 210 204 C 211.333 204, 212 204.667, 212 206 C 212 207.333, 212.667 208, 214 208 C 215.333 208, 216 208.667, 216 210 C 216 211.833, 216.667 212, 224 212 L 232 212 232 208 C 232 204.667, 231.667 204, 230 204 C 228.333 204, 228 203.333, 228 200 C 228 196.667, 228.333 196, 230 196 C 231.778 196, 232 195.333, 232 190 C 232 184.667, 231.778 184, 230 184 C 228.667 184, 228 183.333, 228 182 C 228 180.333, 227.333 180, 224 180 L 220 180 220 176 C 220 172.667, 219.667 172, 218 172 C 216.667 172, 216 172.667, 216 174 C 216 175.333, 215.333 176, 214 176 C 212.667 176, 212 175.333, 212 174 C 212 172.667, 211.333 172, 210 172 C 208.667 172, 208 171.333, 208 170 C 208 168.667, 207.333 168, 206 168 C 204.333 168, 204 167.333, 204 164 C 204 160.667, 203.667 160, 202 160 C 200.333 160, 200 159.333, 200 156 C 200 152.667, 199.667 152, 198 152 C 196.333 152, 196 152.667, 196 156 C 196 159.333, 196.333 160, 198 160 C 199.667 160, 200 160.667, 200 164 C 200 167.333, 200.333 168, 202 168 C 203.333 168, 204 168.667, 204 170 C 204 171.333, 204.667 172, 206 172 C 207.333 172, 208 172.667, 208 174 C 208 175.333, 208.667 176, 210 176 C 211.667 176, 212 176.667, 212 180 C 212 183.333, 212.333 184, 214 184 C 215.667 184, 216 184.667, 216 188 C 216 191.333, 215.667 192, 214 192 C 212.667 192, 212 191.333, 212 190 C 212 188.667, 211.333 188, 210 188 C 208.167 188, 208 188.667, 208 196 C 208 203.333, 207.833 204, 206 204 C 204.333 204, 204 204.667, 204 208 C 204 211.333, 203.667 212, 202 212 C 200.333 212, 200 212.667, 200 216 C 200 219.333, 199.667 220, 198 220 C 196.667 220, 196 220.667, 196 222 C 196 223.333, 195.333 224, 194 224 C 192.667 224, 192 224.667, 192 226 C 192 227.333, 191.333 228, 190 228 C 188.167 228, 188 227.333, 188 220 C 188 212.667, 188.167 212, 190 212 C 191.867 212, 192 211.333, 192 202 C 192 192.667, 191.867 192, 190 192 C 188.222 192, 188 191.333, 188 186 C 188 180.667, 187.778 180, 186 180 C 184.333 180, 184 179.333, 184 176 C 184 172.667, 183.667 172, 182 172 C 180.333 172, 180 171.333, 180 168 C 180 164.667, 179.667 164, 178 164 C 176.222 164, 176 163.333, 176 158 L 176 152 170 152 C 164.667 152, 164 152.222, 164 154 M 216 182 C 216 183.333, 216.667 184, 218 184 C 219.833 184, 220 184.667, 220 192 C 220 199.333, 219.833 200, 218 200 C 216.333 200, 216 200.667, 216 204 L 216 208 222 208 C 227.333 208, 228 207.778, 228 206 C 228 204.667, 227.333 204, 226 204 C 224.333 204, 224 203.333, 224 200 C 224 196.667, 224.333 196, 226 196 C 227.778 196, 228 195.333, 228 190 L 228 184 224 184 C 220.667 184, 220 183.667, 220 182 C 220 180.667, 219.333 180, 218 180 C 216.667 180, 216 180.667, 216 182" stroke="none" fill="black" fill-rule="evenodd"/>
</svg>