<svg xmlns="http://www.w3.org/2000/svg" width="400" height="400" viewBox="0 0 400 400" version="1.1">
	<path fill-opacity="0.561" d="M 160 110 C 160 111.333, 159.333 112, 158 112 C 156.667 112, 156 112.667, 156 114 C 156 115.333, 155.333 116, 154 116 C 152.667 116, 152 116.667, 152 118 C 152 119.333, 151.333 120, 150 120 C 148.667 120, 148 120.667, 148 122 C 148 123.333, 147.333 124, 146 124 C 144.667 124, 144 124.667, 144 126 C 144 127.333, 143.333 128, 142 128 C 140.133 128, 140 128.667, 140 138 C 140 147.333, 140.133 148, 142 148 C 143.333 148, 144 148.667, 144 150 C 144 151.333, 144.667 152, 146 152 C 147.333 152, 148 152.667, 148 154 C 148 155.333, 148.667 156, 150 156 C 151.333 156, 152 156.667, 152 158 C 152 159.889, 152.667 160, 164 160 C 175.333 160, 176 159.889, 176 158 C 176 156.167, 176.667 156, 184 156 C 191.333 156, 192 156.167, 192 158 C 192 159.333, 192.667 160, 194 160 C 195.867 160, 196 159.333, 196 150 L 196 140 200 140 C 203.333 140, 204 139.667, 204 138 C 204 136.667, 203.333 136, 202 136 C 200.667 136, 200 135.333, 200 134 C 200 132.667, 199.333 132, 198 132 C 196.667 132, 196 131.333, 196 130 C 196 128.333, 195.333 128, 192 128 C 188.667 128, 188 127.667, 188 126 C 188 124.667, 187.333 124, 186 124 C 184.667 124, 184 123.333, 184 122 C 184 120.667, 183.333 120, 182 120 C 180.667 120, 180 119.333, 180 118 C 180 116.667, 179.333 116, 178 116 C 176.333 116, 176 116.667, 176 120 C 176 123.333, 175.667 124, 174 124 C 172.667 124, 172 123.333, 172 122 C 172 120.333, 171.333 120, 168 120 L 164 120 164 114 C 164 108.667, 163.778 108, 162 108 C 160.667 108, 160 108.667, 160 110 M 156 118 C 156 119.333, 155.333 120, 154 120 C 152.222 120, 152 120.667, 152 126 C 152 131.333, 151.778 132, 150 132 C 148.667 132, 148 131.333, 148 130 C 148 128.667, 147.333 128, 146 128 C 144.133 128, 144 128.667, 144 138 C 144 147.333, 144.133 148, 146 148 C 147.333 148, 148 148.667, 148 150 C 148 151.333, 148.667 152, 150 152 C 151.333 152, 152 152.667, 152 154 C 152 155.833, 152.667 156, 160 156 C 167.333 156, 168 155.833, 168 154 C 168 152.667, 168.667 152, 170 152 C 171.667 152, 172 151.333, 172 148 C 172 144.667, 172.333 144, 174 144 C 175.333 144, 176 144.667, 176 146 C 176 147.667, 176.667 148, 180 148 L 184 148 184 142 C 184 136.667, 184.222 136, 186 136 C 187.333 136, 188 136.667, 188 138 C 188 139.333, 188.667 140, 190 140 C 191.667 140, 192 139.333, 192 136 C 192 132.667, 191.667 132, 190 132 C 188.667 132, 188 131.333, 188 130 C 188 128.667, 187.333 128, 186 128 C 184.667 128, 184 127.333, 184 126 C 184 124.667, 183.333 124, 182 124 C 180.333 124, 180 124.667, 180 128 C 180 131.333, 179.667 132, 178 132 C 176.667 132, 176 131.333, 176 130 C 176 128.667, 175.333 128, 174 128 C 172.667 128, 172 127.333, 172 126 C 172 124.333, 171.333 124, 168 124 C 164.667 124, 164 123.667, 164 122 C 164 120.667, 163.333 120, 162 120 C 160.667 120, 160 119.333, 160 118 C 160 116.667, 159.333 116, 158 116 C 156.667 116, 156 116.667, 156 118 M 152 134 C 152 135.333, 152.667 136, 154 136 C 155.333 136, 156 135.333, 156 134 C 156 132.667, 155.333 132, 154 132 C 152.667 132, 152 132.667, 152 134 M 180 134 C 180 135.333, 180.667 136, 182 136 C 183.333 136, 184 135.333, 184 134 C 184 132.667, 183.333 132, 182 132 C 180.667 132, 180 132.667, 180 134 M 168 142 C 168 143.333, 168.667 144, 170 144 C 171.333 144, 172 143.333, 172 142 C 172 140.667, 171.333 140, 170 140 C 168.667 140, 168 140.667, 168 142 M 220 164 C 220 167.333, 220.333 168, 222 168 C 223.333 168, 224 167.333, 224 166 C 224 164.667, 224.667 164, 226 164 C 227.333 164, 228 163.333, 228 162 C 228 160.333, 227.333 160, 224 160 L 220 160 220 164 M 216 176 L 216 180 222 180 C 227.333 180, 228 180.222, 228 182 C 228 183.333, 227.333 184, 226 184 C 224.667 184, 224 184.667, 224 186 C 224 187.778, 223.333 188, 218 188 C 212.667 188, 212 187.778, 212 186 C 212 184.667, 211.333 184, 210 184 C 208.667 184, 208 183.333, 208 182 C 208 180.667, 207.333 180, 206 180 C 204.167 180, 204 180.667, 204 188 C 204 195.333, 203.833 196, 202 196 C 200.333 196, 200 196.667, 200 200 C 200 203.333, 199.667 204, 198 204 C 196.333 204, 196 204.667, 196 208 C 196 211.333, 196.333 212, 198 212 C 199.333 212, 200 211.333, 200 210 C 200 208.333, 200.667 208, 204 208 C 207.333 208, 208 208.333, 208 210 C 208 211.333, 208.667 212, 210 212 C 211.333 212, 212 211.333, 212 210 C 212 208.667, 212.667 208, 214 208 C 215.833 208, 216 207.333, 216 200 L 216 192 220 192 C 223.333 192, 224 191.667, 224 190 C 224 188.667, 224.667 188, 226 188 C 227.333 188, 228 187.333, 228 186 C 228 184.667, 228.667 184, 230 184 C 231.778 184, 232 183.333, 232 178 C 232 172.667, 231.778 172, 230 172 C 228.667 172, 228 172.667, 228 174 C 228 175.667, 227.333 176, 224 176 C 220.667 176, 220 175.667, 220 174 C 220 172.667, 219.333 172, 218 172 C 216.333 172, 216 172.667, 216 176" stroke="none" fill="black" fill-rule="evenodd"/>
	<path fill-opacity="0.107" d="M 160 110 C 160 111.333, 159.333 112, 158 112 C 156.667 112, 156 112.667, 156 114 C 156 115.333, 155.333 116, 154 116 C 152.667 116, 152 116.667, 152 118 C 152 119.333, 151.333 120, 150 120 C 148.667 120, 148 120.667, 148 122 C 148 123.333, 147.333 124, 146 124 C 144.667 124, 144 124.667, 144 126 C 144 127.333, 143.333 128, 142 128 C 140.133 128, 140 128.667, 140 138 C 140 147.333, 140.133 148, 142 148 C 143.333 148, 144 148.667, 144 150 C 144 151.333, 144.667 152, 146 152 C 147.333 152, 148 152.667, 148 154 C 148 155.333, 148.667 156, 150 156 C 151.333 156, 152 156.667, 152 158 C 152 159.889, 152.667 160, 164 160 C 175.333 160, 176 159.889, 176 158 C 176 156.167, 176.667 156, 184 156 C 191.333 156, 192 156.167, 192 158 C 192 159.333, 192.667 160, 194 160 C 195.333 160, 196 159.333, 196 158 C 196 156.667, 195.333 156, 194 156 C 192.667 156, 192 155.333, 192 154 C 192 152.222, 191.333 152, 186 152 C 180.667 152, 180 151.778, 180 150 C 180 148.667, 179.333 148, 178 148 C 176.333 148, 176 148.667, 176 152 L 176 156 164 156 C 152.667 156, 152 155.889, 152 154 C 152 152.667, 151.333 152, 150 152 C 148.667 152, 148 151.333, 148 150 C 148 148.667, 147.333 148, 146 148 C 144.133 148, 144 147.333, 144 138 C 144 128.667, 144.133 128, 146 128 C 147.333 128, 148 128.667, 148 130 C 148 131.333, 148.667 132, 150 132 C 151.778 132, 152 131.333, 152 126 C 152 120.667, 152.222 120, 154 120 C 155.333 120, 156 119.333, 156 118 C 156 116.667, 156.667 116, 158 116 C 159.333 116, 160 116.667, 160 118 C 160 119.333, 160.667 120, 162 120 C 163.333 120, 164 120.667, 164 122 C 164 123.667, 164.667 124, 168 124 C 171.333 124, 172 124.333, 172 126 C 172 127.333, 172.667 128, 174 128 C 175.333 128, 176 128.667, 176 130 C 176 131.333, 176.667 132, 178 132 C 179.667 132, 180 131.333, 180 128 C 180 124.667, 180.333 124, 182 124 C 183.333 124, 184 124.667, 184 126 C 184 127.333, 184.667 128, 186 128 C 187.333 128, 188 128.667, 188 130 C 188 131.667, 188.667 132, 192 132 C 195.333 132, 196 132.333, 196 134 C 196 135.333, 196.667 136, 198 136 C 199.333 136, 200 136.667, 200 138 C 200 139.333, 200.667 140, 202 140 C 203.333 140, 204 139.333, 204 138 C 204 136.667, 203.333 136, 202 136 C 200.667 136, 200 135.333, 200 134 C 200 132.667, 199.333 132, 198 132 C 196.667 132, 196 131.333, 196 130 C 196 128.333, 195.333 128, 192 128 C 188.667 128, 188 127.667, 188 126 C 188 124.667, 187.333 124, 186 124 C 184.667 124, 184 123.333, 184 122 C 184 120.667, 183.333 120, 182 120 C 180.667 120, 180 119.333, 180 118 C 180 116.667, 179.333 116, 178 116 C 176.333 116, 176 116.667, 176 120 C 176 123.333, 175.667 124, 174 124 C 172.667 124, 172 123.333, 172 122 C 172 120.333, 171.333 120, 168 120 L 164 120 164 114 C 164 108.667, 163.778 108, 162 108 C 160.667 108, 160 108.667, 160 110 M 220 164 C 220 167.333, 220.333 168, 222 168 C 223.333 168, 224 167.333, 224 166 C 224 164.667, 224.667 164, 226 164 C 227.333 164, 228 163.333, 228 162 C 228 160.333, 227.333 160, 224 160 L 220 160 220 164 M 216 176 L 216 180 222 180 C 227.333 180, 228 180.222, 228 182 C 228 183.333, 227.333 184, 226 184 C 224.667 184, 224 184.667, 224 186 C 224 187.833, 223.333 188, 216 188 C 208.667 188, 208 188.167, 208 190 C 208 191.333, 208.667 192, 210 192 C 211.833 192, 212 192.667, 212 200 C 212 207.333, 211.833 208, 210 208 C 208.667 208, 208 207.333, 208 206 C 208 204.333, 207.333 204, 204 204 C 200.667 204, 200 204.333, 200 206 C 200 207.333, 199.333 208, 198 208 C 196.667 208, 196 208.667, 196 210 C 196 211.333, 196.667 212, 198 212 C 199.333 212, 200 211.333, 200 210 C 200 208.333, 200.667 208, 204 208 C 207.333 208, 208 208.333, 208 210 C 208 211.333, 208.667 212, 210 212 C 211.333 212, 212 211.333, 212 210 C 212 208.667, 212.667 208, 214 208 C 215.833 208, 216 207.333, 216 200 L 216 192 220 192 C 223.333 192, 224 191.667, 224 190 C 224 188.667, 224.667 188, 226 188 C 227.333 188, 228 187.333, 228 186 C 228 184.667, 228.667 184, 230 184 C 231.778 184, 232 183.333, 232 178 C 232 172.667, 231.778 172, 230 172 C 228.667 172, 228 172.667, 228 174 C 228 175.667, 227.333 176, 224 176 C 220.667 176, 220 175.667, 220 174 C 220 172.667, 219.333 172, 218 172 C 216.333 172, 216 172.667, 216 176" stroke="none" fill="black" fill-rule="evenodd"/>
</svg>