<svg xmlns="http://www.w3.org/2000/svg" width="400" height="400" viewBox="0 0 400 400" version="1.1">
	<path fill-opacity="0.200" d="M 168 116 L 168 120 156 120 C 144.667 120, 144 120.111, 144 122 C 144 123.667, 143.333 124, 140 124 C 136.667 124, 136 124.333, 136 126 C 136 127.333, 135.333 128, 134 128 C 132.667 128, 132 128.667, 132 130 C 132 131.333, 131.333 132, 130 132 C 128.667 132, 128 132.667, 128 134 C 128 135.333, 127.333 136, 126 136 C 124.667 136, 124 136.667, 124 138 C 124 139.333, 123.333 140, 122 140 C 120.333 140, 120 140.667, 120 144 L 120 148 124 148 C 127.333 148, 128 148.333, 128 150 C 128 151.333, 127.333 152, 126 152 C 124.333 152, 124 152.667, 124 156 C 124 159.333, 123.667 160, 122 160 C 120.133 160, 120 160.667, 120 170 C 120 179.333, 120.133 180, 122 180 C 123.667 180, 124 180.667, 124 184 C 124 187.333, 124.333 188, 126 188 C 127.333 188, 128 188.667, 128 190 C 128 191.333, 128.667 192, 130 192 C 131.333 192, 132 192.667, 132 194 C 132 195.333, 132.667 196, 134 196 C 135.333 196, 136 196.667, 136 198 C 136 199.333, 136.667 200, 138 200 C 139.333 200, 140 199.333, 140 198 C 140 196.667, 140.667 196, 142 196 C 143.333 196, 144 195.333, 144 194 C 144 192.667, 144.667 192, 146 192 C 147.333 192, 148 191.333, 148 190 C 148 188.333, 148.667 188, 152 188 C 155.333 188, 156 187.667, 156 186 C 156 184.222, 156.667 184, 162 184 C 167.333 184, 168 184.222, 168 186 C 168 187.333, 168.667 188, 170 188 C 171.333 188, 172 188.667, 172 190 C 172 191.667, 172.667 192, 176 192 C 179.333 192, 180 191.667, 180 190 C 180 188.667, 180.667 188, 182 188 C 183.333 188, 184 188.667, 184 190 C 184 191.667, 184.667 192, 188 192 C 191.333 192, 192 192.333, 192 194 C 192 195.667, 192.667 196, 196 196 L 200 196 200 200 C 200 203.333, 199.667 204, 198 204 C 196.222 204, 196 204.667, 196 210 C 196 215.333, 196.222 216, 198 216 C 199.333 216, 200 215.333, 200 214 C 200 212.667, 200.667 212, 202 212 C 203.333 212, 204 211.333, 204 210 C 204 208.667, 204.667 208, 206 208 C 207.333 208, 208 207.333, 208 206 C 208 204.667, 208.667 204, 210 204 C 211.667 204, 212 203.333, 212 200 C 212 196.667, 212.333 196, 214 196 C 215.667 196, 216 195.333, 216 192 C 216 188.667, 216.333 188, 218 188 C 219.833 188, 220 187.333, 220 180 C 220 172.667, 219.833 172, 218 172 C 216.667 172, 216 172.667, 216 174 C 216 175.667, 215.333 176, 212 176 L 208 176 208 172 C 208 168.667, 207.667 168, 206 168 C 204.333 168, 204 167.333, 204 164 C 204 160.667, 203.667 160, 202 160 C 200.667 160, 200 159.333, 200 158 C 200 156.667, 199.333 156, 198 156 C 196.167 156, 196 155.333, 196 148 L 196 140 202 140 C 207.333 140, 208 139.778, 208 138 C 208 136.333, 207.333 136, 204 136 L 200 136 200 128 C 200 120.667, 199.833 120, 198 120 C 196.667 120, 196 120.667, 196 122 C 196 123.333, 195.333 124, 194 124 C 192.667 124, 192 124.667, 192 126 C 192 127.333, 191.333 128, 190 128 C 188.667 128, 188 127.333, 188 126 C 188 124.667, 187.333 124, 186 124 C 184.667 124, 184 123.333, 184 122 C 184 120.667, 183.333 120, 182 120 C 180.667 120, 180 119.333, 180 118 C 180 116.667, 179.333 116, 178 116 C 176.667 116, 176 115.333, 176 114 C 176 112.333, 175.333 112, 172 112 L 168 112 168 116 M 144 126 C 144 127.667, 143.333 128, 140 128 C 136.667 128, 136 128.333, 136 130 C 136 131.333, 135.333 132, 134 132 C 132.667 132, 132 132.667, 132 134 C 132 135.333, 131.333 136, 130 136 C 128.667 136, 128 136.667, 128 138 C 128 139.833, 128.667 140, 136 140 C 143.333 140, 144 140.167, 144 142 C 144 143.333, 143.333 144, 142 144 C 140.667 144, 140 144.667, 140 146 C 140 147.667, 139.333 148, 136 148 C 132.667 148, 132 148.333, 132 150 C 132 151.333, 131.333 152, 130 152 C 128.333 152, 128 152.667, 128 156 C 128 159.333, 127.667 160, 126 160 C 124.222 160, 124 160.667, 124 166 C 124 171.333, 124.222 172, 126 172 C 127.333 172, 128 172.667, 128 174 C 128 175.778, 128.667 176, 134 176 C 139.333 176, 140 175.778, 140 174 C 140 172.333, 140.667 172, 144 172 C 147.333 172, 148 171.667, 148 170 C 148 168.667, 148.667 168, 150 168 C 151.333 168, 152 167.333, 152 166 C 152 164.333, 152.667 164, 156 164 C 159.333 164, 160 163.667, 160 162 C 160 160.667, 160.667 160, 162 160 C 163.778 160, 164 160.667, 164 166 C 164 171.333, 164.222 172, 166 172 C 167.333 172, 168 172.667, 168 174 C 168 175.333, 168.667 176, 170 176 C 171.667 176, 172 175.333, 172 172 C 172 168.667, 172.333 168, 174 168 C 175.333 168, 176 168.667, 176 170 C 176 171.667, 176.667 172, 180 172 C 183.333 172, 184 171.667, 184 170 C 184 168.667, 184.667 168, 186 168 C 187.333 168, 188 167.333, 188 166 C 188 164.667, 188.667 164, 190 164 C 191.778 164, 192 163.333, 192 158 C 192 152.667, 191.778 152, 190 152 C 188.333 152, 188 151.333, 188 148 C 188 144.667, 187.667 144, 186 144 C 184.667 144, 184 143.333, 184 142 C 184 140.333, 183.333 140, 180 140 L 176 140 176 136 C 176 132.667, 175.667 132, 174 132 C 172.667 132, 172 131.333, 172 130 C 172 128.667, 171.333 128, 170 128 C 168.667 128, 168 127.333, 168 126 C 168 124.111, 167.333 124, 156 124 C 144.667 124, 144 124.111, 144 126 M 144 138 C 144 139.333, 144.667 140, 146 140 C 147.333 140, 148 139.333, 148 138 C 148 136.667, 147.333 136, 146 136 C 144.667 136, 144 136.667, 144 138 M 164 158 C 164 159.333, 164.667 160, 166 160 C 167.333 160, 168 159.333, 168 158 C 168 156.667, 167.333 156, 166 156 C 164.667 156, 164 156.667, 164 158 M 204 188 C 204 191.333, 204.333 192, 206 192 C 207.667 192, 208 191.333, 208 188 C 208 184.667, 207.667 184, 206 184 C 204.333 184, 204 184.667, 204 188" stroke="none" fill="black" fill-rule="evenodd"/>
	<path fill-opacity="0.510" d="M 168 116 L 168 120 156 120 C 144.667 120, 144 120.111, 144 122 C 144 123.667, 143.333 124, 140 124 C 136.667 124, 136 124.333, 136 126 C 136 127.333, 135.333 128, 134 128 C 132.667 128, 132 128.667, 132 130 C 132 131.333, 131.333 132, 130 132 C 128.667 132, 128 132.667, 128 134 C 128 135.333, 127.333 136, 126 136 C 124.667 136, 124 136.667, 124 138 C 124 139.333, 123.333 140, 122 140 C 120.333 140, 120 140.667, 120 144 L 120 148 124 148 C 127.333 148, 128 148.333, 128 150 C 128 151.333, 127.333 152, 126 152 C 124.333 152, 124 152.667, 124 156 C 124 159.333, 123.667 160, 122 160 C 120.133 160, 120 160.667, 120 170 C 120 179.333, 120.133 180, 122 180 C 123.667 180, 124 180.667, 124 184 C 124 187.333, 124.333 188, 126 188 C 127.333 188, 128 188.667, 128 190 C 128 191.333, 128.667 192, 130 192 C 131.333 192, 132 192.667, 132 194 C 132 195.333, 132.667 196, 134 196 C 135.333 196, 136 196.667, 136 198 C 136 199.333, 136.667 200, 138 200 C 139.333 200, 140 199.333, 140 198 C 140 196.667, 140.667 196, 142 196 C 143.333 196, 144 195.333, 144 194 C 144 192.667, 144.667 192, 146 192 C 147.333 192, 148 191.333, 148 190 C 148 188.333, 148.667 188, 152 188 C 155.333 188, 156 187.667, 156 186 C 156 184.222, 156.667 184, 162 184 C 167.333 184, 168 184.222, 168 186 C 168 187.333, 168.667 188, 170 188 C 171.333 188, 172 188.667, 172 190 C 172 191.667, 172.667 192, 176 192 C 179.333 192, 180 191.667, 180 190 C 180 188.667, 180.667 188, 182 188 C 183.333 188, 184 188.667, 184 190 C 184 191.667, 184.667 192, 188 192 C 191.333 192, 192 192.333, 192 194 C 192 195.833, 192.667 196, 200 196 L 208 196 208 200 C 208 203.333, 207.667 204, 206 204 C 204.667 204, 204 204.667, 204 206 C 204 207.333, 203.333 208, 202 208 C 200.667 208, 200 208.667, 200 210 C 200 211.333, 199.333 212, 198 212 C 196.667 212, 196 212.667, 196 214 C 196 215.333, 196.667 216, 198 216 C 199.333 216, 200 215.333, 200 214 C 200 212.667, 200.667 212, 202 212 C 203.333 212, 204 211.333, 204 210 C 204 208.667, 204.667 208, 206 208 C 207.333 208, 208 207.333, 208 206 C 208 204.667, 208.667 204, 210 204 C 211.667 204, 212 203.333, 212 200 C 212 196.667, 212.333 196, 214 196 C 215.667 196, 216 195.333, 216 192 C 216 188.667, 216.333 188, 218 188 C 219.833 188, 220 187.333, 220 180 C 220 172.667, 219.833 172, 218 172 C 216.333 172, 216 172.667, 216 176 C 216 179.333, 215.667 180, 214 180 C 212.667 180, 212 179.333, 212 178 C 212 176.667, 211.333 176, 210 176 C 208.333 176, 208 175.333, 208 172 C 208 168.667, 207.667 168, 206 168 C 204.333 168, 204 167.333, 204 164 C 204 160.667, 203.667 160, 202 160 C 200.667 160, 200 159.333, 200 158 C 200 156.667, 199.333 156, 198 156 C 196.667 156, 196 155.333, 196 154 C 196 152.667, 195.333 152, 194 152 C 192.667 152, 192 152.667, 192 154 C 192 155.333, 192.667 156, 194 156 C 195.333 156, 196 156.667, 196 158 C 196 159.333, 196.667 160, 198 160 C 199.667 160, 200 160.667, 200 164 C 200 167.333, 200.333 168, 202 168 C 203.667 168, 204 168.667, 204 172 C 204 175.333, 204.333 176, 206 176 C 207.333 176, 208 176.667, 208 178 C 208 179.667, 207.333 180, 204 180 C 200.667 180, 200 179.667, 200 178 C 200 176.667, 199.333 176, 198 176 C 196.667 176, 196 176.667, 196 178 C 196 179.333, 196.667 180, 198 180 C 199.778 180, 200 180.667, 200 186 L 200 192 196 192 C 192.667 192, 192 191.667, 192 190 C 192 188.333, 191.333 188, 188 188 C 184.667 188, 184 187.667, 184 186 C 184 184.667, 183.333 184, 182 184 C 180.667 184, 180 183.333, 180 182 C 180 180.667, 179.333 180, 178 180 C 176.222 180, 176 179.333, 176 174 C 176 168.667, 175.778 168, 174 168 C 172.222 168, 172 168.667, 172 174 C 172 179.333, 172.222 180, 174 180 C 175.667 180, 176 180.667, 176 184 C 176 187.333, 175.667 188, 174 188 C 172.667 188, 172 187.333, 172 186 C 172 184.667, 171.333 184, 170 184 C 168.667 184, 168 183.333, 168 182 C 168 180.667, 167.333 180, 166 180 C 164.167 180, 164 179.333, 164 172 C 164 164.667, 163.833 164, 162 164 C 160.167 164, 160 164.667, 160 172 C 160 179.333, 159.833 180, 158 180 C 156.667 180, 156 180.667, 156 182 C 156 183.667, 155.333 184, 152 184 C 148.667 184, 148 184.333, 148 186 C 148 187.333, 147.333 188, 146 188 C 144.667 188, 144 188.667, 144 190 C 144 191.333, 143.333 192, 142 192 C 140.667 192, 140 192.667, 140 194 C 140 195.333, 139.333 196, 138 196 C 136.667 196, 136 195.333, 136 194 C 136 192.667, 135.333 192, 134 192 C 132.667 192, 132 191.333, 132 190 C 132 188.667, 131.333 188, 130 188 C 128.333 188, 128 187.333, 128 184 C 128 180.667, 127.667 180, 126 180 C 124.133 180, 124 179.333, 124 170 C 124 160.667, 124.133 160, 126 160 C 127.667 160, 128 159.333, 128 156 C 128 152.667, 128.333 152, 130 152 C 131.333 152, 132 151.333, 132 150 C 132 148.667, 132.667 148, 134 148 C 135.333 148, 136 147.333, 136 146 C 136 144.333, 136.667 144, 140 144 C 143.333 144, 144 143.667, 144 142 C 144 140.333, 143.333 140, 140 140 C 136.667 140, 136 140.333, 136 142 C 136 143.778, 135.333 144, 130 144 C 124.667 144, 124 143.778, 124 142 C 124 140.667, 124.667 140, 126 140 C 127.333 140, 128 139.333, 128 138 C 128 136.667, 128.667 136, 130 136 C 131.333 136, 132 135.333, 132 134 C 132 132.667, 132.667 132, 134 132 C 135.333 132, 136 131.333, 136 130 C 136 128.333, 136.667 128, 140 128 C 143.333 128, 144 127.667, 144 126 C 144 124.095, 144.667 124, 158 124 C 171.333 124, 172 124.095, 172 126 C 172 127.333, 172.667 128, 174 128 C 175.333 128, 176 127.333, 176 126 C 176 124.667, 175.333 124, 174 124 C 172.333 124, 172 123.333, 172 120 C 172 116.667, 172.333 116, 174 116 C 175.333 116, 176 116.667, 176 118 C 176 119.333, 176.667 120, 178 120 C 179.333 120, 180 120.667, 180 122 C 180 123.333, 180.667 124, 182 124 C 183.333 124, 184 124.667, 184 126 C 184 127.333, 184.667 128, 186 128 C 187.667 128, 188 128.667, 188 132 C 188 135.333, 188.333 136, 190 136 C 191.667 136, 192 135.333, 192 132 C 192 128.667, 192.333 128, 194 128 C 195.778 128, 196 128.667, 196 134 L 196 140 202 140 C 207.333 140, 208 139.778, 208 138 C 208 136.333, 207.333 136, 204 136 L 200 136 200 128 C 200 120.667, 199.833 120, 198 120 C 196.667 120, 196 120.667, 196 122 C 196 123.333, 195.333 124, 194 124 C 192.667 124, 192 124.667, 192 126 C 192 127.333, 191.333 128, 190 128 C 188.667 128, 188 127.333, 188 126 C 188 124.667, 187.333 124, 186 124 C 184.667 124, 184 123.333, 184 122 C 184 120.667, 183.333 120, 182 120 C 180.667 120, 180 119.333, 180 118 C 180 116.667, 179.333 116, 178 116 C 176.667 116, 176 115.333, 176 114 C 176 112.333, 175.333 112, 172 112 L 168 112 168 116 M 204 188 C 204 191.333, 204.333 192, 206 192 C 207.333 192, 208 192.667, 208 194 C 208 195.333, 208.667 196, 210 196 C 211.667 196, 212 195.333, 212 192 C 212 188.667, 212.333 188, 214 188 C 215.333 188, 216 187.333, 216 186 C 216 184.222, 215.333 184, 210 184 L 204 184 204 188" stroke="none" fill="black" fill-rule="evenodd"/>
</svg>