<svg xmlns="http://www.w3.org/2000/svg" width="400" height="400" viewBox="0 0 400 400" version="1.1">
	<path fill-opacity="0.561" d="M 168 146 C 168 147.333, 167.333 148, 166 148 C 164.667 148, 164 148.667, 164 150 C 164 151.333, 163.333 152, 162 152 C 160.667 152, 160 152.667, 160 154 C 160 155.333, 160.667 156, 162 156 C 163.333 156, 164 155.333, 164 154 C 164 152.333, 164.667 152, 168 152 C 171.333 152, 172 151.667, 172 150 C 172 148.167, 172.667 148, 180 148 C 187.333 148, 188 148.167, 188 150 C 188 151.333, 188.667 152, 190 152 C 191.333 152, 192 152.667, 192 154 C 192 155.333, 192.667 156, 194 156 C 195.778 156, 196 155.333, 196 150 L 196 144 182 144 C 168.667 144, 168 144.095, 168 146 M 212 180 C 212 183.333, 211.667 184, 210 184 C 208.667 184, 208 184.667, 208 186 C 208 187.333, 207.333 188, 206 188 C 204.333 188, 204 188.667, 204 192 C 204 195.333, 203.667 196, 202 196 C 200.667 196, 200 196.667, 200 198 C 200 199.333, 200.667 200, 202 200 C 203.333 200, 204 200.667, 204 202 C 204 203.333, 203.333 204, 202 204 C 200.667 204, 200 204.667, 200 206 C 200 207.333, 199.333 208, 198 208 C 196.333 208, 196 208.667, 196 212 C 196 215.333, 196.333 216, 198 216 C 199.333 216, 200 215.333, 200 214 C 200 212.667, 200.667 212, 202 212 C 203.333 212, 204 211.333, 204 210 C 204 208.667, 204.667 208, 206 208 C 207.333 208, 208 207.333, 208 206 C 208 204.667, 208.667 204, 210 204 C 211.333 204, 212 203.333, 212 202 C 212 200.667, 212.667 200, 214 200 C 215.667 200, 216 199.333, 216 196 C 216 192.667, 215.667 192, 214 192 C 212.667 192, 212 191.333, 212 190 C 212 188.667, 212.667 188, 214 188 C 215.778 188, 216 187.333, 216 182 C 216 176.667, 215.778 176, 214 176 C 212.333 176, 212 176.667, 212 180" stroke="none" fill="black" fill-rule="evenodd"/>
	<path fill-opacity="0.107" d="M 168 146 C 168 147.333, 167.333 148, 166 148 C 164.667 148, 164 148.667, 164 150 C 164 151.333, 163.333 152, 162 152 C 160.667 152, 160 152.667, 160 154 C 160 155.333, 160.667 156, 162 156 C 163.333 156, 164 155.333, 164 154 C 164 152.667, 164.667 152, 166 152 C 167.333 152, 168 151.333, 168 150 C 168 148.095, 168.667 148, 182 148 C 195.333 148, 196 147.905, 196 146 C 196 144.095, 195.333 144, 182 144 C 168.667 144, 168 144.095, 168 146 M 212 182 C 212 187.333, 211.778 188, 210 188 C 208.667 188, 208 188.667, 208 190 C 208 191.333, 207.333 192, 206 192 C 204.667 192, 204 192.667, 204 194 C 204 195.667, 204.667 196, 208 196 C 211.333 196, 212 196.333, 212 198 C 212 199.333, 211.333 200, 210 200 C 208.667 200, 208 200.667, 208 202 C 208 203.333, 207.333 204, 206 204 C 204.667 204, 204 204.667, 204 206 C 204 207.333, 203.333 208, 202 208 C 200.667 208, 200 208.667, 200 210 C 200 211.333, 199.333 212, 198 212 C 196.667 212, 196 212.667, 196 214 C 196 215.333, 196.667 216, 198 216 C 199.333 216, 200 215.333, 200 214 C 200 212.667, 200.667 212, 202 212 C 203.333 212, 204 211.333, 204 210 C 204 208.667, 204.667 208, 206 208 C 207.333 208, 208 207.333, 208 206 C 208 204.667, 208.667 204, 210 204 C 211.333 204, 212 203.333, 212 202 C 212 200.667, 212.667 200, 214 200 C 215.667 200, 216 199.333, 216 196 C 216 192.667, 215.667 192, 214 192 C 212.667 192, 212 191.333, 212 190 C 212 188.667, 212.667 188, 214 188 C 215.778 188, 216 187.333, 216 182 C 216 176.667, 215.778 176, 214 176 C 212.222 176, 212 176.667, 212 182" stroke="none" fill="black" fill-rule="evenodd"/>
</svg>