<svg xmlns="http://www.w3.org/2000/svg" width="400" height="400" viewBox="0 0 400 400" version="1.1">
	<path fill-opacity="0.773" d="M 156 138 C 156 143.333, 156.222 144, 158 144 C 159.778 144, 160 144.667, 160 150 C 160 155.333, 160.222 156, 162 156 C 163.667 156, 164 156.667, 164 160 L 164 164 168 164 C 171.333 164, 172 163.667, 172 162 C 172 160.667, 172.667 160, 174 160 C 175.333 160, 176 159.333, 176 158 C 176 156.667, 176.667 156, 178 156 C 179.333 156, 180 155.333, 180 154 C 180 152.667, 179.333 152, 178 152 C 176.667 152, 176 151.333, 176 150 C 176 148.667, 175.333 148, 174 148 C 172.667 148, 172 147.333, 172 146 C 172 144.667, 171.333 144, 170 144 C 168.667 144, 168 143.333, 168 142 C 168 140.667, 167.333 140, 166 140 C 164.667 140, 164 139.333, 164 138 C 164 136.667, 163.333 136, 162 136 C 160.667 136, 160 135.333, 160 134 C 160 132.667, 159.333 132, 158 132 C 156.222 132, 156 132.667, 156 138" stroke="none" fill="black" fill-rule="evenodd"/>
	<path fill-opacity="0.551" d="M 156 138 C 156 143.333, 156.222 144, 158 144 C 159.778 144, 160 144.667, 160 150 C 160 155.333, 160.222 156, 162 156 C 163.667 156, 164 156.667, 164 160 L 164 164 168 164 C 171.333 164, 172 163.667, 172 162 C 172 160.667, 172.667 160, 174 160 C 175.333 160, 176 159.333, 176 158 C 176 156.667, 176.667 156, 178 156 C 179.333 156, 180 155.333, 180 154 C 180 152.667, 179.333 152, 178 152 C 176.667 152, 176 151.333, 176 150 C 176 148.667, 175.333 148, 174 148 C 172.667 148, 172 147.333, 172 146 C 172 144.667, 171.333 144, 170 144 C 168.667 144, 168 143.333, 168 142 C 168 140.667, 167.333 140, 166 140 C 164.667 140, 164 139.333, 164 138 C 164 136.667, 163.333 136, 162 136 C 160.667 136, 160 135.333, 160 134 C 160 132.667, 159.333 132, 158 132 C 156.222 132, 156 132.667, 156 138 M 160 142 C 160 143.333, 160.667 144, 162 144 C 163.667 144, 164 144.667, 164 148 C 164 151.333, 164.333 152, 166 152 C 167.667 152, 168 152.667, 168 156 C 168 159.333, 168.333 160, 170 160 C 171.667 160, 172 159.333, 172 156 C 172 152.667, 171.667 152, 170 152 C 168.333 152, 168 151.333, 168 148 C 168 144.667, 167.667 144, 166 144 C 164.667 144, 164 143.333, 164 142 C 164 140.667, 163.333 140, 162 140 C 160.667 140, 160 140.667, 160 142" stroke="none" fill="black" fill-rule="evenodd"/>
	<path fill-opacity="0.115" d="M 156 138 C 156 143.333, 156.222 144, 158 144 C 159.778 144, 160 144.667, 160 150 C 160 155.333, 160.222 156, 162 156 C 163.667 156, 164 156.667, 164 160 C 164 163.333, 164.333 164, 166 164 C 167.667 164, 168 163.333, 168 160 C 168 156.667, 167.667 156, 166 156 C 164.222 156, 164 155.333, 164 150 C 164 144.667, 164.222 144, 166 144 C 167.333 144, 168 144.667, 168 146 C 168 147.333, 168.667 148, 170 148 C 171.333 148, 172 148.667, 172 150 C 172 151.333, 172.667 152, 174 152 C 175.333 152, 176 152.667, 176 154 C 176 155.333, 176.667 156, 178 156 C 179.333 156, 180 155.333, 180 154 C 180 152.667, 179.333 152, 178 152 C 176.667 152, 176 151.333, 176 150 C 176 148.667, 175.333 148, 174 148 C 172.667 148, 172 147.333, 172 146 C 172 144.667, 171.333 144, 170 144 C 168.667 144, 168 143.333, 168 142 C 168 140.667, 167.333 140, 166 140 C 164.667 140, 164 139.333, 164 138 C 164 136.667, 163.333 136, 162 136 C 160.667 136, 160 135.333, 160 134 C 160 132.667, 159.333 132, 158 132 C 156.222 132, 156 132.667, 156 138 M 160 142 C 160 143.333, 160.667 144, 162 144 C 163.333 144, 164 143.333, 164 142 C 164 140.667, 163.333 140, 162 140 C 160.667 140, 160 140.667, 160 142" stroke="none" fill="black" fill-rule="evenodd"/>
</svg>