<svg xmlns="http://www.w3.org/2000/svg" width="400" height="400" viewBox="0 0 400 400" version="1.1">
	<path fill-opacity="0.788" d="M 176 106 C 176 107.333, 175.333 108, 174 108 C 172.333 108, 172 108.667, 172 112 C 172 115.333, 172.333 116, 174 116 C 175.333 116, 176 116.667, 176 118 C 176 119.667, 176.667 120, 180 120 L 184 120 184 124 C 184 127.333, 184.333 128, 186 128 C 187.917 128, 188 128.667, 188 144 C 188 159.333, 188.083 160, 190 160 C 191.917 160, 192 159.333, 192 144 C 192 128.667, 191.917 128, 190 128 C 188.133 128, 188 127.333, 188 118 C 188 108.667, 187.867 108, 186 108 C 184.667 108, 184 107.333, 184 106 C 184 104.333, 183.333 104, 180 104 C 176.667 104, 176 104.333, 176 106 M 124 110 C 124 111.333, 123.333 112, 122 112 C 120.333 112, 120 112.667, 120 116 C 120 119.333, 120.333 120, 122 120 C 123.333 120, 124 120.667, 124 122 C 124 123.667, 124.667 124, 128 124 C 131.333 124, 132 123.667, 132 122 C 132 120.222, 132.667 120, 138 120 C 143.333 120, 144 120.222, 144 122 C 144 123.333, 144.667 124, 146 124 C 147.333 124, 148 124.667, 148 126 C 148 127.333, 148.667 128, 150 128 C 151.333 128, 152 128.667, 152 130 C 152 131.333, 152.667 132, 154 132 C 155.667 132, 156 132.667, 156 136 C 156 139.333, 156.333 140, 158 140 C 159.833 140, 160 140.667, 160 148 C 160 155.333, 160.167 156, 162 156 C 163.833 156, 164 155.333, 164 148 C 164 140.667, 163.833 140, 162 140 C 160.333 140, 160 139.333, 160 136 C 160 132.667, 159.667 132, 158 132 C 156.667 132, 156 131.333, 156 130 C 156 128.667, 155.333 128, 154 128 C 152.667 128, 152 127.333, 152 126 C 152 124.667, 151.333 124, 150 124 C 148.667 124, 148 123.333, 148 122 C 148 120.667, 147.333 120, 146 120 C 144.667 120, 144 119.333, 144 118 C 144 116.333, 143.333 116, 140 116 C 136.667 116, 136 115.667, 136 114 C 136 112.667, 135.333 112, 134 112 C 132.667 112, 132 111.333, 132 110 C 132 108.333, 131.333 108, 128 108 C 124.667 108, 124 108.333, 124 110" stroke="none" fill="black" fill-rule="evenodd"/>
	<path fill-opacity="0.556" d="M 176 106 C 176 107.333, 175.333 108, 174 108 C 172.333 108, 172 108.667, 172 112 C 172 115.333, 172.333 116, 174 116 C 175.333 116, 176 116.667, 176 118 C 176 119.667, 176.667 120, 180 120 L 184 120 184 124 C 184 127.333, 184.333 128, 186 128 C 187.917 128, 188 128.667, 188 144 C 188 159.333, 188.083 160, 190 160 C 191.917 160, 192 159.333, 192 144 C 192 128.667, 191.917 128, 190 128 C 188.133 128, 188 127.333, 188 118 C 188 108.667, 187.867 108, 186 108 C 184.667 108, 184 107.333, 184 106 C 184 104.333, 183.333 104, 180 104 C 176.667 104, 176 104.333, 176 106 M 124 110 C 124 111.333, 123.333 112, 122 112 C 120.333 112, 120 112.667, 120 116 C 120 119.333, 120.333 120, 122 120 C 123.333 120, 124 120.667, 124 122 C 124 123.667, 124.667 124, 128 124 C 131.333 124, 132 123.667, 132 122 C 132 120.222, 132.667 120, 138 120 C 143.333 120, 144 120.222, 144 122 C 144 123.333, 144.667 124, 146 124 C 147.333 124, 148 124.667, 148 126 C 148 127.333, 148.667 128, 150 128 C 151.333 128, 152 128.667, 152 130 C 152 131.333, 152.667 132, 154 132 C 155.667 132, 156 132.667, 156 136 C 156 139.333, 156.333 140, 158 140 C 159.833 140, 160 140.667, 160 148 C 160 155.333, 160.167 156, 162 156 C 163.833 156, 164 155.333, 164 148 C 164 140.667, 163.833 140, 162 140 C 160.333 140, 160 139.333, 160 136 C 160 132.667, 159.667 132, 158 132 C 156.667 132, 156 131.333, 156 130 C 156 128.667, 155.333 128, 154 128 C 152.667 128, 152 127.333, 152 126 C 152 124.667, 151.333 124, 150 124 C 148.667 124, 148 123.333, 148 122 C 148 120.667, 147.333 120, 146 120 C 144.667 120, 144 119.333, 144 118 C 144 116.333, 143.333 116, 140 116 C 136.667 116, 136 115.667, 136 114 C 136 112.667, 135.333 112, 134 112 C 132.667 112, 132 111.333, 132 110 C 132 108.333, 131.333 108, 128 108 C 124.667 108, 124 108.333, 124 110 M 176 112 C 176 115.333, 176.333 116, 178 116 C 179.333 116, 180 115.333, 180 114 C 180 112.667, 180.667 112, 182 112 C 183.333 112, 184 111.333, 184 110 C 184 108.333, 183.333 108, 180 108 L 176 108 176 112" stroke="none" fill="black" fill-rule="evenodd"/>
	<path fill-opacity="0.042" d="M 176 106 C 176 107.333, 175.333 108, 174 108 C 172.333 108, 172 108.667, 172 112 C 172 115.333, 172.333 116, 174 116 C 175.333 116, 176 116.667, 176 118 C 176 119.667, 176.667 120, 180 120 L 184 120 184 124 C 184 127.333, 184.333 128, 186 128 C 187.917 128, 188 128.667, 188 144 C 188 159.333, 188.083 160, 190 160 C 191.917 160, 192 159.333, 192 144 C 192 128.667, 191.917 128, 190 128 C 188.133 128, 188 127.333, 188 118 C 188 108.667, 187.867 108, 186 108 C 184.667 108, 184 107.333, 184 106 C 184 104.333, 183.333 104, 180 104 C 176.667 104, 176 104.333, 176 106 M 124 110 C 124 111.333, 123.333 112, 122 112 C 120.333 112, 120 112.667, 120 116 C 120 119.333, 120.333 120, 122 120 C 123.333 120, 124 120.667, 124 122 C 124 123.667, 124.667 124, 128 124 C 131.333 124, 132 123.667, 132 122 C 132 120.222, 132.667 120, 138 120 C 143.333 120, 144 120.222, 144 122 C 144 123.333, 144.667 124, 146 124 C 147.333 124, 148 124.667, 148 126 C 148 127.333, 148.667 128, 150 128 C 151.333 128, 152 128.667, 152 130 C 152 131.333, 152.667 132, 154 132 C 155.667 132, 156 132.667, 156 136 C 156 139.333, 156.333 140, 158 140 C 159.833 140, 160 140.667, 160 148 C 160 155.333, 160.167 156, 162 156 C 163.833 156, 164 155.333, 164 148 C 164 140.667, 163.833 140, 162 140 C 160.333 140, 160 139.333, 160 136 C 160 132.667, 159.667 132, 158 132 C 156.667 132, 156 131.333, 156 130 C 156 128.667, 155.333 128, 154 128 C 152.667 128, 152 127.333, 152 126 C 152 124.667, 151.333 124, 150 124 C 148.667 124, 148 123.333, 148 122 C 148 120.667, 147.333 120, 146 120 C 144.667 120, 144 119.333, 144 118 C 144 116.333, 143.333 116, 140 116 C 136.667 116, 136 115.667, 136 114 C 136 112.667, 135.333 112, 134 112 C 132.667 112, 132 111.333, 132 110 C 132 108.333, 131.333 108, 128 108 C 124.667 108, 124 108.333, 124 110 M 176 112 L 176 116 180 116 L 184 116 184 112 L 184 108 180 108 L 176 108 176 112 M 124 116 L 124 120 128 120 L 132 120 132 116 L 132 112 128 112 L 124 112 124 116" stroke="none" fill="black" fill-rule="evenodd"/>
	<path fill-opacity="0.261" d="M 124 110 C 124 111.333, 123.333 112, 122 112 C 120.333 112, 120 112.667, 120 116 C 120 119.333, 120.333 120, 122 120 C 123.333 120, 124 120.667, 124 122 C 124 123.667, 124.667 124, 128 124 C 131.333 124, 132 123.667, 132 122 C 132 120.222, 132.667 120, 138 120 C 143.333 120, 144 120.222, 144 122 C 144 123.333, 144.667 124, 146 124 C 147.333 124, 148 124.667, 148 126 C 148 127.333, 148.667 128, 150 128 C 151.333 128, 152 128.667, 152 130 C 152 131.333, 152.667 132, 154 132 C 155.667 132, 156 132.667, 156 136 C 156 139.333, 156.333 140, 158 140 C 159.833 140, 160 140.667, 160 148 C 160 155.333, 160.167 156, 162 156 C 163.833 156, 164 155.333, 164 148 C 164 140.667, 163.833 140, 162 140 C 160.333 140, 160 139.333, 160 136 C 160 132.667, 159.667 132, 158 132 C 156.667 132, 156 131.333, 156 130 C 156 128.667, 155.333 128, 154 128 C 152.667 128, 152 127.333, 152 126 C 152 124.667, 151.333 124, 150 124 C 148.667 124, 148 123.333, 148 122 C 148 120.667, 147.333 120, 146 120 C 144.667 120, 144 119.333, 144 118 C 144 116.333, 143.333 116, 140 116 C 136.667 116, 136 115.667, 136 114 C 136 112.667, 135.333 112, 134 112 C 132.667 112, 132 111.333, 132 110 C 132 108.333, 131.333 108, 128 108 C 124.667 108, 124 108.333, 124 110 M 124 116 L 124 120 128 120 L 132 120 132 116 L 132 112 128 112 L 124 112 124 116" stroke="none" fill="black" fill-rule="evenodd"/>
</svg>