<svg xmlns="http://www.w3.org/2000/svg" width="400" height="400" viewBox="0 0 400 400" version="1.1">
	<path fill-opacity="0.792" d="M 172 116 C 172 127.333, 171.889 128, 170 128 C 168.222 128, 168 127.333, 168 122 C 168 116.667, 167.778 116, 166 116 C 164.667 116, 164 115.333, 164 114 C 164 112.667, 163.333 112, 162 112 C 160.667 112, 160 112.667, 160 114 C 160 115.333, 159.333 116, 158 116 C 156.222 116, 156 116.667, 156 122 C 156 127.333, 155.778 128, 154 128 C 152.667 128, 152 127.333, 152 126 C 152 124.667, 151.333 124, 150 124 C 148.667 124, 148 124.667, 148 126 C 148 127.333, 147.333 128, 146 128 C 144.167 128, 144 128.667, 144 136 C 144 143.333, 144.167 144, 146 144 C 147.333 144, 148 144.667, 148 146 C 148 147.333, 148.667 148, 150 148 C 151.778 148, 152 148.667, 152 154 C 152 159.333, 152.222 160, 154 160 C 155.333 160, 156 159.333, 156 158 C 156 156.333, 156.667 156, 160 156 C 163.333 156, 164 155.667, 164 154 C 164 152.667, 164.667 152, 166 152 C 167.333 152, 168 151.333, 168 150 C 168 148.333, 168.667 148, 172 148 C 175.333 148, 176 147.667, 176 146 C 176 144.667, 176.667 144, 178 144 C 179.333 144, 180 144.667, 180 146 C 180 147.333, 180.667 148, 182 148 C 183.778 148, 184 148.667, 184 154 L 184 160 190 160 L 196 160 196 150 L 196 140 204 140 C 211.333 140, 212 140.167, 212 142 C 212 143.333, 212.667 144, 214 144 C 215.333 144, 216 144.667, 216 146 C 216 147.833, 216.667 148, 224 148 C 231.333 148, 232 147.833, 232 146 C 232 144.167, 232.667 144, 240 144 C 247.333 144, 248 143.833, 248 142 C 248 140.667, 248.667 140, 250 140 C 251.333 140, 252 139.333, 252 138 C 252 136.667, 252.667 136, 254 136 C 255.667 136, 256 135.333, 256 132 L 256 128 252 128 C 248.667 128, 248 128.333, 248 130 C 248 131.333, 247.333 132, 246 132 C 244.133 132, 244 131.333, 244 122 C 244 112.667, 243.867 112, 242 112 C 240.667 112, 240 111.333, 240 110 C 240 108.667, 239.333 108, 238 108 C 236.667 108, 236 107.333, 236 106 C 236 104.333, 235.333 104, 232 104 L 228 104 228 108 C 228 111.333, 228.333 112, 230 112 C 231.867 112, 232 112.667, 232 122 L 232 132 228 132 C 224.667 132, 224 132.333, 224 134 C 224 135.778, 223.333 136, 218 136 L 212 136 212 126 C 212 116.667, 211.867 116, 210 116 C 208.667 116, 208 115.333, 208 114 C 208 112.667, 207.333 112, 206 112 C 204.667 112, 204 112.667, 204 114 C 204 115.333, 203.333 116, 202 116 C 200.167 116, 200 116.667, 200 124 C 200 131.333, 199.833 132, 198 132 C 196.667 132, 196 132.667, 196 134 C 196 135.667, 195.333 136, 192 136 C 188.667 136, 188 135.667, 188 134 C 188 132.667, 188.667 132, 190 132 C 191.667 132, 192 131.333, 192 128 L 192 124 188 124 L 184 124 184 116 C 184 108.667, 183.833 108, 182 108 C 180.667 108, 180 107.333, 180 106 C 180 104.333, 179.333 104, 176 104 L 172 104 172 116 M 156 132 C 156 135.333, 156.333 136, 158 136 C 159.667 136, 160 135.333, 160 132 C 160 128.667, 159.667 128, 158 128 C 156.333 128, 156 128.667, 156 132 M 236 214 C 236 215.667, 235.333 216, 232 216 C 228.667 216, 228 216.333, 228 218 C 228 219.917, 227.333 220, 212 220 C 196.667 220, 196 219.917, 196 218 C 196 216.222, 195.333 216, 190 216 C 184.667 216, 184 216.222, 184 218 C 184 219.333, 183.333 220, 182 220 C 180.667 220, 180 220.667, 180 222 C 180 223.333, 179.333 224, 178 224 C 176.167 224, 176 224.667, 176 232 C 176 239.333, 176.167 240, 178 240 C 179.333 240, 180 240.667, 180 242 C 180 243.333, 180.667 244, 182 244 C 183.333 244, 184 244.667, 184 246 C 184 247.667, 184.667 248, 188 248 C 191.333 248, 192 248.333, 192 250 C 192 251.905, 192.667 252, 206 252 C 219.333 252, 220 251.905, 220 250 C 220 248.222, 220.667 248, 226 248 C 231.333 248, 232 247.778, 232 246 C 232 244.333, 232.667 244, 236 244 C 239.333 244, 240 243.667, 240 242 C 240 240.333, 240.667 240, 244 240 C 247.333 240, 248 239.667, 248 238 C 248 236.667, 248.667 236, 250 236 C 251.333 236, 252 235.333, 252 234 C 252 232.667, 252.667 232, 254 232 C 255.333 232, 256 231.333, 256 230 C 256 228.667, 256.667 228, 258 228 C 259.667 228, 260 227.333, 260 224 C 260 220.667, 260.333 220, 262 220 C 263.667 220, 264 219.333, 264 216 L 264 212 258 212 C 252.667 212, 252 212.222, 252 214 C 252 215.333, 251.333 216, 250 216 C 248.667 216, 248 215.333, 248 214 C 248 212.222, 247.333 212, 242 212 C 236.667 212, 236 212.222, 236 214 M 160 228 C 160 231.333, 160.333 232, 162 232 C 163.667 232, 164 231.333, 164 228 C 164 224.667, 163.667 224, 162 224 C 160.333 224, 160 224.667, 160 228" stroke="none" fill="black" fill-rule="evenodd"/>
	<path fill-opacity="0.548" d="M 172 116 C 172 127.333, 171.889 128, 170 128 C 168.222 128, 168 127.333, 168 122 C 168 116.667, 167.778 116, 166 116 C 164.667 116, 164 115.333, 164 114 C 164 112.667, 163.333 112, 162 112 C 160.667 112, 160 112.667, 160 114 C 160 115.333, 159.333 116, 158 116 C 156.222 116, 156 116.667, 156 122 C 156 127.333, 155.778 128, 154 128 C 152.667 128, 152 127.333, 152 126 C 152 124.667, 151.333 124, 150 124 C 148.667 124, 148 124.667, 148 126 C 148 127.333, 147.333 128, 146 128 C 144.167 128, 144 128.667, 144 136 C 144 143.333, 144.167 144, 146 144 C 147.333 144, 148 144.667, 148 146 C 148 147.333, 148.667 148, 150 148 C 151.778 148, 152 148.667, 152 154 C 152 159.333, 152.222 160, 154 160 C 155.333 160, 156 159.333, 156 158 C 156 156.333, 156.667 156, 160 156 C 163.333 156, 164 155.667, 164 154 C 164 152.667, 164.667 152, 166 152 C 167.333 152, 168 151.333, 168 150 C 168 148.333, 168.667 148, 172 148 C 175.333 148, 176 147.667, 176 146 C 176 144.667, 176.667 144, 178 144 C 179.333 144, 180 144.667, 180 146 C 180 147.333, 180.667 148, 182 148 C 183.778 148, 184 148.667, 184 154 L 184 160 190 160 L 196 160 196 154 C 196 148.667, 195.778 148, 194 148 C 192.333 148, 192 148.667, 192 152 C 192 155.333, 191.667 156, 190 156 C 188.222 156, 188 155.333, 188 150 C 188 144.667, 187.778 144, 186 144 C 184.667 144, 184 143.333, 184 142 C 184 140.222, 184.667 140, 190 140 C 195.333 140, 196 139.778, 196 138 C 196 136.667, 196.667 136, 198 136 C 199.333 136, 200 136.667, 200 138 C 200 139.889, 200.667 140, 212 140 C 223.333 140, 224 139.889, 224 138 C 224 136.333, 224.667 136, 228 136 C 231.333 136, 232 135.667, 232 134 C 232 132.667, 232.667 132, 234 132 C 235.867 132, 236 131.333, 236 122 C 236 112.667, 236.133 112, 238 112 C 239.889 112, 240 112.667, 240 124 C 240 135.333, 239.889 136, 238 136 C 236.667 136, 236 136.667, 236 138 C 236 139.667, 235.333 140, 232 140 C 228.667 140, 228 140.333, 228 142 C 228 143.778, 227.333 144, 222 144 C 216.667 144, 216 144.222, 216 146 C 216 147.833, 216.667 148, 224 148 C 231.333 148, 232 147.833, 232 146 C 232 144.167, 232.667 144, 240 144 C 247.333 144, 248 143.833, 248 142 C 248 140.667, 248.667 140, 250 140 C 251.333 140, 252 139.333, 252 138 C 252 136.667, 252.667 136, 254 136 C 255.667 136, 256 135.333, 256 132 L 256 128 252 128 C 248.667 128, 248 128.333, 248 130 C 248 131.333, 247.333 132, 246 132 C 244.133 132, 244 131.333, 244 122 C 244 112.667, 243.867 112, 242 112 C 240.667 112, 240 111.333, 240 110 C 240 108.667, 239.333 108, 238 108 C 236.667 108, 236 107.333, 236 106 C 236 104.333, 235.333 104, 232 104 L 228 104 228 108 C 228 111.333, 228.333 112, 230 112 C 231.867 112, 232 112.667, 232 122 L 232 132 228 132 C 224.667 132, 224 132.333, 224 134 C 224 135.778, 223.333 136, 218 136 L 212 136 212 126 C 212 116.667, 211.867 116, 210 116 C 208.667 116, 208 115.333, 208 114 C 208 112.667, 207.333 112, 206 112 C 204.667 112, 204 112.667, 204 114 C 204 115.333, 203.333 116, 202 116 C 200.167 116, 200 116.667, 200 124 C 200 131.333, 199.833 132, 198 132 C 196.667 132, 196 132.667, 196 134 C 196 135.667, 195.333 136, 192 136 C 188.667 136, 188 135.667, 188 134 C 188 132.667, 188.667 132, 190 132 C 191.667 132, 192 131.333, 192 128 L 192 124 188 124 L 184 124 184 116 C 184 108.667, 183.833 108, 182 108 C 180.667 108, 180 107.333, 180 106 C 180 104.333, 179.333 104, 176 104 L 172 104 172 116 M 232 110 C 232 111.333, 232.667 112, 234 112 C 235.333 112, 236 111.333, 236 110 C 236 108.667, 235.333 108, 234 108 C 232.667 108, 232 108.667, 232 110 M 204 124 C 204 131.333, 203.833 132, 202 132 C 200.667 132, 200 132.667, 200 134 C 200 135.333, 200.667 136, 202 136 C 203.333 136, 204 135.333, 204 134 C 204 132.667, 204.667 132, 206 132 C 207.833 132, 208 131.333, 208 124 C 208 116.667, 207.833 116, 206 116 C 204.167 116, 204 116.667, 204 124 M 156 132 C 156 135.333, 156.333 136, 158 136 C 159.667 136, 160 135.333, 160 132 C 160 128.667, 159.667 128, 158 128 C 156.333 128, 156 128.667, 156 132 M 176 132 C 176 135.333, 176.333 136, 178 136 C 179.333 136, 180 136.667, 180 138 C 180 139.333, 180.667 140, 182 140 C 183.333 140, 184 139.333, 184 138 C 184 136.667, 183.333 136, 182 136 C 180.333 136, 180 135.333, 180 132 C 180 128.667, 179.667 128, 178 128 C 176.333 128, 176 128.667, 176 132 M 236 214 C 236 215.667, 235.333 216, 232 216 C 228.667 216, 228 216.333, 228 218 C 228 219.917, 227.333 220, 212 220 C 196.667 220, 196 219.917, 196 218 C 196 216.222, 195.333 216, 190 216 C 184.667 216, 184 216.222, 184 218 C 184 219.333, 183.333 220, 182 220 C 180.667 220, 180 220.667, 180 222 C 180 223.333, 179.333 224, 178 224 C 176.167 224, 176 224.667, 176 232 C 176 239.333, 176.167 240, 178 240 C 179.333 240, 180 240.667, 180 242 C 180 243.333, 180.667 244, 182 244 C 183.333 244, 184 244.667, 184 246 C 184 247.667, 184.667 248, 188 248 C 191.333 248, 192 248.333, 192 250 C 192 251.905, 192.667 252, 206 252 C 219.333 252, 220 251.905, 220 250 C 220 248.222, 220.667 248, 226 248 C 231.333 248, 232 247.778, 232 246 C 232 244.333, 232.667 244, 236 244 C 239.333 244, 240 243.667, 240 242 C 240 240.333, 240.667 240, 244 240 C 247.333 240, 248 239.667, 248 238 C 248 236.667, 248.667 236, 250 236 C 251.333 236, 252 235.333, 252 234 C 252 232.667, 252.667 232, 254 232 C 255.333 232, 256 231.333, 256 230 C 256 228.667, 256.667 228, 258 228 C 259.667 228, 260 227.333, 260 224 C 260 220.667, 260.333 220, 262 220 C 263.667 220, 264 219.333, 264 216 L 264 212 258 212 C 252.667 212, 252 212.222, 252 214 C 252 215.333, 251.333 216, 250 216 C 248.667 216, 248 215.333, 248 214 C 248 212.222, 247.333 212, 242 212 C 236.667 212, 236 212.222, 236 214 M 252 218 C 252 219.778, 251.333 220, 246 220 C 240.667 220, 240 220.222, 240 222 C 240 223.867, 239.333 224, 230 224 C 220.667 224, 220 224.133, 220 226 C 220 227.333, 219.333 228, 218 228 C 216.667 228, 216 228.667, 216 230 C 216 231.867, 216.667 232, 226 232 C 235.333 232, 236 231.867, 236 230 C 236 228.222, 236.667 228, 242 228 C 247.333 228, 248 227.778, 248 226 C 248 224.667, 248.667 224, 250 224 C 251.333 224, 252 223.333, 252 222 C 252 220.333, 252.667 220, 256 220 C 259.333 220, 260 219.667, 260 218 C 260 216.333, 259.333 216, 256 216 C 252.667 216, 252 216.333, 252 218 M 184 222 C 184 223.333, 183.333 224, 182 224 C 180.333 224, 180 224.667, 180 228 C 180 231.333, 180.333 232, 182 232 C 183.333 232, 184 232.667, 184 234 C 184 235.333, 184.667 236, 186 236 C 187.333 236, 188 236.667, 188 238 C 188 239.867, 188.667 240, 198 240 C 207.333 240, 208 239.867, 208 238 C 208 236.167, 207.333 236, 200 236 C 192.667 236, 192 235.833, 192 234 C 192 232.167, 192.667 232, 200 232 C 207.333 232, 208 231.833, 208 230 C 208 228.667, 208.667 228, 210 228 C 211.333 228, 212 227.333, 212 226 C 212 224.167, 211.333 224, 204 224 C 196.667 224, 196 223.833, 196 222 C 196 220.222, 195.333 220, 190 220 C 184.667 220, 184 220.222, 184 222 M 160 228 C 160 231.333, 160.333 232, 162 232 C 163.667 232, 164 231.333, 164 228 C 164 224.667, 163.667 224, 162 224 C 160.333 224, 160 224.667, 160 228 M 188 230 C 188 231.333, 188.667 232, 190 232 C 191.333 232, 192 231.333, 192 230 C 192 228.667, 191.333 228, 190 228 C 188.667 228, 188 228.667, 188 230 M 216 238 C 216 239.833, 216.667 240, 224 240 C 231.333 240, 232 239.833, 232 238 C 232 236.167, 231.333 236, 224 236 C 216.667 236, 216 236.167, 216 238" stroke="none" fill="black" fill-rule="evenodd"/>
	<path fill-opacity="0.041" d="M 172 116 C 172 127.333, 171.889 128, 170 128 C 168.222 128, 168 127.333, 168 122 C 168 116.667, 167.778 116, 166 116 C 164.667 116, 164 115.333, 164 114 C 164 112.667, 163.333 112, 162 112 C 160.667 112, 160 112.667, 160 114 C 160 115.333, 159.333 116, 158 116 C 156.222 116, 156 116.667, 156 122 C 156 127.333, 155.778 128, 154 128 C 152.667 128, 152 127.333, 152 126 C 152 124.667, 151.333 124, 150 124 C 148.667 124, 148 124.667, 148 126 C 148 127.333, 147.333 128, 146 128 C 144.167 128, 144 128.667, 144 136 C 144 143.333, 144.167 144, 146 144 C 147.333 144, 148 144.667, 148 146 C 148 147.333, 148.667 148, 150 148 C 151.778 148, 152 148.667, 152 154 C 152 159.333, 152.222 160, 154 160 C 155.778 160, 156 159.333, 156 154 C 156 148.667, 155.778 148, 154 148 C 152.667 148, 152 147.333, 152 146 C 152 144.667, 151.333 144, 150 144 C 148.167 144, 148 143.333, 148 136 C 148 128.667, 148.167 128, 150 128 C 151.667 128, 152 128.667, 152 132 C 152 135.333, 152.333 136, 154 136 C 155.333 136, 156 136.667, 156 138 C 156 139.667, 156.667 140, 160 140 L 164 140 164 134 C 164 128.667, 164.222 128, 166 128 C 167.667 128, 168 128.667, 168 132 C 168 135.333, 168.333 136, 170 136 C 171.333 136, 172 136.667, 172 138 C 172 139.333, 172.667 140, 174 140 C 175.333 140, 176 140.667, 176 142 C 176 143.667, 175.333 144, 172 144 C 168.667 144, 168 144.333, 168 146 C 168 147.667, 167.333 148, 164 148 L 160 148 160 152 C 160 155.333, 160.333 156, 162 156 C 163.333 156, 164 155.333, 164 154 C 164 152.667, 164.667 152, 166 152 C 167.333 152, 168 151.333, 168 150 C 168 148.333, 168.667 148, 172 148 C 175.333 148, 176 147.667, 176 146 C 176 144.667, 176.667 144, 178 144 C 179.333 144, 180 144.667, 180 146 C 180 147.333, 180.667 148, 182 148 C 183.778 148, 184 148.667, 184 154 L 184 160 190 160 L 196 160 196 154 C 196 148.667, 195.778 148, 194 148 C 192.333 148, 192 148.667, 192 152 C 192 155.333, 191.667 156, 190 156 C 188.222 156, 188 155.333, 188 150 L 188 144 184 144 C 180.667 144, 180 143.667, 180 142 C 180 140.667, 179.333 140, 178 140 C 176.222 140, 176 139.333, 176 134 C 176 128.667, 176.222 128, 178 128 C 179.667 128, 180 128.667, 180 132 C 180 135.333, 180.333 136, 182 136 C 183.333 136, 184 136.667, 184 138 C 184 139.778, 184.667 140, 190 140 C 195.333 140, 196 139.778, 196 138 C 196 136.667, 196.667 136, 198 136 C 199.333 136, 200 135.333, 200 134 C 200 132.667, 200.667 132, 202 132 C 203.833 132, 204 131.333, 204 124 C 204 116.667, 204.167 116, 206 116 C 207.867 116, 208 116.667, 208 126 C 208 135.333, 207.867 136, 206 136 C 204.667 136, 204 136.667, 204 138 C 204 139.867, 204.667 140, 214 140 C 223.333 140, 224 139.867, 224 138 C 224 136.333, 224.667 136, 228 136 C 231.333 136, 232 135.667, 232 134 C 232 132.667, 232.667 132, 234 132 C 235.867 132, 236 131.333, 236 122 C 236 112.667, 236.133 112, 238 112 C 239.889 112, 240 112.667, 240 124 L 240 136 244 136 C 247.333 136, 248 136.333, 248 138 C 248 139.833, 247.333 140, 240 140 C 232.667 140, 232 140.167, 232 142 C 232 143.833, 231.333 144, 224 144 C 216.667 144, 216 144.167, 216 146 C 216 147.833, 216.667 148, 224 148 C 231.333 148, 232 147.833, 232 146 C 232 144.167, 232.667 144, 240 144 C 247.333 144, 248 143.833, 248 142 C 248 140.667, 248.667 140, 250 140 C 251.333 140, 252 139.333, 252 138 C 252 136.667, 252.667 136, 254 136 C 255.667 136, 256 135.333, 256 132 L 256 128 252 128 C 248.667 128, 248 128.333, 248 130 C 248 131.333, 247.333 132, 246 132 C 244.133 132, 244 131.333, 244 122 C 244 112.667, 243.867 112, 242 112 C 240.667 112, 240 111.333, 240 110 C 240 108.667, 239.333 108, 238 108 C 236.667 108, 236 107.333, 236 106 C 236 104.333, 235.333 104, 232 104 L 228 104 228 108 C 228 111.333, 228.333 112, 230 112 C 231.867 112, 232 112.667, 232 122 L 232 132 228 132 C 224.667 132, 224 132.333, 224 134 C 224 135.778, 223.333 136, 218 136 L 212 136 212 126 C 212 116.667, 211.867 116, 210 116 C 208.667 116, 208 115.333, 208 114 C 208 112.667, 207.333 112, 206 112 C 204.667 112, 204 112.667, 204 114 C 204 115.333, 203.333 116, 202 116 C 200.167 116, 200 116.667, 200 124 C 200 131.333, 199.833 132, 198 132 C 196.667 132, 196 132.667, 196 134 C 196 135.667, 195.333 136, 192 136 C 188.667 136, 188 135.667, 188 134 C 188 132.667, 188.667 132, 190 132 C 191.667 132, 192 131.333, 192 128 L 192 124 188 124 L 184 124 184 116 C 184 108.667, 183.833 108, 182 108 C 180.667 108, 180 107.333, 180 106 C 180 104.333, 179.333 104, 176 104 L 172 104 172 116 M 176 116 C 176 123.333, 176.167 124, 178 124 C 179.833 124, 180 123.333, 180 116 C 180 108.667, 179.833 108, 178 108 C 176.167 108, 176 108.667, 176 116 M 232 110 C 232 111.333, 232.667 112, 234 112 C 235.333 112, 236 111.333, 236 110 C 236 108.667, 235.333 108, 234 108 C 232.667 108, 232 108.667, 232 110 M 160 122 C 160 127.333, 159.778 128, 158 128 C 156.333 128, 156 128.667, 156 132 C 156 135.333, 156.333 136, 158 136 C 159.667 136, 160 135.333, 160 132 C 160 128.667, 160.333 128, 162 128 C 163.778 128, 164 127.333, 164 122 C 164 116.667, 163.778 116, 162 116 C 160.222 116, 160 116.667, 160 122 M 184 130 C 184 131.333, 184.667 132, 186 132 C 187.333 132, 188 131.333, 188 130 C 188 128.667, 187.333 128, 186 128 C 184.667 128, 184 128.667, 184 130 M 248 134 C 248 135.333, 248.667 136, 250 136 C 251.333 136, 252 135.333, 252 134 C 252 132.667, 251.333 132, 250 132 C 248.667 132, 248 132.667, 248 134 M 236 214 C 236 215.667, 235.333 216, 232 216 C 228.667 216, 228 216.333, 228 218 C 228 219.917, 227.333 220, 212 220 C 196.667 220, 196 219.917, 196 218 C 196 216.222, 195.333 216, 190 216 C 184.667 216, 184 216.222, 184 218 C 184 219.333, 183.333 220, 182 220 C 180.667 220, 180 220.667, 180 222 C 180 223.333, 179.333 224, 178 224 C 176.167 224, 176 224.667, 176 232 C 176 239.333, 176.167 240, 178 240 C 179.333 240, 180 240.667, 180 242 C 180 243.333, 180.667 244, 182 244 C 183.333 244, 184 244.667, 184 246 C 184 247.667, 184.667 248, 188 248 C 191.333 248, 192 248.333, 192 250 C 192 251.905, 192.667 252, 206 252 C 219.333 252, 220 251.905, 220 250 C 220 248.222, 220.667 248, 226 248 C 231.333 248, 232 247.778, 232 246 C 232 244.333, 232.667 244, 236 244 C 239.333 244, 240 243.667, 240 242 C 240 240.333, 240.667 240, 244 240 C 247.333 240, 248 239.667, 248 238 C 248 236.667, 248.667 236, 250 236 C 251.333 236, 252 235.333, 252 234 C 252 232.667, 252.667 232, 254 232 C 255.333 232, 256 231.333, 256 230 C 256 228.667, 256.667 228, 258 228 C 259.667 228, 260 227.333, 260 224 C 260 220.667, 260.333 220, 262 220 C 263.667 220, 264 219.333, 264 216 L 264 212 258 212 C 252.667 212, 252 212.222, 252 214 C 252 215.333, 251.333 216, 250 216 C 248.667 216, 248 215.333, 248 214 C 248 212.222, 247.333 212, 242 212 C 236.667 212, 236 212.222, 236 214 M 236 218 C 236 219.333, 236.667 220, 238 220 C 239.333 220, 240 220.667, 240 222 C 240 223.889, 239.333 224, 228 224 C 216.667 224, 216 224.111, 216 226 C 216 227.333, 215.333 228, 214 228 C 212.667 228, 212 227.333, 212 226 C 212 224.167, 211.333 224, 204 224 C 196.667 224, 196 223.833, 196 222 C 196 220.222, 195.333 220, 190 220 C 184.667 220, 184 220.222, 184 222 C 184 223.333, 183.333 224, 182 224 C 180.167 224, 180 224.667, 180 232 C 180 239.333, 180.167 240, 182 240 C 183.333 240, 184 240.667, 184 242 C 184 243.667, 184.667 244, 188 244 C 191.333 244, 192 244.333, 192 246 C 192 247.778, 192.667 248, 198 248 C 203.333 248, 204 247.778, 204 246 C 204 244.667, 204.667 244, 206 244 C 207.333 244, 208 244.667, 208 246 C 208 247.778, 208.667 248, 214 248 C 219.333 248, 220 247.778, 220 246 C 220 244.222, 220.667 244, 226 244 C 231.333 244, 232 243.778, 232 242 C 232 240.333, 232.667 240, 236 240 C 239.333 240, 240 239.667, 240 238 C 240 236.333, 240.667 236, 244 236 C 247.333 236, 248 235.667, 248 234 C 248 232.667, 248.667 232, 250 232 C 251.333 232, 252 231.333, 252 230 C 252 228.667, 251.333 228, 250 228 C 248.667 228, 248 227.333, 248 226 C 248 224.333, 248.667 224, 252 224 C 255.333 224, 256 223.667, 256 222 C 256 220.667, 256.667 220, 258 220 C 259.333 220, 260 219.333, 260 218 C 260 216.333, 259.333 216, 256 216 C 252.667 216, 252 216.333, 252 218 C 252 219.778, 251.333 220, 246 220 C 240.667 220, 240 219.778, 240 218 C 240 216.667, 239.333 216, 238 216 C 236.667 216, 236 216.667, 236 218 M 160 228 C 160 231.333, 160.333 232, 162 232 C 163.667 232, 164 231.333, 164 228 C 164 224.667, 163.667 224, 162 224 C 160.333 224, 160 224.667, 160 228 M 208 230 C 208 231.667, 207.333 232, 204 232 C 200.667 232, 200 232.333, 200 234 C 200 235.667, 200.667 236, 204 236 L 208 236 208 240 C 208 243.333, 208.333 244, 210 244 C 211.667 244, 212 243.333, 212 240 C 212 236.667, 211.667 236, 210 236 C 208.667 236, 208 235.333, 208 234 C 208 232.667, 208.667 232, 210 232 C 211.333 232, 212 231.333, 212 230 C 212 228.667, 211.333 228, 210 228 C 208.667 228, 208 228.667, 208 230 M 236 230 C 236 231.833, 235.333 232, 228 232 C 220.667 232, 220 232.167, 220 234 C 220 235.833, 220.667 236, 228 236 C 235.333 236, 236 235.833, 236 234 C 236 232.222, 236.667 232, 242 232 C 247.333 232, 248 231.778, 248 230 C 248 228.222, 247.333 228, 242 228 C 236.667 228, 236 228.222, 236 230" stroke="none" fill="black" fill-rule="evenodd"/>
	<path fill-opacity="0.261" d="M 172 116 C 172 127.333, 171.889 128, 170 128 C 168.222 128, 168 127.333, 168 122 C 168 116.667, 167.778 116, 166 116 C 164.667 116, 164 115.333, 164 114 C 164 112.667, 163.333 112, 162 112 C 160.667 112, 160 112.667, 160 114 C 160 115.333, 159.333 116, 158 116 C 156.222 116, 156 116.667, 156 122 C 156 127.333, 155.778 128, 154 128 C 152.667 128, 152 127.333, 152 126 C 152 124.667, 151.333 124, 150 124 C 148.667 124, 148 124.667, 148 126 C 148 127.333, 147.333 128, 146 128 C 144.167 128, 144 128.667, 144 136 C 144 143.333, 144.167 144, 146 144 C 147.333 144, 148 144.667, 148 146 C 148 147.333, 148.667 148, 150 148 C 151.778 148, 152 148.667, 152 154 C 152 159.333, 152.222 160, 154 160 C 155.778 160, 156 159.333, 156 154 C 156 148.667, 155.778 148, 154 148 C 152.667 148, 152 147.333, 152 146 C 152 144.667, 151.333 144, 150 144 C 148.167 144, 148 143.333, 148 136 C 148 128.667, 148.167 128, 150 128 C 151.667 128, 152 128.667, 152 132 C 152 135.333, 152.333 136, 154 136 C 155.333 136, 156 136.667, 156 138 C 156 139.667, 156.667 140, 160 140 L 164 140 164 134 C 164 128.667, 164.222 128, 166 128 C 167.667 128, 168 128.667, 168 132 C 168 135.333, 168.333 136, 170 136 C 171.667 136, 172 135.333, 172 132 C 172 128.667, 172.333 128, 174 128 C 175.867 128, 176 127.333, 176 118 C 176 108.667, 176.133 108, 178 108 C 179.867 108, 180 108.667, 180 118 L 180 128 184 128 C 187.333 128, 188 128.333, 188 130 C 188 131.333, 187.333 132, 186 132 C 184.667 132, 184 132.667, 184 134 C 184 135.333, 184.667 136, 186 136 C 187.333 136, 188 135.333, 188 134 C 188 132.667, 188.667 132, 190 132 C 191.667 132, 192 131.333, 192 128 L 192 124 188 124 L 184 124 184 116 C 184 108.667, 183.833 108, 182 108 C 180.667 108, 180 107.333, 180 106 C 180 104.333, 179.333 104, 176 104 L 172 104 172 116 M 160 122 C 160 127.333, 159.778 128, 158 128 C 156.333 128, 156 128.667, 156 132 C 156 135.333, 156.333 136, 158 136 C 159.667 136, 160 135.333, 160 132 C 160 128.667, 160.333 128, 162 128 C 163.778 128, 164 127.333, 164 122 C 164 116.667, 163.778 116, 162 116 C 160.222 116, 160 116.667, 160 122 M 168 146 C 168 147.667, 167.333 148, 164 148 L 160 148 160 152 C 160 155.333, 160.333 156, 162 156 C 163.333 156, 164 155.333, 164 154 C 164 152.667, 164.667 152, 166 152 C 167.333 152, 168 151.333, 168 150 C 168 148.333, 168.667 148, 172 148 C 175.333 148, 176 147.667, 176 146 C 176 144.333, 175.333 144, 172 144 C 168.667 144, 168 144.333, 168 146 M 236 214 C 236 215.667, 235.333 216, 232 216 C 228.667 216, 228 216.333, 228 218 C 228 219.667, 228.667 220, 232 220 C 235.333 220, 236 219.667, 236 218 C 236 216.222, 236.667 216, 242 216 C 247.333 216, 248 215.778, 248 214 C 248 212.222, 247.333 212, 242 212 C 236.667 212, 236 212.222, 236 214 M 160 228 C 160 231.333, 160.333 232, 162 232 C 163.667 232, 164 231.333, 164 228 C 164 224.667, 163.667 224, 162 224 C 160.333 224, 160 224.667, 160 228" stroke="none" fill="black" fill-rule="evenodd"/>
</svg>