<svg xmlns="http://www.w3.org/2000/svg" width="400" height="400" viewBox="0 0 400 400" version="1.1">
	<path fill-opacity="0.792" d="M 236 214 C 236 215.667, 235.333 216, 232 216 C 228.667 216, 228 216.333, 228 218 C 228 219.917, 227.333 220, 212 220 C 196.667 220, 196 219.917, 196 218 C 196 216.222, 195.333 216, 190 216 C 184.667 216, 184 216.222, 184 218 C 184 219.333, 183.333 220, 182 220 C 180.667 220, 180 220.667, 180 222 C 180 223.333, 179.333 224, 178 224 C 176.167 224, 176 224.667, 176 232 C 176 239.333, 176.167 240, 178 240 C 179.333 240, 180 240.667, 180 242 C 180 243.333, 180.667 244, 182 244 C 183.333 244, 184 244.667, 184 246 C 184 247.667, 184.667 248, 188 248 C 191.333 248, 192 248.333, 192 250 C 192 251.905, 192.667 252, 206 252 C 219.333 252, 220 251.905, 220 250 C 220 248.222, 220.667 248, 226 248 C 231.333 248, 232 247.778, 232 246 C 232 244.333, 232.667 244, 236 244 C 239.333 244, 240 243.667, 240 242 C 240 240.333, 240.667 240, 244 240 C 247.333 240, 248 239.667, 248 238 C 248 236.667, 248.667 236, 250 236 C 251.333 236, 252 235.333, 252 234 C 252 232.667, 252.667 232, 254 232 C 255.333 232, 256 231.333, 256 230 C 256 228.667, 256.667 228, 258 228 C 259.667 228, 260 227.333, 260 224 C 260 220.667, 260.333 220, 262 220 C 263.667 220, 264 219.333, 264 216 L 264 212 258 212 C 252.667 212, 252 212.222, 252 214 C 252 215.333, 251.333 216, 250 216 C 248.667 216, 248 215.333, 248 214 C 248 212.222, 247.333 212, 242 212 C 236.667 212, 236 212.222, 236 214 M 160 228 C 160 231.333, 160.333 232, 162 232 C 163.667 232, 164 231.333, 164 228 C 164 224.667, 163.667 224, 162 224 C 160.333 224, 160 224.667, 160 228" stroke="none" fill="black" fill-rule="evenodd"/>
	<path fill-opacity="0.548" d="M 236 214 C 236 215.667, 235.333 216, 232 216 C 228.667 216, 228 216.333, 228 218 C 228 219.917, 227.333 220, 212 220 C 196.667 220, 196 219.917, 196 218 C 196 216.222, 195.333 216, 190 216 C 184.667 216, 184 216.222, 184 218 C 184 219.333, 183.333 220, 182 220 C 180.667 220, 180 220.667, 180 222 C 180 223.333, 179.333 224, 178 224 C 176.167 224, 176 224.667, 176 232 C 176 239.333, 176.167 240, 178 240 C 179.333 240, 180 240.667, 180 242 C 180 243.333, 180.667 244, 182 244 C 183.333 244, 184 244.667, 184 246 C 184 247.667, 184.667 248, 188 248 C 191.333 248, 192 248.333, 192 250 C 192 251.905, 192.667 252, 206 252 C 219.333 252, 220 251.905, 220 250 C 220 248.222, 220.667 248, 226 248 C 231.333 248, 232 247.778, 232 246 C 232 244.333, 232.667 244, 236 244 C 239.333 244, 240 243.667, 240 242 C 240 240.333, 240.667 240, 244 240 C 247.333 240, 248 239.667, 248 238 C 248 236.667, 248.667 236, 250 236 C 251.333 236, 252 235.333, 252 234 C 252 232.667, 252.667 232, 254 232 C 255.333 232, 256 231.333, 256 230 C 256 228.667, 256.667 228, 258 228 C 259.667 228, 260 227.333, 260 224 C 260 220.667, 260.333 220, 262 220 C 263.667 220, 264 219.333, 264 216 L 264 212 258 212 C 252.667 212, 252 212.222, 252 214 C 252 215.333, 251.333 216, 250 216 C 248.667 216, 248 215.333, 248 214 C 248 212.222, 247.333 212, 242 212 C 236.667 212, 236 212.222, 236 214 M 252 218 C 252 219.778, 251.333 220, 246 220 C 240.667 220, 240 220.222, 240 222 C 240 223.867, 239.333 224, 230 224 C 220.667 224, 220 224.133, 220 226 C 220 227.333, 219.333 228, 218 228 C 216.667 228, 216 228.667, 216 230 C 216 231.867, 216.667 232, 226 232 C 235.333 232, 236 231.867, 236 230 C 236 228.222, 236.667 228, 242 228 C 247.333 228, 248 227.778, 248 226 C 248 224.667, 248.667 224, 250 224 C 251.333 224, 252 223.333, 252 222 C 252 220.333, 252.667 220, 256 220 C 259.333 220, 260 219.667, 260 218 C 260 216.333, 259.333 216, 256 216 C 252.667 216, 252 216.333, 252 218 M 184 222 C 184 223.333, 183.333 224, 182 224 C 180.333 224, 180 224.667, 180 228 C 180 231.333, 180.333 232, 182 232 C 183.333 232, 184 232.667, 184 234 C 184 235.333, 184.667 236, 186 236 C 187.333 236, 188 236.667, 188 238 C 188 239.867, 188.667 240, 198 240 C 207.333 240, 208 239.867, 208 238 C 208 236.167, 207.333 236, 200 236 C 192.667 236, 192 235.833, 192 234 C 192 232.167, 192.667 232, 200 232 C 207.333 232, 208 231.833, 208 230 C 208 228.667, 208.667 228, 210 228 C 211.333 228, 212 227.333, 212 226 C 212 224.167, 211.333 224, 204 224 C 196.667 224, 196 223.833, 196 222 C 196 220.222, 195.333 220, 190 220 C 184.667 220, 184 220.222, 184 222 M 160 228 C 160 231.333, 160.333 232, 162 232 C 163.667 232, 164 231.333, 164 228 C 164 224.667, 163.667 224, 162 224 C 160.333 224, 160 224.667, 160 228 M 188 230 C 188 231.333, 188.667 232, 190 232 C 191.333 232, 192 231.333, 192 230 C 192 228.667, 191.333 228, 190 228 C 188.667 228, 188 228.667, 188 230 M 216 238 C 216 239.833, 216.667 240, 224 240 C 231.333 240, 232 239.833, 232 238 C 232 236.167, 231.333 236, 224 236 C 216.667 236, 216 236.167, 216 238" stroke="none" fill="black" fill-rule="evenodd"/>
	<path fill-opacity="0.041" d="M 236 214 C 236 215.667, 235.333 216, 232 216 C 228.667 216, 228 216.333, 228 218 C 228 219.917, 227.333 220, 212 220 C 196.667 220, 196 219.917, 196 218 C 196 216.222, 195.333 216, 190 216 C 184.667 216, 184 216.222, 184 218 C 184 219.333, 183.333 220, 182 220 C 180.667 220, 180 220.667, 180 222 C 180 223.333, 179.333 224, 178 224 C 176.167 224, 176 224.667, 176 232 C 176 239.333, 176.167 240, 178 240 C 179.333 240, 180 240.667, 180 242 C 180 243.333, 180.667 244, 182 244 C 183.333 244, 184 244.667, 184 246 C 184 247.667, 184.667 248, 188 248 C 191.333 248, 192 248.333, 192 250 C 192 251.905, 192.667 252, 206 252 C 219.333 252, 220 251.905, 220 250 C 220 248.222, 220.667 248, 226 248 C 231.333 248, 232 247.778, 232 246 C 232 244.333, 232.667 244, 236 244 C 239.333 244, 240 243.667, 240 242 C 240 240.333, 240.667 240, 244 240 C 247.333 240, 248 239.667, 248 238 C 248 236.667, 248.667 236, 250 236 C 251.333 236, 252 235.333, 252 234 C 252 232.667, 252.667 232, 254 232 C 255.333 232, 256 231.333, 256 230 C 256 228.667, 256.667 228, 258 228 C 259.667 228, 260 227.333, 260 224 C 260 220.667, 260.333 220, 262 220 C 263.667 220, 264 219.333, 264 216 L 264 212 258 212 C 252.667 212, 252 212.222, 252 214 C 252 215.333, 251.333 216, 250 216 C 248.667 216, 248 215.333, 248 214 C 248 212.222, 247.333 212, 242 212 C 236.667 212, 236 212.222, 236 214 M 236 218 C 236 219.333, 236.667 220, 238 220 C 239.333 220, 240 220.667, 240 222 C 240 223.889, 239.333 224, 228 224 C 216.667 224, 216 224.111, 216 226 C 216 227.333, 215.333 228, 214 228 C 212.667 228, 212 227.333, 212 226 C 212 224.167, 211.333 224, 204 224 C 196.667 224, 196 223.833, 196 222 C 196 220.222, 195.333 220, 190 220 C 184.667 220, 184 220.222, 184 222 C 184 223.333, 183.333 224, 182 224 C 180.167 224, 180 224.667, 180 232 C 180 239.333, 180.167 240, 182 240 C 183.333 240, 184 240.667, 184 242 C 184 243.667, 184.667 244, 188 244 C 191.333 244, 192 244.333, 192 246 C 192 247.778, 192.667 248, 198 248 C 203.333 248, 204 247.778, 204 246 C 204 244.667, 204.667 244, 206 244 C 207.333 244, 208 244.667, 208 246 C 208 247.778, 208.667 248, 214 248 C 219.333 248, 220 247.778, 220 246 C 220 244.222, 220.667 244, 226 244 C 231.333 244, 232 243.778, 232 242 C 232 240.333, 232.667 240, 236 240 C 239.333 240, 240 239.667, 240 238 C 240 236.333, 240.667 236, 244 236 C 247.333 236, 248 235.667, 248 234 C 248 232.667, 248.667 232, 250 232 C 251.333 232, 252 231.333, 252 230 C 252 228.667, 251.333 228, 250 228 C 248.667 228, 248 227.333, 248 226 C 248 224.333, 248.667 224, 252 224 C 255.333 224, 256 223.667, 256 222 C 256 220.667, 256.667 220, 258 220 C 259.333 220, 260 219.333, 260 218 C 260 216.333, 259.333 216, 256 216 C 252.667 216, 252 216.333, 252 218 C 252 219.778, 251.333 220, 246 220 C 240.667 220, 240 219.778, 240 218 C 240 216.667, 239.333 216, 238 216 C 236.667 216, 236 216.667, 236 218 M 160 228 C 160 231.333, 160.333 232, 162 232 C 163.667 232, 164 231.333, 164 228 C 164 224.667, 163.667 224, 162 224 C 160.333 224, 160 224.667, 160 228 M 208 230 C 208 231.667, 207.333 232, 204 232 C 200.667 232, 200 232.333, 200 234 C 200 235.667, 200.667 236, 204 236 L 208 236 208 240 C 208 243.333, 208.333 244, 210 244 C 211.667 244, 212 243.333, 212 240 C 212 236.667, 211.667 236, 210 236 C 208.667 236, 208 235.333, 208 234 C 208 232.667, 208.667 232, 210 232 C 211.333 232, 212 231.333, 212 230 C 212 228.667, 211.333 228, 210 228 C 208.667 228, 208 228.667, 208 230 M 236 230 C 236 231.833, 235.333 232, 228 232 C 220.667 232, 220 232.167, 220 234 C 220 235.833, 220.667 236, 228 236 C 235.333 236, 236 235.833, 236 234 C 236 232.222, 236.667 232, 242 232 C 247.333 232, 248 231.778, 248 230 C 248 228.222, 247.333 228, 242 228 C 236.667 228, 236 228.222, 236 230" stroke="none" fill="black" fill-rule="evenodd"/>
	<path fill-opacity="0.261" d="M 236 214 C 236 215.667, 235.333 216, 232 216 C 228.667 216, 228 216.333, 228 218 C 228 219.667, 228.667 220, 232 220 C 235.333 220, 236 219.667, 236 218 C 236 216.222, 236.667 216, 242 216 C 247.333 216, 248 215.778, 248 214 C 248 212.222, 247.333 212, 242 212 C 236.667 212, 236 212.222, 236 214 M 160 228 C 160 231.333, 160.333 232, 162 232 C 163.667 232, 164 231.333, 164 228 C 164 224.667, 163.667 224, 162 224 C 160.333 224, 160 224.667, 160 228" stroke="none" fill="black" fill-rule="evenodd"/>
</svg>