<svg xmlns="http://www.w3.org/2000/svg" width="400" height="400" viewBox="0 0 400 400" version="1.1">
	<path fill-opacity="0.651" d="M 196 110 C 196 111.333, 195.333 112, 194 112 C 192.333 112, 192 112.667, 192 116 C 192 119.333, 191.667 120, 190 120 C 188.095 120, 188 120.667, 188 134 C 188 147.333, 188.095 148, 190 148 C 191.778 148, 192 148.667, 192 154 C 192 159.333, 192.222 160, 194 160 C 195.333 160, 196 160.667, 196 162 C 196 163.333, 196.667 164, 198 164 C 199.667 164, 200 164.667, 200 168 L 200 172 204 172 L 208 172 208 168 C 208 164.667, 208.333 164, 210 164 C 211.667 164, 212 163.333, 212 160 C 212 156.667, 212.333 156, 214 156 C 215.917 156, 216 155.333, 216 140 C 216 124.667, 215.917 124, 214 124 C 212.333 124, 212 123.333, 212 120 C 212 116.667, 211.667 116, 210 116 C 208.667 116, 208 115.333, 208 114 C 208 112.667, 207.333 112, 206 112 C 204.667 112, 204 111.333, 204 110 C 204 108.333, 203.333 108, 200 108 C 196.667 108, 196 108.333, 196 110 M 140 114 C 140 115.333, 139.333 116, 138 116 C 136.095 116, 136 116.667, 136 130 C 136 143.333, 136.095 144, 138 144 C 139.667 144, 140 144.667, 140 148 C 140 151.333, 140.333 152, 142 152 C 143.333 152, 144 152.667, 144 154 C 144 155.333, 144.667 156, 146 156 C 147.333 156, 148 156.667, 148 158 C 148 159.667, 148.667 160, 152 160 C 155.333 160, 156 159.667, 156 158 C 156 156.333, 156.667 156, 160 156 C 163.333 156, 164 155.667, 164 154 C 164 152.333, 164.667 152, 168 152 C 171.333 152, 172 151.667, 172 150 C 172 148.667, 171.333 148, 170 148 C 168.333 148, 168 147.333, 168 144 C 168 140.667, 167.667 140, 166 140 C 164.333 140, 164 139.333, 164 136 C 164 132.667, 163.667 132, 162 132 C 160.333 132, 160 131.333, 160 128 C 160 124.667, 159.667 124, 158 124 C 156.667 124, 156 123.333, 156 122 C 156 120.667, 155.333 120, 154 120 C 152.667 120, 152 119.333, 152 118 C 152 116.667, 151.333 116, 150 116 C 148.667 116, 148 115.333, 148 114 C 148 112.333, 147.333 112, 144 112 C 140.667 112, 140 112.333, 140 114 M 152 298 C 152 299.333, 151.333 300, 150 300 C 148.222 300, 148 300.667, 148 306 L 148 312 154 312 C 159.333 312, 160 312.222, 160 314 C 160 315.917, 160.667 316, 176 316 L 192 316 192 312 C 192 308.667, 191.667 308, 190 308 C 188.667 308, 188 307.333, 188 306 C 188 304.667, 187.333 304, 186 304 C 184.667 304, 184 303.333, 184 302 C 184 300.333, 183.333 300, 180 300 C 176.667 300, 176 300.333, 176 302 C 176 303.333, 175.333 304, 174 304 C 172.667 304, 172 303.333, 172 302 C 172 300.667, 171.333 300, 170 300 C 168.667 300, 168 299.333, 168 298 C 168 296.667, 167.333 296, 166 296 C 164.667 296, 164 296.667, 164 298 C 164 299.333, 163.333 300, 162 300 C 160.667 300, 160 299.333, 160 298 C 160 296.333, 159.333 296, 156 296 C 152.667 296, 152 296.333, 152 298 M 208 298 C 208 299.333, 207.333 300, 206 300 C 204.222 300, 204 300.667, 204 306 L 204 312 210 312 C 215.333 312, 216 312.222, 216 314 C 216 315.905, 216.667 316, 230 316 L 244 316 244 310 C 244 304.667, 243.778 304, 242 304 C 240.667 304, 240 303.333, 240 302 C 240 300.333, 239.333 300, 236 300 C 232.667 300, 232 300.333, 232 302 C 232 303.333, 231.333 304, 230 304 C 228.667 304, 228 303.333, 228 302 C 228 300.667, 227.333 300, 226 300 C 224.667 300, 224 299.333, 224 298 C 224 296.667, 223.333 296, 222 296 C 220.667 296, 220 296.667, 220 298 C 220 299.333, 219.333 300, 218 300 C 216.667 300, 216 299.333, 216 298 C 216 296.333, 215.333 296, 212 296 C 208.667 296, 208 296.333, 208 298" stroke="none" fill="black" fill-rule="evenodd"/>
	<path fill-opacity="0.045" d="M 196 110 C 196 111.333, 195.333 112, 194 112 C 192.333 112, 192 112.667, 192 116 C 192 119.333, 191.667 120, 190 120 C 188.095 120, 188 120.667, 188 134 C 188 147.333, 188.095 148, 190 148 C 191.778 148, 192 148.667, 192 154 C 192 159.333, 192.222 160, 194 160 C 195.333 160, 196 160.667, 196 162 C 196 163.333, 196.667 164, 198 164 C 199.667 164, 200 164.667, 200 168 L 200 172 204 172 L 208 172 208 168 C 208 164.667, 208.333 164, 210 164 C 211.667 164, 212 163.333, 212 160 C 212 156.667, 212.333 156, 214 156 C 215.917 156, 216 155.333, 216 140 C 216 124.667, 215.917 124, 214 124 C 212.333 124, 212 123.333, 212 120 C 212 116.667, 211.667 116, 210 116 C 208.667 116, 208 115.333, 208 114 C 208 112.667, 207.333 112, 206 112 C 204.667 112, 204 111.333, 204 110 C 204 108.333, 203.333 108, 200 108 C 196.667 108, 196 108.333, 196 110 M 140 114 C 140 115.333, 139.333 116, 138 116 C 136.095 116, 136 116.667, 136 130 C 136 143.333, 136.095 144, 138 144 C 139.667 144, 140 144.667, 140 148 C 140 151.333, 140.333 152, 142 152 C 143.333 152, 144 152.667, 144 154 C 144 155.333, 144.667 156, 146 156 C 147.333 156, 148 156.667, 148 158 C 148 159.667, 148.667 160, 152 160 C 155.333 160, 156 159.667, 156 158 C 156 156.333, 156.667 156, 160 156 C 163.333 156, 164 155.667, 164 154 C 164 152.333, 164.667 152, 168 152 C 171.333 152, 172 151.667, 172 150 C 172 148.667, 171.333 148, 170 148 C 168.333 148, 168 147.333, 168 144 C 168 140.667, 167.667 140, 166 140 C 164.333 140, 164 139.333, 164 136 C 164 132.667, 163.667 132, 162 132 C 160.333 132, 160 131.333, 160 128 C 160 124.667, 159.667 124, 158 124 C 156.667 124, 156 123.333, 156 122 C 156 120.667, 155.333 120, 154 120 C 152.667 120, 152 119.333, 152 118 C 152 116.667, 151.333 116, 150 116 C 148.667 116, 148 115.333, 148 114 C 148 112.333, 147.333 112, 144 112 C 140.667 112, 140 112.333, 140 114 M 196 140 C 196 151.333, 196.111 152, 198 152 C 199.333 152, 200 152.667, 200 154 C 200 155.667, 200.667 156, 204 156 L 208 156 208 148 C 208 140.667, 207.833 140, 206 140 C 204.333 140, 204 139.333, 204 136 C 204 132.667, 203.667 132, 202 132 C 200.667 132, 200 131.333, 200 130 C 200 128.667, 199.333 128, 198 128 C 196.111 128, 196 128.667, 196 140 M 152 298 C 152 299.333, 151.333 300, 150 300 C 148.222 300, 148 300.667, 148 306 L 148 312 154 312 C 159.333 312, 160 312.222, 160 314 C 160 315.917, 160.667 316, 176 316 L 192 316 192 312 C 192 308.667, 191.667 308, 190 308 C 188.667 308, 188 307.333, 188 306 C 188 304.667, 187.333 304, 186 304 C 184.667 304, 184 303.333, 184 302 C 184 300.333, 183.333 300, 180 300 C 176.667 300, 176 300.333, 176 302 C 176 303.333, 175.333 304, 174 304 C 172.667 304, 172 303.333, 172 302 C 172 300.667, 171.333 300, 170 300 C 168.667 300, 168 299.333, 168 298 C 168 296.667, 167.333 296, 166 296 C 164.667 296, 164 296.667, 164 298 C 164 299.333, 163.333 300, 162 300 C 160.667 300, 160 299.333, 160 298 C 160 296.333, 159.333 296, 156 296 C 152.667 296, 152 296.333, 152 298 M 208 298 C 208 299.333, 207.333 300, 206 300 C 204.222 300, 204 300.667, 204 306 L 204 312 210 312 C 215.333 312, 216 312.222, 216 314 C 216 315.905, 216.667 316, 230 316 L 244 316 244 310 C 244 304.667, 243.778 304, 242 304 C 240.667 304, 240 303.333, 240 302 C 240 300.333, 239.333 300, 236 300 C 232.667 300, 232 300.333, 232 302 C 232 303.333, 231.333 304, 230 304 C 228.667 304, 228 303.333, 228 302 C 228 300.667, 227.333 300, 226 300 C 224.667 300, 224 299.333, 224 298 C 224 296.667, 223.333 296, 222 296 C 220.667 296, 220 296.667, 220 298 C 220 299.333, 219.333 300, 218 300 C 216.667 300, 216 299.333, 216 298 C 216 296.333, 215.333 296, 212 296 C 208.667 296, 208 296.333, 208 298" stroke="none" fill="black" fill-rule="evenodd"/>
	<path fill-opacity="0.541" d="M 196 110 C 196 111.333, 195.333 112, 194 112 C 192.333 112, 192 112.667, 192 116 C 192 119.333, 191.667 120, 190 120 C 188.095 120, 188 120.667, 188 134 C 188 147.333, 188.095 148, 190 148 C 191.778 148, 192 148.667, 192 154 C 192 159.333, 192.222 160, 194 160 C 195.333 160, 196 160.667, 196 162 C 196 163.333, 196.667 164, 198 164 C 199.667 164, 200 164.667, 200 168 L 200 172 204 172 L 208 172 208 168 C 208 164.667, 208.333 164, 210 164 C 211.667 164, 212 163.333, 212 160 C 212 156.667, 212.333 156, 214 156 C 215.917 156, 216 155.333, 216 140 C 216 124.667, 215.917 124, 214 124 C 212.333 124, 212 123.333, 212 120 C 212 116.667, 211.667 116, 210 116 C 208.667 116, 208 115.333, 208 114 C 208 112.667, 207.333 112, 206 112 C 204.667 112, 204 111.333, 204 110 C 204 108.333, 203.333 108, 200 108 C 196.667 108, 196 108.333, 196 110 M 140 114 C 140 115.333, 139.333 116, 138 116 C 136.095 116, 136 116.667, 136 130 C 136 143.333, 136.095 144, 138 144 C 139.667 144, 140 144.667, 140 148 C 140 151.333, 140.333 152, 142 152 C 143.333 152, 144 152.667, 144 154 C 144 155.333, 144.667 156, 146 156 C 147.333 156, 148 156.667, 148 158 C 148 159.667, 148.667 160, 152 160 C 155.333 160, 156 159.667, 156 158 C 156 156.667, 155.333 156, 154 156 C 152.667 156, 152 155.333, 152 154 C 152 152.667, 151.333 152, 150 152 C 148.333 152, 148 151.333, 148 148 C 148 144.667, 147.667 144, 146 144 C 144.167 144, 144 143.333, 144 136 C 144 128.667, 144.167 128, 146 128 C 147.333 128, 148 128.667, 148 130 C 148 131.333, 148.667 132, 150 132 C 151.667 132, 152 132.667, 152 136 C 152 139.333, 152.333 140, 154 140 C 155.667 140, 156 140.667, 156 144 C 156 147.333, 156.333 148, 158 148 C 159.667 148, 160 148.667, 160 152 C 160 155.333, 160.333 156, 162 156 C 163.333 156, 164 155.333, 164 154 C 164 152.333, 164.667 152, 168 152 C 171.333 152, 172 151.667, 172 150 C 172 148.667, 171.333 148, 170 148 C 168.333 148, 168 147.333, 168 144 C 168 140.667, 167.667 140, 166 140 C 164.333 140, 164 139.333, 164 136 C 164 132.667, 163.667 132, 162 132 C 160.333 132, 160 131.333, 160 128 C 160 124.667, 159.667 124, 158 124 C 156.667 124, 156 123.333, 156 122 C 156 120.667, 155.333 120, 154 120 C 152.667 120, 152 119.333, 152 118 C 152 116.667, 151.333 116, 150 116 C 148.667 116, 148 115.333, 148 114 C 148 112.333, 147.333 112, 144 112 C 140.667 112, 140 112.333, 140 114 M 196 144 C 196 159.333, 196.083 160, 198 160 C 199.333 160, 200 160.667, 200 162 C 200 163.333, 200.667 164, 202 164 C 203.667 164, 204 163.333, 204 160 C 204 156.667, 204.333 156, 206 156 C 207.833 156, 208 155.333, 208 148 C 208 140.667, 207.833 140, 206 140 C 204.333 140, 204 139.333, 204 136 C 204 132.667, 203.667 132, 202 132 C 200.667 132, 200 131.333, 200 130 C 200 128.667, 199.333 128, 198 128 C 196.083 128, 196 128.667, 196 144 M 152 298 C 152 299.333, 151.333 300, 150 300 C 148.222 300, 148 300.667, 148 306 L 148 312 154 312 C 159.333 312, 160 312.222, 160 314 C 160 315.917, 160.667 316, 176 316 L 192 316 192 312 C 192 308.667, 191.667 308, 190 308 C 188.667 308, 188 307.333, 188 306 C 188 304.667, 187.333 304, 186 304 C 184.667 304, 184 303.333, 184 302 C 184 300.333, 183.333 300, 180 300 C 176.667 300, 176 300.333, 176 302 C 176 303.333, 175.333 304, 174 304 C 172.667 304, 172 303.333, 172 302 C 172 300.667, 171.333 300, 170 300 C 168.667 300, 168 299.333, 168 298 C 168 296.667, 167.333 296, 166 296 C 164.667 296, 164 296.667, 164 298 C 164 299.333, 163.333 300, 162 300 C 160.667 300, 160 299.333, 160 298 C 160 296.333, 159.333 296, 156 296 C 152.667 296, 152 296.333, 152 298 M 208 298 C 208 299.333, 207.333 300, 206 300 C 204.222 300, 204 300.667, 204 306 L 204 312 210 312 C 215.333 312, 216 312.222, 216 314 C 216 315.905, 216.667 316, 230 316 L 244 316 244 310 C 244 304.667, 243.778 304, 242 304 C 240.667 304, 240 303.333, 240 302 C 240 300.333, 239.333 300, 236 300 C 232.667 300, 232 300.333, 232 302 C 232 303.333, 231.333 304, 230 304 C 228.667 304, 228 303.333, 228 302 C 228 300.667, 227.333 300, 226 300 C 224.667 300, 224 299.333, 224 298 C 224 296.667, 223.333 296, 222 296 C 220.667 296, 220 296.667, 220 298 C 220 299.333, 219.333 300, 218 300 C 216.667 300, 216 299.333, 216 298 C 216 296.333, 215.333 296, 212 296 C 208.667 296, 208 296.333, 208 298" stroke="none" fill="black" fill-rule="evenodd"/>
	<path fill-opacity="0.513" d="M 196 110 C 196 111.333, 195.333 112, 194 112 C 192.333 112, 192 112.667, 192 116 C 192 119.333, 191.667 120, 190 120 C 188.095 120, 188 120.667, 188 134 C 188 147.333, 188.095 148, 190 148 C 191.778 148, 192 148.667, 192 154 C 192 159.333, 192.222 160, 194 160 C 195.778 160, 196 159.333, 196 154 C 196 148.667, 195.778 148, 194 148 C 192.095 148, 192 147.333, 192 134 C 192 120.667, 192.095 120, 194 120 C 195.667 120, 196 119.333, 196 116 L 196 112 200 112 C 203.333 112, 204 112.333, 204 114 C 204 115.333, 204.667 116, 206 116 C 207.667 116, 208 116.667, 208 120 C 208 123.333, 208.333 124, 210 124 C 211.917 124, 212 124.667, 212 140 C 212 155.333, 211.917 156, 210 156 C 208.333 156, 208 156.667, 208 160 C 208 163.333, 207.667 164, 206 164 C 204.333 164, 204 164.667, 204 168 C 204 171.333, 204.333 172, 206 172 C 207.667 172, 208 171.333, 208 168 C 208 164.667, 208.333 164, 210 164 C 211.667 164, 212 163.333, 212 160 C 212 156.667, 212.333 156, 214 156 C 215.917 156, 216 155.333, 216 140 C 216 124.667, 215.917 124, 214 124 C 212.333 124, 212 123.333, 212 120 C 212 116.667, 211.667 116, 210 116 C 208.667 116, 208 115.333, 208 114 C 208 112.667, 207.333 112, 206 112 C 204.667 112, 204 111.333, 204 110 C 204 108.333, 203.333 108, 200 108 C 196.667 108, 196 108.333, 196 110 M 140 114 C 140 115.333, 139.333 116, 138 116 C 136.095 116, 136 116.667, 136 130 C 136 143.333, 136.095 144, 138 144 C 139.667 144, 140 144.667, 140 148 C 140 151.333, 140.333 152, 142 152 C 143.333 152, 144 152.667, 144 154 C 144 155.333, 144.667 156, 146 156 C 147.333 156, 148 156.667, 148 158 C 148 159.667, 148.667 160, 152 160 C 155.333 160, 156 159.667, 156 158 C 156 156.333, 155.333 156, 152 156 C 148.667 156, 148 155.667, 148 154 C 148 152.667, 147.333 152, 146 152 C 144.333 152, 144 151.333, 144 148 C 144 144.667, 143.667 144, 142 144 C 140.095 144, 140 143.333, 140 130 L 140 116 144 116 C 147.333 116, 148 116.333, 148 118 C 148 119.333, 148.667 120, 150 120 C 151.333 120, 152 120.667, 152 122 C 152 123.333, 152.667 124, 154 124 C 155.667 124, 156 124.667, 156 128 C 156 131.333, 156.333 132, 158 132 C 159.889 132, 160 132.667, 160 144 C 160 155.333, 160.111 156, 162 156 C 163.333 156, 164 155.333, 164 154 C 164 152.333, 164.667 152, 168 152 C 171.333 152, 172 151.667, 172 150 C 172 148.667, 171.333 148, 170 148 C 168.333 148, 168 147.333, 168 144 C 168 140.667, 167.667 140, 166 140 C 164.333 140, 164 139.333, 164 136 C 164 132.667, 163.667 132, 162 132 C 160.333 132, 160 131.333, 160 128 C 160 124.667, 159.667 124, 158 124 C 156.667 124, 156 123.333, 156 122 C 156 120.667, 155.333 120, 154 120 C 152.667 120, 152 119.333, 152 118 C 152 116.667, 151.333 116, 150 116 C 148.667 116, 148 115.333, 148 114 C 148 112.333, 147.333 112, 144 112 C 140.667 112, 140 112.333, 140 114 M 152 298 C 152 299.333, 151.333 300, 150 300 C 148.222 300, 148 300.667, 148 306 L 148 312 154 312 C 159.333 312, 160 312.222, 160 314 C 160 315.917, 160.667 316, 176 316 L 192 316 192 312 C 192 308.667, 191.667 308, 190 308 C 188.667 308, 188 308.667, 188 310 C 188 311.778, 187.333 312, 182 312 L 176 312 176 308 L 176 304 180 304 C 183.333 304, 184 303.667, 184 302 C 184 300.333, 183.333 300, 180 300 C 176.667 300, 176 300.333, 176 302 C 176 303.333, 175.333 304, 174 304 C 172.667 304, 172 303.333, 172 302 C 172 300.667, 171.333 300, 170 300 C 168.667 300, 168 299.333, 168 298 C 168 296.667, 167.333 296, 166 296 C 164.667 296, 164 296.667, 164 298 C 164 299.333, 163.333 300, 162 300 C 160.667 300, 160 299.333, 160 298 C 160 296.333, 159.333 296, 156 296 C 152.667 296, 152 296.333, 152 298 M 208 298 C 208 299.333, 207.333 300, 206 300 C 204.222 300, 204 300.667, 204 306 L 204 312 210 312 C 215.333 312, 216 312.222, 216 314 C 216 315.905, 216.667 316, 230 316 C 243.333 316, 244 315.905, 244 314 C 244 312.222, 243.333 312, 238 312 L 232 312 232 308 L 232 304 236 304 C 239.333 304, 240 303.667, 240 302 C 240 300.333, 239.333 300, 236 300 C 232.667 300, 232 300.333, 232 302 C 232 303.333, 231.333 304, 230 304 C 228.667 304, 228 303.333, 228 302 C 228 300.667, 227.333 300, 226 300 C 224.667 300, 224 299.333, 224 298 C 224 296.667, 223.333 296, 222 296 C 220.667 296, 220 296.667, 220 298 C 220 299.333, 219.333 300, 218 300 C 216.667 300, 216 299.333, 216 298 C 216 296.333, 215.333 296, 212 296 C 208.667 296, 208 296.333, 208 298 M 152 304 L 152 308 156 308 L 160 308 160 304 L 160 300 156 300 L 152 300 152 304 M 208 304 L 208 308 212 308 L 216 308 216 304 L 216 300 212 300 L 208 300 208 304 M 164 308 L 164 312 168 312 L 172 312 172 308 L 172 304 168 304 L 164 304 164 308 M 220 308 L 220 312 224 312 L 228 312 228 308 L 228 304 224 304 L 220 304 220 308" stroke="none" fill="black" fill-rule="evenodd"/>
</svg>