<svg xmlns="http://www.w3.org/2000/svg" width="400" height="400" viewBox="0 0 400 400" version="1.1">
	<path fill-opacity="0.792" d="M 212 222 C 212 223.778, 211.333 224, 206 224 C 200.667 224, 200 224.222, 200 226 C 200 227.333, 199.333 228, 198 228 C 196.667 228, 196 228.667, 196 230 C 196 231.333, 195.333 232, 194 232 C 192.222 232, 192 232.667, 192 238 C 192 243.333, 192.222 244, 194 244 C 195.333 244, 196 244.667, 196 246 C 196 247.333, 196.667 248, 198 248 C 199.333 248, 200 248.667, 200 250 C 200 251.778, 200.667 252, 206 252 C 211.333 252, 212 251.778, 212 250 C 212 248.333, 212.667 248, 216 248 C 219.333 248, 220 247.667, 220 246 C 220 244.667, 220.667 244, 222 244 C 223.333 244, 224 243.333, 224 242 C 224 240.667, 224.667 240, 226 240 C 227.833 240, 228 239.333, 228 232 C 228 224.667, 227.833 224, 226 224 C 224.667 224, 224 223.333, 224 222 C 224 220.222, 223.333 220, 218 220 C 212.667 220, 212 220.222, 212 222" stroke="none" fill="black" fill-rule="evenodd"/>
	<path fill-opacity="0.548" d="M 212 222 C 212 223.778, 211.333 224, 206 224 C 200.667 224, 200 224.222, 200 226 C 200 227.333, 199.333 228, 198 228 C 196.667 228, 196 228.667, 196 230 C 196 231.333, 195.333 232, 194 232 C 192.222 232, 192 232.667, 192 238 C 192 243.333, 192.222 244, 194 244 C 195.333 244, 196 244.667, 196 246 C 196 247.333, 196.667 248, 198 248 C 199.333 248, 200 248.667, 200 250 C 200 251.778, 200.667 252, 206 252 C 211.333 252, 212 251.778, 212 250 C 212 248.333, 212.667 248, 216 248 C 219.333 248, 220 247.667, 220 246 C 220 244.667, 220.667 244, 222 244 C 223.333 244, 224 243.333, 224 242 C 224 240.667, 224.667 240, 226 240 C 227.833 240, 228 239.333, 228 232 C 228 224.667, 227.833 224, 226 224 C 224.667 224, 224 223.333, 224 222 C 224 220.222, 223.333 220, 218 220 C 212.667 220, 212 220.222, 212 222 M 212 226 C 212 227.778, 211.333 228, 206 228 C 200.667 228, 200 228.222, 200 230 C 200 231.333, 199.333 232, 198 232 C 196.222 232, 196 232.667, 196 238 L 196 244 202 244 C 207.333 244, 208 243.778, 208 242 C 208 240.667, 208.667 240, 210 240 C 211.333 240, 212 239.333, 212 238 C 212 236.333, 211.333 236, 208 236 C 204.667 236, 204 235.667, 204 234 C 204 232.222, 204.667 232, 210 232 C 215.333 232, 216 231.778, 216 230 C 216 228.667, 216.667 228, 218 228 C 219.333 228, 220 227.333, 220 226 C 220 224.333, 219.333 224, 216 224 C 212.667 224, 212 224.333, 212 226" stroke="none" fill="black" fill-rule="evenodd"/>
	<path fill-opacity="0.124" d="M 212 222 C 212 223.778, 211.333 224, 206 224 C 200.667 224, 200 224.222, 200 226 C 200 227.333, 199.333 228, 198 228 C 196.667 228, 196 228.667, 196 230 C 196 231.333, 195.333 232, 194 232 C 192.222 232, 192 232.667, 192 238 C 192 243.333, 192.222 244, 194 244 C 195.333 244, 196 244.667, 196 246 C 196 247.333, 196.667 248, 198 248 C 199.333 248, 200 248.667, 200 250 C 200 251.778, 200.667 252, 206 252 C 211.333 252, 212 251.778, 212 250 C 212 248.333, 212.667 248, 216 248 C 219.333 248, 220 247.667, 220 246 C 220 244.667, 220.667 244, 222 244 C 223.333 244, 224 243.333, 224 242 C 224 240.667, 224.667 240, 226 240 C 227.833 240, 228 239.333, 228 232 C 228 224.667, 227.833 224, 226 224 C 224.667 224, 224 223.333, 224 222 C 224 220.222, 223.333 220, 218 220 C 212.667 220, 212 220.222, 212 222 M 212 226 C 212 227.778, 211.333 228, 206 228 C 200.667 228, 200 228.222, 200 230 C 200 231.333, 199.333 232, 198 232 C 196.222 232, 196 232.667, 196 238 C 196 243.333, 196.222 244, 198 244 C 199.333 244, 200 244.667, 200 246 C 200 247.778, 200.667 248, 206 248 C 211.333 248, 212 247.778, 212 246 C 212 244.667, 211.333 244, 210 244 C 208.667 244, 208 243.333, 208 242 C 208 240.333, 208.667 240, 212 240 C 215.333 240, 216 240.333, 216 242 C 216 243.333, 216.667 244, 218 244 C 219.333 244, 220 243.333, 220 242 C 220 240.667, 219.333 240, 218 240 C 216.667 240, 216 239.333, 216 238 C 216 236.333, 216.667 236, 220 236 C 223.333 236, 224 235.667, 224 234 C 224 232.333, 223.333 232, 220 232 C 216.667 232, 216 231.667, 216 230 C 216 228.333, 216.667 228, 220 228 C 223.333 228, 224 227.667, 224 226 C 224 224.222, 223.333 224, 218 224 C 212.667 224, 212 224.222, 212 226 M 204 234 C 204 235.778, 204.667 236, 210 236 C 215.333 236, 216 235.778, 216 234 C 216 232.222, 215.333 232, 210 232 C 204.667 232, 204 232.222, 204 234" stroke="none" fill="black" fill-rule="evenodd"/>
</svg>