<svg xmlns="http://www.w3.org/2000/svg" width="400" height="400" viewBox="0 0 400 400" version="1.1">
	<path fill-opacity="0.561" d="M 228 218 C 228 219.867, 228.667 220, 238 220 C 247.333 220, 248 220.133, 248 222 C 248 223.667, 248.667 224, 252 224 C 255.333 224, 256 224.333, 256 226 C 256 227.333, 256.667 228, 258 228 C 259.667 228, 260 228.667, 260 232 C 260 235.333, 260.333 236, 262 236 C 263.667 236, 264 236.667, 264 240 C 264 243.333, 264.333 244, 266 244 C 267.833 244, 268 244.667, 268 252 C 268 259.333, 267.833 260, 266 260 C 264.222 260, 264 259.333, 264 254 C 264 248.667, 263.778 248, 262 248 C 260.333 248, 260 247.333, 260 244 C 260 240.667, 259.667 240, 258 240 C 256.667 240, 256 239.333, 256 238 C 256 236.667, 255.333 236, 254 236 C 252.667 236, 252 235.333, 252 234 C 252 232.667, 251.333 232, 250 232 C 248.667 232, 248 231.333, 248 230 C 248 228.333, 247.333 228, 244 228 C 240.667 228, 240 228.333, 240 230 C 240 231.333, 240.667 232, 242 232 C 243.333 232, 244 232.667, 244 234 C 244 235.667, 244.667 236, 248 236 C 251.333 236, 252 236.333, 252 238 C 252 239.333, 252.667 240, 254 240 C 255.778 240, 256 240.667, 256 246 C 256 251.333, 256.222 252, 258 252 C 259.867 252, 260 252.667, 260 262 C 260 271.333, 260.133 272, 262 272 C 263.778 272, 264 272.667, 264 278 C 264 283.333, 264.222 284, 266 284 C 267.333 284, 268 284.667, 268 286 C 268 287.333, 268.667 288, 270 288 C 271.333 288, 272 288.667, 272 290 C 272 291.867, 272.667 292, 282 292 C 291.333 292, 292 291.867, 292 290 C 292 288.667, 292.667 288, 294 288 C 295.333 288, 296 287.333, 296 286 C 296 284.667, 296.667 284, 298 284 C 299.778 284, 300 283.333, 300 278 C 300 272.667, 299.778 272, 298 272 C 296.667 272, 296 271.333, 296 270 C 296 268.667, 295.333 268, 294 268 C 292.667 268, 292 267.333, 292 266 C 292 264.222, 291.333 264, 286 264 C 280.667 264, 280 264.222, 280 266 C 280 267.333, 280.667 268, 282 268 C 283.333 268, 284 268.667, 284 270 C 284 271.333, 284.667 272, 286 272 C 287.667 272, 288 272.667, 288 276 L 288 280 282 280 L 276 280 276 274 C 276 268.667, 275.778 268, 274 268 C 272.111 268, 272 267.333, 272 256 C 272 244.667, 271.889 244, 270 244 C 268.222 244, 268 243.333, 268 238 C 268 232.667, 267.778 232, 266 232 C 264.667 232, 264 231.333, 264 230 C 264 228.667, 263.333 228, 262 228 C 260.667 228, 260 227.333, 260 226 C 260 224.667, 259.333 224, 258 224 C 256.667 224, 256 223.333, 256 222 C 256 220.333, 255.333 220, 252 220 C 248.667 220, 248 219.667, 248 218 C 248 216.133, 247.333 216, 238 216 C 228.667 216, 228 216.133, 228 218 M 288 270 C 288 271.333, 288.667 272, 290 272 C 291.667 272, 292 272.667, 292 276 C 292 279.333, 291.667 280, 290 280 C 288.667 280, 288 280.667, 288 282 C 288 283.333, 288.667 284, 290 284 C 291.333 284, 292 283.333, 292 282 C 292 280.667, 292.667 280, 294 280 C 295.667 280, 296 279.333, 296 276 C 296 272.667, 295.667 272, 294 272 C 292.667 272, 292 271.333, 292 270 C 292 268.667, 291.333 268, 290 268 C 288.667 268, 288 268.667, 288 270" stroke="none" fill="black" fill-rule="evenodd"/>
	<path fill-opacity="0.107" d="M 228 218 C 228 219.867, 228.667 220, 238 220 C 247.333 220, 248 220.133, 248 222 C 248 223.667, 248.667 224, 252 224 C 255.333 224, 256 224.333, 256 226 C 256 227.333, 256.667 228, 258 228 C 259.333 228, 260 228.667, 260 230 C 260 231.333, 260.667 232, 262 232 C 263.778 232, 264 232.667, 264 238 C 264 243.333, 264.222 244, 266 244 C 267.889 244, 268 244.667, 268 256 C 268 267.333, 268.111 268, 270 268 C 271.778 268, 272 268.667, 272 274 C 272 279.333, 272.222 280, 274 280 C 275.333 280, 276 280.667, 276 282 C 276 283.778, 276.667 284, 282 284 C 287.333 284, 288 283.778, 288 282 C 288 280.667, 288.667 280, 290 280 C 291.667 280, 292 279.333, 292 276 C 292 272.667, 292.333 272, 294 272 C 295.778 272, 296 272.667, 296 278 C 296 283.333, 295.778 284, 294 284 C 292.667 284, 292 284.667, 292 286 C 292 287.867, 291.333 288, 282 288 C 272.667 288, 272 287.867, 272 286 C 272 284.667, 271.333 284, 270 284 C 268.222 284, 268 283.333, 268 278 C 268 272.667, 267.778 272, 266 272 C 264.133 272, 264 271.333, 264 262 C 264 252.667, 263.867 252, 262 252 C 260.222 252, 260 251.333, 260 246 C 260 240.667, 259.778 240, 258 240 C 256.667 240, 256 239.333, 256 238 C 256 236.667, 255.333 236, 254 236 C 252.667 236, 252 235.333, 252 234 C 252 232.333, 251.333 232, 248 232 C 244.667 232, 244 231.667, 244 230 C 244 228.667, 243.333 228, 242 228 C 240.667 228, 240 228.667, 240 230 C 240 231.333, 240.667 232, 242 232 C 243.333 232, 244 232.667, 244 234 C 244 235.667, 244.667 236, 248 236 C 251.333 236, 252 236.333, 252 238 C 252 239.333, 252.667 240, 254 240 C 255.778 240, 256 240.667, 256 246 C 256 251.333, 256.222 252, 258 252 C 259.867 252, 260 252.667, 260 262 C 260 271.333, 260.133 272, 262 272 C 263.778 272, 264 272.667, 264 278 C 264 283.333, 264.222 284, 266 284 C 267.333 284, 268 284.667, 268 286 C 268 287.333, 268.667 288, 270 288 C 271.333 288, 272 288.667, 272 290 C 272 291.867, 272.667 292, 282 292 C 291.333 292, 292 291.867, 292 290 C 292 288.667, 292.667 288, 294 288 C 295.333 288, 296 287.333, 296 286 C 296 284.667, 296.667 284, 298 284 C 299.778 284, 300 283.333, 300 278 C 300 272.667, 299.778 272, 298 272 C 296.667 272, 296 271.333, 296 270 C 296 268.667, 295.333 268, 294 268 C 292.667 268, 292 267.333, 292 266 C 292 264.222, 291.333 264, 286 264 C 280.667 264, 280 264.222, 280 266 C 280 267.333, 280.667 268, 282 268 C 283.333 268, 284 268.667, 284 270 C 284 271.333, 284.667 272, 286 272 C 287.667 272, 288 272.667, 288 276 L 288 280 282 280 L 276 280 276 274 C 276 268.667, 275.778 268, 274 268 C 272.111 268, 272 267.333, 272 256 C 272 244.667, 271.889 244, 270 244 C 268.222 244, 268 243.333, 268 238 C 268 232.667, 267.778 232, 266 232 C 264.667 232, 264 231.333, 264 230 C 264 228.667, 263.333 228, 262 228 C 260.667 228, 260 227.333, 260 226 C 260 224.667, 259.333 224, 258 224 C 256.667 224, 256 223.333, 256 222 C 256 220.333, 255.333 220, 252 220 C 248.667 220, 248 219.667, 248 218 C 248 216.133, 247.333 216, 238 216 C 228.667 216, 228 216.133, 228 218 M 288 270 C 288 271.333, 288.667 272, 290 272 C 291.333 272, 292 271.333, 292 270 C 292 268.667, 291.333 268, 290 268 C 288.667 268, 288 268.667, 288 270" stroke="none" fill="black" fill-rule="evenodd"/>
</svg>