<svg xmlns="http://www.w3.org/2000/svg" width="400" height="400" viewBox="0 0 400 400" version="1.1">
	<path fill-opacity="0.561" d="M 248 198 C 248 199.667, 247.333 200, 244 200 C 240.667 200, 240 200.333, 240 202 C 240 203.333, 239.333 204, 238 204 C 236.667 204, 236 204.667, 236 206 C 236 207.333, 235.333 208, 234 208 C 232.667 208, 232 208.667, 232 210 C 232 211.333, 231.333 212, 230 212 C 228.333 212, 228 212.667, 228 216 C 228 219.333, 228.333 220, 230 220 C 231.667 220, 232 219.333, 232 216 C 232 212.667, 232.333 212, 234 212 C 235.333 212, 236 211.333, 236 210 C 236 208.667, 236.667 208, 238 208 C 239.333 208, 240 207.333, 240 206 C 240 204.333, 240.667 204, 244 204 C 247.333 204, 248 203.667, 248 202 C 248 200.167, 248.667 200, 256 200 C 263.333 200, 264 200.167, 264 202 C 264 203.667, 263.333 204, 260 204 C 256.667 204, 256 204.333, 256 206 C 256 207.833, 256.667 208, 264 208 C 271.333 208, 272 208.167, 272 210 C 272 211.333, 272.667 212, 274 212 C 275.667 212, 276 212.667, 276 216 C 276 219.333, 275.667 220, 274 220 C 272.667 220, 272 219.333, 272 218 C 272 216.667, 271.333 216, 270 216 C 268.667 216, 268 216.667, 268 218 C 268 219.333, 268.667 220, 270 220 C 271.667 220, 272 220.667, 272 224 C 272 227.333, 271.667 228, 270 228 C 268.667 228, 268 228.667, 268 230 C 268 231.333, 267.333 232, 266 232 C 264.667 232, 264 232.667, 264 234 C 264 235.778, 263.333 236, 258 236 C 252.667 236, 252 235.778, 252 234 C 252 232.667, 251.333 232, 250 232 C 248.667 232, 248 231.333, 248 230 C 248 228.333, 247.333 228, 244 228 C 240.667 228, 240 227.667, 240 226 C 240 224.667, 239.333 224, 238 224 C 236.667 224, 236 224.667, 236 226 C 236 227.333, 236.667 228, 238 228 C 239.333 228, 240 228.667, 240 230 C 240 231.333, 240.667 232, 242 232 C 243.833 232, 244 232.667, 244 240 C 244 247.333, 244.167 248, 246 248 C 247.667 248, 248 248.667, 248 252 C 248 255.333, 248.333 256, 250 256 C 251.333 256, 252 256.667, 252 258 C 252 259.333, 252.667 260, 254 260 C 255.333 260, 256 260.667, 256 262 C 256 263.333, 256.667 264, 258 264 C 259.667 264, 260 263.333, 260 260 C 260 256.667, 260.333 256, 262 256 C 263.333 256, 264 256.667, 264 258 C 264 259.833, 264.667 260, 272 260 C 279.333 260, 280 259.833, 280 258 C 280 256.667, 280.667 256, 282 256 C 283.333 256, 284 255.333, 284 254 C 284 252.667, 284.667 252, 286 252 C 287.333 252, 288 251.333, 288 250 C 288 248.667, 288.667 248, 290 248 C 291.333 248, 292 247.333, 292 246 C 292 244.222, 291.333 244, 286 244 C 280.667 244, 280 243.778, 280 242 C 280 240.667, 279.333 240, 278 240 C 276.222 240, 276 239.333, 276 234 C 276 228.667, 276.222 228, 278 228 C 279.333 228, 280 228.667, 280 230 C 280 231.333, 280.667 232, 282 232 C 283.833 232, 284 231.333, 284 224 C 284 216.667, 283.833 216, 282 216 C 280.667 216, 280 215.333, 280 214 C 280 212.667, 279.333 212, 278 212 C 276.667 212, 276 211.333, 276 210 C 276 208.667, 275.333 208, 274 208 C 272.667 208, 272 207.333, 272 206 C 272 204.667, 271.333 204, 270 204 C 268.667 204, 268 203.333, 268 202 C 268 200.667, 268.667 200, 270 200 C 271.333 200, 272 199.333, 272 198 C 272 196.111, 271.333 196, 260 196 C 248.667 196, 248 196.111, 248 198" stroke="none" fill="black" fill-rule="evenodd"/>
	<path fill-opacity="0.107" d="M 248 198 C 248 199.667, 247.333 200, 244 200 C 240.667 200, 240 200.333, 240 202 C 240 203.333, 239.333 204, 238 204 C 236.667 204, 236 204.667, 236 206 C 236 207.333, 235.333 208, 234 208 C 232.667 208, 232 208.667, 232 210 C 232 211.333, 231.333 212, 230 212 C 228.333 212, 228 212.667, 228 216 C 228 219.333, 228.333 220, 230 220 C 231.667 220, 232 219.333, 232 216 C 232 212.667, 232.333 212, 234 212 C 235.333 212, 236 211.333, 236 210 C 236 208.667, 236.667 208, 238 208 C 239.333 208, 240 207.333, 240 206 C 240 204.333, 240.667 204, 244 204 C 247.333 204, 248 203.667, 248 202 C 248 200.167, 248.667 200, 256 200 C 263.333 200, 264 200.167, 264 202 C 264 203.333, 263.333 204, 262 204 C 260.667 204, 260 204.667, 260 206 C 260 207.778, 260.667 208, 266 208 C 271.333 208, 272 208.222, 272 210 C 272 211.333, 272.667 212, 274 212 C 275.333 212, 276 212.667, 276 214 C 276 215.333, 276.667 216, 278 216 C 279.667 216, 280 216.667, 280 220 C 280 223.333, 279.667 224, 278 224 C 276.667 224, 276 223.333, 276 222 C 276 220.667, 275.333 220, 274 220 C 272.133 220, 272 220.667, 272 230 C 272 239.333, 272.133 240, 274 240 C 275.333 240, 276 240.667, 276 242 C 276 243.333, 276.667 244, 278 244 C 279.333 244, 280 244.667, 280 246 C 280 247.333, 280.667 248, 282 248 C 283.333 248, 284 248.667, 284 250 C 284 251.333, 283.333 252, 282 252 C 280.667 252, 280 252.667, 280 254 C 280 255.833, 279.333 256, 272 256 C 264.667 256, 264 255.833, 264 254 C 264 252.667, 263.333 252, 262 252 C 260.333 252, 260 251.333, 260 248 C 260 244.667, 259.667 244, 258 244 C 256.222 244, 256 244.667, 256 250 C 256 255.333, 255.778 256, 254 256 C 252.333 256, 252 255.333, 252 252 C 252 248.667, 251.667 248, 250 248 C 248.167 248, 248 247.333, 248 240 C 248 232.667, 247.833 232, 246 232 C 244.667 232, 244 231.333, 244 230 C 244 228.667, 243.333 228, 242 228 C 240.667 228, 240 228.667, 240 230 C 240 231.333, 240.667 232, 242 232 C 243.833 232, 244 232.667, 244 240 C 244 247.333, 244.167 248, 246 248 C 247.667 248, 248 248.667, 248 252 C 248 255.333, 248.333 256, 250 256 C 251.333 256, 252 256.667, 252 258 C 252 259.333, 252.667 260, 254 260 C 255.333 260, 256 260.667, 256 262 C 256 263.333, 256.667 264, 258 264 C 259.667 264, 260 263.333, 260 260 C 260 256.667, 260.333 256, 262 256 C 263.333 256, 264 256.667, 264 258 C 264 259.833, 264.667 260, 272 260 C 279.333 260, 280 259.833, 280 258 C 280 256.667, 280.667 256, 282 256 C 283.333 256, 284 255.333, 284 254 C 284 252.667, 284.667 252, 286 252 C 287.333 252, 288 251.333, 288 250 C 288 248.667, 288.667 248, 290 248 C 291.333 248, 292 247.333, 292 246 C 292 244.222, 291.333 244, 286 244 C 280.667 244, 280 243.778, 280 242 C 280 240.667, 279.333 240, 278 240 C 276.222 240, 276 239.333, 276 234 C 276 228.667, 276.222 228, 278 228 C 279.333 228, 280 228.667, 280 230 C 280 231.333, 280.667 232, 282 232 C 283.833 232, 284 231.333, 284 224 C 284 216.667, 283.833 216, 282 216 C 280.667 216, 280 215.333, 280 214 C 280 212.667, 279.333 212, 278 212 C 276.667 212, 276 211.333, 276 210 C 276 208.667, 275.333 208, 274 208 C 272.667 208, 272 207.333, 272 206 C 272 204.667, 271.333 204, 270 204 C 268.667 204, 268 203.333, 268 202 C 268 200.667, 268.667 200, 270 200 C 271.333 200, 272 199.333, 272 198 C 272 196.111, 271.333 196, 260 196 C 248.667 196, 248 196.111, 248 198" stroke="none" fill="black" fill-rule="evenodd"/>
</svg>