<svg xmlns="http://www.w3.org/2000/svg" width="400" height="400" viewBox="0 0 400 400" version="1.1">
	<path fill-opacity="0.561" d="M 228 218 C 228 219.778, 228.667 220, 234 220 C 239.333 220, 240 220.222, 240 222 C 240 223.667, 240.667 224, 244 224 C 247.333 224, 248 224.333, 248 226 C 248 227.333, 247.333 228, 246 228 C 244.667 228, 244 228.667, 244 230 C 244 231.333, 243.333 232, 242 232 C 240.333 232, 240 232.667, 240 236 L 240 240 244 240 C 247.333 240, 248 239.667, 248 238 C 248 236.667, 248.667 236, 250 236 C 251.778 236, 252 235.333, 252 230 C 252 224.667, 251.778 224, 250 224 C 248.667 224, 248 223.333, 248 222 C 248 220.333, 247.333 220, 244 220 C 240.667 220, 240 219.667, 240 218 C 240 216.222, 239.333 216, 234 216 C 228.667 216, 228 216.222, 228 218" stroke="none" fill="black" fill-rule="evenodd"/>
	<path fill-opacity="0.107" d="M 228 218 C 228 219.778, 228.667 220, 234 220 C 239.333 220, 240 220.222, 240 222 C 240 223.667, 240.667 224, 244 224 L 248 224 248 230 L 248 236 244 236 C 240.667 236, 240 236.333, 240 238 C 240 239.667, 240.667 240, 244 240 C 247.333 240, 248 239.667, 248 238 C 248 236.667, 248.667 236, 250 236 C 251.778 236, 252 235.333, 252 230 C 252 224.667, 251.778 224, 250 224 C 248.667 224, 248 223.333, 248 222 C 248 220.333, 247.333 220, 244 220 C 240.667 220, 240 219.667, 240 218 C 240 216.222, 239.333 216, 234 216 C 228.667 216, 228 216.222, 228 218" stroke="none" fill="black" fill-rule="evenodd"/>
</svg>