<svg xmlns="http://www.w3.org/2000/svg" width="400" height="400" viewBox="0 0 400 400" version="1.1">
	<path fill-opacity="0.200" d="M 248 198 C 248 199.667, 247.333 200, 244 200 C 240.667 200, 240 200.333, 240 202 C 240 203.333, 239.333 204, 238 204 C 236.667 204, 236 204.667, 236 206 C 236 207.333, 235.333 208, 234 208 C 232.667 208, 232 208.667, 232 210 C 232 211.333, 231.333 212, 230 212 C 228.333 212, 228 212.667, 228 216 C 228 219.333, 228.333 220, 230 220 C 231.667 220, 232 219.333, 232 216 C 232 212.667, 232.333 212, 234 212 C 235.333 212, 236 211.333, 236 210 C 236 208.667, 236.667 208, 238 208 C 239.333 208, 240 207.333, 240 206 C 240 204.333, 240.667 204, 244 204 C 247.333 204, 248 203.667, 248 202 C 248 200.133, 248.667 200, 258 200 C 267.333 200, 268 200.133, 268 202 C 268 203.667, 267.333 204, 264 204 C 260.667 204, 260 204.333, 260 206 C 260 207.778, 259.333 208, 254 208 C 248.667 208, 248 208.222, 248 210 C 248 211.867, 248.667 212, 258 212 C 267.333 212, 268 212.133, 268 214 C 268 215.333, 268.667 216, 270 216 C 271.833 216, 272 216.667, 272 224 C 272 231.333, 271.833 232, 270 232 C 268.333 232, 268 232.667, 268 236 C 268 239.333, 267.667 240, 266 240 C 264.333 240, 264 240.667, 264 244 C 264 247.333, 263.667 248, 262 248 C 260.667 248, 260 248.667, 260 250 C 260 251.333, 259.333 252, 258 252 C 256.667 252, 256 252.667, 256 254 C 256 255.778, 255.333 256, 250 256 C 244.667 256, 244 255.778, 244 254 C 244 252.667, 243.333 252, 242 252 C 240.667 252, 240 251.333, 240 250 C 240 248.667, 239.333 248, 238 248 C 236.333 248, 236 248.667, 236 252 C 236 255.333, 236.333 256, 238 256 C 239.333 256, 240 256.667, 240 258 C 240 259.333, 240.667 260, 242 260 C 243.778 260, 244 260.667, 244 266 C 244 271.333, 244.222 272, 246 272 C 247.778 272, 248 272.667, 248 278 C 248 283.333, 248.222 284, 250 284 C 251.333 284, 252 284.667, 252 286 C 252 287.333, 252.667 288, 254 288 C 255.333 288, 256 288.667, 256 290 C 256 291.867, 256.667 292, 266 292 C 275.333 292, 276 291.867, 276 290 C 276 288.667, 276.667 288, 278 288 C 279.333 288, 280 287.333, 280 286 C 280 284.667, 280.667 284, 282 284 C 283.333 284, 284 283.333, 284 282 C 284 280.667, 284.667 280, 286 280 C 287.833 280, 288 279.333, 288 272 C 288 264.667, 287.833 264, 286 264 C 284.667 264, 284 264.667, 284 266 C 284 267.333, 283.333 268, 282 268 C 280.667 268, 280 268.667, 280 270 C 280 271.667, 279.333 272, 276 272 C 272.667 272, 272 271.667, 272 270 C 272 268.667, 271.333 268, 270 268 C 268.222 268, 268 267.333, 268 262 C 268 256.667, 268.222 256, 270 256 C 271.667 256, 272 255.333, 272 252 C 272 248.667, 272.333 248, 274 248 C 275.778 248, 276 247.333, 276 242 C 276 236.667, 276.222 236, 278 236 C 279.833 236, 280 235.333, 280 228 C 280 220.667, 279.833 220, 278 220 C 276.667 220, 276 219.333, 276 218 C 276 216.667, 275.333 216, 274 216 C 272.667 216, 272 215.333, 272 214 C 272 212.222, 272.667 212, 278 212 C 283.333 212, 284 211.778, 284 210 C 284 208.667, 283.333 208, 282 208 C 280.667 208, 280 207.333, 280 206 C 280 204.667, 279.333 204, 278 204 C 276.667 204, 276 203.333, 276 202 C 276 200.333, 275.333 200, 272 200 C 268.667 200, 268 199.667, 268 198 C 268 196.133, 267.333 196, 258 196 C 248.667 196, 248 196.133, 248 198" stroke="none" fill="black" fill-rule="evenodd"/>
	<path fill-opacity="0.510" d="M 248 198 C 248 199.667, 247.333 200, 244 200 C 240.667 200, 240 200.333, 240 202 C 240 203.333, 239.333 204, 238 204 C 236.667 204, 236 204.667, 236 206 C 236 207.333, 235.333 208, 234 208 C 232.667 208, 232 208.667, 232 210 C 232 211.333, 231.333 212, 230 212 C 228.333 212, 228 212.667, 228 216 C 228 219.333, 228.333 220, 230 220 C 231.667 220, 232 219.333, 232 216 C 232 212.667, 232.333 212, 234 212 C 235.333 212, 236 211.333, 236 210 C 236 208.667, 236.667 208, 238 208 C 239.333 208, 240 207.333, 240 206 C 240 204.333, 240.667 204, 244 204 C 247.333 204, 248 203.667, 248 202 C 248 200.133, 248.667 200, 258 200 C 267.333 200, 268 200.133, 268 202 C 268 203.667, 268.667 204, 272 204 C 275.333 204, 276 204.333, 276 206 C 276 207.778, 275.333 208, 270 208 C 264.667 208, 264 208.222, 264 210 C 264 211.333, 264.667 212, 266 212 C 267.333 212, 268 212.667, 268 214 C 268 215.333, 268.667 216, 270 216 C 271.333 216, 272 216.667, 272 218 C 272 219.333, 272.667 220, 274 220 C 275.833 220, 276 220.667, 276 228 C 276 235.333, 275.833 236, 274 236 C 272.222 236, 272 236.667, 272 242 C 272 247.333, 271.778 248, 270 248 C 268.333 248, 268 248.667, 268 252 C 268 255.333, 267.667 256, 266 256 C 264.222 256, 264 256.667, 264 262 C 264 267.333, 264.222 268, 266 268 C 267.333 268, 268 268.667, 268 270 C 268 271.333, 268.667 272, 270 272 C 271.333 272, 272 272.667, 272 274 C 272 275.667, 272.667 276, 276 276 C 279.333 276, 280 275.667, 280 274 C 280 272.667, 280.667 272, 282 272 C 283.667 272, 284 272.667, 284 276 C 284 279.333, 283.667 280, 282 280 C 280.667 280, 280 280.667, 280 282 C 280 283.333, 279.333 284, 278 284 C 276.667 284, 276 284.667, 276 286 C 276 287.867, 275.333 288, 266 288 C 256.667 288, 256 287.867, 256 286 C 256 284.667, 255.333 284, 254 284 C 252.667 284, 252 283.333, 252 282 C 252 280.667, 251.333 280, 250 280 C 248.667 280, 248 280.667, 248 282 C 248 283.333, 248.667 284, 250 284 C 251.333 284, 252 284.667, 252 286 C 252 287.333, 252.667 288, 254 288 C 255.333 288, 256 288.667, 256 290 C 256 291.867, 256.667 292, 266 292 C 275.333 292, 276 291.867, 276 290 C 276 288.667, 276.667 288, 278 288 C 279.333 288, 280 287.333, 280 286 C 280 284.667, 280.667 284, 282 284 C 283.333 284, 284 283.333, 284 282 C 284 280.667, 284.667 280, 286 280 C 287.833 280, 288 279.333, 288 272 C 288 264.667, 287.833 264, 286 264 C 284.667 264, 284 264.667, 284 266 C 284 267.333, 283.333 268, 282 268 C 280.667 268, 280 268.667, 280 270 C 280 271.667, 279.333 272, 276 272 C 272.667 272, 272 271.667, 272 270 C 272 268.667, 271.333 268, 270 268 C 268.222 268, 268 267.333, 268 262 C 268 256.667, 268.222 256, 270 256 C 271.667 256, 272 255.333, 272 252 C 272 248.667, 272.333 248, 274 248 C 275.778 248, 276 247.333, 276 242 C 276 236.667, 276.222 236, 278 236 C 279.833 236, 280 235.333, 280 228 C 280 220.667, 279.833 220, 278 220 C 276.667 220, 276 219.333, 276 218 C 276 216.667, 275.333 216, 274 216 C 272.667 216, 272 215.333, 272 214 C 272 212.222, 272.667 212, 278 212 C 283.333 212, 284 211.778, 284 210 C 284 208.667, 283.333 208, 282 208 C 280.667 208, 280 207.333, 280 206 C 280 204.667, 279.333 204, 278 204 C 276.667 204, 276 203.333, 276 202 C 276 200.333, 275.333 200, 272 200 C 268.667 200, 268 199.667, 268 198 C 268 196.133, 267.333 196, 258 196 C 248.667 196, 248 196.133, 248 198" stroke="none" fill="black" fill-rule="evenodd"/>
</svg>