<svg xmlns="http://www.w3.org/2000/svg" width="400" height="400" viewBox="0 0 400 400" version="1.1">
	<path fill-opacity="0.200" d="M 228 218 C 228 219.667, 228.667 220, 232 220 C 235.333 220, 236 220.333, 236 222 C 236 223.333, 236.667 224, 238 224 C 239.333 224, 240 224.667, 240 226 C 240 227.333, 240.667 228, 242 228 C 243.667 228, 244 228.667, 244 232 C 244 235.333, 244.333 236, 246 236 C 247.778 236, 248 236.667, 248 242 C 248 247.333, 248.222 248, 250 248 C 251.667 248, 252 248.667, 252 252 C 252 255.333, 251.667 256, 250 256 C 248.667 256, 248 255.333, 248 254 C 248 252.667, 247.333 252, 246 252 C 244.333 252, 244 251.333, 244 248 C 244 244.667, 243.667 244, 242 244 C 240.667 244, 240 244.667, 240 246 C 240 247.333, 239.333 248, 238 248 C 236.333 248, 236 248.667, 236 252 C 236 255.333, 236.333 256, 238 256 C 239.333 256, 240 256.667, 240 258 C 240 259.333, 240.667 260, 242 260 C 243.667 260, 244 260.667, 244 264 C 244 267.333, 244.333 268, 246 268 C 247.333 268, 248 268.667, 248 270 C 248 271.333, 248.667 272, 250 272 C 251.333 272, 252 272.667, 252 274 C 252 275.333, 252.667 276, 254 276 C 255.333 276, 256 276.667, 256 278 C 256 279.333, 256.667 280, 258 280 C 259.333 280, 260 280.667, 260 282 C 260 283.667, 260.667 284, 264 284 C 267.333 284, 268 284.333, 268 286 C 268 287.778, 268.667 288, 274 288 C 279.333 288, 280 288.222, 280 290 C 280 291.333, 280.667 292, 282 292 C 283.333 292, 284 292.667, 284 294 C 284 295.333, 284.667 296, 286 296 C 287.333 296, 288 296.667, 288 298 C 288 299.333, 288.667 300, 290 300 C 291.333 300, 292 300.667, 292 302 C 292 303.667, 292.667 304, 296 304 C 299.333 304, 300 304.333, 300 306 C 300 307.889, 300.667 308, 312 308 C 323.333 308, 324 307.889, 324 306 C 324 304.667, 323.333 304, 322 304 C 320.667 304, 320 303.333, 320 302 C 320 300.167, 320.667 300, 328 300 C 335.333 300, 336 299.833, 336 298 C 336 296.667, 336.667 296, 338 296 C 339.333 296, 340 295.333, 340 294 C 340 292.667, 340.667 292, 342 292 C 343.333 292, 344 291.333, 344 290 C 344 288.222, 343.333 288, 338 288 L 332 288 332 284 C 332 280.667, 331.667 280, 330 280 C 328.667 280, 328 279.333, 328 278 C 328 276.667, 327.333 276, 326 276 C 324.667 276, 324 275.333, 324 274 C 324 272.333, 323.333 272, 320 272 C 316.667 272, 316 271.667, 316 270 C 316 268.667, 316.667 268, 318 268 C 319.333 268, 320 267.333, 320 266 C 320 264.667, 320.667 264, 322 264 C 323.333 264, 324 263.333, 324 262 C 324 260.133, 323.333 260, 314 260 C 304.667 260, 304 260.133, 304 262 C 304 263.667, 303.333 264, 300 264 C 296.667 264, 296 264.333, 296 266 C 296 267.667, 295.333 268, 292 268 C 288.667 268, 288 268.333, 288 270 C 288 271.333, 287.333 272, 286 272 C 284.667 272, 284 272.667, 284 274 C 284 275.333, 283.333 276, 282 276 C 280.667 276, 280 275.333, 280 274 C 280 272.222, 279.333 272, 274 272 C 268.667 272, 268 271.778, 268 270 C 268 268.667, 267.333 268, 266 268 C 264.222 268, 264 267.333, 264 262 L 264 256 260 256 L 256 256 256 252 C 256 248.667, 255.667 248, 254 248 C 252.667 248, 252 247.333, 252 246 C 252 244.667, 252.667 244, 254 244 C 255.667 244, 256 243.333, 256 240 L 256 236 252 236 L 248 236 248 232 C 248 228.667, 247.667 228, 246 228 C 244.333 228, 244 227.333, 244 224 L 244 220 240 220 C 236.667 220, 236 219.667, 236 218 C 236 216.333, 235.333 216, 232 216 C 228.667 216, 228 216.333, 228 218 M 252 258 C 252 259.333, 252.667 260, 254 260 C 255.333 260, 256 259.333, 256 258 C 256 256.667, 255.333 256, 254 256 C 252.667 256, 252 256.667, 252 258" stroke="none" fill="black" fill-rule="evenodd"/>
	<path fill-opacity="0.363" d="M 228 218 C 228 219.667, 228.667 220, 232 220 C 235.333 220, 236 220.333, 236 222 C 236 223.333, 236.667 224, 238 224 C 239.333 224, 240 224.667, 240 226 C 240 227.333, 240.667 228, 242 228 C 243.667 228, 244 228.667, 244 232 C 244 235.333, 244.333 236, 246 236 C 247.778 236, 248 236.667, 248 242 C 248 247.333, 248.222 248, 250 248 C 251.667 248, 252 248.667, 252 252 C 252 255.333, 252.333 256, 254 256 C 255.667 256, 256 256.667, 256 260 C 256 263.333, 256.333 264, 258 264 C 259.333 264, 260 264.667, 260 266 C 260 267.333, 260.667 268, 262 268 C 263.333 268, 264 268.667, 264 270 C 264 271.333, 264.667 272, 266 272 C 267.333 272, 268 272.667, 268 274 C 268 275.667, 268.667 276, 272 276 C 275.333 276, 276 276.333, 276 278 C 276 279.778, 276.667 280, 282 280 C 287.333 280, 288 280.222, 288 282 C 288 283.867, 287.333 284, 278 284 C 268.667 284, 268 283.867, 268 282 C 268 280.333, 267.333 280, 264 280 C 260.667 280, 260 279.667, 260 278 C 260 276.667, 259.333 276, 258 276 C 256.667 276, 256 275.333, 256 274 C 256 272.667, 255.333 272, 254 272 C 252.667 272, 252 271.333, 252 270 C 252 268.667, 251.333 268, 250 268 C 248.667 268, 248 267.333, 248 266 C 248 264.667, 247.333 264, 246 264 C 244.667 264, 244 264.667, 244 266 C 244 267.333, 244.667 268, 246 268 C 247.333 268, 248 268.667, 248 270 C 248 271.333, 248.667 272, 250 272 C 251.333 272, 252 272.667, 252 274 C 252 275.333, 252.667 276, 254 276 C 255.333 276, 256 276.667, 256 278 C 256 279.333, 256.667 280, 258 280 C 259.333 280, 260 280.667, 260 282 C 260 283.667, 260.667 284, 264 284 C 267.333 284, 268 284.333, 268 286 C 268 287.778, 268.667 288, 274 288 C 279.333 288, 280 288.222, 280 290 C 280 291.333, 280.667 292, 282 292 C 283.333 292, 284 292.667, 284 294 C 284 295.333, 284.667 296, 286 296 C 287.333 296, 288 296.667, 288 298 C 288 299.333, 288.667 300, 290 300 C 291.333 300, 292 300.667, 292 302 C 292 303.667, 292.667 304, 296 304 C 299.333 304, 300 304.333, 300 306 C 300 307.889, 300.667 308, 312 308 C 323.333 308, 324 307.889, 324 306 C 324 304.667, 323.333 304, 322 304 C 320.667 304, 320 303.333, 320 302 C 320 300.167, 320.667 300, 328 300 C 335.333 300, 336 299.833, 336 298 C 336 296.667, 336.667 296, 338 296 C 339.333 296, 340 295.333, 340 294 C 340 292.667, 340.667 292, 342 292 C 343.333 292, 344 291.333, 344 290 C 344 288.222, 343.333 288, 338 288 L 332 288 332 284 C 332 280.667, 331.667 280, 330 280 C 328.667 280, 328 279.333, 328 278 C 328 276.667, 327.333 276, 326 276 C 324.667 276, 324 275.333, 324 274 C 324 272.333, 323.333 272, 320 272 C 316.667 272, 316 271.667, 316 270 C 316 268.667, 316.667 268, 318 268 C 319.333 268, 320 267.333, 320 266 C 320 264.667, 320.667 264, 322 264 C 323.333 264, 324 263.333, 324 262 C 324 260.133, 323.333 260, 314 260 C 304.667 260, 304 260.133, 304 262 C 304 263.667, 303.333 264, 300 264 C 296.667 264, 296 264.333, 296 266 C 296 267.667, 295.333 268, 292 268 C 288.667 268, 288 268.333, 288 270 C 288 271.333, 287.333 272, 286 272 C 284.667 272, 284 272.667, 284 274 C 284 275.333, 283.333 276, 282 276 C 280.667 276, 280 275.333, 280 274 C 280 272.222, 279.333 272, 274 272 C 268.667 272, 268 271.778, 268 270 C 268 268.667, 267.333 268, 266 268 C 264.222 268, 264 267.333, 264 262 L 264 256 260 256 L 256 256 256 252 C 256 248.667, 255.667 248, 254 248 C 252.667 248, 252 247.333, 252 246 C 252 244.667, 252.667 244, 254 244 C 255.667 244, 256 243.333, 256 240 L 256 236 252 236 L 248 236 248 232 C 248 228.667, 247.667 228, 246 228 C 244.333 228, 244 227.333, 244 224 L 244 220 240 220 C 236.667 220, 236 219.667, 236 218 C 236 216.333, 235.333 216, 232 216 C 228.667 216, 228 216.333, 228 218 M 236 254 C 236 255.333, 236.667 256, 238 256 C 239.333 256, 240 255.333, 240 254 C 240 252.667, 239.333 252, 238 252 C 236.667 252, 236 252.667, 236 254" stroke="none" fill="black" fill-rule="evenodd"/>
	<path fill-opacity="0.053" d="M 228 218 C 228 219.667, 228.667 220, 232 220 C 235.333 220, 236 220.333, 236 222 C 236 223.333, 236.667 224, 238 224 C 239.333 224, 240 224.667, 240 226 C 240 227.333, 240.667 228, 242 228 C 243.667 228, 244 228.667, 244 232 C 244 235.333, 244.333 236, 246 236 C 247.778 236, 248 236.667, 248 242 C 248 247.333, 248.222 248, 250 248 C 251.667 248, 252 248.667, 252 252 C 252 255.333, 252.333 256, 254 256 C 255.667 256, 256 256.667, 256 260 C 256 263.333, 256.333 264, 258 264 C 259.333 264, 260 264.667, 260 266 C 260 267.333, 260.667 268, 262 268 C 263.333 268, 264 268.667, 264 270 C 264 271.333, 264.667 272, 266 272 C 267.333 272, 268 272.667, 268 274 C 268 275.667, 268.667 276, 272 276 C 275.333 276, 276 276.333, 276 278 C 276 279.778, 276.667 280, 282 280 C 287.333 280, 288 280.222, 288 282 C 288 283.867, 287.333 284, 278 284 C 268.667 284, 268 283.867, 268 282 C 268 280.333, 267.333 280, 264 280 C 260.667 280, 260 279.667, 260 278 C 260 276.667, 259.333 276, 258 276 C 256.667 276, 256 275.333, 256 274 C 256 272.667, 255.333 272, 254 272 C 252.667 272, 252 271.333, 252 270 C 252 268.667, 251.333 268, 250 268 C 248.667 268, 248 267.333, 248 266 C 248 264.667, 247.333 264, 246 264 C 244.667 264, 244 264.667, 244 266 C 244 267.333, 244.667 268, 246 268 C 247.333 268, 248 268.667, 248 270 C 248 271.333, 248.667 272, 250 272 C 251.333 272, 252 272.667, 252 274 C 252 275.333, 252.667 276, 254 276 C 255.333 276, 256 276.667, 256 278 C 256 279.333, 256.667 280, 258 280 C 259.333 280, 260 280.667, 260 282 C 260 283.667, 260.667 284, 264 284 C 267.333 284, 268 284.333, 268 286 C 268 287.778, 268.667 288, 274 288 C 279.333 288, 280 288.222, 280 290 C 280 291.333, 280.667 292, 282 292 C 283.333 292, 284 292.667, 284 294 C 284 295.333, 284.667 296, 286 296 C 287.333 296, 288 296.667, 288 298 C 288 299.333, 288.667 300, 290 300 C 291.333 300, 292 300.667, 292 302 C 292 303.667, 292.667 304, 296 304 C 299.333 304, 300 304.333, 300 306 C 300 307.889, 300.667 308, 312 308 C 323.333 308, 324 307.889, 324 306 C 324 304.667, 323.333 304, 322 304 C 320.667 304, 320 303.333, 320 302 C 320 300.167, 320.667 300, 328 300 C 335.333 300, 336 299.833, 336 298 C 336 296.667, 336.667 296, 338 296 C 339.333 296, 340 295.333, 340 294 C 340 292.667, 340.667 292, 342 292 C 343.333 292, 344 291.333, 344 290 C 344 288.222, 343.333 288, 338 288 L 332 288 332 284 C 332 280.667, 331.667 280, 330 280 C 328.667 280, 328 279.333, 328 278 C 328 276.667, 327.333 276, 326 276 C 324.667 276, 324 275.333, 324 274 C 324 272.333, 323.333 272, 320 272 C 316.667 272, 316 271.667, 316 270 C 316 268.667, 316.667 268, 318 268 C 319.333 268, 320 267.333, 320 266 C 320 264.667, 320.667 264, 322 264 C 323.333 264, 324 263.333, 324 262 C 324 260.133, 323.333 260, 314 260 C 304.667 260, 304 260.133, 304 262 C 304 263.667, 303.333 264, 300 264 C 296.667 264, 296 264.333, 296 266 C 296 267.667, 295.333 268, 292 268 C 288.667 268, 288 268.333, 288 270 C 288 271.333, 287.333 272, 286 272 C 284.667 272, 284 272.667, 284 274 C 284 275.333, 283.333 276, 282 276 C 280.667 276, 280 275.333, 280 274 C 280 272.222, 279.333 272, 274 272 C 268.667 272, 268 271.778, 268 270 C 268 268.667, 267.333 268, 266 268 C 264.222 268, 264 267.333, 264 262 L 264 256 260 256 L 256 256 256 252 C 256 248.667, 255.667 248, 254 248 C 252.667 248, 252 247.333, 252 246 C 252 244.667, 252.667 244, 254 244 C 255.667 244, 256 243.333, 256 240 L 256 236 252 236 L 248 236 248 232 C 248 228.667, 247.667 228, 246 228 C 244.333 228, 244 227.333, 244 224 L 244 220 240 220 C 236.667 220, 236 219.667, 236 218 C 236 216.333, 235.333 216, 232 216 C 228.667 216, 228 216.333, 228 218 M 236 254 C 236 255.333, 236.667 256, 238 256 C 239.333 256, 240 255.333, 240 254 C 240 252.667, 239.333 252, 238 252 C 236.667 252, 236 252.667, 236 254 M 304 266 C 304 267.667, 303.333 268, 300 268 C 296.667 268, 296 268.333, 296 270 C 296 271.667, 295.333 272, 292 272 C 288.667 272, 288 272.333, 288 274 C 288 275.667, 288.667 276, 292 276 C 295.333 276, 296 276.333, 296 278 C 296 279.333, 296.667 280, 298 280 C 299.333 280, 300 280.667, 300 282 C 300 283.667, 300.667 284, 304 284 C 307.333 284, 308 284.333, 308 286 C 308 287.778, 308.667 288, 314 288 C 319.333 288, 320 287.778, 320 286 C 320 284.667, 320.667 284, 322 284 C 323.667 284, 324 283.333, 324 280 L 324 276 320 276 C 316.667 276, 316 275.667, 316 274 C 316 272.222, 315.333 272, 310 272 C 304.667 272, 304 271.778, 304 270 C 304 268.667, 304.667 268, 306 268 C 307.333 268, 308 267.333, 308 266 C 308 264.667, 307.333 264, 306 264 C 304.667 264, 304 264.667, 304 266 M 296 274 C 296 275.667, 296.667 276, 300 276 C 303.333 276, 304 275.667, 304 274 C 304 272.333, 303.333 272, 300 272 C 296.667 272, 296 272.333, 296 274 M 296 292 L 296 296 302 296 C 307.333 296, 308 295.778, 308 294 C 308 292.667, 307.333 292, 306 292 C 304.667 292, 304 291.333, 304 290 C 304 288.333, 303.333 288, 300 288 L 296 288 296 292" stroke="none" fill="black" fill-rule="evenodd"/>
	<path fill-opacity="0.529" d="M 304 262 C 304 263.667, 303.333 264, 300 264 C 296.667 264, 296 264.333, 296 266 C 296 267.667, 295.333 268, 292 268 C 288.667 268, 288 268.333, 288 270 C 288 271.333, 287.333 272, 286 272 C 284.667 272, 284 272.667, 284 274 C 284 275.333, 284.667 276, 286 276 C 287.333 276, 288 275.333, 288 274 C 288 272.333, 288.667 272, 292 272 C 295.333 272, 296 271.667, 296 270 C 296 268.333, 296.667 268, 300 268 C 303.333 268, 304 267.667, 304 266 C 304 264.222, 304.667 264, 310 264 C 315.333 264, 316 264.222, 316 266 C 316 267.333, 315.333 268, 314 268 C 312.667 268, 312 268.667, 312 270 C 312 271.333, 312.667 272, 314 272 C 315.333 272, 316 272.667, 316 274 C 316 275.667, 316.667 276, 320 276 C 323.333 276, 324 276.333, 324 278 C 324 279.333, 324.667 280, 326 280 C 327.667 280, 328 280.667, 328 284 C 328 287.333, 328.333 288, 330 288 C 331.333 288, 332 288.667, 332 290 C 332 291.333, 332.667 292, 334 292 C 335.333 292, 336 292.667, 336 294 C 336 295.889, 335.333 296, 324 296 C 312.667 296, 312 296.111, 312 298 C 312 299.333, 312.667 300, 314 300 C 315.333 300, 316 300.667, 316 302 C 316 303.833, 315.333 304, 308 304 C 300.667 304, 300 303.833, 300 302 C 300 300.333, 299.333 300, 296 300 C 292.667 300, 292 299.667, 292 298 C 292 296.667, 291.333 296, 290 296 C 288.667 296, 288 295.333, 288 294 C 288 292.667, 287.333 292, 286 292 C 284.667 292, 284 291.333, 284 290 C 284 288.667, 283.333 288, 282 288 C 280.667 288, 280 288.667, 280 290 C 280 291.333, 280.667 292, 282 292 C 283.333 292, 284 292.667, 284 294 C 284 295.333, 284.667 296, 286 296 C 287.333 296, 288 296.667, 288 298 C 288 299.333, 288.667 300, 290 300 C 291.333 300, 292 300.667, 292 302 C 292 303.667, 292.667 304, 296 304 C 299.333 304, 300 304.333, 300 306 C 300 307.889, 300.667 308, 312 308 C 323.333 308, 324 307.889, 324 306 C 324 304.667, 323.333 304, 322 304 C 320.667 304, 320 303.333, 320 302 C 320 300.167, 320.667 300, 328 300 C 335.333 300, 336 299.833, 336 298 C 336 296.667, 336.667 296, 338 296 C 339.333 296, 340 295.333, 340 294 C 340 292.667, 340.667 292, 342 292 C 343.333 292, 344 291.333, 344 290 C 344 288.222, 343.333 288, 338 288 L 332 288 332 284 C 332 280.667, 331.667 280, 330 280 C 328.667 280, 328 279.333, 328 278 C 328 276.667, 327.333 276, 326 276 C 324.667 276, 324 275.333, 324 274 C 324 272.333, 323.333 272, 320 272 C 316.667 272, 316 271.667, 316 270 C 316 268.667, 316.667 268, 318 268 C 319.333 268, 320 267.333, 320 266 C 320 264.667, 320.667 264, 322 264 C 323.333 264, 324 263.333, 324 262 C 324 260.133, 323.333 260, 314 260 C 304.667 260, 304 260.133, 304 262" stroke="none" fill="black" fill-rule="evenodd"/>
</svg>