<svg xmlns="http://www.w3.org/2000/svg" width="400" height="400" viewBox="0 0 400 400" version="1.1">
	<path fill-opacity="0.200" d="M 252 206 C 252 207.833, 252.667 208, 260 208 L 268 208 268 216 C 268 223.333, 267.833 224, 266 224 C 264.333 224, 264 224.667, 264 228 C 264 231.333, 263.667 232, 262 232 C 260.333 232, 260 231.333, 260 228 C 260 224.667, 259.667 224, 258 224 C 256.333 224, 256 224.667, 256 228 C 256 231.333, 255.667 232, 254 232 C 252.222 232, 252 232.667, 252 238 C 252 243.333, 251.778 244, 250 244 C 248.167 244, 248 243.333, 248 236 C 248 228.667, 248.167 228, 250 228 C 251.778 228, 252 227.333, 252 222 C 252 216.667, 251.778 216, 250 216 C 248.667 216, 248 215.333, 248 214 C 248 212.333, 247.333 212, 244 212 C 240.667 212, 240 212.333, 240 214 C 240 215.667, 239.333 216, 236 216 C 232.667 216, 232 216.333, 232 218 C 232 219.667, 232.667 220, 236 220 C 239.333 220, 240 219.667, 240 218 C 240 216.333, 240.667 216, 244 216 L 248 216 248 222 C 248 227.333, 247.778 228, 246 228 C 244.133 228, 244 228.667, 244 238 L 244 248 252 248 C 259.333 248, 260 248.167, 260 250 C 260 251.867, 260.667 252, 270 252 L 280 252 280 248 C 280 244.667, 279.667 244, 278 244 C 276.667 244, 276 243.333, 276 242 C 276 240.667, 275.333 240, 274 240 C 272.333 240, 272 239.333, 272 236 C 272 232.667, 272.333 232, 274 232 C 275.867 232, 276 231.333, 276 222 C 276 212.667, 275.867 212, 274 212 C 272.667 212, 272 211.333, 272 210 C 272 208.667, 271.333 208, 270 208 C 268.667 208, 268 207.333, 268 206 C 268 204.167, 267.333 204, 260 204 C 252.667 204, 252 204.167, 252 206" stroke="none" fill="black" fill-rule="evenodd"/>
	<path fill-opacity="0.451" d="M 252 206 C 252 207.833, 252.667 208, 260 208 C 267.333 208, 268 208.167, 268 210 C 268 211.333, 268.667 212, 270 212 C 271.867 212, 272 212.667, 272 222 C 272 231.333, 271.867 232, 270 232 C 268.333 232, 268 232.667, 268 236 C 268 239.333, 268.333 240, 270 240 C 271.333 240, 272 240.667, 272 242 C 272 243.333, 272.667 244, 274 244 C 275.333 244, 276 244.667, 276 246 C 276 247.833, 275.333 248, 268 248 L 260 248 260 244 C 260 240.667, 259.667 240, 258 240 C 256.667 240, 256 240.667, 256 242 C 256 243.667, 255.333 244, 252 244 L 248 244 248 236 C 248 228.667, 248.167 228, 250 228 C 251.778 228, 252 227.333, 252 222 C 252 216.667, 251.778 216, 250 216 C 248.667 216, 248 215.333, 248 214 C 248 212.333, 247.333 212, 244 212 C 240.667 212, 240 212.333, 240 214 C 240 215.667, 239.333 216, 236 216 C 232.667 216, 232 216.333, 232 218 C 232 219.667, 232.667 220, 236 220 C 239.333 220, 240 219.667, 240 218 C 240 216.333, 240.667 216, 244 216 L 248 216 248 222 C 248 227.333, 247.778 228, 246 228 C 244.133 228, 244 228.667, 244 238 L 244 248 252 248 C 259.333 248, 260 248.167, 260 250 C 260 251.867, 260.667 252, 270 252 L 280 252 280 248 C 280 244.667, 279.667 244, 278 244 C 276.667 244, 276 243.333, 276 242 C 276 240.667, 275.333 240, 274 240 C 272.333 240, 272 239.333, 272 236 C 272 232.667, 272.333 232, 274 232 C 275.867 232, 276 231.333, 276 222 C 276 212.667, 275.867 212, 274 212 C 272.667 212, 272 211.333, 272 210 C 272 208.667, 271.333 208, 270 208 C 268.667 208, 268 207.333, 268 206 C 268 204.167, 267.333 204, 260 204 C 252.667 204, 252 204.167, 252 206" stroke="none" fill="black" fill-rule="evenodd"/>
	<path fill-opacity="0.107" d="M 252 206 C 252 207.833, 252.667 208, 260 208 C 267.333 208, 268 208.167, 268 210 C 268 211.333, 268.667 212, 270 212 C 271.867 212, 272 212.667, 272 222 C 272 231.333, 271.867 232, 270 232 C 268.333 232, 268 232.667, 268 236 C 268 239.333, 268.333 240, 270 240 C 271.333 240, 272 240.667, 272 242 C 272 243.333, 272.667 244, 274 244 C 275.333 244, 276 244.667, 276 246 C 276 247.833, 275.333 248, 268 248 L 260 248 260 244 C 260 240.667, 259.667 240, 258 240 C 256.667 240, 256 240.667, 256 242 C 256 243.667, 255.333 244, 252 244 L 248 244 248 236 C 248 228.667, 248.167 228, 250 228 C 251.778 228, 252 227.333, 252 222 C 252 216.667, 251.778 216, 250 216 C 248.222 216, 248 216.667, 248 222 C 248 227.333, 247.778 228, 246 228 C 244.133 228, 244 228.667, 244 238 L 244 248 252 248 C 259.333 248, 260 248.167, 260 250 C 260 251.867, 260.667 252, 270 252 L 280 252 280 248 C 280 244.667, 279.667 244, 278 244 C 276.667 244, 276 243.333, 276 242 C 276 240.667, 275.333 240, 274 240 C 272.333 240, 272 239.333, 272 236 C 272 232.667, 272.333 232, 274 232 C 275.867 232, 276 231.333, 276 222 C 276 212.667, 275.867 212, 274 212 C 272.667 212, 272 211.333, 272 210 C 272 208.667, 271.333 208, 270 208 C 268.667 208, 268 207.333, 268 206 C 268 204.167, 267.333 204, 260 204 C 252.667 204, 252 204.167, 252 206" stroke="none" fill="black" fill-rule="evenodd"/>
</svg>