<svg xmlns="http://www.w3.org/2000/svg" width="400" height="400" viewBox="0 0 400 400" version="1.1">
	<path fill-opacity="0.561" d="M 228 218 C 228 219.667, 228.667 220, 232 220 C 235.333 220, 236 220.333, 236 222 C 236 223.333, 236.667 224, 238 224 C 239.333 224, 240 224.667, 240 226 C 240 227.333, 240.667 228, 242 228 C 243.667 228, 244 228.667, 244 232 C 244 235.333, 244.333 236, 246 236 C 247.778 236, 248 236.667, 248 242 C 248 247.333, 248.222 248, 250 248 C 251.667 248, 252 248.667, 252 252 C 252 255.333, 251.667 256, 250 256 C 248.667 256, 248 255.333, 248 254 C 248 252.667, 247.333 252, 246 252 C 244.333 252, 244 251.333, 244 248 C 244 244.667, 243.667 244, 242 244 C 240.667 244, 240 244.667, 240 246 C 240 247.333, 239.333 248, 238 248 C 236.333 248, 236 248.667, 236 252 C 236 255.333, 236.333 256, 238 256 C 239.333 256, 240 256.667, 240 258 C 240 259.333, 240.667 260, 242 260 C 243.667 260, 244 260.667, 244 264 C 244 267.333, 244.333 268, 246 268 C 247.333 268, 248 268.667, 248 270 C 248 271.333, 248.667 272, 250 272 C 251.333 272, 252 272.667, 252 274 C 252 275.333, 252.667 276, 254 276 C 255.333 276, 256 276.667, 256 278 C 256 279.333, 256.667 280, 258 280 C 259.333 280, 260 280.667, 260 282 C 260 283.667, 260.667 284, 264 284 C 267.333 284, 268 284.333, 268 286 C 268 287.667, 268.667 288, 272 288 C 275.333 288, 276 288.333, 276 290 C 276 291.333, 276.667 292, 278 292 C 279.333 292, 280 292.667, 280 294 C 280 295.333, 280.667 296, 282 296 C 283.333 296, 284 296.667, 284 298 C 284 299.333, 284.667 300, 286 300 C 287.333 300, 288 300.667, 288 302 C 288 303.333, 288.667 304, 290 304 C 291.333 304, 292 304.667, 292 306 C 292 307.667, 292.667 308, 296 308 C 299.333 308, 300 308.333, 300 310 C 300 311.867, 300.667 312, 310 312 L 320 312 320 308 C 320 304.667, 319.667 304, 318 304 C 316.667 304, 316 303.333, 316 302 C 316 300.667, 315.333 300, 314 300 C 312.333 300, 312 299.333, 312 296 C 312 292.667, 311.667 292, 310 292 C 308.333 292, 308 291.333, 308 288 C 308 284.667, 307.667 284, 306 284 C 304.667 284, 304 283.333, 304 282 C 304 280.667, 304.667 280, 306 280 C 307.333 280, 308 279.333, 308 278 C 308 276.667, 308.667 276, 310 276 C 311.667 276, 312 275.333, 312 272 C 312 268.667, 312.333 268, 314 268 C 315.333 268, 316 267.333, 316 266 C 316 264.667, 316.667 264, 318 264 C 319.333 264, 320 263.333, 320 262 C 320 260.667, 320.667 260, 322 260 C 323.333 260, 324 259.333, 324 258 C 324 256.667, 324.667 256, 326 256 C 327.667 256, 328 255.333, 328 252 L 328 248 320 248 C 312.667 248, 312 248.167, 312 250 C 312 251.778, 311.333 252, 306 252 C 300.667 252, 300 252.222, 300 254 C 300 255.667, 299.333 256, 296 256 C 292.667 256, 292 256.333, 292 258 C 292 259.333, 291.333 260, 290 260 C 288.667 260, 288 260.667, 288 262 C 288 263.333, 287.333 264, 286 264 C 284.667 264, 284 264.667, 284 266 C 284 267.333, 283.333 268, 282 268 C 280.667 268, 280 268.667, 280 270 C 280 271.778, 279.333 272, 274 272 C 268.667 272, 268 271.778, 268 270 C 268 268.667, 267.333 268, 266 268 C 264.667 268, 264 267.333, 264 266 C 264 264.667, 263.333 264, 262 264 C 260.333 264, 260 263.333, 260 260 C 260 256.667, 259.667 256, 258 256 C 256.333 256, 256 255.333, 256 252 C 256 248.667, 255.667 248, 254 248 C 252.222 248, 252 247.333, 252 242 C 252 236.667, 251.778 236, 250 236 C 248.333 236, 248 235.333, 248 232 C 248 228.667, 247.667 228, 246 228 C 244.667 228, 244 227.333, 244 226 C 244 224.667, 243.333 224, 242 224 C 240.667 224, 240 223.333, 240 222 C 240 220.667, 239.333 220, 238 220 C 236.667 220, 236 219.333, 236 218 C 236 216.333, 235.333 216, 232 216 C 228.667 216, 228 216.333, 228 218 M 312 254 C 312 255.778, 311.333 256, 306 256 C 300.667 256, 300 256.222, 300 258 C 300 259.667, 299.333 260, 296 260 C 292.667 260, 292 260.333, 292 262 C 292 263.333, 291.333 264, 290 264 C 288.667 264, 288 264.667, 288 266 C 288 267.333, 287.333 268, 286 268 C 284.667 268, 284 268.667, 284 270 C 284 271.333, 283.333 272, 282 272 C 280.667 272, 280 272.667, 280 274 C 280 275.667, 280.667 276, 284 276 C 287.333 276, 288 276.333, 288 278 C 288 279.667, 288.667 280, 292 280 C 295.333 280, 296 279.667, 296 278 C 296 276.667, 296.667 276, 298 276 C 299.333 276, 300 275.333, 300 274 C 300 272.667, 300.667 272, 302 272 C 303.333 272, 304 271.333, 304 270 C 304 268.667, 304.667 268, 306 268 C 307.333 268, 308 267.333, 308 266 C 308 264.667, 308.667 264, 310 264 C 311.333 264, 312 263.333, 312 262 C 312 260.667, 312.667 260, 314 260 C 315.333 260, 316 259.333, 316 258 C 316 256.667, 316.667 256, 318 256 C 319.333 256, 320 255.333, 320 254 C 320 252.333, 319.333 252, 316 252 C 312.667 252, 312 252.333, 312 254 M 252 258 C 252 259.333, 252.667 260, 254 260 C 255.333 260, 256 259.333, 256 258 C 256 256.667, 255.333 256, 254 256 C 252.667 256, 252 256.667, 252 258" stroke="none" fill="black" fill-rule="evenodd"/>
	<path fill-opacity="0.107" d="M 228 218 C 228 219.667, 228.667 220, 232 220 C 235.333 220, 236 220.333, 236 222 C 236 223.333, 236.667 224, 238 224 C 239.333 224, 240 224.667, 240 226 C 240 227.333, 240.667 228, 242 228 C 243.667 228, 244 228.667, 244 232 C 244 235.333, 244.333 236, 246 236 C 247.778 236, 248 236.667, 248 242 C 248 247.333, 248.222 248, 250 248 C 251.667 248, 252 248.667, 252 252 C 252 255.333, 252.333 256, 254 256 C 255.667 256, 256 256.667, 256 260 C 256 263.333, 256.333 264, 258 264 C 259.333 264, 260 264.667, 260 266 C 260 267.333, 260.667 268, 262 268 C 263.333 268, 264 268.667, 264 270 C 264 271.333, 264.667 272, 266 272 C 267.333 272, 268 272.667, 268 274 C 268 275.667, 268.667 276, 272 276 C 275.333 276, 276 276.333, 276 278 C 276 279.778, 276.667 280, 282 280 C 287.333 280, 288 280.222, 288 282 C 288 283.867, 287.333 284, 278 284 C 268.667 284, 268 283.867, 268 282 C 268 280.333, 267.333 280, 264 280 C 260.667 280, 260 279.667, 260 278 C 260 276.667, 259.333 276, 258 276 C 256.667 276, 256 275.333, 256 274 C 256 272.667, 255.333 272, 254 272 C 252.667 272, 252 271.333, 252 270 C 252 268.667, 251.333 268, 250 268 C 248.667 268, 248 267.333, 248 266 C 248 264.667, 247.333 264, 246 264 C 244.667 264, 244 264.667, 244 266 C 244 267.333, 244.667 268, 246 268 C 247.333 268, 248 268.667, 248 270 C 248 271.333, 248.667 272, 250 272 C 251.333 272, 252 272.667, 252 274 C 252 275.333, 252.667 276, 254 276 C 255.333 276, 256 276.667, 256 278 C 256 279.333, 256.667 280, 258 280 C 259.333 280, 260 280.667, 260 282 C 260 283.667, 260.667 284, 264 284 C 267.333 284, 268 284.333, 268 286 C 268 287.667, 268.667 288, 272 288 C 275.333 288, 276 288.333, 276 290 C 276 291.333, 276.667 292, 278 292 C 279.333 292, 280 292.667, 280 294 C 280 295.333, 280.667 296, 282 296 C 283.333 296, 284 296.667, 284 298 C 284 299.333, 284.667 300, 286 300 C 287.333 300, 288 300.667, 288 302 C 288 303.333, 288.667 304, 290 304 C 291.333 304, 292 304.667, 292 306 C 292 307.667, 292.667 308, 296 308 C 299.333 308, 300 308.333, 300 310 C 300 311.867, 300.667 312, 310 312 L 320 312 320 308 C 320 304.667, 319.667 304, 318 304 C 316.667 304, 316 303.333, 316 302 C 316 300.667, 315.333 300, 314 300 C 312.333 300, 312 299.333, 312 296 C 312 292.667, 311.667 292, 310 292 C 308.333 292, 308 291.333, 308 288 C 308 284.667, 307.667 284, 306 284 C 304.667 284, 304 283.333, 304 282 C 304 280.667, 304.667 280, 306 280 C 307.333 280, 308 279.333, 308 278 C 308 276.667, 308.667 276, 310 276 C 311.667 276, 312 275.333, 312 272 C 312 268.667, 312.333 268, 314 268 C 315.333 268, 316 267.333, 316 266 C 316 264.667, 316.667 264, 318 264 C 319.333 264, 320 263.333, 320 262 C 320 260.667, 320.667 260, 322 260 C 323.333 260, 324 259.333, 324 258 C 324 256.667, 324.667 256, 326 256 C 327.667 256, 328 255.333, 328 252 L 328 248 320 248 C 312.667 248, 312 248.167, 312 250 C 312 251.778, 311.333 252, 306 252 C 300.667 252, 300 252.222, 300 254 C 300 255.667, 299.333 256, 296 256 C 292.667 256, 292 256.333, 292 258 C 292 259.333, 291.333 260, 290 260 C 288.667 260, 288 260.667, 288 262 C 288 263.333, 287.333 264, 286 264 C 284.667 264, 284 264.667, 284 266 C 284 267.333, 283.333 268, 282 268 C 280.667 268, 280 268.667, 280 270 C 280 271.778, 279.333 272, 274 272 C 268.667 272, 268 271.778, 268 270 C 268 268.667, 267.333 268, 266 268 C 264.667 268, 264 267.333, 264 266 C 264 264.667, 263.333 264, 262 264 C 260.333 264, 260 263.333, 260 260 C 260 256.667, 259.667 256, 258 256 C 256.333 256, 256 255.333, 256 252 C 256 248.667, 255.667 248, 254 248 C 252.222 248, 252 247.333, 252 242 C 252 236.667, 251.778 236, 250 236 C 248.333 236, 248 235.333, 248 232 C 248 228.667, 247.667 228, 246 228 C 244.667 228, 244 227.333, 244 226 C 244 224.667, 243.333 224, 242 224 C 240.667 224, 240 223.333, 240 222 C 240 220.667, 239.333 220, 238 220 C 236.667 220, 236 219.333, 236 218 C 236 216.333, 235.333 216, 232 216 C 228.667 216, 228 216.333, 228 218 M 312 254 C 312 255.778, 311.333 256, 306 256 C 300.667 256, 300 256.222, 300 258 C 300 259.667, 299.333 260, 296 260 C 292.667 260, 292 260.333, 292 262 C 292 263.333, 291.333 264, 290 264 C 288.667 264, 288 264.667, 288 266 C 288 267.333, 287.333 268, 286 268 C 284.667 268, 284 268.667, 284 270 C 284 271.333, 283.333 272, 282 272 C 280.667 272, 280 272.667, 280 274 C 280 275.667, 280.667 276, 284 276 C 287.333 276, 288 276.333, 288 278 C 288 279.333, 288.667 280, 290 280 C 291.333 280, 292 280.667, 292 282 C 292 283.333, 292.667 284, 294 284 C 295.333 284, 296 284.667, 296 286 C 296 287.833, 295.333 288, 288 288 C 280.667 288, 280 288.167, 280 290 C 280 291.333, 280.667 292, 282 292 C 283.333 292, 284 292.667, 284 294 C 284 295.333, 284.667 296, 286 296 C 287.333 296, 288 296.667, 288 298 C 288 299.333, 288.667 300, 290 300 C 291.333 300, 292 300.667, 292 302 C 292 303.667, 292.667 304, 296 304 C 299.333 304, 300 304.333, 300 306 C 300 307.833, 300.667 308, 308 308 C 315.333 308, 316 307.833, 316 306 C 316 304.667, 315.333 304, 314 304 C 312.667 304, 312 303.333, 312 302 C 312 300.667, 311.333 300, 310 300 C 308.333 300, 308 299.333, 308 296 C 308 292.667, 307.667 292, 306 292 C 304.333 292, 304 291.333, 304 288 C 304 284.667, 303.667 284, 302 284 C 300.667 284, 300 283.333, 300 282 C 300 280.667, 300.667 280, 302 280 C 303.333 280, 304 279.333, 304 278 C 304 276.667, 304.667 276, 306 276 C 307.667 276, 308 275.333, 308 272 C 308 268.667, 308.333 268, 310 268 C 311.333 268, 312 267.333, 312 266 C 312 264.667, 312.667 264, 314 264 C 315.333 264, 316 263.333, 316 262 C 316 260.667, 316.667 260, 318 260 C 319.333 260, 320 259.333, 320 258 C 320 256.667, 320.667 256, 322 256 C 323.333 256, 324 255.333, 324 254 C 324 252.222, 323.333 252, 318 252 C 312.667 252, 312 252.222, 312 254" stroke="none" fill="black" fill-rule="evenodd"/>
</svg>