<svg xmlns="http://www.w3.org/2000/svg" width="400" height="400" viewBox="0 0 400 400" version="1.1">
	<path fill-opacity="0.200" d="M 244 198 L 244 204 238 204 C 232.667 204, 232 204.222, 232 206 C 232 207.333, 231.333 208, 230 208 C 228.667 208, 228 208.667, 228 210 C 228 211.333, 227.333 212, 226 212 C 224.667 212, 224 212.667, 224 214 C 224 215.333, 224.667 216, 226 216 C 227.333 216, 228 215.333, 228 214 C 228 212.667, 228.667 212, 230 212 C 231.333 212, 232 211.333, 232 210 C 232 208.222, 232.667 208, 238 208 C 243.333 208, 244 207.778, 244 206 C 244 204.667, 244.667 204, 246 204 C 247.333 204, 248 203.333, 248 202 C 248 200.667, 248.667 200, 250 200 C 251.778 200, 252 200.667, 252 206 C 252 211.333, 251.778 212, 250 212 C 248.667 212, 248 212.667, 248 214 C 248 215.333, 248.667 216, 250 216 C 251.333 216, 252 215.333, 252 214 C 252 212.333, 252.667 212, 256 212 C 259.333 212, 260 212.333, 260 214 C 260 215.333, 260.667 216, 262 216 C 263.667 216, 264 216.667, 264 220 C 264 223.333, 263.667 224, 262 224 C 260.667 224, 260 224.667, 260 226 C 260 227.333, 260.667 228, 262 228 C 263.667 228, 264 228.667, 264 232 C 264 235.333, 263.667 236, 262 236 C 260.667 236, 260 236.667, 260 238 C 260 239.833, 259.333 240, 252 240 C 244.667 240, 244 239.833, 244 238 C 244 236.667, 243.333 236, 242 236 C 240.222 236, 240 236.667, 240 242 C 240 247.333, 239.778 248, 238 248 C 236.333 248, 236 248.667, 236 252 C 236 255.333, 236.333 256, 238 256 C 239.333 256, 240 256.667, 240 258 C 240 259.333, 240.667 260, 242 260 C 243.778 260, 244 260.667, 244 266 C 244 271.333, 244.222 272, 246 272 C 247.778 272, 248 272.667, 248 278 C 248 283.333, 248.222 284, 250 284 C 251.667 284, 252 284.667, 252 288 L 252 292 258 292 C 263.333 292, 264 291.778, 264 290 C 264 288.667, 263.333 288, 262 288 C 260.667 288, 260 287.333, 260 286 C 260 284.667, 260.667 284, 262 284 C 263.333 284, 264 283.333, 264 282 C 264 280.667, 264.667 280, 266 280 C 267.333 280, 268 280.667, 268 282 C 268 283.778, 268.667 284, 274 284 C 279.333 284, 280 283.778, 280 282 C 280 280.667, 280.667 280, 282 280 C 283.333 280, 284 279.333, 284 278 C 284 276.667, 283.333 276, 282 276 C 280.667 276, 280 275.333, 280 274 C 280 272.667, 280.667 272, 282 272 C 283.667 272, 284 271.333, 284 268 C 284 264.667, 283.667 264, 282 264 C 280.667 264, 280 263.333, 280 262 C 280 260.667, 280.667 260, 282 260 C 283.333 260, 284 259.333, 284 258 C 284 256.333, 284.667 256, 288 256 C 291.333 256, 292 255.667, 292 254 C 292 252.667, 292.667 252, 294 252 C 295.778 252, 296 251.333, 296 246 C 296 240.667, 295.778 240, 294 240 C 292.667 240, 292 240.667, 292 242 C 292 243.333, 291.333 244, 290 244 C 288.222 244, 288 243.333, 288 238 C 288 232.667, 287.778 232, 286 232 C 284.667 232, 284 231.333, 284 230 C 284 228.667, 283.333 228, 282 228 C 280.667 228, 280 227.333, 280 226 C 280 224.667, 279.333 224, 278 224 C 276.333 224, 276 223.333, 276 220 C 276 216.667, 275.667 216, 274 216 C 272.667 216, 272 215.333, 272 214 C 272 212.667, 271.333 212, 270 212 C 268.667 212, 268 211.333, 268 210 C 268 208.222, 267.333 208, 262 208 L 256 208 256 204 C 256 200.667, 255.667 200, 254 200 C 252.667 200, 252 199.333, 252 198 C 252 196.667, 251.333 196, 250 196 C 248.667 196, 248 195.333, 248 194 C 248 192.667, 247.333 192, 246 192 C 244.222 192, 244 192.667, 244 198" stroke="none" fill="black" fill-rule="evenodd"/>
	<path fill-opacity="0.510" d="M 244 198 L 244 204 238 204 C 232.667 204, 232 204.222, 232 206 C 232 207.333, 231.333 208, 230 208 C 228.667 208, 228 208.667, 228 210 C 228 211.333, 227.333 212, 226 212 C 224.667 212, 224 212.667, 224 214 C 224 215.333, 224.667 216, 226 216 C 227.333 216, 228 215.333, 228 214 C 228 212.667, 228.667 212, 230 212 C 231.333 212, 232 211.333, 232 210 C 232 208.222, 232.667 208, 238 208 C 243.333 208, 244 207.778, 244 206 C 244 204.667, 244.667 204, 246 204 C 247.333 204, 248 203.333, 248 202 C 248 200.667, 248.667 200, 250 200 C 251.778 200, 252 200.667, 252 206 L 252 212 260 212 C 267.333 212, 268 212.167, 268 214 C 268 215.333, 268.667 216, 270 216 C 271.667 216, 272 216.667, 272 220 C 272 223.333, 271.667 224, 270 224 C 268.667 224, 268 224.667, 268 226 C 268 227.778, 268.667 228, 274 228 C 279.333 228, 280 228.222, 280 230 C 280 231.333, 280.667 232, 282 232 C 283.778 232, 284 232.667, 284 238 C 284 243.333, 284.222 244, 286 244 C 287.333 244, 288 244.667, 288 246 C 288 247.333, 288.667 248, 290 248 C 291.333 248, 292 248.667, 292 250 C 292 251.778, 291.333 252, 286 252 C 280.667 252, 280 251.778, 280 250 C 280 248.667, 279.333 248, 278 248 C 276.667 248, 276 248.667, 276 250 C 276 251.333, 276.667 252, 278 252 C 279.667 252, 280 252.667, 280 256 C 280 259.333, 279.667 260, 278 260 C 276.667 260, 276 260.667, 276 262 C 276 263.333, 276.667 264, 278 264 C 279.667 264, 280 264.667, 280 268 C 280 271.333, 279.667 272, 278 272 C 276.667 272, 276 272.667, 276 274 C 276 275.333, 276.667 276, 278 276 C 279.333 276, 280 276.667, 280 278 C 280 279.778, 279.333 280, 274 280 C 268.667 280, 268 279.778, 268 278 C 268 276.333, 267.333 276, 264 276 C 260.667 276, 260 275.667, 260 274 C 260 272.667, 260.667 272, 262 272 C 263.667 272, 264 271.333, 264 268 C 264 264.667, 263.667 264, 262 264 C 260.333 264, 260 264.667, 260 268 C 260 271.333, 259.667 272, 258 272 C 256.667 272, 256 272.667, 256 274 C 256 275.333, 256.667 276, 258 276 C 259.667 276, 260 276.667, 260 280 C 260 283.333, 259.667 284, 258 284 C 256.667 284, 256 284.667, 256 286 C 256 287.333, 255.333 288, 254 288 C 252.667 288, 252 288.667, 252 290 C 252 291.778, 252.667 292, 258 292 C 263.333 292, 264 291.778, 264 290 C 264 288.667, 263.333 288, 262 288 C 260.667 288, 260 287.333, 260 286 C 260 284.667, 260.667 284, 262 284 C 263.333 284, 264 283.333, 264 282 C 264 280.667, 264.667 280, 266 280 C 267.333 280, 268 280.667, 268 282 C 268 283.778, 268.667 284, 274 284 C 279.333 284, 280 283.778, 280 282 C 280 280.667, 280.667 280, 282 280 C 283.333 280, 284 279.333, 284 278 C 284 276.667, 283.333 276, 282 276 C 280.667 276, 280 275.333, 280 274 C 280 272.667, 280.667 272, 282 272 C 283.667 272, 284 271.333, 284 268 C 284 264.667, 283.667 264, 282 264 C 280.667 264, 280 263.333, 280 262 C 280 260.667, 280.667 260, 282 260 C 283.333 260, 284 259.333, 284 258 C 284 256.333, 284.667 256, 288 256 C 291.333 256, 292 255.667, 292 254 C 292 252.667, 292.667 252, 294 252 C 295.778 252, 296 251.333, 296 246 C 296 240.667, 295.778 240, 294 240 C 292.667 240, 292 240.667, 292 242 C 292 243.333, 291.333 244, 290 244 C 288.222 244, 288 243.333, 288 238 C 288 232.667, 287.778 232, 286 232 C 284.667 232, 284 231.333, 284 230 C 284 228.667, 283.333 228, 282 228 C 280.667 228, 280 227.333, 280 226 C 280 224.667, 279.333 224, 278 224 C 276.333 224, 276 223.333, 276 220 C 276 216.667, 275.667 216, 274 216 C 272.667 216, 272 215.333, 272 214 C 272 212.667, 271.333 212, 270 212 C 268.667 212, 268 211.333, 268 210 C 268 208.222, 267.333 208, 262 208 L 256 208 256 204 C 256 200.667, 255.667 200, 254 200 C 252.667 200, 252 199.333, 252 198 C 252 196.667, 251.333 196, 250 196 C 248.667 196, 248 195.333, 248 194 C 248 192.667, 247.333 192, 246 192 C 244.222 192, 244 192.667, 244 198" stroke="none" fill="black" fill-rule="evenodd"/>
</svg>