<svg xmlns="http://www.w3.org/2000/svg" width="400" height="400" viewBox="0 0 400 400" version="1.1">
	<path fill-opacity="0.200" d="M 244 202 C 244 203.667, 243.333 204, 240 204 C 236.667 204, 236 204.333, 236 206 C 236 207.333, 235.333 208, 234 208 C 232.667 208, 232 208.667, 232 210 C 232 211.333, 231.333 212, 230 212 C 228.667 212, 228 212.667, 228 214 C 228 215.333, 228.667 216, 230 216 C 231.333 216, 232 215.333, 232 214 C 232 212.667, 232.667 212, 234 212 C 235.333 212, 236 211.333, 236 210 C 236 208.333, 236.667 208, 240 208 C 243.333 208, 244 207.667, 244 206 C 244 204.167, 244.667 204, 252 204 C 259.333 204, 260 204.167, 260 206 C 260 207.667, 260.667 208, 264 208 C 267.333 208, 268 208.333, 268 210 C 268 211.778, 268.667 212, 274 212 C 279.333 212, 280 211.778, 280 210 C 280 208.667, 280.667 208, 282 208 C 283.667 208, 284 208.667, 284 212 C 284 215.333, 283.667 216, 282 216 C 280.667 216, 280 216.667, 280 218 C 280 219.667, 279.333 220, 276 220 C 272.667 220, 272 220.333, 272 222 C 272 223.778, 272.667 224, 278 224 C 283.333 224, 284 224.222, 284 226 C 284 227.667, 284.667 228, 288 228 C 291.333 228, 292 228.333, 292 230 C 292 231.333, 291.333 232, 290 232 C 288.667 232, 288 232.667, 288 234 C 288 235.667, 287.333 236, 284 236 C 280.667 236, 280 235.667, 280 234 C 280 232.667, 279.333 232, 278 232 C 276.667 232, 276 232.667, 276 234 C 276 235.333, 276.667 236, 278 236 C 279.778 236, 280 236.667, 280 242 C 280 247.333, 279.778 248, 278 248 C 276.667 248, 276 248.667, 276 250 C 276 251.333, 275.333 252, 274 252 C 272.667 252, 272 252.667, 272 254 C 272 255.778, 271.333 256, 266 256 C 260.667 256, 260 255.778, 260 254 C 260 252.667, 259.333 252, 258 252 C 256.667 252, 256 251.333, 256 250 C 256 248.667, 256.667 248, 258 248 C 259.333 248, 260 247.333, 260 246 C 260 244.667, 259.333 244, 258 244 C 256.667 244, 256 244.667, 256 246 C 256 247.667, 255.333 248, 252 248 C 248.667 248, 248 247.667, 248 246 C 248 244.667, 248.667 244, 250 244 C 251.778 244, 252 243.333, 252 238 C 252 232.667, 251.778 232, 250 232 C 248.667 232, 248 231.333, 248 230 C 248 228.667, 247.333 228, 246 228 C 244.667 228, 244 227.333, 244 226 C 244 224.333, 243.333 224, 240 224 C 236.667 224, 236 224.333, 236 226 C 236 227.667, 236.667 228, 240 228 C 243.333 228, 244 228.333, 244 230 C 244 231.333, 244.667 232, 246 232 C 247.778 232, 248 232.667, 248 238 C 248 243.333, 247.778 244, 246 244 C 244.667 244, 244 244.667, 244 246 C 244 247.333, 243.333 248, 242 248 C 240.667 248, 240 248.667, 240 250 C 240 251.667, 240.667 252, 244 252 C 247.333 252, 248 252.333, 248 254 C 248 255.333, 247.333 256, 246 256 C 244.167 256, 244 256.667, 244 264 C 244 271.333, 244.167 272, 246 272 C 247.778 272, 248 272.667, 248 278 C 248 283.333, 248.222 284, 250 284 C 251.333 284, 252 284.667, 252 286 C 252 287.667, 252.667 288, 256 288 C 259.333 288, 260 288.333, 260 290 C 260 291.867, 260.667 292, 270 292 C 279.333 292, 280 291.867, 280 290 C 280 288.667, 279.333 288, 278 288 C 276.667 288, 276 287.333, 276 286 C 276 284.222, 276.667 284, 282 284 C 287.333 284, 288 283.778, 288 282 C 288 280.667, 288.667 280, 290 280 C 291.333 280, 292 279.333, 292 278 C 292 276.667, 292.667 276, 294 276 C 295.778 276, 296 275.333, 296 270 C 296 264.667, 295.778 264, 294 264 C 292.667 264, 292 264.667, 292 266 C 292 267.667, 291.333 268, 288 268 L 284 268 284 264 C 284 260.667, 284.333 260, 286 260 C 287.333 260, 288 259.333, 288 258 C 288 256.667, 288.667 256, 290 256 C 291.778 256, 292 255.333, 292 250 C 292 244.667, 291.778 244, 290 244 C 288.333 244, 288 243.333, 288 240 C 288 236.667, 288.333 236, 290 236 C 291.333 236, 292 235.333, 292 234 C 292 232.667, 292.667 232, 294 232 C 295.778 232, 296 231.333, 296 226 C 296 220.667, 295.778 220, 294 220 C 292.667 220, 292 220.667, 292 222 C 292 223.667, 291.333 224, 288 224 L 284 224 284 220 C 284 216.667, 284.333 216, 286 216 C 287.833 216, 288 215.333, 288 208 C 288 200.667, 287.833 200, 286 200 C 284.667 200, 284 200.667, 284 202 C 284 203.333, 283.333 204, 282 204 C 280.667 204, 280 204.667, 280 206 C 280 207.778, 279.333 208, 274 208 C 268.667 208, 268 207.778, 268 206 C 268 204.333, 267.333 204, 264 204 C 260.667 204, 260 203.667, 260 202 C 260 200.167, 259.333 200, 252 200 C 244.667 200, 244 200.167, 244 202" stroke="none" fill="black" fill-rule="evenodd"/>
	<path fill-opacity="0.510" d="M 244 202 C 244 203.667, 243.333 204, 240 204 C 236.667 204, 236 204.333, 236 206 C 236 207.333, 235.333 208, 234 208 C 232.667 208, 232 208.667, 232 210 C 232 211.333, 231.333 212, 230 212 C 228.667 212, 228 212.667, 228 214 C 228 215.333, 228.667 216, 230 216 C 231.333 216, 232 215.333, 232 214 C 232 212.667, 232.667 212, 234 212 C 235.333 212, 236 211.333, 236 210 C 236 208.333, 236.667 208, 240 208 C 243.333 208, 244 207.667, 244 206 C 244 204.167, 244.667 204, 252 204 C 259.333 204, 260 204.167, 260 206 C 260 207.667, 260.667 208, 264 208 C 267.333 208, 268 208.333, 268 210 C 268 211.778, 268.667 212, 274 212 C 279.333 212, 280 211.778, 280 210 C 280 208.667, 280.667 208, 282 208 C 283.667 208, 284 208.667, 284 212 C 284 215.333, 283.667 216, 282 216 C 280.667 216, 280 216.667, 280 218 C 280 219.333, 279.333 220, 278 220 C 276.667 220, 276 220.667, 276 222 C 276 223.667, 276.667 224, 280 224 C 283.333 224, 284 224.333, 284 226 C 284 227.667, 284.667 228, 288 228 C 291.333 228, 292 228.333, 292 230 C 292 231.333, 291.333 232, 290 232 C 288.667 232, 288 232.667, 288 234 C 288 235.667, 287.333 236, 284 236 C 280.667 236, 280 236.333, 280 238 C 280 239.333, 280.667 240, 282 240 C 283.333 240, 284 240.667, 284 242 C 284 243.333, 284.667 244, 286 244 C 287.778 244, 288 244.667, 288 250 C 288 255.333, 287.778 256, 286 256 C 284.667 256, 284 256.667, 284 258 C 284 259.333, 283.333 260, 282 260 C 280.333 260, 280 260.667, 280 264 C 280 267.333, 280.333 268, 282 268 C 283.333 268, 284 268.667, 284 270 C 284 271.667, 284.667 272, 288 272 C 291.333 272, 292 272.333, 292 274 C 292 275.333, 291.333 276, 290 276 C 288.667 276, 288 276.667, 288 278 C 288 279.833, 287.333 280, 280 280 C 272.667 280, 272 279.833, 272 278 C 272 276.667, 271.333 276, 270 276 C 268.667 276, 268 276.667, 268 278 C 268 279.333, 268.667 280, 270 280 C 271.667 280, 272 280.667, 272 284 L 272 288 266 288 C 260.667 288, 260 287.778, 260 286 C 260 284.333, 259.333 284, 256 284 C 252.667 284, 252 283.667, 252 282 C 252 280.667, 251.333 280, 250 280 C 248.667 280, 248 280.667, 248 282 C 248 283.333, 248.667 284, 250 284 C 251.333 284, 252 284.667, 252 286 C 252 287.667, 252.667 288, 256 288 C 259.333 288, 260 288.333, 260 290 C 260 291.867, 260.667 292, 270 292 C 279.333 292, 280 291.867, 280 290 C 280 288.667, 279.333 288, 278 288 C 276.667 288, 276 287.333, 276 286 C 276 284.222, 276.667 284, 282 284 C 287.333 284, 288 283.778, 288 282 C 288 280.667, 288.667 280, 290 280 C 291.333 280, 292 279.333, 292 278 C 292 276.667, 292.667 276, 294 276 C 295.778 276, 296 275.333, 296 270 C 296 264.667, 295.778 264, 294 264 C 292.667 264, 292 264.667, 292 266 C 292 267.667, 291.333 268, 288 268 L 284 268 284 264 C 284 260.667, 284.333 260, 286 260 C 287.333 260, 288 259.333, 288 258 C 288 256.667, 288.667 256, 290 256 C 291.778 256, 292 255.333, 292 250 C 292 244.667, 291.778 244, 290 244 C 288.333 244, 288 243.333, 288 240 C 288 236.667, 288.333 236, 290 236 C 291.333 236, 292 235.333, 292 234 C 292 232.667, 292.667 232, 294 232 C 295.778 232, 296 231.333, 296 226 C 296 220.667, 295.778 220, 294 220 C 292.667 220, 292 220.667, 292 222 C 292 223.667, 291.333 224, 288 224 L 284 224 284 220 C 284 216.667, 284.333 216, 286 216 C 287.833 216, 288 215.333, 288 208 C 288 200.667, 287.833 200, 286 200 C 284.667 200, 284 200.667, 284 202 C 284 203.333, 283.333 204, 282 204 C 280.667 204, 280 204.667, 280 206 C 280 207.778, 279.333 208, 274 208 C 268.667 208, 268 207.778, 268 206 C 268 204.333, 267.333 204, 264 204 C 260.667 204, 260 203.667, 260 202 C 260 200.167, 259.333 200, 252 200 C 244.667 200, 244 200.167, 244 202 M 236 226 C 236 227.667, 236.667 228, 240 228 C 243.333 228, 244 228.333, 244 230 C 244 231.333, 244.667 232, 246 232 C 247.778 232, 248 232.667, 248 238 C 248 243.333, 247.778 244, 246 244 C 244.667 244, 244 244.667, 244 246 C 244 247.333, 243.333 248, 242 248 C 240.667 248, 240 248.667, 240 250 C 240 251.667, 240.667 252, 244 252 C 247.333 252, 248 252.333, 248 254 C 248 255.333, 247.333 256, 246 256 C 244.667 256, 244 256.667, 244 258 C 244 259.333, 244.667 260, 246 260 C 247.333 260, 248 259.333, 248 258 C 248 256.667, 248.667 256, 250 256 C 251.333 256, 252 255.333, 252 254 C 252 252.667, 252.667 252, 254 252 C 255.333 252, 256 251.333, 256 250 C 256 248.333, 255.333 248, 252 248 C 248.667 248, 248 247.667, 248 246 C 248 244.667, 248.667 244, 250 244 C 251.778 244, 252 243.333, 252 238 C 252 232.667, 251.778 232, 250 232 C 248.667 232, 248 231.333, 248 230 C 248 228.667, 247.333 228, 246 228 C 244.667 228, 244 227.333, 244 226 C 244 224.333, 243.333 224, 240 224 C 236.667 224, 236 224.333, 236 226" stroke="none" fill="black" fill-rule="evenodd"/>
</svg>