<svg xmlns="http://www.w3.org/2000/svg" width="400" height="400" viewBox="0 0 400 400" version="1.1">
	<path fill-opacity="0.200" d="M 248 198 C 248 199.667, 247.333 200, 244 200 C 240.667 200, 240 200.333, 240 202 C 240 203.333, 239.333 204, 238 204 C 236.667 204, 236 204.667, 236 206 C 236 207.333, 235.333 208, 234 208 C 232.667 208, 232 208.667, 232 210 C 232 211.333, 231.333 212, 230 212 C 228.667 212, 228 212.667, 228 214 C 228 215.333, 228.667 216, 230 216 C 231.333 216, 232 215.333, 232 214 C 232 212.667, 232.667 212, 234 212 C 235.333 212, 236 211.333, 236 210 C 236 208.667, 236.667 208, 238 208 C 239.333 208, 240 207.333, 240 206 C 240 204.333, 240.667 204, 244 204 C 247.333 204, 248 203.667, 248 202 C 248 200.222, 248.667 200, 254 200 C 259.333 200, 260 200.222, 260 202 C 260 203.333, 260.667 204, 262 204 C 263.833 204, 264 204.667, 264 212 C 264 219.333, 263.833 220, 262 220 C 260.667 220, 260 220.667, 260 222 C 260 223.778, 259.333 224, 254 224 C 248.667 224, 248 223.778, 248 222 C 248 220.167, 247.333 220, 240 220 C 232.667 220, 232 220.167, 232 222 C 232 223.778, 232.667 224, 238 224 L 244 224 244 232 C 244 239.333, 244.167 240, 246 240 C 247.333 240, 248 240.667, 248 242 C 248 243.333, 248.667 244, 250 244 C 251.333 244, 252 244.667, 252 246 C 252 247.833, 252.667 248, 260 248 C 267.333 248, 268 247.833, 268 246 C 268 244.333, 268.667 244, 272 244 C 275.333 244, 276 243.667, 276 242 C 276 240.667, 276.667 240, 278 240 C 279.333 240, 280 239.333, 280 238 C 280 236.667, 280.667 236, 282 236 C 283.667 236, 284 235.333, 284 232 L 284 228 278 228 C 272.667 228, 272 227.778, 272 226 C 272 224.667, 272.667 224, 274 224 C 275.833 224, 276 223.333, 276 216 C 276 208.667, 275.833 208, 274 208 C 272.667 208, 272 207.333, 272 206 C 272 204.667, 271.333 204, 270 204 C 268.667 204, 268 203.333, 268 202 C 268 200.667, 267.333 200, 266 200 C 264.667 200, 264 199.333, 264 198 C 264 196.167, 263.333 196, 256 196 C 248.667 196, 248 196.167, 248 198" stroke="none" fill="black" fill-rule="evenodd"/>
	<path fill-opacity="0.510" d="M 248 198 C 248 199.667, 247.333 200, 244 200 C 240.667 200, 240 200.333, 240 202 C 240 203.333, 239.333 204, 238 204 C 236.667 204, 236 204.667, 236 206 C 236 207.333, 235.333 208, 234 208 C 232.667 208, 232 208.667, 232 210 C 232 211.333, 231.333 212, 230 212 C 228.667 212, 228 212.667, 228 214 C 228 215.333, 228.667 216, 230 216 C 231.333 216, 232 215.333, 232 214 C 232 212.667, 232.667 212, 234 212 C 235.333 212, 236 211.333, 236 210 C 236 208.667, 236.667 208, 238 208 C 239.333 208, 240 207.333, 240 206 C 240 204.333, 240.667 204, 244 204 C 247.333 204, 248 203.667, 248 202 C 248 200.167, 248.667 200, 256 200 C 263.333 200, 264 200.167, 264 202 C 264 203.333, 264.667 204, 266 204 C 267.333 204, 268 204.667, 268 206 C 268 207.333, 268.667 208, 270 208 C 271.833 208, 272 208.667, 272 216 C 272 223.333, 271.833 224, 270 224 C 268.667 224, 268 224.667, 268 226 C 268 227.333, 268.667 228, 270 228 C 271.333 228, 272 228.667, 272 230 C 272 231.667, 272.667 232, 276 232 C 279.333 232, 280 232.333, 280 234 C 280 235.333, 279.333 236, 278 236 C 276.667 236, 276 236.667, 276 238 C 276 239.667, 275.333 240, 272 240 C 268.667 240, 268 240.333, 268 242 C 268 243.833, 267.333 244, 260 244 C 252.667 244, 252 243.833, 252 242 C 252 240.667, 251.333 240, 250 240 C 248.167 240, 248 239.333, 248 232 C 248 224.667, 247.833 224, 246 224 C 244.667 224, 244 223.333, 244 222 C 244 220.333, 243.333 220, 240 220 C 236.667 220, 236 220.333, 236 222 C 236 223.667, 236.667 224, 240 224 L 244 224 244 232 C 244 239.333, 244.167 240, 246 240 C 247.333 240, 248 240.667, 248 242 C 248 243.333, 248.667 244, 250 244 C 251.333 244, 252 244.667, 252 246 C 252 247.833, 252.667 248, 260 248 C 267.333 248, 268 247.833, 268 246 C 268 244.333, 268.667 244, 272 244 C 275.333 244, 276 243.667, 276 242 C 276 240.667, 276.667 240, 278 240 C 279.333 240, 280 239.333, 280 238 C 280 236.667, 280.667 236, 282 236 C 283.667 236, 284 235.333, 284 232 L 284 228 278 228 C 272.667 228, 272 227.778, 272 226 C 272 224.667, 272.667 224, 274 224 C 275.833 224, 276 223.333, 276 216 C 276 208.667, 275.833 208, 274 208 C 272.667 208, 272 207.333, 272 206 C 272 204.667, 271.333 204, 270 204 C 268.667 204, 268 203.333, 268 202 C 268 200.667, 267.333 200, 266 200 C 264.667 200, 264 199.333, 264 198 C 264 196.167, 263.333 196, 256 196 C 248.667 196, 248 196.167, 248 198" stroke="none" fill="black" fill-rule="evenodd"/>
</svg>