<svg xmlns="http://www.w3.org/2000/svg" width="400" height="400" viewBox="0 0 400 400" version="1.1">
	<path fill-opacity="0.200" d="M 232 210 C 232 215.333, 231.778 216, 230 216 C 228.667 216, 228 216.667, 228 218 C 228 219.333, 228.667 220, 230 220 C 231.333 220, 232 220.667, 232 222 C 232 223.333, 232.667 224, 234 224 C 235.333 224, 236 223.333, 236 222 C 236 220.667, 236.667 220, 238 220 C 239.333 220, 240 219.333, 240 218 C 240 216.167, 240.667 216, 248 216 C 255.333 216, 256 216.167, 256 218 C 256 219.333, 256.667 220, 258 220 C 259.778 220, 260 220.667, 260 226 C 260 231.333, 259.778 232, 258 232 C 256.667 232, 256 232.667, 256 234 C 256 235.333, 255.333 236, 254 236 C 252.667 236, 252 236.667, 252 238 C 252 239.778, 251.333 240, 246 240 L 240 240 240 244 C 240 247.333, 239.667 248, 238 248 C 236.333 248, 236 248.667, 236 252 C 236 255.333, 236.333 256, 238 256 C 239.333 256, 240 256.667, 240 258 C 240 259.333, 240.667 260, 242 260 C 243.778 260, 244 260.667, 244 266 C 244 271.333, 244.222 272, 246 272 C 247.667 272, 248 272.667, 248 276 C 248 279.333, 248.333 280, 250 280 C 251.333 280, 252 280.667, 252 282 C 252 283.333, 252.667 284, 254 284 C 255.333 284, 256 284.667, 256 286 C 256 287.867, 256.667 288, 266 288 C 275.333 288, 276 287.867, 276 286 C 276 284.667, 275.333 284, 274 284 C 272.667 284, 272 283.333, 272 282 C 272 280.667, 271.333 280, 270 280 C 268.333 280, 268 279.333, 268 276 C 268 272.667, 267.667 272, 266 272 C 264.222 272, 264 271.333, 264 266 C 264 260.667, 264.222 260, 266 260 C 267.833 260, 268 259.333, 268 252 C 268 244.667, 268.167 244, 270 244 C 271.333 244, 272 244.667, 272 246 C 272 247.333, 272.667 248, 274 248 C 275.833 248, 276 247.333, 276 240 C 276 232.667, 275.833 232, 274 232 C 272.333 232, 272 231.333, 272 228 C 272 224.667, 271.667 224, 270 224 C 268.667 224, 268 223.333, 268 222 C 268 220.667, 267.333 220, 266 220 C 264.667 220, 264 219.333, 264 218 C 264 216.667, 263.333 216, 262 216 C 260.667 216, 260 215.333, 260 214 C 260 212.333, 260.667 212, 264 212 C 267.333 212, 268 211.667, 268 210 C 268 208.667, 267.333 208, 266 208 C 264.667 208, 264 207.333, 264 206 C 264 204.133, 263.333 204, 254 204 C 244.667 204, 244 204.133, 244 206 C 244 207.667, 243.333 208, 240 208 C 236.667 208, 236 207.667, 236 206 C 236 204.667, 235.333 204, 234 204 C 232.222 204, 232 204.667, 232 210 M 244 210 C 244 211.833, 244.667 212, 252 212 C 259.333 212, 260 211.833, 260 210 C 260 208.167, 259.333 208, 252 208 C 244.667 208, 244 208.167, 244 210" stroke="none" fill="black" fill-rule="evenodd"/>
	<path fill-opacity="0.510" d="M 232 210 C 232 215.333, 231.778 216, 230 216 C 228.667 216, 228 216.667, 228 218 C 228 219.333, 228.667 220, 230 220 C 231.333 220, 232 219.333, 232 218 C 232 216.667, 232.667 216, 234 216 C 235.333 216, 236 215.333, 236 214 C 236 212.333, 236.667 212, 240 212 C 243.333 212, 244 211.667, 244 210 C 244 208.167, 244.667 208, 252 208 C 259.333 208, 260 208.167, 260 210 C 260 211.667, 259.333 212, 256 212 C 252.667 212, 252 212.333, 252 214 C 252 215.667, 252.667 216, 256 216 C 259.333 216, 260 216.333, 260 218 C 260 219.333, 260.667 220, 262 220 C 263.333 220, 264 220.667, 264 222 C 264 223.333, 264.667 224, 266 224 C 267.667 224, 268 224.667, 268 228 C 268 231.333, 268.333 232, 270 232 C 271.667 232, 272 232.667, 272 236 C 272 239.333, 271.667 240, 270 240 C 268.667 240, 268 239.333, 268 238 C 268 236.667, 267.333 236, 266 236 C 264.667 236, 264 235.333, 264 234 C 264 232.667, 263.333 232, 262 232 C 260.667 232, 260 232.667, 260 234 C 260 235.333, 260.667 236, 262 236 C 263.889 236, 264 236.667, 264 248 C 264 259.333, 263.889 260, 262 260 C 260.222 260, 260 260.667, 260 266 C 260 271.333, 260.222 272, 262 272 C 263.667 272, 264 272.667, 264 276 C 264 279.333, 264.333 280, 266 280 C 267.333 280, 268 280.667, 268 282 C 268 283.778, 267.333 284, 262 284 C 256.667 284, 256 283.778, 256 282 C 256 280.667, 255.333 280, 254 280 C 252.667 280, 252 279.333, 252 278 C 252 276.667, 251.333 276, 250 276 C 248.667 276, 248 276.667, 248 278 C 248 279.333, 248.667 280, 250 280 C 251.333 280, 252 280.667, 252 282 C 252 283.333, 252.667 284, 254 284 C 255.333 284, 256 284.667, 256 286 C 256 287.867, 256.667 288, 266 288 C 275.333 288, 276 287.867, 276 286 C 276 284.667, 275.333 284, 274 284 C 272.667 284, 272 283.333, 272 282 C 272 280.667, 271.333 280, 270 280 C 268.333 280, 268 279.333, 268 276 C 268 272.667, 267.667 272, 266 272 C 264.222 272, 264 271.333, 264 266 C 264 260.667, 264.222 260, 266 260 C 267.833 260, 268 259.333, 268 252 C 268 244.667, 268.167 244, 270 244 C 271.333 244, 272 244.667, 272 246 C 272 247.333, 272.667 248, 274 248 C 275.833 248, 276 247.333, 276 240 C 276 232.667, 275.833 232, 274 232 C 272.333 232, 272 231.333, 272 228 C 272 224.667, 271.667 224, 270 224 C 268.667 224, 268 223.333, 268 222 C 268 220.667, 267.333 220, 266 220 C 264.667 220, 264 219.333, 264 218 C 264 216.667, 263.333 216, 262 216 C 260.667 216, 260 215.333, 260 214 C 260 212.333, 260.667 212, 264 212 C 267.333 212, 268 211.667, 268 210 C 268 208.667, 267.333 208, 266 208 C 264.667 208, 264 207.333, 264 206 C 264 204.133, 263.333 204, 254 204 C 244.667 204, 244 204.133, 244 206 C 244 207.667, 243.333 208, 240 208 C 236.667 208, 236 207.667, 236 206 C 236 204.667, 235.333 204, 234 204 C 232.222 204, 232 204.667, 232 210" stroke="none" fill="black" fill-rule="evenodd"/>
</svg>