<svg xmlns="http://www.w3.org/2000/svg" width="400" height="400" viewBox="0 0 400 400" version="1.1">
	<path fill-opacity="0.561" d="M 244 206 C 244 207.667, 243.333 208, 240 208 C 236.667 208, 236 208.333, 236 210 C 236 211.333, 235.333 212, 234 212 C 232.667 212, 232 212.667, 232 214 C 232 215.333, 231.333 216, 230 216 C 228.667 216, 228 216.667, 228 218 C 228 219.333, 228.667 220, 230 220 C 231.333 220, 232 219.333, 232 218 C 232 216.667, 232.667 216, 234 216 C 235.333 216, 236 215.333, 236 214 C 236 212.333, 236.667 212, 240 212 L 244 212 244 216 C 244 219.333, 243.667 220, 242 220 C 240.667 220, 240 220.667, 240 222 C 240 223.333, 239.333 224, 238 224 C 236.667 224, 236 224.667, 236 226 C 236 227.667, 236.667 228, 240 228 C 243.333 228, 244 227.667, 244 226 C 244 224.667, 244.667 224, 246 224 C 247.833 224, 248 224.667, 248 232 C 248 239.333, 248.167 240, 250 240 C 251.889 240, 252 240.667, 252 252 C 252 263.333, 252.111 264, 254 264 C 255.333 264, 256 264.667, 256 266 C 256 267.333, 256.667 268, 258 268 C 259.867 268, 260 268.667, 260 278 C 260 287.333, 260.133 288, 262 288 C 263.333 288, 264 288.667, 264 290 C 264 291.333, 264.667 292, 266 292 C 267.333 292, 268 291.333, 268 290 C 268 288.667, 268.667 288, 270 288 C 271.333 288, 272 288.667, 272 290 C 272 291.667, 272.667 292, 276 292 C 279.333 292, 280 291.667, 280 290 C 280 288.667, 280.667 288, 282 288 C 283.778 288, 284 287.333, 284 282 L 284 276 280 276 L 276 276 276 272 C 276 268.667, 276.333 268, 278 268 C 279.333 268, 280 267.333, 280 266 C 280 264.667, 280.667 264, 282 264 C 283.833 264, 284 263.333, 284 256 C 284 248.667, 284.167 248, 286 248 C 287.778 248, 288 247.333, 288 242 C 288 236.667, 287.778 236, 286 236 C 284.667 236, 284 235.333, 284 234 C 284 232.667, 283.333 232, 282 232 C 280.167 232, 280 231.333, 280 224 C 280 216.667, 279.833 216, 278 216 C 276.667 216, 276 215.333, 276 214 C 276 212.667, 275.333 212, 274 212 C 272.667 212, 272 211.333, 272 210 C 272 208.667, 271.333 208, 270 208 C 268.667 208, 268 207.333, 268 206 C 268 204.111, 267.333 204, 256 204 C 244.667 204, 244 204.111, 244 206 M 252 210 C 252 211.333, 251.333 212, 250 212 C 248.333 212, 248 212.667, 248 216 L 248 220 252 220 C 255.333 220, 256 220.333, 256 222 C 256 223.778, 256.667 224, 262 224 C 267.333 224, 268 223.778, 268 222 C 268 220.667, 268.667 220, 270 220 C 271.667 220, 272 219.333, 272 216 C 272 212.667, 271.667 212, 270 212 C 268.667 212, 268 211.333, 268 210 C 268 208.167, 267.333 208, 260 208 C 252.667 208, 252 208.167, 252 210 M 260 234 C 260 239.333, 260.222 240, 262 240 C 263.333 240, 264 240.667, 264 242 C 264 243.778, 264.667 244, 270 244 C 275.333 244, 276 243.778, 276 242 C 276 240.667, 276.667 240, 278 240 C 279.667 240, 280 239.333, 280 236 C 280 232.667, 279.667 232, 278 232 C 276.667 232, 276 231.333, 276 230 C 276 228.167, 275.333 228, 268 228 L 260 228 260 234 M 264 252 C 264 255.333, 264.333 256, 266 256 C 267.333 256, 268 256.667, 268 258 C 268 259.667, 268.667 260, 272 260 L 276 260 276 256 C 276 252.667, 275.667 252, 274 252 C 272.667 252, 272 251.333, 272 250 C 272 248.333, 271.333 248, 268 248 L 264 248 264 252" stroke="none" fill="black" fill-rule="evenodd"/>
	<path fill-opacity="0.044" d="M 244 206 C 244 207.667, 243.333 208, 240 208 C 236.667 208, 236 208.333, 236 210 C 236 211.333, 235.333 212, 234 212 C 232.667 212, 232 212.667, 232 214 C 232 215.333, 231.333 216, 230 216 C 228.667 216, 228 216.667, 228 218 C 228 219.333, 228.667 220, 230 220 C 231.333 220, 232 219.333, 232 218 C 232 216.667, 232.667 216, 234 216 C 235.333 216, 236 215.333, 236 214 C 236 212.333, 236.667 212, 240 212 C 243.333 212, 244 211.667, 244 210 C 244 208.111, 244.667 208, 256 208 C 267.333 208, 268 208.111, 268 210 C 268 211.333, 268.667 212, 270 212 C 271.333 212, 272 212.667, 272 214 C 272 215.333, 272.667 216, 274 216 C 275.667 216, 276 216.667, 276 220 C 276 223.333, 275.667 224, 274 224 C 272.667 224, 272 224.667, 272 226 C 272 227.333, 272.667 228, 274 228 C 275.333 228, 276 228.667, 276 230 C 276 231.333, 276.667 232, 278 232 C 279.333 232, 280 232.667, 280 234 C 280 235.333, 280.667 236, 282 236 C 283.778 236, 284 236.667, 284 242 C 284 247.333, 283.778 248, 282 248 C 280.667 248, 280 248.667, 280 250 C 280 251.333, 279.333 252, 278 252 C 276.667 252, 276 252.667, 276 254 C 276 255.333, 276.667 256, 278 256 C 279.667 256, 280 256.667, 280 260 C 280 263.333, 279.667 264, 278 264 C 276.667 264, 276 264.667, 276 266 C 276 267.833, 275.333 268, 268 268 C 260.667 268, 260 267.833, 260 266 C 260 264.667, 259.333 264, 258 264 C 256.133 264, 256 263.333, 256 254 C 256 244.667, 256.133 244, 258 244 C 259.667 244, 260 244.667, 260 248 C 260 251.333, 260.333 252, 262 252 C 263.333 252, 264 251.333, 264 250 C 264 248.667, 264.667 248, 266 248 C 267.333 248, 268 247.333, 268 246 C 268 244.333, 267.333 244, 264 244 C 260.667 244, 260 243.667, 260 242 C 260 240.333, 259.333 240, 256 240 L 252 240 252 232 C 252 224.667, 252.167 224, 254 224 C 255.667 224, 256 224.667, 256 228 C 256 231.333, 256.333 232, 258 232 C 259.333 232, 260 231.333, 260 230 C 260 228.667, 260.667 228, 262 228 C 263.333 228, 264 227.333, 264 226 C 264 224.333, 263.333 224, 260 224 C 256.667 224, 256 223.667, 256 222 C 256 220.222, 255.333 220, 250 220 C 244.667 220, 244 220.222, 244 222 C 244 223.333, 243.333 224, 242 224 C 240.667 224, 240 224.667, 240 226 C 240 227.333, 240.667 228, 242 228 C 243.333 228, 244 227.333, 244 226 C 244 224.667, 244.667 224, 246 224 C 247.833 224, 248 224.667, 248 232 C 248 239.333, 248.167 240, 250 240 C 251.889 240, 252 240.667, 252 252 C 252 263.333, 252.111 264, 254 264 C 255.333 264, 256 264.667, 256 266 C 256 267.333, 256.667 268, 258 268 C 259.867 268, 260 268.667, 260 278 C 260 287.333, 260.133 288, 262 288 C 263.333 288, 264 288.667, 264 290 C 264 291.333, 264.667 292, 266 292 C 267.333 292, 268 291.333, 268 290 C 268 288.667, 268.667 288, 270 288 C 271.333 288, 272 288.667, 272 290 C 272 291.667, 272.667 292, 276 292 C 279.333 292, 280 291.667, 280 290 C 280 288.667, 280.667 288, 282 288 C 283.778 288, 284 287.333, 284 282 L 284 276 280 276 L 276 276 276 272 C 276 268.667, 276.333 268, 278 268 C 279.333 268, 280 267.333, 280 266 C 280 264.667, 280.667 264, 282 264 C 283.833 264, 284 263.333, 284 256 C 284 248.667, 284.167 248, 286 248 C 287.778 248, 288 247.333, 288 242 C 288 236.667, 287.778 236, 286 236 C 284.667 236, 284 235.333, 284 234 C 284 232.667, 283.333 232, 282 232 C 280.167 232, 280 231.333, 280 224 C 280 216.667, 279.833 216, 278 216 C 276.667 216, 276 215.333, 276 214 C 276 212.667, 275.333 212, 274 212 C 272.667 212, 272 211.333, 272 210 C 272 208.667, 271.333 208, 270 208 C 268.667 208, 268 207.333, 268 206 C 268 204.111, 267.333 204, 256 204 C 244.667 204, 244 204.111, 244 206 M 272 278 C 272 279.667, 271.333 280, 268 280 L 264 280 264 284 C 264 287.333, 264.333 288, 266 288 C 267.333 288, 268 287.333, 268 286 C 268 284.667, 268.667 284, 270 284 C 271.333 284, 272 284.667, 272 286 C 272 287.667, 272.667 288, 276 288 L 280 288 280 284 C 280 280.667, 279.667 280, 278 280 C 276.667 280, 276 279.333, 276 278 C 276 276.667, 275.333 276, 274 276 C 272.667 276, 272 276.667, 272 278" stroke="none" fill="black" fill-rule="evenodd"/>
	<path fill-opacity="0.094" d="M 260.190 275.750 L 260.500 279.500 266.250 279.800 C 271.478 280.073, 272 279.914, 272 278.050 C 272 276.667, 272.650 276, 274 276 C 275.333 276, 276 275.333, 276 274 C 276 272.165, 275.333 272, 267.940 272 L 259.879 272 260.190 275.750" stroke="none" fill="black" fill-rule="evenodd"/>
	<path fill-opacity="0.773" d="M 272 274 C 272 275.780, 271.333 276, 265.927 276 C 260.682 276, 259.899 276.239, 260.186 277.750 C 260.449 279.130, 261.732 279.563, 266.260 279.800 C 271.477 280.073, 272 279.913, 272 278.050 C 272 276.667, 272.650 276, 274 276 C 275.333 276, 276 275.333, 276 274 C 276 272.667, 275.333 272, 274 272 C 272.667 272, 272 272.667, 272 274" stroke="none" fill="black" fill-rule="evenodd"/>
</svg>