<svg xmlns="http://www.w3.org/2000/svg" width="400" height="400" viewBox="0 0 400 400" version="1.1">
	<path fill-opacity="0.494" d="M 244 206 C 244 207.667, 243.333 208, 240 208 C 236.667 208, 236 208.333, 236 210 C 236 211.667, 235.333 212, 232 212 L 228 212 228 216 C 228 219.333, 228.333 220, 230 220 C 231.333 220, 232 220.667, 232 222 C 232 223.333, 232.667 224, 234 224 C 235.333 224, 236 224.667, 236 226 C 236 227.333, 236.667 228, 238 228 C 239.333 228, 240 227.333, 240 226 C 240 224.667, 240.667 224, 242 224 C 243.333 224, 244 223.333, 244 222 C 244 220.333, 244.667 220, 248 220 C 251.333 220, 252 219.667, 252 218 C 252 216.667, 252.667 216, 254 216 C 255.667 216, 256 216.667, 256 220 C 256 223.333, 256.333 224, 258 224 C 259.667 224, 260 224.667, 260 228 C 260 231.333, 259.667 232, 258 232 C 256.333 232, 256 232.667, 256 236 L 256 240 260 240 L 264 240 264 244 C 264 247.333, 263.667 248, 262 248 C 260.333 248, 260 248.667, 260 252 C 260 255.333, 259.667 256, 258 256 C 256.167 256, 256 256.667, 256 264 C 256 271.333, 256.167 272, 258 272 C 259.333 272, 260 271.333, 260 270 C 260 268.667, 260.667 268, 262 268 C 263.867 268, 264 268.667, 264 278 C 264 287.333, 264.133 288, 266 288 C 267.333 288, 268 288.667, 268 290 C 268 291.333, 268.667 292, 270 292 C 271.333 292, 272 292.667, 272 294 C 272 295.833, 272.667 296, 280 296 C 287.333 296, 288 295.833, 288 294 C 288 292.667, 288.667 292, 290 292 C 291.333 292, 292 292.667, 292 294 C 292 295.333, 292.667 296, 294 296 C 295.333 296, 296 296.667, 296 298 C 296 299.333, 296.667 300, 298 300 C 299.778 300, 300 299.333, 300 294 L 300 288 306 288 L 312 288 312 282 C 312 276.667, 311.778 276, 310 276 C 308.667 276, 308 275.333, 308 274 C 308 272.667, 308.667 272, 310 272 C 311.833 272, 312 271.333, 312 264 C 312 256.667, 311.833 256, 310 256 C 308.667 256, 308 256.667, 308 258 C 308 259.333, 307.333 260, 306 260 C 304.667 260, 304 260.667, 304 262 C 304 263.833, 303.333 264, 296 264 L 288 264 288 256 C 288 248.667, 288.167 248, 290 248 C 291.889 248, 292 247.333, 292 236 C 292 224.667, 291.889 224, 290 224 C 288.333 224, 288 223.333, 288 220 C 288 216.667, 287.667 216, 286 216 C 284.667 216, 284 215.333, 284 214 C 284 212.667, 283.333 212, 282 212 C 280.667 212, 280 211.333, 280 210 C 280 208.333, 279.333 208, 276 208 C 272.667 208, 272 207.667, 272 206 C 272 204.095, 271.333 204, 258 204 C 244.667 204, 244 204.095, 244 206 M 244 210 C 244 211.333, 243.333 212, 242 212 C 240.667 212, 240 212.667, 240 214 C 240 215.667, 240.667 216, 244 216 C 247.333 216, 248 215.667, 248 214 C 248 212.111, 248.667 212, 260 212 C 271.333 212, 272 212.111, 272 214 C 272 215.333, 272.667 216, 274 216 C 275.333 216, 276 216.667, 276 218 C 276 219.333, 276.667 220, 278 220 C 279.667 220, 280 219.333, 280 216 L 280 212 276 212 C 272.667 212, 272 211.667, 272 210 C 272 208.095, 271.333 208, 258 208 C 244.667 208, 244 208.095, 244 210 M 264 238 C 264 239.333, 264.667 240, 266 240 C 267.333 240, 268 239.333, 268 238 C 268 236.667, 267.333 236, 266 236 C 264.667 236, 264 236.667, 264 238 M 264 266 C 264 267.333, 264.667 268, 266 268 C 267.333 268, 268 267.333, 268 266 C 268 264.667, 267.333 264, 266 264 C 264.667 264, 264 264.667, 264 266" stroke="none" fill="black" fill-rule="evenodd"/>
	<path fill-opacity="0.132" d="M 244 206 C 244 207.667, 243.333 208, 240 208 C 236.667 208, 236 208.333, 236 210 C 236 211.667, 235.333 212, 232 212 C 228.667 212, 228 212.333, 228 214 C 228 215.667, 228.667 216, 232 216 C 235.333 216, 236 215.667, 236 214 C 236 212.333, 236.667 212, 240 212 C 243.333 212, 244 211.667, 244 210 C 244 208.095, 244.667 208, 258 208 C 271.333 208, 272 208.095, 272 210 C 272 211.667, 272.667 212, 276 212 C 279.333 212, 280 212.333, 280 214 C 280 215.333, 280.667 216, 282 216 C 283.667 216, 284 216.667, 284 220 C 284 223.333, 284.333 224, 286 224 C 287.889 224, 288 224.667, 288 236 C 288 247.333, 287.889 248, 286 248 C 284.133 248, 284 247.333, 284 238 C 284 228.667, 283.867 228, 282 228 C 280.333 228, 280 227.333, 280 224 C 280 220.667, 279.667 220, 278 220 C 276.667 220, 276 219.333, 276 218 C 276 216.333, 275.333 216, 272 216 C 268.667 216, 268 215.667, 268 214 C 268 212.167, 267.333 212, 260 212 C 252.667 212, 252 212.167, 252 214 C 252 215.667, 251.333 216, 248 216 C 244.667 216, 244 216.333, 244 218 C 244 219.333, 243.333 220, 242 220 C 240.667 220, 240 220.667, 240 222 C 240 223.333, 239.333 224, 238 224 C 236.667 224, 236 224.667, 236 226 C 236 227.333, 236.667 228, 238 228 C 239.333 228, 240 227.333, 240 226 C 240 224.667, 240.667 224, 242 224 C 243.333 224, 244 223.333, 244 222 C 244 220.333, 244.667 220, 248 220 C 251.333 220, 252 219.667, 252 218 C 252 216.667, 252.667 216, 254 216 C 255.667 216, 256 216.667, 256 220 C 256 223.333, 256.333 224, 258 224 C 259.667 224, 260 224.667, 260 228 C 260 231.333, 259.667 232, 258 232 C 256.333 232, 256 232.667, 256 236 L 256 240 260 240 L 264 240 264 244 C 264 247.333, 263.667 248, 262 248 C 260.333 248, 260 248.667, 260 252 C 260 255.333, 259.667 256, 258 256 C 256.167 256, 256 256.667, 256 264 C 256 271.333, 256.167 272, 258 272 C 259.333 272, 260 271.333, 260 270 C 260 268.667, 260.667 268, 262 268 C 263.867 268, 264 268.667, 264 278 C 264 287.333, 264.133 288, 266 288 C 267.333 288, 268 288.667, 268 290 C 268 291.333, 268.667 292, 270 292 C 271.333 292, 272 292.667, 272 294 C 272 295.833, 272.667 296, 280 296 C 287.333 296, 288 295.833, 288 294 C 288 292.667, 288.667 292, 290 292 C 291.333 292, 292 292.667, 292 294 C 292 295.333, 292.667 296, 294 296 C 295.333 296, 296 296.667, 296 298 C 296 299.333, 296.667 300, 298 300 C 299.778 300, 300 299.333, 300 294 L 300 288 306 288 L 312 288 312 282 C 312 276.667, 311.778 276, 310 276 C 308.667 276, 308 275.333, 308 274 C 308 272.667, 308.667 272, 310 272 C 311.833 272, 312 271.333, 312 264 C 312 256.667, 311.833 256, 310 256 C 308.667 256, 308 256.667, 308 258 C 308 259.333, 307.333 260, 306 260 C 304.667 260, 304 260.667, 304 262 C 304 263.833, 303.333 264, 296 264 L 288 264 288 256 C 288 248.667, 288.167 248, 290 248 C 291.889 248, 292 247.333, 292 236 C 292 224.667, 291.889 224, 290 224 C 288.333 224, 288 223.333, 288 220 C 288 216.667, 287.667 216, 286 216 C 284.667 216, 284 215.333, 284 214 C 284 212.667, 283.333 212, 282 212 C 280.667 212, 280 211.333, 280 210 C 280 208.333, 279.333 208, 276 208 C 272.667 208, 272 207.667, 272 206 C 272 204.095, 271.333 204, 258 204 C 244.667 204, 244 204.095, 244 206 M 264 238 C 264 239.333, 264.667 240, 266 240 C 267.333 240, 268 239.333, 268 238 C 268 236.667, 267.333 236, 266 236 C 264.667 236, 264 236.667, 264 238 M 280 256 C 280 263.333, 280.167 264, 282 264 C 283.333 264, 284 264.667, 284 266 C 284 267.333, 284.667 268, 286 268 C 287.333 268, 288 267.333, 288 266 C 288 264.667, 287.333 264, 286 264 C 284.167 264, 284 263.333, 284 256 C 284 248.667, 283.833 248, 282 248 C 280.167 248, 280 248.667, 280 256 M 264 266 C 264 267.333, 264.667 268, 266 268 C 267.333 268, 268 267.333, 268 266 C 268 264.667, 267.333 264, 266 264 C 264.667 264, 264 264.667, 264 266" stroke="none" fill="black" fill-rule="evenodd"/>
	<path fill-opacity="0.080" d="M 244 206 C 244 207.667, 243.333 208, 240 208 C 236.667 208, 236 208.333, 236 210 C 236 211.667, 235.333 212, 232 212 C 228.667 212, 228 212.333, 228 214 C 228 215.667, 228.667 216, 232 216 C 235.333 216, 236 215.667, 236 214 C 236 212.333, 236.667 212, 240 212 C 243.333 212, 244 211.667, 244 210 C 244 208.095, 244.667 208, 258 208 C 271.333 208, 272 208.095, 272 210 C 272 211.667, 272.667 212, 276 212 C 279.333 212, 280 212.333, 280 214 C 280 215.333, 280.667 216, 282 216 C 283.667 216, 284 216.667, 284 220 C 284 223.333, 284.333 224, 286 224 C 287.889 224, 288 224.667, 288 236 C 288 247.333, 287.889 248, 286 248 C 284.133 248, 284 247.333, 284 238 C 284 228.667, 283.867 228, 282 228 C 280.333 228, 280 227.333, 280 224 C 280 220.667, 279.667 220, 278 220 C 276.667 220, 276 219.333, 276 218 C 276 216.333, 275.333 216, 272 216 C 268.667 216, 268 215.667, 268 214 C 268 212.167, 267.333 212, 260 212 C 252.667 212, 252 212.167, 252 214 C 252 215.667, 251.333 216, 248 216 C 244.667 216, 244 216.333, 244 218 C 244 219.333, 243.333 220, 242 220 C 240.667 220, 240 220.667, 240 222 C 240 223.333, 239.333 224, 238 224 C 236.667 224, 236 224.667, 236 226 C 236 227.333, 236.667 228, 238 228 C 239.333 228, 240 227.333, 240 226 C 240 224.667, 240.667 224, 242 224 C 243.333 224, 244 223.333, 244 222 C 244 220.333, 244.667 220, 248 220 C 251.333 220, 252 219.667, 252 218 C 252 216.667, 252.667 216, 254 216 C 255.667 216, 256 216.667, 256 220 C 256 223.333, 256.333 224, 258 224 C 259.333 224, 260 224.667, 260 226 C 260 227.667, 260.667 228, 264 228 L 268 228 268 232 L 268 236 272 236 L 276 236 276 242 C 276 247.333, 275.778 248, 274 248 C 272.667 248, 272 248.667, 272 250 C 272 251.333, 271.333 252, 270 252 C 268.333 252, 268 252.667, 268 256 C 268 259.333, 267.667 260, 266 260 C 264.667 260, 264 260.667, 264 262 C 264 263.667, 263.333 264, 260 264 L 256 264 256 268 C 256 271.333, 256.333 272, 258 272 C 259.333 272, 260 271.333, 260 270 C 260 268.667, 260.667 268, 262 268 C 263.333 268, 264 267.333, 264 266 C 264 264.222, 264.667 264, 270 264 L 276 264 276 268 C 276 271.333, 276.333 272, 278 272 C 279.333 272, 280 271.333, 280 270 C 280 268.667, 280.667 268, 282 268 C 283.333 268, 284 268.667, 284 270 C 284 271.667, 284.667 272, 288 272 L 292 272 292 276 L 292 280 288 280 C 284.667 280, 284 279.667, 284 278 C 284 276.667, 283.333 276, 282 276 C 280.333 276, 280 276.667, 280 280 L 280 284 274 284 C 268.667 284, 268 283.778, 268 282 C 268 280.667, 267.333 280, 266 280 C 264.333 280, 264 280.667, 264 284 C 264 287.333, 264.333 288, 266 288 C 267.333 288, 268 288.667, 268 290 C 268 291.333, 268.667 292, 270 292 C 271.333 292, 272 292.667, 272 294 C 272 295.833, 272.667 296, 280 296 C 287.333 296, 288 295.833, 288 294 C 288 292.667, 288.667 292, 290 292 C 291.333 292, 292 292.667, 292 294 C 292 295.333, 292.667 296, 294 296 C 295.333 296, 296 296.667, 296 298 C 296 299.333, 296.667 300, 298 300 C 299.778 300, 300 299.333, 300 294 L 300 288 306 288 L 312 288 312 282 C 312 276.667, 311.778 276, 310 276 C 308.667 276, 308 275.333, 308 274 C 308 272.667, 308.667 272, 310 272 C 311.833 272, 312 271.333, 312 264 C 312 256.667, 311.833 256, 310 256 C 308.667 256, 308 256.667, 308 258 C 308 259.333, 307.333 260, 306 260 C 304.667 260, 304 260.667, 304 262 C 304 263.833, 303.333 264, 296 264 L 288 264 288 256 C 288 248.667, 288.167 248, 290 248 C 291.889 248, 292 247.333, 292 236 C 292 224.667, 291.889 224, 290 224 C 288.333 224, 288 223.333, 288 220 C 288 216.667, 287.667 216, 286 216 C 284.667 216, 284 215.333, 284 214 C 284 212.667, 283.333 212, 282 212 C 280.667 212, 280 211.333, 280 210 C 280 208.333, 279.333 208, 276 208 C 272.667 208, 272 207.667, 272 206 C 272 204.095, 271.333 204, 258 204 C 244.667 204, 244 204.095, 244 206 M 280 256 C 280 263.333, 280.167 264, 282 264 C 283.333 264, 284 264.667, 284 266 C 284 267.333, 284.667 268, 286 268 C 287.333 268, 288 267.333, 288 266 C 288 264.667, 287.333 264, 286 264 C 284.167 264, 284 263.333, 284 256 C 284 248.667, 283.833 248, 282 248 C 280.167 248, 280 248.667, 280 256" stroke="none" fill="black" fill-rule="evenodd"/>
	<path fill-opacity="0.107" d="M 256 220 C 256 223.333, 256.333 224, 258 224 C 259.333 224, 260 224.667, 260 226 C 260 227.667, 260.667 228, 264 228 L 268 228 268 232 L 268 236 272 236 L 276 236 276 242 C 276 247.333, 275.778 248, 274 248 C 272.667 248, 272 248.667, 272 250 C 272 251.333, 271.333 252, 270 252 C 268.333 252, 268 252.667, 268 256 C 268 259.333, 267.667 260, 266 260 C 264.667 260, 264 260.667, 264 262 C 264 263.667, 263.333 264, 260 264 L 256 264 256 268 C 256 271.333, 256.333 272, 258 272 C 259.333 272, 260 271.333, 260 270 C 260 268.667, 260.667 268, 262 268 C 263.333 268, 264 267.333, 264 266 C 264 264.222, 264.667 264, 270 264 L 276 264 276 268 C 276 271.333, 276.333 272, 278 272 C 279.667 272, 280 271.333, 280 268 C 280 264.667, 279.667 264, 278 264 C 276.167 264, 276 263.333, 276 256 C 276 248.667, 276.167 248, 278 248 C 279.867 248, 280 247.333, 280 238 C 280 228.667, 279.867 228, 278 228 C 276.333 228, 276 227.333, 276 224 L 276 220 272 220 C 268.667 220, 268 219.667, 268 218 C 268 216.222, 267.333 216, 262 216 L 256 216 256 220 M 308 258 C 308 259.333, 307.333 260, 306 260 C 304.667 260, 304 260.667, 304 262 C 304 263.333, 303.333 264, 302 264 C 300.667 264, 300 264.667, 300 266 C 300 267.333, 299.333 268, 298 268 C 296.667 268, 296 268.667, 296 270 C 296 271.333, 295.333 272, 294 272 C 292.333 272, 292 272.667, 292 276 L 292 280 288 280 C 284.667 280, 284 279.667, 284 278 C 284 276.667, 283.333 276, 282 276 C 280.333 276, 280 276.667, 280 280 L 280 284 274 284 C 268.667 284, 268 283.778, 268 282 C 268 280.667, 267.333 280, 266 280 C 264.333 280, 264 280.667, 264 284 C 264 287.333, 264.333 288, 266 288 C 267.333 288, 268 288.667, 268 290 C 268 291.333, 268.667 292, 270 292 C 271.333 292, 272 292.667, 272 294 C 272 295.833, 272.667 296, 280 296 C 287.333 296, 288 295.833, 288 294 C 288 292.667, 288.667 292, 290 292 C 291.333 292, 292 292.667, 292 294 C 292 295.333, 292.667 296, 294 296 C 295.333 296, 296 296.667, 296 298 C 296 299.333, 296.667 300, 298 300 C 299.778 300, 300 299.333, 300 294 L 300 288 306 288 L 312 288 312 282 C 312 276.667, 311.778 276, 310 276 C 308.667 276, 308 275.333, 308 274 C 308 272.667, 308.667 272, 310 272 C 311.833 272, 312 271.333, 312 264 C 312 256.667, 311.833 256, 310 256 C 308.667 256, 308 256.667, 308 258" stroke="none" fill="black" fill-rule="evenodd"/>
</svg>